<svg width="94" height="98" viewBox="0 0 94 98" fill="none" xmlns="http://www.w3.org/2000/svg">
<g filter="url(#filter0_d_509_335)">
<rect x="2" width="90" height="90" rx="14" fill="white"/>
<path d="M32.8571 16.5893L35.4314 45.4598L46.9824 48.6661L58.5657 45.4556L61.1428 16.5893H47H32.8571ZM54.9376 32.6968L54.1879 39.6811L54.1907 40.2793L47 42.2876L46.9942 42.2927L39.7461 40.3067L39.2557 34.7743H42.8101L43.0621 37.571L47.0012 38.6222L47 38.627V38.6168L50.9541 37.5018L51.3714 32.8601H43.1061L43.0353 32.1088L42.8739 30.3072L42.7893 29.3507H51.686L52.0095 25.8413H38.4591L38.3879 25.0153L38.2265 23.0915L38.1419 22.0129H55.8794L55.7942 23.0766L54.9376 32.6968Z" fill="#1572B6"/>
<path d="M42.9588 66.3281H41.0923C41.0582 66.0866 40.9886 65.8722 40.8835 65.6847C40.7784 65.4943 40.6435 65.3324 40.4787 65.1989C40.3139 65.0653 40.1236 64.9631 39.9077 64.892C39.6946 64.821 39.4631 64.7855 39.2131 64.7855C38.7614 64.7855 38.3679 64.8977 38.0327 65.1222C37.6974 65.3437 37.4375 65.6676 37.2528 66.0938C37.0682 66.517 36.9759 67.0312 36.9759 67.6364C36.9759 68.2585 37.0682 68.7812 37.2528 69.2045C37.4403 69.6278 37.7017 69.9474 38.0369 70.1634C38.3722 70.3793 38.7599 70.4872 39.2003 70.4872C39.4474 70.4872 39.6761 70.4545 39.8864 70.3892C40.0994 70.3239 40.2884 70.2287 40.4531 70.1037C40.6179 69.9759 40.7543 69.821 40.8622 69.6392C40.973 69.4574 41.0497 69.25 41.0923 69.017L42.9588 69.0256C42.9105 69.4261 42.7898 69.8125 42.5966 70.1847C42.4063 70.554 42.1491 70.8849 41.8253 71.1776C41.5043 71.4673 41.1207 71.6974 40.6747 71.8679C40.2315 72.0355 39.7301 72.1193 39.1705 72.1193C38.392 72.1193 37.696 71.9432 37.0824 71.5909C36.4716 71.2386 35.9886 70.7287 35.6335 70.0611C35.2812 69.3935 35.1051 68.5852 35.1051 67.6364C35.1051 66.6847 35.2841 65.875 35.642 65.2074C36 64.5398 36.4858 64.0312 37.0994 63.6818C37.7131 63.3295 38.4034 63.1534 39.1705 63.1534C39.6761 63.1534 40.1449 63.2244 40.5767 63.3665C41.0114 63.5085 41.3963 63.7159 41.7315 63.9886C42.0668 64.2585 42.3395 64.5895 42.5497 64.9815C42.7628 65.3736 42.8991 65.8224 42.9588 66.3281ZM48.7763 65.7827C48.7422 65.4389 48.5959 65.1719 48.3374 64.9815C48.0789 64.7912 47.728 64.696 47.2849 64.696C46.9837 64.696 46.7295 64.7386 46.5221 64.8239C46.3147 64.9062 46.1556 65.0213 46.0448 65.169C45.9368 65.3168 45.8829 65.4844 45.8829 65.6719C45.8772 65.8281 45.9099 65.9645 45.9809 66.081C46.0547 66.1974 46.1556 66.2983 46.2834 66.3835C46.4113 66.4659 46.559 66.5384 46.7266 66.6009C46.8942 66.6605 47.0732 66.7116 47.2636 66.7543L48.0476 66.9418C48.4283 67.027 48.7778 67.1406 49.0959 67.2827C49.4141 67.4247 49.6897 67.5994 49.9226 67.8068C50.1556 68.0142 50.336 68.2585 50.4638 68.5398C50.5945 68.821 50.6613 69.1435 50.6641 69.5071C50.6613 70.0412 50.5249 70.5043 50.255 70.8963C49.988 71.2855 49.6016 71.5881 49.0959 71.804C48.5931 72.017 47.9866 72.1236 47.2763 72.1236C46.5718 72.1236 45.9582 72.0156 45.4354 71.7997C44.9155 71.5838 44.5093 71.2642 44.2167 70.8409C43.9269 70.4148 43.7749 69.8878 43.7607 69.2599H45.5462C45.5661 69.5526 45.6499 69.7969 45.7976 69.9929C45.9482 70.1861 46.1485 70.3324 46.3985 70.4318C46.6513 70.5284 46.9368 70.5767 47.255 70.5767C47.5675 70.5767 47.8388 70.5312 48.0689 70.4403C48.3019 70.3494 48.4823 70.223 48.6101 70.0611C48.738 69.8991 48.8019 69.7131 48.8019 69.5028C48.8019 69.3068 48.7437 69.142 48.6272 69.0085C48.5136 68.875 48.3459 68.7614 48.1243 68.6676C47.9056 68.5739 47.6371 68.4886 47.3189 68.4119L46.3687 68.1733C45.6329 67.9943 45.0519 67.7145 44.6258 67.3338C44.1996 66.9531 43.988 66.4403 43.9908 65.7955C43.988 65.267 44.1286 64.8054 44.4127 64.4105C44.6996 64.0156 45.0931 63.7074 45.5931 63.4858C46.0931 63.2642 46.6613 63.1534 47.2976 63.1534C47.9454 63.1534 48.5107 63.2642 48.9937 63.4858C49.4795 63.7074 49.8573 64.0156 50.1272 64.4105C50.3971 64.8054 50.5363 65.2628 50.5448 65.7827H48.7763ZM56.3996 65.7827C56.3655 65.4389 56.2192 65.1719 55.9607 64.9815C55.7022 64.7912 55.3513 64.696 54.9081 64.696C54.607 64.696 54.3527 64.7386 54.1454 64.8239C53.938 64.9062 53.7789 65.0213 53.6681 65.169C53.5601 65.3168 53.5062 65.4844 53.5062 65.6719C53.5005 65.8281 53.5331 65.9645 53.6042 66.081C53.678 66.1974 53.7789 66.2983 53.9067 66.3835C54.0346 66.4659 54.1823 66.5384 54.3499 66.6009C54.5175 66.6605 54.6965 66.7116 54.8868 66.7543L55.6709 66.9418C56.0516 67.027 56.401 67.1406 56.7192 67.2827C57.0374 67.4247 57.313 67.5994 57.5459 67.8068C57.7789 68.0142 57.9593 68.2585 58.0871 68.5398C58.2178 68.821 58.2846 69.1435 58.2874 69.5071C58.2846 70.0412 58.1482 70.5043 57.8783 70.8963C57.6113 71.2855 57.2249 71.5881 56.7192 71.804C56.2164 72.017 55.6098 72.1236 54.8996 72.1236C54.1951 72.1236 53.5814 72.0156 53.0587 71.7997C52.5388 71.5838 52.1326 71.2642 51.84 70.8409C51.5502 70.4148 51.3982 69.8878 51.384 69.2599H53.1695C53.1894 69.5526 53.2732 69.7969 53.4209 69.9929C53.5715 70.1861 53.7718 70.3324 54.0218 70.4318C54.2746 70.5284 54.5601 70.5767 54.8783 70.5767C55.1908 70.5767 55.4621 70.5312 55.6922 70.4403C55.9252 70.3494 56.1056 70.223 56.2334 70.0611C56.3613 69.8991 56.4252 69.7131 56.4252 69.5028C56.4252 69.3068 56.3669 69.142 56.2505 69.0085C56.1368 68.875 55.9692 68.7614 55.7476 68.6676C55.5289 68.5739 55.2604 68.4886 54.9422 68.4119L53.9919 68.1733C53.2562 67.9943 52.6752 67.7145 52.249 67.3338C51.8229 66.9531 51.6113 66.4403 51.6141 65.7955C51.6113 65.267 51.7519 64.8054 52.036 64.4105C52.3229 64.0156 52.7164 63.7074 53.2164 63.4858C53.7164 63.2642 54.2846 63.1534 54.9209 63.1534C55.5687 63.1534 56.134 63.2642 56.6169 63.4858C57.1027 63.7074 57.4806 64.0156 57.7505 64.4105C58.0204 64.8054 58.1596 65.2628 58.1681 65.7827H56.3996Z" fill="black"/>
</g>
<defs>
<filter id="filter0_d_509_335" x="0" y="0" width="94" height="98" filterUnits="userSpaceOnUse" color-interpolation-filters="sRGB">
<feFlood flood-opacity="0" result="BackgroundImageFix"/>
<feColorMatrix in="SourceAlpha" type="matrix" values="0 0 0 0 0 0 0 0 0 0 0 0 0 0 0 0 0 0 127 0" result="hardAlpha"/>
<feMorphology radius="4" operator="erode" in="SourceAlpha" result="effect1_dropShadow_509_335"/>
<feOffset dy="6"/>
<feGaussianBlur stdDeviation="3"/>
<feComposite in2="hardAlpha" operator="out"/>
<feColorMatrix type="matrix" values="0 0 0 0 0 0 0 0 0 0 0 0 0 0 0 0 0 0 1 0"/>
<feBlend mode="normal" in2="BackgroundImageFix" result="effect1_dropShadow_509_335"/>
<feBlend mode="normal" in="SourceGraphic" in2="effect1_dropShadow_509_335" result="shape"/>
</filter>
</defs>
</svg>
