<svg width="94" height="98" viewBox="0 0 94 98" fill="none" xmlns="http://www.w3.org/2000/svg">
<g filter="url(#filter0_d_509_339)">
<rect x="2" width="90" height="90" rx="14" fill="white"/>
<rect x="30.5" y="16" width="33" height="33" rx="4" fill="#FFD600"/>
<path d="M54.9324 42.7761C55.4081 43.5488 55.9251 44.2893 57.0203 44.2893C57.9402 44.2893 58.4228 43.8321 58.4228 43.1996C58.4228 42.4426 57.9237 42.1738 56.9117 41.7331L56.3569 41.4966C54.7557 40.8174 53.6908 39.9663 53.6908 38.1685C53.6908 36.5116 54.9592 35.2507 56.9413 35.2507C58.3527 35.2507 59.3668 35.7395 60.0983 37.0196L58.3699 38.1245C57.9897 37.4452 57.5786 37.1778 56.9413 37.1778C56.2909 37.1778 55.8791 37.5882 55.8791 38.1245C55.8791 38.7872 56.2916 39.0553 57.2438 39.4658L57.7986 39.7023C59.6858 40.506 60.75 41.3268 60.75 43.1721C60.75 45.1603 59.1798 46.25 57.0719 46.25C55.0101 46.25 53.8393 45.2153 53.1875 43.9345L54.9324 42.7761ZM46.967 42.8324C47.3149 43.4553 47.8436 43.9345 48.6039 43.9345C49.3313 43.9345 49.75 43.6471 49.75 42.53V35.25H52.0414V42.882C52.0414 45.1968 50.6988 46.25 48.738 46.25C46.9663 46.25 45.6876 45.0496 45.1664 43.9345L46.967 42.8324Z" fill="#000001"/>
<path d="M14.2528 63.2727H16.0767V69.358C16.0767 69.9205 15.9503 70.4091 15.6974 70.8239C15.4474 71.2386 15.0994 71.5582 14.6534 71.7827C14.2074 72.0071 13.6889 72.1193 13.098 72.1193C12.5724 72.1193 12.0952 72.027 11.6662 71.8423C11.2401 71.6548 10.902 71.3707 10.652 70.9901C10.402 70.6065 10.2784 70.125 10.2812 69.5455H12.1179C12.1236 69.7756 12.1705 69.973 12.2585 70.1378C12.3494 70.2997 12.473 70.4247 12.6293 70.5128C12.7884 70.598 12.9759 70.6406 13.1918 70.6406C13.419 70.6406 13.6108 70.5923 13.767 70.4957C13.9261 70.3963 14.0469 70.2514 14.1293 70.0611C14.2116 69.8707 14.2528 69.6364 14.2528 69.358V63.2727ZM18.8665 72H16.8893L19.902 63.2727H22.2799L25.2884 72H23.3111L21.1251 65.267H21.0569L18.8665 72ZM18.743 68.5696H23.4134V70.0099H18.743V68.5696ZM26.5857 63.2727L28.6951 69.9034H28.776L30.8897 63.2727H32.9351L29.9266 72H27.5488L24.536 63.2727H26.5857ZM34.0897 72H32.1124L35.1252 63.2727H37.503L40.5115 72H38.5343L36.3482 65.267H36.28L34.0897 72ZM33.9661 68.5696H38.6365V70.0099H33.9661V68.5696ZM45.8571 65.7827C45.823 65.4389 45.6767 65.1719 45.4182 64.9815C45.1597 64.7912 44.8088 64.696 44.3656 64.696C44.0645 64.696 43.8102 64.7386 43.6029 64.8239C43.3955 64.9062 43.2364 65.0213 43.1256 65.169C43.0176 65.3168 42.9637 65.4844 42.9637 65.6719C42.958 65.8281 42.9906 65.9645 43.0617 66.081C43.1355 66.1974 43.2364 66.2983 43.3642 66.3835C43.4921 66.4659 43.6398 66.5384 43.8074 66.6009C43.975 66.6605 44.154 66.7116 44.3443 66.7543L45.1284 66.9418C45.5091 67.027 45.8585 67.1406 46.1767 67.2827C46.4949 67.4247 46.7705 67.5994 47.0034 67.8068C47.2364 68.0142 47.4168 68.2585 47.5446 68.5398C47.6753 68.821 47.7421 69.1435 47.7449 69.5071C47.7421 70.0412 47.6057 70.5043 47.3358 70.8963C47.0688 71.2855 46.6824 71.5881 46.1767 71.804C45.6739 72.017 45.0673 72.1236 44.3571 72.1236C43.6526 72.1236 43.0389 72.0156 42.5162 71.7997C41.9963 71.5838 41.5901 71.2642 41.2975 70.8409C41.0077 70.4148 40.8557 69.8878 40.8415 69.2599H42.627C42.6469 69.5526 42.7307 69.7969 42.8784 69.9929C43.029 70.1861 43.2293 70.3324 43.4793 70.4318C43.7321 70.5284 44.0176 70.5767 44.3358 70.5767C44.6483 70.5767 44.9196 70.5312 45.1497 70.4403C45.3827 70.3494 45.5631 70.223 45.6909 70.0611C45.8188 69.8991 45.8827 69.7131 45.8827 69.5028C45.8827 69.3068 45.8244 69.142 45.708 69.0085C45.5943 68.875 45.4267 68.7614 45.2051 68.6676C44.9864 68.5739 44.7179 68.4886 44.3997 68.4119L43.4494 68.1733C42.7137 67.9943 42.1327 67.7145 41.7065 67.3338C41.2804 66.9531 41.0688 66.4403 41.0716 65.7955C41.0688 65.267 41.2094 64.8054 41.4935 64.4105C41.7804 64.0156 42.1739 63.7074 42.6739 63.4858C43.1739 63.2642 43.7421 63.1534 44.3784 63.1534C45.0262 63.1534 45.5915 63.2642 46.0744 63.4858C46.5602 63.7074 46.9381 64.0156 47.208 64.4105C47.4779 64.8054 47.6171 65.2628 47.6256 65.7827H45.8571ZM56.4463 66.3281H54.5798C54.5457 66.0866 54.4761 65.8722 54.371 65.6847C54.2659 65.4943 54.131 65.3324 53.9662 65.1989C53.8014 65.0653 53.6111 64.9631 53.3952 64.892C53.1821 64.821 52.9506 64.7855 52.7006 64.7855C52.2489 64.7855 51.8554 64.8977 51.5202 65.1222C51.1849 65.3437 50.925 65.6676 50.7403 66.0938C50.5557 66.517 50.4634 67.0312 50.4634 67.6364C50.4634 68.2585 50.5557 68.7812 50.7403 69.2045C50.9278 69.6278 51.1892 69.9474 51.5244 70.1634C51.8597 70.3793 52.2474 70.4872 52.6878 70.4872C52.9349 70.4872 53.1636 70.4545 53.3739 70.3892C53.5869 70.3239 53.7759 70.2287 53.9406 70.1037C54.1054 69.9759 54.2418 69.821 54.3497 69.6392C54.4605 69.4574 54.5372 69.25 54.5798 69.017L56.4463 69.0256C56.398 69.4261 56.2773 69.8125 56.0841 70.1847C55.8937 70.554 55.6366 70.8849 55.3128 71.1776C54.9918 71.4673 54.6082 71.6974 54.1622 71.8679C53.719 72.0355 53.2176 72.1193 52.658 72.1193C51.8795 72.1193 51.1835 71.9432 50.5699 71.5909C49.9591 71.2386 49.4761 70.7287 49.121 70.0611C48.7687 69.3935 48.5926 68.5852 48.5926 67.6364C48.5926 66.6847 48.7716 65.875 49.1295 65.2074C49.4875 64.5398 49.9733 64.0312 50.5869 63.6818C51.2006 63.3295 51.8909 63.1534 52.658 63.1534C53.1636 63.1534 53.6324 63.2244 54.0642 63.3665C54.4989 63.5085 54.8838 63.7159 55.219 63.9886C55.5543 64.2585 55.827 64.5895 56.0372 64.9815C56.2503 65.3736 56.3866 65.8224 56.4463 66.3281ZM57.5295 72V63.2727H60.9726C61.6317 63.2727 62.1942 63.3906 62.6601 63.6264C63.1289 63.8594 63.4854 64.1903 63.7297 64.6193C63.9769 65.0455 64.1005 65.5469 64.1005 66.1236C64.1005 66.7031 63.9755 67.2017 63.7255 67.6193C63.4755 68.0341 63.1133 68.3523 62.6388 68.5739C62.1672 68.7955 61.5962 68.9062 60.9258 68.9062H58.6204V67.4233H60.6275C60.9797 67.4233 61.2724 67.375 61.5053 67.2784C61.7383 67.1818 61.9116 67.0369 62.0252 66.8438C62.1417 66.6506 62.1999 66.4105 62.1999 66.1236C62.1999 65.8338 62.1417 65.5895 62.0252 65.3906C61.9116 65.1918 61.7368 65.0412 61.5011 64.9389C61.2681 64.8338 60.9741 64.7812 60.619 64.7812H59.3746V72H57.5295ZM62.2425 68.0284L64.4116 72H62.3746L60.2525 68.0284H62.2425ZM67.0096 63.2727V72H65.1645V63.2727H67.0096ZM68.2877 72V63.2727H71.7309C72.3929 63.2727 72.9568 63.3991 73.4227 63.652C73.8886 63.902 74.2437 64.25 74.488 64.696C74.7352 65.1392 74.8588 65.6506 74.8588 66.2301C74.8588 66.8097 74.7338 67.321 74.4838 67.7642C74.2338 68.2074 73.8716 68.5526 73.3971 68.7997C72.9255 69.0469 72.3545 69.1705 71.6841 69.1705H69.4894V67.6918H71.3858C71.7409 67.6918 72.0335 67.6307 72.2636 67.5085C72.4966 67.3835 72.6698 67.2116 72.7835 66.9929C72.9 66.7713 72.9582 66.517 72.9582 66.2301C72.9582 65.9403 72.9 65.6875 72.7835 65.4716C72.6698 65.2528 72.4966 65.0838 72.2636 64.9645C72.0306 64.8423 71.7352 64.7812 71.3772 64.7812H70.1329V72H68.2877ZM75.4849 64.794V63.2727H82.6525V64.794H79.9806V72H78.1568V64.794H75.4849Z" fill="black"/>
</g>
<defs>
<filter id="filter0_d_509_339" x="0" y="0" width="94" height="98" filterUnits="userSpaceOnUse" color-interpolation-filters="sRGB">
<feFlood flood-opacity="0" result="BackgroundImageFix"/>
<feColorMatrix in="SourceAlpha" type="matrix" values="0 0 0 0 0 0 0 0 0 0 0 0 0 0 0 0 0 0 127 0" result="hardAlpha"/>
<feMorphology radius="4" operator="erode" in="SourceAlpha" result="effect1_dropShadow_509_339"/>
<feOffset dy="6"/>
<feGaussianBlur stdDeviation="3"/>
<feComposite in2="hardAlpha" operator="out"/>
<feColorMatrix type="matrix" values="0 0 0 0 0 0 0 0 0 0 0 0 0 0 0 0 0 0 1 0"/>
<feBlend mode="normal" in2="BackgroundImageFix" result="effect1_dropShadow_509_339"/>
<feBlend mode="normal" in="SourceGraphic" in2="effect1_dropShadow_509_339" result="shape"/>
</filter>
</defs>
</svg>
