<svg width="94" height="98" viewBox="0 0 94 98" fill="none" xmlns="http://www.w3.org/2000/svg">
<g filter="url(#filter0_d_509_414)">
<rect x="2" width="90" height="90" rx="14" fill="white"/>
<g clip-path="url(#clip0_509_414)">
<path d="M45.9205 16.0258C45.8496 16.0322 45.624 16.0548 45.421 16.0709C40.739 16.493 36.3534 19.0193 33.5757 22.9023C32.029 25.0612 31.0397 27.5102 30.6659 30.1042C30.5338 31.0097 30.5177 31.2771 30.5177 32.5048C30.5177 33.7325 30.5338 34 30.6659 34.9055C31.5617 41.0956 35.9667 46.2965 41.9409 48.2234C43.0107 48.5682 44.1385 48.8034 45.421 48.9452C45.9205 49 48.0795 49 48.5789 48.9452C50.7927 48.7003 52.6681 48.1525 54.5177 47.2084C54.8013 47.0634 54.8561 47.0247 54.8174 46.9925C54.7916 46.9731 53.5832 45.3523 52.1332 43.3931L49.4973 39.8324L46.1944 34.9441C44.377 32.2567 42.8818 30.0591 42.8689 30.0591C42.856 30.0559 42.8432 32.2277 42.8367 34.8797C42.827 39.5231 42.8238 39.71 42.7658 39.8195C42.682 39.9774 42.6176 40.0419 42.4823 40.1128C42.3791 40.1643 42.2889 40.174 41.8023 40.174H41.2449L41.0966 40.0806C41 40.0193 40.9291 39.9388 40.8808 39.8453L40.8131 39.7003L40.8195 33.2395L40.8292 26.7755L40.9291 26.6498C40.9806 26.5822 41.0902 26.4952 41.1675 26.4533C41.2997 26.3888 41.3512 26.3824 41.9087 26.3824C42.566 26.3824 42.6756 26.4082 42.8464 26.5951C42.8947 26.6466 44.6831 29.3405 46.8228 32.5854C48.9624 35.8303 51.8883 40.261 53.3254 42.4361L55.9355 46.3899L56.0677 46.3029C57.2374 45.5424 58.4747 44.4597 59.4543 43.3319C61.5392 40.9377 62.8829 38.0183 63.334 34.9055C63.4661 34 63.4823 33.7325 63.4823 32.5048C63.4823 31.2771 63.4661 31.0097 63.334 30.1042C62.4382 23.9141 58.0333 18.7132 52.0591 16.7863C51.0054 16.4447 49.884 16.2095 48.6273 16.0677C48.3179 16.0354 46.188 16 45.9205 16.0258ZM52.6681 25.9957C52.8228 26.073 52.9484 26.2213 52.9935 26.3759C53.0193 26.4597 53.0258 28.2513 53.0193 32.2889L53.0096 38.0827L51.9882 36.5166L50.9635 34.9506V30.739C50.9635 28.0161 50.9764 26.4855 50.9957 26.4114C51.0472 26.2309 51.16 26.0891 51.3147 26.0054C51.4468 25.9377 51.4951 25.9313 52.0011 25.9313C52.478 25.9313 52.5617 25.9377 52.6681 25.9957Z" fill="black"/>
<path d="M55.7744 46.4608C55.6616 46.5317 55.6262 46.58 55.7261 46.5252C55.7969 46.4834 55.913 46.3963 55.8936 46.3931C55.884 46.3931 55.8292 46.4254 55.7744 46.4608ZM55.5521 46.6058C55.494 46.6509 55.494 46.6541 55.5649 46.6187C55.6036 46.5994 55.6358 46.5768 55.6358 46.5704C55.6358 46.5446 55.6197 46.551 55.5521 46.6058ZM55.3909 46.7025C55.3329 46.7476 55.3329 46.7508 55.4038 46.7154C55.4425 46.696 55.4747 46.6735 55.4747 46.667C55.4747 46.6412 55.4586 46.6477 55.3909 46.7025ZM55.2298 46.7991C55.1718 46.8443 55.1718 46.8475 55.2427 46.812C55.2814 46.7927 55.3136 46.7701 55.3136 46.7637C55.3136 46.7379 55.2975 46.7444 55.2298 46.7991ZM54.9849 46.928C54.8625 46.9925 54.8689 47.0183 54.9914 46.957C55.0461 46.928 55.088 46.899 55.088 46.8926C55.088 46.87 55.0848 46.8733 54.9849 46.928Z" fill="black"/>
</g>
<path d="M38.5582 63.2727V72H36.9645L33.1676 66.5071H33.1037V72H31.2585V63.2727H32.8778L36.6449 68.7614H36.7216V63.2727H38.5582ZM39.8427 72V63.2727H45.7234V64.794H41.6879V66.8736H45.4209V68.3949H41.6879V70.4787H45.7405V72H39.8427ZM48.6805 63.2727L50.4405 66.2472H50.5086L52.2771 63.2727H54.3609L51.6976 67.6364L54.4206 72H52.2984L50.5086 69.0213H50.4405L48.6507 72H46.537L49.2686 67.6364L46.5882 63.2727H48.6805ZM54.9561 64.794V63.2727H62.1238V64.794H59.4519V72H57.628V64.794H54.9561Z" fill="black"/>
</g>
<defs>
<filter id="filter0_d_509_414" x="0" y="0" width="94" height="98" filterUnits="userSpaceOnUse" color-interpolation-filters="sRGB">
<feFlood flood-opacity="0" result="BackgroundImageFix"/>
<feColorMatrix in="SourceAlpha" type="matrix" values="0 0 0 0 0 0 0 0 0 0 0 0 0 0 0 0 0 0 127 0" result="hardAlpha"/>
<feMorphology radius="4" operator="erode" in="SourceAlpha" result="effect1_dropShadow_509_414"/>
<feOffset dy="6"/>
<feGaussianBlur stdDeviation="3"/>
<feComposite in2="hardAlpha" operator="out"/>
<feColorMatrix type="matrix" values="0 0 0 0 0 0 0 0 0 0 0 0 0 0 0 0 0 0 1 0"/>
<feBlend mode="normal" in2="BackgroundImageFix" result="effect1_dropShadow_509_414"/>
<feBlend mode="normal" in="SourceGraphic" in2="effect1_dropShadow_509_414" result="shape"/>
</filter>
<clipPath id="clip0_509_414">
<rect width="33" height="33" fill="white" transform="translate(30.5 16)"/>
</clipPath>
</defs>
</svg>
