<svg width="94" height="98" viewBox="0 0 94 98" fill="none" xmlns="http://www.w3.org/2000/svg">
<g filter="url(#filter0_d_509_391)">
<rect x="2" width="90" height="90" rx="14" fill="white"/>
<g clip-path="url(#clip0_509_391)">
<path d="M47 39.8425C37.5934 39.8425 30.5 36.7652 30.5 32.5C30.5 28.2347 37.5934 25.075 47 25.075C56.4067 25.075 63.5 28.2347 63.5 32.5C63.5 36.7652 56.4067 39.8425 47 39.8425ZM47 27.4939C38.9736 27.4939 32.8719 30.1883 32.8719 32.552C32.8719 34.9156 38.9736 37.5061 47 37.5061C55.0264 37.5061 61.1281 34.8116 61.1281 32.448C61.1281 30.0844 55.0264 27.4939 47 27.4939Z" fill="#149ECA"/>
<path d="M40.7317 47.35C39.9636 47.35 39.2623 47.1718 38.6461 46.8203C37.6396 46.2453 36.9177 45.2297 36.5572 43.8817C35.6117 40.349 37.1371 34.409 40.4454 28.7479C44.327 22.1108 49.4808 17.6525 53.2692 17.6525C54.0364 17.6525 54.7377 17.8307 55.354 18.1821C56.3588 18.7555 57.0815 19.7702 57.442 21.1175C58.3883 24.6501 56.8621 30.5909 53.5522 36.2521C49.6738 42.89 44.5209 47.35 40.7317 47.35ZM53.2692 20.1275C50.8866 20.1275 46.3318 23.5867 42.5821 29.9969C39.1807 35.8181 38.1832 40.6469 38.9488 43.2415C39.1559 43.9419 39.448 44.4278 39.8737 44.6704C41.8215 45.7825 47.1411 42.3191 51.4162 35.0039C54.8194 29.1818 55.9207 24.4562 55.0512 21.7585C54.8276 21.0647 54.5529 20.5746 54.128 20.3329C53.8863 20.1943 53.605 20.1275 53.2692 20.1275Z" fill="#149ECA"/>
<path d="M53.2692 47.3475C49.4767 47.3467 44.3237 42.8884 40.4454 36.2521C37.1371 30.5909 35.6117 24.6501 36.5572 21.1183C36.9177 19.7702 37.6396 18.7547 38.6452 18.1805C39.2623 17.8282 39.9636 17.65 40.73 17.65C44.5209 17.65 49.673 22.1099 53.5522 28.7479C56.8612 34.4082 58.3867 40.349 57.4412 43.8825C57.0799 45.2297 56.358 46.2445 55.354 46.8179C54.7377 47.1693 54.0356 47.3475 53.2692 47.3475ZM40.73 20.125C40.3942 20.125 40.1137 20.1926 39.872 20.3296C39.4471 20.5721 39.151 21.0564 38.948 21.7585C38.1824 24.4051 39.1798 29.1827 42.5813 35.0039C46.3276 41.4133 50.8833 44.8725 53.2684 44.8725C53.605 44.8725 53.8855 44.8049 54.1272 44.6671C54.5512 44.4262 54.8557 43.9444 55.0495 43.2415C55.7648 40.646 54.8177 35.8165 51.4154 29.9961C47.6691 23.585 43.1143 20.125 40.73 20.125Z" fill="#149ECA"/>
<path d="M49.8875 32.5C49.8875 34.0964 48.5964 35.3875 47 35.3875C45.4036 35.3875 44.1125 34.0964 44.1125 32.5C44.1125 30.9036 45.4036 29.6125 47 29.6125C48.5964 29.6125 49.8875 30.9036 49.8875 32.5Z" fill="#149ECA"/>
<path d="M47 35.8C45.1801 35.8 43.7 34.3199 43.7 32.5C43.7 30.68 45.1801 29.2 47 29.2C48.82 29.2 50.3 30.68 50.3 32.5C50.3 34.3199 48.82 35.8 47 35.8ZM47 30.025C45.6355 30.025 44.525 31.1354 44.525 32.5C44.525 33.8645 45.6355 34.975 47 34.975C48.3646 34.975 49.475 33.8645 49.475 32.5C49.475 31.1354 48.3646 30.025 47 30.025Z" fill="#149ECA"/>
<path d="M47 39.1561C38.2105 39.1561 31.325 36.2323 31.325 32.5C31.325 28.7677 38.2105 25.8439 47 25.8439C55.7896 25.8439 62.675 28.7677 62.675 32.5C62.675 36.2323 55.7896 39.1561 47 39.1561ZM47 26.6689C38.9505 26.6689 32.15 29.3394 32.15 32.5C32.15 35.6606 38.9505 38.3311 47 38.3311C55.0495 38.3311 61.85 35.6614 61.85 32.5C61.85 29.3386 55.0495 26.6689 47 26.6689Z" fill="#149ECA"/>
<path d="M40.7317 46.525C40.1088 46.525 39.5453 46.3831 39.0544 46.1034C38.2327 45.634 37.661 44.8148 37.3533 43.668C36.4615 40.3375 37.9547 34.6442 41.1565 29.1637C44.8377 22.8723 49.8182 18.4775 53.2692 18.4775C53.8912 18.4775 54.4555 18.6194 54.9456 18.8991C55.7665 19.3677 56.3382 20.1861 56.6459 21.3312C57.5377 24.6617 56.0445 30.355 52.841 35.8363C49.1623 42.1294 44.1835 46.525 40.7317 46.525ZM53.2692 19.3025C50.1474 19.3025 45.3533 23.6247 41.8702 29.5803C38.8218 34.7985 37.3269 40.3738 38.1511 43.4552C38.3994 44.3817 38.8408 45.0309 39.4645 45.3873C39.8283 45.5944 40.254 45.7 40.7308 45.7C43.8535 45.7 48.6467 41.377 52.1274 35.4197C55.1774 30.2007 56.6731 24.6246 55.8473 21.5448C55.5998 20.62 55.1584 19.9707 54.5356 19.616C54.1717 19.4081 53.746 19.3025 53.2692 19.3025Z" fill="#149ECA"/>
<path d="M53.2692 46.5225C49.8149 46.5217 44.8344 42.1278 41.1573 35.8363C37.9547 30.3558 36.4623 24.6625 37.3541 21.332C37.661 20.1852 38.2327 19.366 39.0552 18.8966C39.5453 18.6169 40.1088 18.475 40.73 18.475C44.1826 18.475 49.1623 22.8706 52.8402 29.1637C56.0436 34.6434 57.5361 40.3367 56.6434 43.6689C56.3373 44.8148 55.7656 45.6332 54.9447 46.101C54.4547 46.3806 53.8912 46.5225 53.2692 46.5225ZM40.73 19.3C40.254 19.3 39.8274 19.4056 39.4636 19.6127C38.8399 19.9691 38.3985 20.6184 38.1502 21.5448C37.326 24.6254 38.8209 30.2016 41.8693 35.4197C45.35 41.3745 50.1449 45.6967 53.2692 45.6975C53.746 45.6975 54.1725 45.5919 54.5364 45.384C55.1584 45.0293 55.5998 44.38 55.8473 43.4552C56.6723 40.3738 55.1774 34.7976 52.1282 29.5803C48.6467 23.6238 43.8543 19.3 40.73 19.3Z" fill="#149ECA"/>
</g>
<path d="M27.7585 72V63.2727H31.2017C31.8608 63.2727 32.4233 63.3906 32.8892 63.6264C33.358 63.8594 33.7145 64.1903 33.9588 64.6193C34.206 65.0455 34.3295 65.5469 34.3295 66.1236C34.3295 66.7031 34.2045 67.2017 33.9545 67.6193C33.7045 68.0341 33.3423 68.3523 32.8679 68.5739C32.3963 68.7955 31.8253 68.9062 31.1548 68.9062H28.8494V67.4233H30.8565C31.2088 67.4233 31.5014 67.375 31.7344 67.2784C31.9673 67.1818 32.1406 67.0369 32.2543 66.8438C32.3707 66.6506 32.429 66.4105 32.429 66.1236C32.429 65.8338 32.3707 65.5895 32.2543 65.3906C32.1406 65.1918 31.9659 65.0412 31.7301 64.9389C31.4972 64.8338 31.2031 64.7812 30.848 64.7812H29.6037V72H27.7585ZM32.4716 68.0284L34.6406 72H32.6037L30.4815 68.0284H32.4716ZM35.3935 72V63.2727H41.2742V64.794H37.2387V66.8736H40.9716V68.3949H37.2387V70.4787H41.2913V72H35.3935ZM44.0054 72H42.0282L45.041 63.2727H47.4188L50.4273 72H48.45L46.264 65.267H46.1958L44.0054 72ZM43.8819 68.5696H48.5523V70.0099H43.8819V68.5696ZM58.5279 66.3281H56.6614C56.6273 66.0866 56.5577 65.8722 56.4526 65.6847C56.3475 65.4943 56.2125 65.3324 56.0478 65.1989C55.883 65.0653 55.6926 64.9631 55.4767 64.892C55.2637 64.821 55.0321 64.7855 54.7821 64.7855C54.3304 64.7855 53.937 64.8977 53.6017 65.1222C53.2665 65.3437 53.0066 65.6676 52.8219 66.0938C52.6372 66.517 52.5449 67.0312 52.5449 67.6364C52.5449 68.2585 52.6372 68.7812 52.8219 69.2045C53.0094 69.6278 53.2708 69.9474 53.606 70.1634C53.9412 70.3793 54.329 70.4872 54.7693 70.4872C55.0165 70.4872 55.2452 70.4545 55.4554 70.3892C55.6685 70.3239 55.8574 70.2287 56.0222 70.1037C56.187 69.9759 56.3233 69.821 56.4313 69.6392C56.5421 69.4574 56.6188 69.25 56.6614 69.017L58.5279 69.0256C58.4796 69.4261 58.3588 69.8125 58.1657 70.1847C57.9753 70.554 57.7182 70.8849 57.3943 71.1776C57.0733 71.4673 56.6898 71.6974 56.2438 71.8679C55.8006 72.0355 55.2992 72.1193 54.7395 72.1193C53.9611 72.1193 53.2651 71.9432 52.6514 71.5909C52.0407 71.2386 51.5577 70.7287 51.2026 70.0611C50.8503 69.3935 50.6742 68.5852 50.6742 67.6364C50.6742 66.6847 50.8532 65.875 51.2111 65.2074C51.5691 64.5398 52.0549 64.0312 52.6685 63.6818C53.2821 63.3295 53.9725 63.1534 54.7395 63.1534C55.2452 63.1534 55.7139 63.2244 56.1458 63.3665C56.5804 63.5085 56.9654 63.7159 57.3006 63.9886C57.6358 64.2585 57.9086 64.5895 58.1188 64.9815C58.3318 65.3736 58.4682 65.8224 58.5279 66.3281ZM59.2786 64.794V63.2727H66.4463V64.794H63.7744V72H61.9505V64.794H59.2786Z" fill="black"/>
</g>
<defs>
<filter id="filter0_d_509_391" x="0" y="0" width="94" height="98" filterUnits="userSpaceOnUse" color-interpolation-filters="sRGB">
<feFlood flood-opacity="0" result="BackgroundImageFix"/>
<feColorMatrix in="SourceAlpha" type="matrix" values="0 0 0 0 0 0 0 0 0 0 0 0 0 0 0 0 0 0 127 0" result="hardAlpha"/>
<feMorphology radius="4" operator="erode" in="SourceAlpha" result="effect1_dropShadow_509_391"/>
<feOffset dy="6"/>
<feGaussianBlur stdDeviation="3"/>
<feComposite in2="hardAlpha" operator="out"/>
<feColorMatrix type="matrix" values="0 0 0 0 0 0 0 0 0 0 0 0 0 0 0 0 0 0 1 0"/>
<feBlend mode="normal" in2="BackgroundImageFix" result="effect1_dropShadow_509_391"/>
<feBlend mode="normal" in="SourceGraphic" in2="effect1_dropShadow_509_391" result="shape"/>
</filter>
<clipPath id="clip0_509_391">
<rect width="33" height="33" fill="white" transform="translate(30.5 16)"/>
</clipPath>
</defs>
</svg>
