<svg width="94" height="98" viewBox="0 0 94 98" fill="none" xmlns="http://www.w3.org/2000/svg">
<g filter="url(#filter0_d_509_403)">
<rect x="2" width="90" height="90" rx="14" fill="white"/>
<path d="M46.3125 18.75C41.7633 18.75 38.0625 23.7481 38.0625 29.8909C38.0625 33.2143 39.1501 36.1946 40.8661 38.2344C40.8331 38.3809 40.8125 38.5314 40.8125 38.6875C40.8125 39.8267 41.7358 40.75 42.875 40.75C44.0142 40.75 44.9375 39.8267 44.9375 38.6875C44.9375 37.5483 44.0142 36.625 42.875 36.625C42.6584 36.625 42.4543 36.6676 42.2583 36.7295C40.9541 35.0651 40.125 32.6203 40.125 29.8909C40.125 24.8853 42.9004 20.8125 46.3125 20.8125C48.9504 20.8125 51.2013 23.2511 52.0903 26.6686C52.8616 26.9065 53.6282 27.2063 54.3796 27.5679C53.5856 22.5368 50.2718 18.75 46.3125 18.75Z" fill="#764ABC"/>
<path d="M54.9111 29.8077C52.1975 28.1632 49.1539 27.4414 46.5359 27.7734C46.1578 27.3052 45.5858 27 44.9375 27C43.7983 27 42.875 27.9233 42.875 29.0625C42.875 30.2017 43.7983 31.125 44.9375 31.125C45.812 31.125 46.5552 30.5784 46.8549 29.8105C48.9986 29.5499 51.5382 30.1756 53.842 31.5726C58.2441 34.2407 60.4901 38.8387 58.8484 41.8239C58.2798 42.8579 57.2768 43.5921 55.9485 43.9482C54.3769 44.3683 52.5062 44.2191 50.6362 43.5852C50.0594 44.116 49.4338 44.6151 48.7628 45.0757C50.5173 45.8437 52.335 46.2472 54.0352 46.2472C54.8877 46.2472 55.7113 46.1462 56.482 45.9399C58.3664 45.436 59.8102 44.3559 60.6558 42.8173C62.8235 38.8772 60.2461 33.0411 54.9111 29.8077Z" fill="#764ABC"/>
<path d="M54.5625 35.932C54.5625 34.7963 53.6392 33.875 52.5 33.875C51.3608 33.875 50.4375 34.7963 50.4375 35.932C50.4375 36.3919 50.5942 36.8127 50.85 37.1551C49.9707 39.0814 48.276 40.9824 45.9949 42.3649C43.3377 43.9764 40.3677 44.5663 38.0508 43.9476C36.7226 43.5914 35.7195 42.8572 35.1509 41.8232C33.9808 39.6961 34.7928 36.7522 36.9453 34.2689C36.7232 33.4824 36.5589 32.6602 36.4599 31.8111C32.9743 35.1091 31.5725 39.5957 33.3442 42.8173C34.1898 44.3559 35.6336 45.436 37.518 45.9399C38.2887 46.1462 39.1116 46.2472 39.9648 46.2472C42.2652 46.2472 44.7821 45.513 47.0639 44.1298C49.7012 42.5313 51.6585 40.2956 52.7076 37.9684C53.7478 37.8632 54.5625 36.9969 54.5625 35.932Z" fill="#764ABC"/>
<path d="M27.2585 72V63.2727H30.7017C31.3608 63.2727 31.9233 63.3906 32.3892 63.6264C32.858 63.8594 33.2145 64.1903 33.4588 64.6193C33.706 65.0455 33.8295 65.5469 33.8295 66.1236C33.8295 66.7031 33.7045 67.2017 33.4545 67.6193C33.2045 68.0341 32.8423 68.3523 32.3679 68.5739C31.8963 68.7955 31.3253 68.9062 30.6548 68.9062H28.3494V67.4233H30.3565C30.7088 67.4233 31.0014 67.375 31.2344 67.2784C31.4673 67.1818 31.6406 67.0369 31.7543 66.8438C31.8707 66.6506 31.929 66.4105 31.929 66.1236C31.929 65.8338 31.8707 65.5895 31.7543 65.3906C31.6406 65.1918 31.4659 65.0412 31.2301 64.9389C30.9972 64.8338 30.7031 64.7812 30.348 64.7812H29.1037V72H27.2585ZM31.9716 68.0284L34.1406 72H32.1037L29.9815 68.0284H31.9716ZM34.8935 72V63.2727H40.7742V64.794H36.7387V66.8736H40.4716V68.3949H36.7387V70.4787H40.7913V72H34.8935ZM45.0949 72H42.0012V63.2727H45.1205C45.9983 63.2727 46.754 63.4474 47.3875 63.7969C48.0211 64.1435 48.5083 64.642 48.8492 65.2926C49.1929 65.9432 49.3648 66.7216 49.3648 67.6278C49.3648 68.5369 49.1929 69.3182 48.8492 69.9716C48.5083 70.625 48.0182 71.1264 47.379 71.4759C46.7427 71.8253 45.9813 72 45.0949 72ZM43.8463 70.419H45.0182C45.5637 70.419 46.0225 70.3224 46.3946 70.1293C46.7696 69.9332 47.0509 69.6307 47.2384 69.2216C47.4287 68.8097 47.5239 68.2784 47.5239 67.6278C47.5239 66.983 47.4287 66.456 47.2384 66.0469C47.0509 65.6378 46.7711 65.3366 46.3989 65.1435C46.0267 64.9503 45.5679 64.8537 45.0225 64.8537H43.8463V70.419ZM55.8823 63.2727H57.7274V68.9403C57.7274 69.5767 57.5755 70.1335 57.2715 70.6108C56.9703 71.0881 56.5485 71.4602 56.0059 71.7273C55.4632 71.9915 54.8311 72.1236 54.1095 72.1236C53.3851 72.1236 52.7516 71.9915 52.209 71.7273C51.6664 71.4602 51.2445 71.0881 50.9434 70.6108C50.6422 70.1335 50.4916 69.5767 50.4916 68.9403V63.2727H52.3368V68.7827C52.3368 69.1151 52.4093 69.4105 52.5541 69.669C52.7019 69.9276 52.9093 70.1307 53.1763 70.2784C53.4434 70.4261 53.7544 70.5 54.1095 70.5C54.4675 70.5 54.7786 70.4261 55.0428 70.2784C55.3098 70.1307 55.5158 69.9276 55.6607 69.669C55.8084 69.4105 55.8823 69.1151 55.8823 68.7827V63.2727ZM60.7357 63.2727L62.4956 66.2472H62.5638L64.3323 63.2727H66.4161L63.7527 67.6364L66.4757 72H64.3536L62.5638 69.0213H62.4956L60.7058 72H58.5922L61.3237 67.6364L58.6433 63.2727H60.7357Z" fill="black"/>
</g>
<defs>
<filter id="filter0_d_509_403" x="0" y="0" width="94" height="98" filterUnits="userSpaceOnUse" color-interpolation-filters="sRGB">
<feFlood flood-opacity="0" result="BackgroundImageFix"/>
<feColorMatrix in="SourceAlpha" type="matrix" values="0 0 0 0 0 0 0 0 0 0 0 0 0 0 0 0 0 0 127 0" result="hardAlpha"/>
<feMorphology radius="4" operator="erode" in="SourceAlpha" result="effect1_dropShadow_509_403"/>
<feOffset dy="6"/>
<feGaussianBlur stdDeviation="3"/>
<feComposite in2="hardAlpha" operator="out"/>
<feColorMatrix type="matrix" values="0 0 0 0 0 0 0 0 0 0 0 0 0 0 0 0 0 0 1 0"/>
<feBlend mode="normal" in2="BackgroundImageFix" result="effect1_dropShadow_509_403"/>
<feBlend mode="normal" in="SourceGraphic" in2="effect1_dropShadow_509_403" result="shape"/>
</filter>
</defs>
</svg>
