<svg width="94" height="98" viewBox="0 0 94 98" fill="none" xmlns="http://www.w3.org/2000/svg">
<g filter="url(#filter0_d_509_343)">
<rect x="2" width="90" height="90" rx="14" fill="white"/>
<g clip-path="url(#clip0_509_343)">
<path d="M60.8811 36.7131C59.5351 36.7206 58.3696 37.0439 57.3921 37.5252C57.0311 36.8108 56.6702 36.1867 56.61 35.7205C56.5424 35.1791 56.4596 34.8482 56.5424 34.2015C56.6251 33.5549 57.001 32.6375 57.001 32.5623C56.9935 32.4946 56.9183 32.1638 56.1438 32.1562C55.3693 32.1487 54.7001 32.3066 54.6249 32.5097C54.5497 32.7127 54.3993 33.1789 54.3015 33.6601C54.1662 34.367 52.7525 36.871 51.9479 38.1869C51.6847 37.6756 51.4591 37.2244 51.414 36.8635C51.3463 36.3221 51.2636 35.9912 51.3463 35.3445C51.4291 34.6978 51.805 33.7805 51.805 33.7053C51.7975 33.6376 51.7223 33.3067 50.9478 33.2992C50.1733 33.2917 49.5041 33.4496 49.4289 33.6526C49.3537 33.8556 49.271 34.3369 49.1055 34.8031C48.9476 35.2693 47.0677 39.4502 46.579 40.5405C46.3308 41.0969 46.1127 41.5406 45.9548 41.8414C45.7969 42.1422 45.9473 41.8639 45.9323 41.894C45.7969 42.1497 45.7217 42.2926 45.7217 42.2926V42.3001C45.6165 42.4881 45.5037 42.6685 45.451 42.6685C45.4134 42.6685 45.3382 42.1647 45.4661 41.4729C45.7443 40.0217 46.4211 37.7583 46.4135 37.6756C46.4135 37.638 46.5414 37.2394 45.9774 37.0364C45.4285 36.8334 45.233 37.1718 45.1878 37.1718C45.1427 37.1718 45.1051 37.2921 45.1051 37.2921C45.1051 37.2921 45.7142 34.743 43.9396 34.743C42.8267 34.743 41.2927 35.9536 40.5332 37.059C40.052 37.3221 39.0293 37.8786 37.9465 38.4726C37.533 38.6982 37.1043 38.9388 36.6983 39.1569L36.6156 39.0667C34.465 36.7732 30.4871 35.149 30.6526 32.066C30.7127 30.9456 31.1037 27.9904 38.2924 24.4111C44.1802 21.4785 48.895 22.2831 49.7146 24.0728C50.8801 26.6294 47.1956 31.3817 41.0747 32.066C38.7436 32.3292 37.5179 31.4268 37.2096 31.0885C36.8863 30.735 36.8412 30.72 36.7208 30.7877C36.5253 30.893 36.6456 31.2088 36.7208 31.3968C36.9013 31.8705 37.6533 32.7127 38.9316 33.1338C40.052 33.5022 42.7891 33.7053 46.0977 32.4269C49.8048 30.9907 52.6999 27.0054 51.8502 23.6742C50.9854 20.2829 45.3608 19.17 40.0445 21.0574C36.8788 22.1854 33.4498 23.9449 30.9834 26.2534C28.0508 28.9905 27.5846 31.3817 27.7801 32.3743C28.4644 35.916 33.3446 38.2245 35.2996 39.9314C35.2019 39.9841 35.1117 40.0367 35.0289 40.0818C34.0514 40.5631 30.3292 42.5106 29.3968 44.571C28.3441 46.902 29.5622 48.5789 30.3744 48.8045C32.8859 49.5038 35.4576 48.248 36.8487 46.1801C38.2323 44.1123 38.0668 41.4278 37.4277 40.2021L37.4051 40.157L38.1721 39.7058C38.6684 39.4126 39.1572 39.1419 39.5858 38.9088C39.3452 39.563 39.1722 40.3375 39.082 41.4654C38.9767 42.7888 39.5181 44.5033 40.2325 45.18C40.5483 45.4733 40.9243 45.4808 41.1574 45.4808C41.9845 45.4808 42.3605 44.7966 42.7741 43.9769C43.2854 42.9768 43.7366 41.8188 43.7366 41.8188C43.7366 41.8188 43.1726 44.9545 44.7141 44.9545C45.2781 44.9545 45.842 44.2251 46.0977 43.8491V43.8566C46.0977 43.8566 46.1127 43.8341 46.1428 43.7814C46.203 43.6912 46.2331 43.6385 46.2331 43.6385V43.6235C46.4586 43.2325 46.9625 42.3377 47.7144 40.8563C48.6844 38.9464 49.6169 36.5552 49.6169 36.5552C49.6169 36.5552 49.7071 37.1417 49.9853 38.1042C50.1507 38.6757 50.5117 39.2998 50.7899 39.9089C50.5643 40.2247 50.429 40.4052 50.429 40.4052L50.4365 40.4127C50.256 40.6533 50.053 40.909 49.8424 41.1646C49.0754 42.082 48.1581 43.1272 48.0378 43.428C47.8949 43.7814 47.925 44.0446 48.2032 44.2551C48.4062 44.4055 48.7671 44.4356 49.1506 44.4055C49.8424 44.3604 50.3237 44.1875 50.5643 44.0822C50.9403 43.9468 51.3689 43.7438 51.7825 43.443C52.5344 42.8866 52.9931 42.097 52.948 41.0443C52.9255 40.4653 52.7375 39.8938 52.5044 39.3524C52.572 39.2547 52.6397 39.1569 52.7074 39.0516C53.8955 37.3146 54.8129 35.4047 54.8129 35.4047C54.8129 35.4047 54.9031 35.9912 55.1813 36.9537C55.3242 37.4425 55.6099 37.9763 55.8656 38.5027C54.7527 39.4126 54.0534 40.4653 53.8128 41.1571C53.3691 42.4354 53.715 43.0144 54.3692 43.1498C54.6625 43.2099 55.0836 43.0746 55.3994 42.9392C55.7904 42.8114 56.2641 42.5933 56.7003 42.27C57.4522 41.7135 58.1741 40.939 58.1365 39.8938C58.1139 39.4126 57.9861 38.9388 57.8132 38.4877C58.7606 38.0967 59.9863 37.8711 61.5428 38.0591C64.889 38.4501 65.5508 40.5405 65.4229 41.4128C65.2951 42.285 64.5958 42.7663 64.3627 42.9167C64.1296 43.0595 64.0544 43.1122 64.0769 43.2175C64.107 43.3754 64.2123 43.3678 64.4153 43.3378C64.6935 43.2927 66.1749 42.6234 66.235 41.0142C66.3253 38.9464 64.3627 36.6905 60.8811 36.7131ZM35.0741 45.4132C33.9687 46.6238 32.4121 47.0825 31.7504 46.6915C31.0361 46.2779 31.3143 44.4958 32.6753 43.2099C33.5025 42.4279 34.5778 41.706 35.2846 41.2624C35.4425 41.1646 35.6831 41.0218 35.9689 40.8488C36.014 40.8187 36.0441 40.8037 36.0441 40.8037C36.0967 40.7736 36.1569 40.736 36.217 40.6984C36.7208 42.5332 36.2396 44.1424 35.0741 45.4132ZM43.1576 39.9164C42.7741 40.8563 41.962 43.2701 41.4732 43.1347C41.0521 43.0219 40.7964 41.1947 41.3905 39.39C41.6913 38.4802 42.3304 37.3973 42.7064 36.9762C43.3155 36.2995 43.9772 36.0739 44.1426 36.3521C44.3381 36.7131 43.3982 39.3299 43.1576 39.9164ZM49.8274 43.1047C49.662 43.1874 49.5116 43.2475 49.4439 43.2024C49.3913 43.1723 49.5116 43.0595 49.5116 43.0595C49.5116 43.0595 50.3463 42.1647 50.6771 41.7511C50.8651 41.5105 51.0907 41.2323 51.3313 40.9165V41.0067C51.3313 42.0895 50.2936 42.8114 49.8274 43.1047ZM54.9708 41.9316C54.8505 41.8414 54.8655 41.5632 55.2715 40.6909C55.4295 40.345 55.7904 39.766 56.4145 39.2171C56.4897 39.4427 56.5348 39.6607 56.5273 39.8637C56.5198 41.2173 55.5573 41.7211 54.9708 41.9316Z" fill="#CF649A"/>
</g>
<path d="M36.4929 65.7827C36.4588 65.4389 36.3125 65.1719 36.054 64.9815C35.7955 64.7912 35.4446 64.696 35.0014 64.696C34.7003 64.696 34.446 64.7386 34.2386 64.8239C34.0313 64.9062 33.8722 65.0213 33.7614 65.169C33.6534 65.3168 33.5994 65.4844 33.5994 65.6719C33.5938 65.8281 33.6264 65.9645 33.6974 66.081C33.7713 66.1974 33.8722 66.2983 34 66.3835C34.1278 66.4659 34.2756 66.5384 34.4432 66.6009C34.6108 66.6605 34.7898 66.7116 34.9801 66.7543L35.7642 66.9418C36.1449 67.027 36.4943 67.1406 36.8125 67.2827C37.1307 67.4247 37.4063 67.5994 37.6392 67.8068C37.8722 68.0142 38.0526 68.2585 38.1804 68.5398C38.3111 68.821 38.3778 69.1435 38.3807 69.5071C38.3778 70.0412 38.2415 70.5043 37.9716 70.8963C37.7045 71.2855 37.3182 71.5881 36.8125 71.804C36.3097 72.017 35.7031 72.1236 34.9929 72.1236C34.2884 72.1236 33.6747 72.0156 33.152 71.7997C32.6321 71.5838 32.2259 71.2642 31.9332 70.8409C31.6435 70.4148 31.4915 69.8878 31.4773 69.2599H33.2628C33.2827 69.5526 33.3665 69.7969 33.5142 69.9929C33.6648 70.1861 33.8651 70.3324 34.1151 70.4318C34.3679 70.5284 34.6534 70.5767 34.9716 70.5767C35.2841 70.5767 35.5554 70.5312 35.7855 70.4403C36.0185 70.3494 36.1989 70.223 36.3267 70.0611C36.4545 69.8991 36.5185 69.7131 36.5185 69.5028C36.5185 69.3068 36.4602 69.142 36.3438 69.0085C36.2301 68.875 36.0625 68.7614 35.8409 68.6676C35.6222 68.5739 35.3537 68.4886 35.0355 68.4119L34.0852 68.1733C33.3494 67.9943 32.7685 67.7145 32.3423 67.3338C31.9162 66.9531 31.7045 66.4403 31.7074 65.7955C31.7045 65.267 31.8452 64.8054 32.1293 64.4105C32.4162 64.0156 32.8097 63.7074 33.3097 63.4858C33.8097 63.2642 34.3778 63.1534 35.0142 63.1534C35.6619 63.1534 36.2273 63.2642 36.7102 63.4858C37.196 63.7074 37.5739 64.0156 37.8438 64.4105C38.1136 64.8054 38.2528 65.2628 38.2614 65.7827H36.4929ZM40.6868 72H38.7096L41.7224 63.2727H44.1002L47.1087 72H45.1314L42.9454 65.267H42.8772L40.6868 72ZM40.5633 68.5696H45.2337V70.0099H40.5633V68.5696ZM52.4543 65.7827C52.4202 65.4389 52.2739 65.1719 52.0154 64.9815C51.7569 64.7912 51.406 64.696 50.9628 64.696C50.6617 64.696 50.4074 64.7386 50.2 64.8239C49.9927 64.9062 49.8336 65.0213 49.7228 65.169C49.6148 65.3168 49.5608 65.4844 49.5608 65.6719C49.5552 65.8281 49.5878 65.9645 49.6588 66.081C49.7327 66.1974 49.8336 66.2983 49.9614 66.3835C50.0892 66.4659 50.237 66.5384 50.4046 66.6009C50.5722 66.6605 50.7512 66.7116 50.9415 66.7543L51.7256 66.9418C52.1063 67.027 52.4557 67.1406 52.7739 67.2827C53.0921 67.4247 53.3677 67.5994 53.6006 67.8068C53.8336 68.0142 54.014 68.2585 54.1418 68.5398C54.2725 68.821 54.3392 69.1435 54.3421 69.5071C54.3392 70.0412 54.2029 70.5043 53.933 70.8963C53.666 71.2855 53.2796 71.5881 52.7739 71.804C52.2711 72.017 51.6645 72.1236 50.9543 72.1236C50.2498 72.1236 49.6361 72.0156 49.1134 71.7997C48.5935 71.5838 48.1873 71.2642 47.8946 70.8409C47.6049 70.4148 47.4529 69.8878 47.4387 69.2599H49.2242C49.2441 69.5526 49.3279 69.7969 49.4756 69.9929C49.6262 70.1861 49.8265 70.3324 50.0765 70.4318C50.3293 70.5284 50.6148 70.5767 50.933 70.5767C51.2455 70.5767 51.5168 70.5312 51.7469 70.4403C51.9799 70.3494 52.1603 70.223 52.2881 70.0611C52.416 69.8991 52.4799 69.7131 52.4799 69.5028C52.4799 69.3068 52.4216 69.142 52.3052 69.0085C52.1915 68.875 52.0239 68.7614 51.8023 68.6676C51.5836 68.5739 51.3151 68.4886 50.9969 68.4119L50.0466 68.1733C49.3108 67.9943 48.7299 67.7145 48.3037 67.3338C47.8776 66.9531 47.666 66.4403 47.6688 65.7955C47.666 65.267 47.8066 64.8054 48.0907 64.4105C48.3776 64.0156 48.7711 63.7074 49.2711 63.4858C49.7711 63.2642 50.3392 63.1534 50.9756 63.1534C51.6233 63.1534 52.1887 63.2642 52.6716 63.4858C53.1574 63.7074 53.5353 64.0156 53.8052 64.4105C54.075 64.8054 54.2142 65.2628 54.2228 65.7827H52.4543ZM60.0776 65.7827C60.0435 65.4389 59.8972 65.1719 59.6387 64.9815C59.3801 64.7912 59.0293 64.696 58.5861 64.696C58.285 64.696 58.0307 64.7386 57.8233 64.8239C57.6159 64.9062 57.4568 65.0213 57.3461 65.169C57.2381 65.3168 57.1841 65.4844 57.1841 65.6719C57.1784 65.8281 57.2111 65.9645 57.2821 66.081C57.356 66.1974 57.4568 66.2983 57.5847 66.3835C57.7125 66.4659 57.8603 66.5384 58.0279 66.6009C58.1955 66.6605 58.3745 66.7116 58.5648 66.7543L59.3489 66.9418C59.7296 67.027 60.079 67.1406 60.3972 67.2827C60.7154 67.4247 60.9909 67.5994 61.2239 67.8068C61.4568 68.0142 61.6372 68.2585 61.7651 68.5398C61.8958 68.821 61.9625 69.1435 61.9654 69.5071C61.9625 70.0412 61.8262 70.5043 61.5563 70.8963C61.2892 71.2855 60.9029 71.5881 60.3972 71.804C59.8943 72.017 59.2878 72.1236 58.5776 72.1236C57.873 72.1236 57.2594 72.0156 56.7367 71.7997C56.2168 71.5838 55.8105 71.2642 55.5179 70.8409C55.2282 70.4148 55.0762 69.8878 55.062 69.2599H56.8475C56.8674 69.5526 56.9512 69.7969 57.0989 69.9929C57.2495 70.1861 57.4497 70.3324 57.6997 70.4318C57.9526 70.5284 58.2381 70.5767 58.5563 70.5767C58.8688 70.5767 59.1401 70.5312 59.3702 70.4403C59.6032 70.3494 59.7836 70.223 59.9114 70.0611C60.0392 69.8991 60.1032 69.7131 60.1032 69.5028C60.1032 69.3068 60.0449 69.142 59.9284 69.0085C59.8148 68.875 59.6472 68.7614 59.4256 68.6676C59.2068 68.5739 58.9384 68.4886 58.6202 68.4119L57.6699 68.1733C56.9341 67.9943 56.3532 67.7145 55.927 67.3338C55.5009 66.9531 55.2892 66.4403 55.2921 65.7955C55.2892 65.267 55.4299 64.8054 55.7139 64.4105C56.0009 64.0156 56.3943 63.7074 56.8943 63.4858C57.3943 63.2642 57.9625 63.1534 58.5989 63.1534C59.2466 63.1534 59.812 63.2642 60.2949 63.4858C60.7807 63.7074 61.1586 64.0156 61.4284 64.4105C61.6983 64.8054 61.8375 65.2628 61.8461 65.7827H60.0776Z" fill="black"/>
</g>
<defs>
<filter id="filter0_d_509_343" x="0" y="0" width="94" height="98" filterUnits="userSpaceOnUse" color-interpolation-filters="sRGB">
<feFlood flood-opacity="0" result="BackgroundImageFix"/>
<feColorMatrix in="SourceAlpha" type="matrix" values="0 0 0 0 0 0 0 0 0 0 0 0 0 0 0 0 0 0 127 0" result="hardAlpha"/>
<feMorphology radius="4" operator="erode" in="SourceAlpha" result="effect1_dropShadow_509_343"/>
<feOffset dy="6"/>
<feGaussianBlur stdDeviation="3"/>
<feComposite in2="hardAlpha" operator="out"/>
<feColorMatrix type="matrix" values="0 0 0 0 0 0 0 0 0 0 0 0 0 0 0 0 0 0 1 0"/>
<feBlend mode="normal" in2="BackgroundImageFix" result="effect1_dropShadow_509_343"/>
<feBlend mode="normal" in="SourceGraphic" in2="effect1_dropShadow_509_343" result="shape"/>
</filter>
<clipPath id="clip0_509_343">
<rect width="38.5" height="28.875" fill="white" transform="translate(27.75 20.125)"/>
</clipPath>
</defs>
</svg>
