<svg width="94" height="98" viewBox="0 0 94 98" fill="none" xmlns="http://www.w3.org/2000/svg">
<g filter="url(#filter0_d_509_419)">
<rect x="2" width="90" height="90" rx="14" fill="white"/>
<g clip-path="url(#clip0_509_419)">
<path d="M58.55 16H35.45C32.7162 16 30.5 18.2162 30.5 20.95V44.05C30.5 46.7838 32.7162 49 35.45 49H58.55C61.2838 49 63.5 46.7838 63.5 44.05V20.95C63.5 18.2162 61.2838 16 58.55 16Z" fill="#3178C6"/>
<path d="M45.5176 34.3047H49.6426V31.6621H38.1055V34.3047H42.2305V46.0996H45.5176V34.3047ZM50.9316 45.4551C51.4537 45.7258 52.0918 45.9256 52.8008 46.0609C53.5098 46.1963 54.2832 46.2607 55.0566 46.2607C55.8301 46.2607 56.5391 46.1898 57.248 46.0416C57.957 45.8934 58.5371 45.6484 59.0527 45.3326C59.5748 44.991 60.0195 44.5592 60.2773 43.9791C60.5352 43.399 60.735 42.7545 60.735 41.9166C60.735 41.3301 60.6447 40.8209 60.4707 40.3697C60.2967 39.9185 60.0453 39.5318 59.6973 39.2096C59.3686 38.868 58.9883 38.565 58.5371 38.3072C58.0859 38.0494 57.5703 37.7787 56.9902 37.5338C56.5648 37.3598 56.2168 37.1922 55.8301 37.0246C55.4949 36.857 55.2049 36.6894 54.9922 36.5219C54.7537 36.3478 54.5732 36.1674 54.4443 35.9805C54.3154 35.7871 54.251 35.5744 54.251 35.3359C54.251 35.1168 54.3083 34.917 54.425 34.7365C54.5417 34.556 54.7021 34.4078 54.9084 34.2789C55.1146 34.15 55.3725 34.0533 55.6818 33.9824C55.9848 33.9115 56.3199 33.8793 56.7131 33.8793C56.9838 33.8793 57.2674 33.8993 57.551 33.9399C57.8475 33.9805 58.1504 34.043 58.4533 34.1268C58.7563 34.2106 59.0527 34.3137 59.3557 34.4426C59.6393 34.5715 59.9035 34.7198 60.1291 34.8873V31.858C59.6393 31.6711 59.0979 31.5293 58.5178 31.4391C57.9377 31.3489 57.2932 31.3037 56.5197 31.3037C55.7463 31.3037 55.0373 31.3875 54.3283 31.5487C53.6193 31.7098 53.0393 31.9676 52.5236 32.3221C52.0016 32.6701 51.6213 33.0955 51.299 33.6756C50.9961 34.217 50.8479 34.8358 50.8479 35.6092C50.8479 36.576 51.125 37.4139 51.6857 38.0584C52.24 38.7674 53.1037 39.283 54.1994 39.7987C54.6441 39.9791 55.0373 40.1596 55.424 40.3336C55.8107 40.5076 56.133 40.6881 56.3908 40.875C56.668 41.0619 56.8871 41.2682 57.0354 41.4873C57.1965 41.7065 57.2803 41.9643 57.2803 42.2608C57.2803 42.467 57.23 42.6604 57.132 42.8409C57.0341 43.0213 56.8807 43.176 56.6744 43.3049C56.4682 43.4338 56.2168 43.5369 55.901 43.6143C55.598 43.6852 55.2564 43.7239 54.8053 43.7239C54.0963 43.7239 53.3873 43.6014 52.7428 43.3565C52.0338 43.1116 51.3893 42.7442 50.9316 42.3613V45.4551Z" fill="white"/>
</g>
<path d="M10.4261 64.794V63.2727H17.5938V64.794H14.9219V72H13.098V64.794H10.4261ZM18.0228 63.2727H20.0895L22.0796 67.0312H22.1648L24.1549 63.2727H26.2216L23.0384 68.9148V72H21.206V68.9148L18.0228 63.2727ZM26.9895 72V63.2727H30.4326C31.0946 63.2727 31.6585 63.3991 32.1244 63.652C32.5903 63.902 32.9454 64.25 33.1897 64.696C33.4369 65.1392 33.5605 65.6506 33.5605 66.2301C33.5605 66.8097 33.4355 67.321 33.1855 67.7642C32.9355 68.2074 32.5733 68.5526 32.0988 68.7997C31.6272 69.0469 31.0562 69.1705 30.3858 69.1705H28.1912V67.6918H30.0875C30.4426 67.6918 30.7352 67.6307 30.9653 67.5085C31.1983 67.3835 31.3716 67.2116 31.4852 66.9929C31.6017 66.7713 31.6599 66.517 31.6599 66.2301C31.6599 65.9403 31.6017 65.6875 31.4852 65.4716C31.3716 65.2528 31.1983 65.0838 30.9653 64.9645C30.7324 64.8423 30.4369 64.7812 30.0789 64.7812H28.8346V72H26.9895ZM34.519 72V63.2727H40.3997V64.794H36.3642V66.8736H40.0971V68.3949H36.3642V70.4787H40.4167V72H34.519ZM46.361 65.7827C46.3269 65.4389 46.1806 65.1719 45.9221 64.9815C45.6636 64.7912 45.3127 64.696 44.8695 64.696C44.5684 64.696 44.3141 64.7386 44.1068 64.8239C43.8994 64.9062 43.7403 65.0213 43.6295 65.169C43.5215 65.3168 43.4676 65.4844 43.4676 65.6719C43.4619 65.8281 43.4945 65.9645 43.5656 66.081C43.6394 66.1974 43.7403 66.2983 43.8681 66.3835C43.996 66.4659 44.1437 66.5384 44.3113 66.6009C44.4789 66.6605 44.6579 66.7116 44.8482 66.7543L45.6323 66.9418C46.013 67.027 46.3624 67.1406 46.6806 67.2827C46.9988 67.4247 47.2744 67.5994 47.5073 67.8068C47.7403 68.0142 47.9207 68.2585 48.0485 68.5398C48.1792 68.821 48.246 69.1435 48.2488 69.5071C48.246 70.0412 48.1096 70.5043 47.8397 70.8963C47.5727 71.2855 47.1863 71.5881 46.6806 71.804C46.1778 72.017 45.5713 72.1236 44.861 72.1236C44.1565 72.1236 43.5428 72.0156 43.0201 71.7997C42.5002 71.5838 42.094 71.2642 41.8014 70.8409C41.5116 70.4148 41.3596 69.8878 41.3454 69.2599H43.1309C43.1508 69.5526 43.2346 69.7969 43.3823 69.9929C43.5329 70.1861 43.7332 70.3324 43.9832 70.4318C44.236 70.5284 44.5215 70.5767 44.8397 70.5767C45.1522 70.5767 45.4235 70.5312 45.6536 70.4403C45.8866 70.3494 46.067 70.223 46.1948 70.0611C46.3227 69.8991 46.3866 69.7131 46.3866 69.5028C46.3866 69.3068 46.3284 69.142 46.2119 69.0085C46.0982 68.875 45.9306 68.7614 45.709 68.6676C45.4903 68.5739 45.2218 68.4886 44.9036 68.4119L43.9534 68.1733C43.2176 67.9943 42.6366 67.7145 42.2105 67.3338C41.7843 66.9531 41.5727 66.4403 41.5755 65.7955C41.5727 65.267 41.7133 64.8054 41.9974 64.4105C42.2843 64.0156 42.6778 63.7074 43.1778 63.4858C43.6778 63.2642 44.246 63.1534 44.8823 63.1534C45.5301 63.1534 46.0954 63.2642 46.5784 63.4858C47.0641 63.7074 47.442 64.0156 47.7119 64.4105C47.9818 64.8054 48.121 65.2628 48.1295 65.7827H46.361ZM56.9502 66.3281H55.0837C55.0496 66.0866 54.98 65.8722 54.8749 65.6847C54.7698 65.4943 54.6349 65.3324 54.4701 65.1989C54.3053 65.0653 54.115 64.9631 53.8991 64.892C53.686 64.821 53.4545 64.7855 53.2045 64.7855C52.7528 64.7855 52.3593 64.8977 52.0241 65.1222C51.6888 65.3437 51.4289 65.6676 51.2442 66.0938C51.0596 66.517 50.9673 67.0312 50.9673 67.6364C50.9673 68.2585 51.0596 68.7812 51.2442 69.2045C51.4317 69.6278 51.6931 69.9474 52.0283 70.1634C52.3636 70.3793 52.7513 70.4872 53.1917 70.4872C53.4388 70.4872 53.6675 70.4545 53.8778 70.3892C54.0908 70.3239 54.2798 70.2287 54.4445 70.1037C54.6093 69.9759 54.7457 69.821 54.8536 69.6392C54.9644 69.4574 55.0411 69.25 55.0837 69.017L56.9502 69.0256C56.9019 69.4261 56.7812 69.8125 56.588 70.1847C56.3977 70.554 56.1406 70.8849 55.8167 71.1776C55.4957 71.4673 55.1121 71.6974 54.6661 71.8679C54.2229 72.0355 53.7215 72.1193 53.1619 72.1193C52.3835 72.1193 51.6874 71.9432 51.0738 71.5909C50.463 71.2386 49.98 70.7287 49.6249 70.0611C49.2727 69.3935 49.0965 68.5852 49.0965 67.6364C49.0965 66.6847 49.2755 65.875 49.6335 65.2074C49.9914 64.5398 50.4772 64.0312 51.0908 63.6818C51.7045 63.3295 52.3948 63.1534 53.1619 63.1534C53.6675 63.1534 54.1363 63.2244 54.5681 63.3665C55.0028 63.5085 55.3877 63.7159 55.7229 63.9886C56.0582 64.2585 56.3309 64.5895 56.5411 64.9815C56.7542 65.3736 56.8906 65.8224 56.9502 66.3281ZM58.0334 72V63.2727H61.4765C62.1356 63.2727 62.6981 63.3906 63.164 63.6264C63.6328 63.8594 63.9893 64.1903 64.2337 64.6193C64.4808 65.0455 64.6044 65.5469 64.6044 66.1236C64.6044 66.7031 64.4794 67.2017 64.2294 67.6193C63.9794 68.0341 63.6172 68.3523 63.1427 68.5739C62.6712 68.7955 62.1001 68.9062 61.4297 68.9062H59.1243V67.4233H61.1314C61.4837 67.4233 61.7763 67.375 62.0092 67.2784C62.2422 67.1818 62.4155 67.0369 62.5291 66.8438C62.6456 66.6506 62.7038 66.4105 62.7038 66.1236C62.7038 65.8338 62.6456 65.5895 62.5291 65.3906C62.4155 65.1918 62.2408 65.0412 62.005 64.9389C61.772 64.8338 61.478 64.7812 61.1229 64.7812H59.8785V72H58.0334ZM62.7464 68.0284L64.9155 72H62.8785L60.7564 68.0284H62.7464ZM67.5135 63.2727V72H65.6684V63.2727H67.5135ZM68.7916 72V63.2727H72.2348C72.8968 63.2727 73.4607 63.3991 73.9266 63.652C74.3925 63.902 74.7476 64.25 74.9919 64.696C75.2391 65.1392 75.3627 65.6506 75.3627 66.2301C75.3627 66.8097 75.2377 67.321 74.9877 67.7642C74.7377 68.2074 74.3755 68.5526 73.901 68.7997C73.4294 69.0469 72.8584 69.1705 72.188 69.1705H69.9934V67.6918H71.8897C72.2448 67.6918 72.5374 67.6307 72.7675 67.5085C73.0005 67.3835 73.1738 67.2116 73.2874 66.9929C73.4039 66.7713 73.4621 66.517 73.4621 66.2301C73.4621 65.9403 73.4039 65.6875 73.2874 65.4716C73.1738 65.2528 73.0005 65.0838 72.7675 64.9645C72.5345 64.8423 72.2391 64.7812 71.8811 64.7812H70.6368V72H68.7916ZM75.9888 64.794V63.2727H83.1564V64.794H80.4845V72H78.6607V64.794H75.9888Z" fill="black"/>
</g>
<defs>
<filter id="filter0_d_509_419" x="0" y="0" width="94" height="98" filterUnits="userSpaceOnUse" color-interpolation-filters="sRGB">
<feFlood flood-opacity="0" result="BackgroundImageFix"/>
<feColorMatrix in="SourceAlpha" type="matrix" values="0 0 0 0 0 0 0 0 0 0 0 0 0 0 0 0 0 0 127 0" result="hardAlpha"/>
<feMorphology radius="4" operator="erode" in="SourceAlpha" result="effect1_dropShadow_509_419"/>
<feOffset dy="6"/>
<feGaussianBlur stdDeviation="3"/>
<feComposite in2="hardAlpha" operator="out"/>
<feColorMatrix type="matrix" values="0 0 0 0 0 0 0 0 0 0 0 0 0 0 0 0 0 0 1 0"/>
<feBlend mode="normal" in2="BackgroundImageFix" result="effect1_dropShadow_509_419"/>
<feBlend mode="normal" in="SourceGraphic" in2="effect1_dropShadow_509_419" result="shape"/>
</filter>
<clipPath id="clip0_509_419">
<rect width="33" height="33" fill="white" transform="translate(30.5 16)"/>
</clipPath>
</defs>
</svg>
