<svg width="94" height="98" viewBox="0 0 94 98" fill="none" xmlns="http://www.w3.org/2000/svg">
<g filter="url(#filter0_d_509_360)">
<rect x="2" width="90" height="90" rx="14" fill="white"/>
<path d="M34.1094 24.7656L47 17.5469L60.4062 24.7656L47 31.9844L34.1094 24.7656Z" fill="#ACE3FF"/>
<path d="M33.5938 24.7656V40.2344L47 47.9688V31.9844L33.5938 24.7656Z" fill="#ACE3FF"/>
<path d="M39.2656 27.8594L47 23.7344L54.7344 27.8594L47 31.9844L39.2656 27.8594Z" fill="#7BBEEB"/>
<path d="M47 47.9688L60.9219 40.2344V24.7656L47 31.9844V47.9688Z" fill="#ACE3FF"/>
<path d="M39.2656 27.8594V37.1406L47 41.2656V31.9844L39.2656 27.8594Z" fill="#7BBEEB"/>
<path d="M47 41.2656L54.7344 37.1406V27.8594L47 31.9844V41.2656Z" fill="#7BBEEB"/>
<path d="M39.2656 37.1406L33.5938 40.2344V24.7656L39.2656 27.8594V37.1406Z" fill="#E3F2FF"/>
<path d="M47 32.5C46.9165 32.5 46.8329 32.4799 46.7571 32.4397L39.0228 28.3147C38.8552 28.225 38.75 28.0496 38.75 27.8594C38.75 27.6691 38.8552 27.4938 39.0228 27.4041L46.7571 23.2791C46.9087 23.1986 47.0908 23.1986 47.2423 23.2791L54.9767 27.4041C55.1448 27.4938 55.25 27.6691 55.25 27.8594C55.25 28.0496 55.1448 28.225 54.9772 28.3147L47.2429 32.4397C47.1671 32.4799 47.0835 32.5 47 32.5ZM40.3613 27.8594L47 31.3997L53.6387 27.8594L47 24.3191L40.3613 27.8594Z" fill="#8D6C9F"/>
<path d="M39.2656 29.9219C38.981 29.9219 38.75 29.6914 38.75 29.4063V28.1657L33.3468 25.2184C33.1807 25.1276 33.0776 24.9533 33.0781 24.7641C33.0786 24.5754 33.1828 24.4016 33.3493 24.3114L46.7556 17.0926C47.0067 16.9575 47.3192 17.0514 47.4537 17.3025C47.5888 17.5526 47.495 17.8655 47.2444 18.0006L34.676 24.7687L39.5126 27.4067C39.6781 27.4969 39.7813 27.6707 39.7813 27.8594V29.4063C39.7813 29.6914 39.5503 29.9219 39.2656 29.9219Z" fill="#8D6C9F"/>
<path d="M39.2656 34.0469C38.981 34.0469 38.75 33.8164 38.75 33.5312V31.4688C38.75 31.1836 38.981 30.9531 39.2656 30.9531C39.5502 30.9531 39.7812 31.1836 39.7812 31.4688V33.5312C39.7812 33.8164 39.5502 34.0469 39.2656 34.0469Z" fill="#8D6C9F"/>
<path d="M47 41.7812C46.9165 41.7812 46.8335 41.7611 46.7571 41.7209L39.0228 37.5959C38.8552 37.5062 38.75 37.3309 38.75 37.1406V35.5938C38.75 35.3086 38.981 35.0781 39.2656 35.0781C39.5502 35.0781 39.7812 35.3086 39.7812 35.5938V36.8313L46.4844 40.4061V31.9844C46.4844 31.6992 46.7154 31.4688 47 31.4688C47.2846 31.4688 47.5156 31.6992 47.5156 31.9844V41.2656C47.5156 41.4471 47.4207 41.6147 47.2655 41.7075C47.1836 41.7565 47.0918 41.7812 47 41.7812Z" fill="#8D6C9F"/>
<path d="M60.9219 40.2344L47 47.4531V41.2656L54.7344 37.1406L60.9219 40.2344Z" fill="#85CBF8"/>
<path d="M47 48.4844C46.9098 48.4844 46.819 48.4606 46.7386 48.4132C46.5808 48.3209 46.4844 48.1513 46.4844 47.9687V41.2656C46.4844 40.9805 46.7154 40.75 47 40.75C47.2846 40.75 47.5156 40.9805 47.5156 41.2656V47.0927L60.6713 39.7837C60.9208 39.6445 61.2343 39.7352 61.3725 39.9843C61.5112 40.2328 61.421 40.5468 61.1725 40.685L47.2506 48.4194C47.1722 48.4627 47.0861 48.4844 47 48.4844Z" fill="#8D6C9F"/>
<path d="M54.7344 37.6562C54.4497 37.6562 54.2188 37.4257 54.2188 37.1406V27.8594C54.2188 27.6639 54.3291 27.4855 54.5039 27.3979L59.786 24.7568L47.5156 18.3951V23.7344C47.5156 24.0195 47.2846 24.25 47 24.25C46.7154 24.25 46.4844 24.0195 46.4844 23.7344V17.5469C46.4844 17.3664 46.5782 17.1998 46.7319 17.1065C46.8855 17.0127 47.0773 17.0065 47.2372 17.0895L61.1591 24.3083C61.3313 24.3975 61.4385 24.5759 61.4375 24.7703C61.436 24.9641 61.3261 25.141 61.1524 25.2276L55.25 28.178V37.1406C55.25 37.4257 55.019 37.6562 54.7344 37.6562Z" fill="#8D6C9F"/>
<path d="M53.2592 39.0278C53.0751 39.0278 52.8967 38.9288 52.8039 38.7551L52.3187 37.845C52.1841 37.5939 52.2795 37.2814 52.5306 37.1473C52.7833 37.0128 53.0942 37.1087 53.2282 37.3593L53.7134 38.2693C53.848 38.5204 53.7526 38.8329 53.5015 38.967C53.4237 39.0082 53.3406 39.0278 53.2592 39.0278Z" fill="#8D6C9F"/>
<path d="M51.1106 40.174C50.9265 40.174 50.7481 40.075 50.6548 39.9013L50.1696 38.9907C50.0355 38.7396 50.1309 38.4266 50.382 38.2925C50.6341 38.159 50.9456 38.2544 51.0801 38.505L51.5654 39.4155C51.6994 39.6667 51.604 39.9796 51.3529 40.1137C51.2751 40.1544 51.192 40.174 51.1106 40.174Z" fill="#8D6C9F"/>
<path d="M48.962 41.3192C48.7779 41.3192 48.5995 41.2202 48.5067 41.0465L48.0209 40.1364C47.8869 39.8853 47.9818 39.5728 48.2334 39.4387C48.486 39.3042 48.7975 39.4001 48.931 39.6507L49.4162 40.5607C49.5508 40.8119 49.4554 41.1243 49.2043 41.2584C49.1264 41.2996 49.0434 41.3192 48.962 41.3192Z" fill="#8D6C9F"/>
<path d="M60.9219 40.75C60.843 40.75 60.7641 40.732 60.6914 40.6959L54.5039 37.6021C54.2492 37.4748 54.146 37.1649 54.2734 36.9101C54.4007 36.6559 54.7101 36.5533 54.9654 36.6797L60.4062 39.4001V24.7656C60.4062 24.4805 60.6372 24.25 60.9219 24.25C61.2065 24.25 61.4375 24.4805 61.4375 24.7656V40.2344C61.4375 40.4133 61.3447 40.5788 61.1931 40.6732C61.1101 40.7242 61.0162 40.75 60.9219 40.75Z" fill="#8D6C9F"/>
<path d="M33.5938 40.75C33.5025 40.75 33.4112 40.7258 33.3308 40.6778C33.174 40.585 33.0781 40.4164 33.0781 40.2344V24.7656C33.0781 24.4805 33.3091 24.25 33.5938 24.25C33.8784 24.25 34.1094 24.4805 34.1094 24.7656V39.3655L39.0186 36.6879C39.2698 36.5518 39.5822 36.6441 39.7183 36.8936C39.855 37.1432 39.7627 37.4567 39.5126 37.5928L33.8407 40.6866C33.7639 40.7289 33.6788 40.75 33.5938 40.75Z" fill="#8D6C9F"/>
<path d="M46.9995 48.4844C46.9124 48.4844 46.8237 48.4622 46.7422 48.4153L33.3359 40.6809C33.0895 40.5386 33.0049 40.2235 33.1472 39.9766C33.2895 39.7301 33.6046 39.645 33.8516 39.7878L47.2578 47.5222C47.5048 47.6645 47.5894 47.9801 47.4471 48.2266C47.3512 48.3916 47.1779 48.4844 46.9995 48.4844Z" fill="#8D6C9F"/>
<path d="M20.223 72L17.7259 63.2727H19.7415L21.1861 69.3366H21.2585L22.8523 63.2727H24.5781L26.1676 69.3494H26.2443L27.6889 63.2727H29.7045L27.2074 72H25.4091L23.7472 66.294H23.679L22.0213 72H20.223ZM30.4521 72V63.2727H36.3328V64.794H32.2973V66.8736H36.0302V68.3949H32.2973V70.4787H36.3498V72H30.4521ZM37.5598 72V63.2727H41.0541C41.6961 63.2727 42.2316 63.3679 42.6606 63.5582C43.0896 63.7486 43.412 64.0128 43.628 64.3509C43.8439 64.6861 43.9518 65.0724 43.9518 65.5099C43.9518 65.8509 43.8836 66.1506 43.7473 66.4091C43.6109 66.6648 43.4234 66.875 43.1848 67.0398C42.949 67.2017 42.6791 67.3168 42.3751 67.3849V67.4702C42.7075 67.4844 43.0186 67.5781 43.3084 67.7514C43.601 67.9247 43.8382 68.1676 44.02 68.4801C44.2018 68.7898 44.2927 69.1591 44.2927 69.5881C44.2927 70.0511 44.1777 70.4645 43.9476 70.8281C43.7203 71.1889 43.3836 71.4744 42.9376 71.6847C42.4916 71.8949 41.9419 72 41.2885 72H37.5598ZM39.4049 70.4915H40.9092C41.4234 70.4915 41.7984 70.3935 42.0342 70.1974C42.27 69.9986 42.3879 69.7344 42.3879 69.4048C42.3879 69.1634 42.3297 68.9503 42.2132 68.7656C42.0967 68.581 41.9305 68.4361 41.7146 68.331C41.5015 68.2259 41.2473 68.1733 40.9518 68.1733H39.4049V70.4915ZM39.4049 66.9247H40.7728C41.0257 66.9247 41.2501 66.8807 41.4461 66.7926C41.645 66.7017 41.8013 66.5739 41.9149 66.4091C42.0314 66.2443 42.0896 66.0469 42.0896 65.8168C42.0896 65.5014 41.9774 65.2472 41.753 65.054C41.5314 64.8608 41.216 64.7642 40.8069 64.7642H39.4049V66.9247ZM45.2534 72V63.2727H48.6965C49.3585 63.2727 49.9224 63.3991 50.3883 63.652C50.8542 63.902 51.2093 64.25 51.4537 64.696C51.7008 65.1392 51.8244 65.6506 51.8244 66.2301C51.8244 66.8097 51.6994 67.321 51.4494 67.7642C51.1994 68.2074 50.8372 68.5526 50.3627 68.7997C49.8912 69.0469 49.3201 69.1705 48.6497 69.1705H46.4551V67.6918H48.3514C48.7065 67.6918 48.9991 67.6307 49.2292 67.5085C49.4622 67.3835 49.6355 67.2116 49.7491 66.9929C49.8656 66.7713 49.9238 66.517 49.9238 66.2301C49.9238 65.9403 49.8656 65.6875 49.7491 65.4716C49.6355 65.2528 49.4622 65.0838 49.2292 64.9645C48.9963 64.8423 48.7008 64.7812 48.3429 64.7812H47.0985V72H45.2534ZM53.2793 72H51.3021L54.3149 63.2727H56.6927L59.7012 72H57.7239L55.5379 65.267H55.4697L53.2793 72ZM53.1558 68.5696H57.8262V70.0099H53.1558V68.5696ZM67.8018 66.3281H65.9353C65.9012 66.0866 65.8316 65.8722 65.7265 65.6847C65.6214 65.4943 65.4864 65.3324 65.3217 65.1989C65.1569 65.0653 64.9665 64.9631 64.7506 64.892C64.5376 64.821 64.306 64.7855 64.056 64.7855C63.6043 64.7855 63.2109 64.8977 62.8756 65.1222C62.5404 65.3437 62.2805 65.6676 62.0958 66.0938C61.9111 66.517 61.8188 67.0312 61.8188 67.6364C61.8188 68.2585 61.9111 68.7812 62.0958 69.2045C62.2833 69.6278 62.5447 69.9474 62.8799 70.1634C63.2151 70.3793 63.6029 70.4872 64.0433 70.4872C64.2904 70.4872 64.5191 70.4545 64.7293 70.3892C64.9424 70.3239 65.1313 70.2287 65.2961 70.1037C65.4609 69.9759 65.5972 69.821 65.7052 69.6392C65.816 69.4574 65.8927 69.25 65.9353 69.017L67.8018 69.0256C67.7535 69.4261 67.6327 69.8125 67.4396 70.1847C67.2492 70.554 66.9921 70.8849 66.6683 71.1776C66.3472 71.4673 65.9637 71.6974 65.5177 71.8679C65.0745 72.0355 64.5731 72.1193 64.0134 72.1193C63.235 72.1193 62.539 71.9432 61.9254 71.5909C61.3146 71.2386 60.8316 70.7287 60.4765 70.0611C60.1242 69.3935 59.9481 68.5852 59.9481 67.6364C59.9481 66.6847 60.1271 65.875 60.485 65.2074C60.843 64.5398 61.3288 64.0312 61.9424 63.6818C62.556 63.3295 63.2464 63.1534 64.0134 63.1534C64.5191 63.1534 64.9879 63.2244 65.4197 63.3665C65.8543 63.5085 66.2393 63.7159 66.5745 63.9886C66.9097 64.2585 67.1825 64.5895 67.3927 64.9815C67.6058 65.3736 67.7421 65.8224 67.8018 66.3281ZM68.8849 72V63.2727H70.7301V67.1207H70.8452L73.9858 63.2727H76.1974L72.9588 67.1804L76.2358 72H74.0284L71.6378 68.4119L70.7301 69.5199V72H68.8849Z" fill="black"/>
</g>
<defs>
<filter id="filter0_d_509_360" x="0" y="0" width="94" height="98" filterUnits="userSpaceOnUse" color-interpolation-filters="sRGB">
<feFlood flood-opacity="0" result="BackgroundImageFix"/>
<feColorMatrix in="SourceAlpha" type="matrix" values="0 0 0 0 0 0 0 0 0 0 0 0 0 0 0 0 0 0 127 0" result="hardAlpha"/>
<feMorphology radius="4" operator="erode" in="SourceAlpha" result="effect1_dropShadow_509_360"/>
<feOffset dy="6"/>
<feGaussianBlur stdDeviation="3"/>
<feComposite in2="hardAlpha" operator="out"/>
<feColorMatrix type="matrix" values="0 0 0 0 0 0 0 0 0 0 0 0 0 0 0 0 0 0 1 0"/>
<feBlend mode="normal" in2="BackgroundImageFix" result="effect1_dropShadow_509_360"/>
<feBlend mode="normal" in="SourceGraphic" in2="effect1_dropShadow_509_360" result="shape"/>
</filter>
</defs>
</svg>
