<svg width="90" height="90" viewBox="0 0 90 90" fill="none" xmlns="http://www.w3.org/2000/svg">
<rect x="1" y="1" width="88" height="88" rx="13" fill="white"/>
<rect x="1" y="1" width="88" height="88" rx="13" stroke="black" stroke-width="2"/>
<path d="M30.8574 16.5893L33.4317 45.4598L44.9827 48.6661L56.566 45.4556L59.1431 16.5893H45.0003H30.8574ZM52.9379 32.6968L52.1882 39.6811L52.191 40.2793L45.0003 42.2876L44.9945 42.2927L37.7464 40.3067L37.256 34.7743H40.8104L41.0624 37.571L45.0016 38.6222L45.0003 38.627V38.6168L48.9544 37.5018L49.3717 32.8601H41.1064L41.0356 32.1088L40.8742 30.3072L40.7896 29.3507H49.6863L50.0098 25.8413H36.4594L36.3882 25.0153L36.2268 23.0916L36.1423 22.0129H53.8797L53.7945 23.0766L52.9379 32.6968Z" fill="#1572B6"/>
<path d="M37.004 72.228C36.212 72.228 35.532 72.092 34.964 71.82C34.396 71.54 33.932 71.176 33.572 70.728C33.212 70.272 32.944 69.784 32.768 69.264C32.6 68.736 32.516 68.224 32.516 67.728V67.464C32.516 66.92 32.604 66.384 32.78 65.856C32.956 65.32 33.224 64.836 33.584 64.404C33.952 63.972 34.412 63.628 34.964 63.372C35.524 63.108 36.184 62.976 36.944 62.976C37.736 62.976 38.436 63.124 39.044 63.42C39.652 63.716 40.136 64.128 40.496 64.656C40.864 65.176 41.08 65.788 41.144 66.492H39.164C39.108 66.14 38.98 65.84 38.78 65.592C38.58 65.344 38.32 65.152 38 65.016C37.688 64.88 37.336 64.812 36.944 64.812C36.552 64.812 36.204 64.88 35.9 65.016C35.596 65.152 35.34 65.344 35.132 65.592C34.932 65.84 34.776 66.136 34.664 66.48C34.56 66.816 34.508 67.192 34.508 67.608C34.508 68.016 34.56 68.392 34.664 68.736C34.776 69.072 34.936 69.368 35.144 69.624C35.36 69.872 35.624 70.064 35.936 70.2C36.248 70.328 36.604 70.392 37.004 70.392C37.612 70.392 38.124 70.244 38.54 69.948C38.964 69.652 39.22 69.244 39.308 68.724H41.276C41.204 69.364 40.988 69.952 40.628 70.488C40.276 71.016 39.792 71.44 39.176 71.76C38.568 72.072 37.844 72.228 37.004 72.228ZM45.3897 72.228C44.5977 72.228 43.9297 72.104 43.3857 71.856C42.8417 71.6 42.4297 71.256 42.1497 70.824C41.8697 70.384 41.7297 69.88 41.7297 69.312H43.6377C43.6377 69.536 43.6977 69.744 43.8177 69.936C43.9457 70.128 44.1377 70.284 44.3937 70.404C44.6497 70.516 44.9817 70.572 45.3897 70.572C45.7577 70.572 46.0657 70.524 46.3137 70.428C46.5617 70.332 46.7497 70.2 46.8777 70.032C47.0057 69.856 47.0697 69.656 47.0697 69.432C47.0697 69.152 46.9497 68.932 46.7097 68.772C46.4697 68.604 46.0817 68.496 45.5457 68.448L44.8857 68.388C44.0137 68.316 43.3177 68.044 42.7977 67.572C42.2777 67.1 42.0177 66.476 42.0177 65.7C42.0177 65.14 42.1497 64.656 42.4137 64.248C42.6857 63.84 43.0617 63.528 43.5417 63.312C44.0217 63.088 44.5897 62.976 45.2457 62.976C45.9337 62.976 46.5217 63.096 47.0097 63.336C47.5057 63.568 47.8857 63.9 48.1497 64.332C48.4137 64.756 48.5457 65.256 48.5457 65.832H46.6257C46.6257 65.616 46.5737 65.42 46.4697 65.244C46.3657 65.06 46.2097 64.912 46.0017 64.8C45.8017 64.688 45.5497 64.632 45.2457 64.632C44.9577 64.632 44.7137 64.68 44.5137 64.776C44.3217 64.872 44.1777 65.004 44.0817 65.172C43.9857 65.332 43.9377 65.508 43.9377 65.7C43.9377 65.948 44.0257 66.164 44.2017 66.348C44.3777 66.532 44.6657 66.64 45.0657 66.672L45.7377 66.732C46.3777 66.788 46.9417 66.928 47.4297 67.152C47.9177 67.368 48.2977 67.668 48.5697 68.052C48.8497 68.428 48.9897 68.888 48.9897 69.432C48.9897 69.992 48.8417 70.484 48.5457 70.908C48.2577 71.324 47.8457 71.648 47.3097 71.88C46.7737 72.112 46.1337 72.228 45.3897 72.228ZM53.1536 72.228C52.3616 72.228 51.6936 72.104 51.1496 71.856C50.6056 71.6 50.1936 71.256 49.9136 70.824C49.6336 70.384 49.4936 69.88 49.4936 69.312H51.4016C51.4016 69.536 51.4616 69.744 51.5816 69.936C51.7096 70.128 51.9016 70.284 52.1576 70.404C52.4136 70.516 52.7456 70.572 53.1536 70.572C53.5216 70.572 53.8296 70.524 54.0776 70.428C54.3256 70.332 54.5136 70.2 54.6416 70.032C54.7696 69.856 54.8336 69.656 54.8336 69.432C54.8336 69.152 54.7136 68.932 54.4736 68.772C54.2336 68.604 53.8456 68.496 53.3096 68.448L52.6496 68.388C51.7776 68.316 51.0816 68.044 50.5616 67.572C50.0416 67.1 49.7816 66.476 49.7816 65.7C49.7816 65.14 49.9136 64.656 50.1776 64.248C50.4496 63.84 50.8256 63.528 51.3056 63.312C51.7856 63.088 52.3536 62.976 53.0096 62.976C53.6976 62.976 54.2856 63.096 54.7736 63.336C55.2696 63.568 55.6496 63.9 55.9136 64.332C56.1776 64.756 56.3096 65.256 56.3096 65.832H54.3896C54.3896 65.616 54.3376 65.42 54.2336 65.244C54.1296 65.06 53.9736 64.912 53.7656 64.8C53.5656 64.688 53.3136 64.632 53.0096 64.632C52.7216 64.632 52.4776 64.68 52.2776 64.776C52.0856 64.872 51.9416 65.004 51.8456 65.172C51.7496 65.332 51.7016 65.508 51.7016 65.7C51.7016 65.948 51.7896 66.164 51.9656 66.348C52.1416 66.532 52.4296 66.64 52.8296 66.672L53.5016 66.732C54.1416 66.788 54.7056 66.928 55.1936 67.152C55.6816 67.368 56.0616 67.668 56.3336 68.052C56.6136 68.428 56.7536 68.888 56.7536 69.432C56.7536 69.992 56.6056 70.484 56.3096 70.908C56.0216 71.324 55.6096 71.648 55.0736 71.88C54.5376 72.112 53.8976 72.228 53.1536 72.228Z" fill="black"/>
</svg>
