<svg width="90" height="90" viewBox="0 0 90 90" fill="none" xmlns="http://www.w3.org/2000/svg">
<rect x="1" y="1" width="88" height="88" rx="13" fill="white"/>
<rect x="1" y="1" width="88" height="88" rx="13" stroke="black" stroke-width="2"/>
<path d="M46.375 27.6875H40.875C38.2171 27.6875 36.0625 25.5329 36.0625 22.875C36.0625 20.2171 38.2171 18.0625 40.875 18.0625H46.375V27.6875Z" fill="#E64A19"/>
<path d="M45.6875 37.3125H40.875C38.2171 37.3125 36.0625 35.1579 36.0625 32.5C36.0625 29.8421 38.2171 27.6875 40.875 27.6875H45.6875V37.3125Z" fill="#7C4DFF"/>
<path d="M40.875 46.9375C38.2171 46.9375 36.0625 44.7829 36.0625 42.125C36.0625 39.4671 38.2171 37.3125 40.875 37.3125H45.6875V42.125C45.6875 44.7829 43.5329 46.9375 40.875 46.9375Z" fill="#66BB6A"/>
<path d="M50.5 27.6875H45.6875V18.0625H50.5C53.1579 18.0625 55.3125 20.2171 55.3125 22.875C55.3125 25.5329 53.1579 27.6875 50.5 27.6875Z" fill="#FF7043"/>
<path d="M50.5 37.3125C53.1579 37.3125 55.3125 35.1579 55.3125 32.5C55.3125 29.8421 53.1579 27.6875 50.5 27.6875C47.8421 27.6875 45.6875 29.8421 45.6875 32.5C45.6875 35.1579 47.8421 37.3125 50.5 37.3125Z" fill="#29B6F6"/>
<path d="M25.484 72V63.24H27.452V72H25.484ZM27.212 68.472V66.84H30.596V68.472H27.212ZM27.212 64.872V63.24H30.74V64.872H27.212ZM31.9828 72V63.24H33.9508V72H31.9828ZM39.8552 72.228C39.0712 72.228 38.3872 72.1 37.8032 71.844C37.2192 71.58 36.7352 71.228 36.3512 70.788C35.9752 70.348 35.6952 69.86 35.5112 69.324C35.3272 68.788 35.2352 68.252 35.2352 67.716V67.452C35.2352 66.9 35.3272 66.36 35.5112 65.832C35.6952 65.304 35.9712 64.824 36.3392 64.392C36.7152 63.96 37.1792 63.616 37.7312 63.36C38.2912 63.104 38.9352 62.976 39.6632 62.976C40.4552 62.976 41.1552 63.124 41.7632 63.42C42.3712 63.708 42.8592 64.112 43.2272 64.632C43.5952 65.144 43.8072 65.74 43.8632 66.42H41.8952C41.8472 66.1 41.7192 65.82 41.5112 65.58C41.3112 65.34 41.0512 65.152 40.7312 65.016C40.4192 64.88 40.0632 64.812 39.6632 64.812C39.2792 64.812 38.9352 64.88 38.6312 65.016C38.3352 65.152 38.0792 65.344 37.8632 65.592C37.6552 65.84 37.4952 66.136 37.3832 66.48C37.2792 66.816 37.2272 67.188 37.2272 67.596C37.2272 68.02 37.2832 68.408 37.3952 68.76C37.5152 69.104 37.6872 69.404 37.9112 69.66C38.1352 69.908 38.4112 70.1 38.7392 70.236C39.0752 70.372 39.4472 70.44 39.8552 70.44C40.3992 70.44 40.8712 70.328 41.2712 70.104C41.6712 69.88 41.9592 69.584 42.1352 69.216L41.8952 70.56V68.472H43.7072V70.344C43.3312 70.952 42.8112 71.42 42.1472 71.748C41.4912 72.068 40.7272 72.228 39.8552 72.228ZM39.6032 68.856V67.44H44.4272V68.856H39.6032ZM45.4593 72V63.24H48.1713L50.1753 68.16H50.4033L52.3833 63.24H55.1433V72H53.1993V64.524L53.4753 64.548L51.1593 70.224H49.2873L46.9593 64.548L47.2593 64.524V72H45.4593ZM56.0398 72L58.9318 63.24H62.1118L65.1118 72H63.0718L60.6478 64.596L61.2718 64.848H59.7238L60.3718 64.596L58.0078 72H56.0398ZM58.2358 69.828L58.8358 68.196H62.2678L62.8798 69.828H58.2358Z" fill="black"/>
</svg>
