<svg width="94" height="98" viewBox="0 0 94 98" fill="none" xmlns="http://www.w3.org/2000/svg">
<g filter="url(#filter0_d_509_348)">
<rect x="2" width="90" height="90" rx="14" fill="white"/>
<path d="M48.375 27.6875H42.875C40.2171 27.6875 38.0625 25.5329 38.0625 22.875C38.0625 20.2171 40.2171 18.0625 42.875 18.0625H48.375V27.6875Z" fill="#E64A19"/>
<path d="M47.6875 37.3125H42.875C40.2171 37.3125 38.0625 35.1579 38.0625 32.5C38.0625 29.8421 40.2171 27.6875 42.875 27.6875H47.6875V37.3125Z" fill="#7C4DFF"/>
<path d="M42.875 46.9375C40.2171 46.9375 38.0625 44.7829 38.0625 42.125C38.0625 39.4671 40.2171 37.3125 42.875 37.3125H47.6875V42.125C47.6875 44.7829 45.5329 46.9375 42.875 46.9375Z" fill="#66BB6A"/>
<path d="M52.5 27.6875H47.6875V18.0625H52.5C55.1579 18.0625 57.3125 20.2171 57.3125 22.875C57.3125 25.5329 55.1579 27.6875 52.5 27.6875Z" fill="#FF7043"/>
<path d="M52.5 37.3125C55.1579 37.3125 57.3125 35.1579 57.3125 32.5C57.3125 29.8421 55.1579 27.6875 52.5 27.6875C49.8421 27.6875 47.6875 29.8421 47.6875 32.5C47.6875 35.1579 49.8421 37.3125 52.5 37.3125Z" fill="#29B6F6"/>
<path d="M28.2585 72V63.2727H34.0369V64.794H30.1037V66.8736H33.6534V68.3949H30.1037V72H28.2585ZM36.8832 63.2727V72H35.0381V63.2727H36.8832ZM43.9483 66.0938C43.8886 65.8864 43.8048 65.7031 43.6968 65.544C43.5889 65.3821 43.4568 65.2457 43.3005 65.1349C43.1471 65.0213 42.971 64.9347 42.7721 64.875C42.5761 64.8153 42.3588 64.7855 42.1201 64.7855C41.6741 64.7855 41.2821 64.8963 40.944 65.1179C40.6088 65.3395 40.3474 65.6619 40.1599 66.0852C39.9724 66.5057 39.8787 67.0199 39.8787 67.6278C39.8787 68.2358 39.971 68.7528 40.1557 69.179C40.3403 69.6051 40.6017 69.9304 40.9397 70.1548C41.2778 70.3764 41.677 70.4872 42.1372 70.4872C42.5548 70.4872 42.9113 70.4134 43.2068 70.2656C43.5051 70.1151 43.7324 69.9034 43.8886 69.6307C44.0477 69.358 44.1272 69.0355 44.1272 68.6634L44.5022 68.7188H42.2522V67.3295H45.9042V68.429C45.9042 69.196 45.7423 69.8551 45.4184 70.4062C45.0946 70.9545 44.6486 71.3778 44.0804 71.6761C43.5122 71.9716 42.8616 72.1193 42.1287 72.1193C41.3105 72.1193 40.5917 71.9389 39.9724 71.5781C39.3531 71.2145 38.8701 70.6989 38.5236 70.0312C38.1798 69.3608 38.0079 68.5653 38.0079 67.6449C38.0079 66.9375 38.1102 66.3068 38.3147 65.7528C38.5221 65.196 38.8119 64.7244 39.1841 64.3381C39.5562 63.9517 39.9895 63.6577 40.4838 63.456C40.9781 63.2543 41.5136 63.1534 42.0903 63.1534C42.5846 63.1534 43.0449 63.2259 43.471 63.3707C43.8971 63.5128 44.275 63.7145 44.6045 63.9759C44.9369 64.2372 45.2082 64.5483 45.4184 64.9091C45.6287 65.267 45.7636 65.6619 45.8233 66.0938H43.9483ZM47.0502 63.2727H49.3258L51.7292 69.1364H51.8315L54.2349 63.2727H56.5105V72H54.7207V66.3196H54.6483L52.3897 71.9574H51.171L48.9125 66.2983H48.84V72H47.0502V63.2727ZM59.295 72H57.3177L60.3305 63.2727H62.7083L65.7168 72H63.7396L61.5535 65.267H61.4853L59.295 72ZM59.1714 68.5696H63.8418V70.0099H59.1714V68.5696Z" fill="black"/>
</g>
<defs>
<filter id="filter0_d_509_348" x="0" y="0" width="94" height="98" filterUnits="userSpaceOnUse" color-interpolation-filters="sRGB">
<feFlood flood-opacity="0" result="BackgroundImageFix"/>
<feColorMatrix in="SourceAlpha" type="matrix" values="0 0 0 0 0 0 0 0 0 0 0 0 0 0 0 0 0 0 127 0" result="hardAlpha"/>
<feMorphology radius="4" operator="erode" in="SourceAlpha" result="effect1_dropShadow_509_348"/>
<feOffset dy="6"/>
<feGaussianBlur stdDeviation="3"/>
<feComposite in2="hardAlpha" operator="out"/>
<feColorMatrix type="matrix" values="0 0 0 0 0 0 0 0 0 0 0 0 0 0 0 0 0 0 1 0"/>
<feBlend mode="normal" in2="BackgroundImageFix" result="effect1_dropShadow_509_348"/>
<feBlend mode="normal" in="SourceGraphic" in2="effect1_dropShadow_509_348" result="shape"/>
</filter>
</defs>
</svg>
