<svg width="94" height="98" viewBox="0 0 94 98" fill="none" xmlns="http://www.w3.org/2000/svg">
<g filter="url(#filter0_d_509_356)">
<rect x="2" width="90" height="90" rx="14" fill="white"/>
<g clip-path="url(#clip0_509_356)">
<path d="M62.333 30.8982L48.5998 17.1651C48.1786 16.7438 47.5888 16.4911 46.999 16.4911C46.4093 16.4911 45.8195 16.7438 45.3982 17.1651L42.4494 20.1139L45.9038 23.5683C46.2408 23.3998 46.5778 23.3155 46.999 23.3155C48.4313 23.3155 49.5266 24.4108 49.5266 25.8431C49.5266 26.2643 49.4424 26.6014 49.2738 26.9384L52.6439 30.3085C52.981 30.14 53.318 30.0557 53.7392 30.0557C55.1715 30.0557 56.2668 31.151 56.2668 32.5833C56.2668 34.0156 55.1715 35.1108 53.7392 35.1108C52.3069 35.1108 51.2117 34.0156 51.2117 32.5833C51.2117 32.162 51.2959 31.825 51.4644 31.488L48.0943 28.1179C48.0101 28.1179 47.9258 28.2021 47.8416 28.2021V36.9644C48.8526 37.3014 49.5266 38.2282 49.5266 39.3235C49.5266 40.7557 48.4313 41.851 46.999 41.851C45.5667 41.851 44.4715 40.7557 44.4715 39.3235C44.4715 38.2282 45.1455 37.3014 46.1565 36.9644V28.1179C45.1455 27.7809 44.4715 26.8541 44.4715 25.7588C44.4715 25.3376 44.5557 25.0006 44.7242 24.6636L41.2699 21.2092L31.6651 30.8982C31.2438 31.3195 30.9911 31.9093 30.9911 32.499C30.9911 33.0888 31.2438 33.6786 31.6651 34.0998L45.3982 47.8329C45.8195 48.2542 46.4093 48.507 46.999 48.507C47.5888 48.507 48.1786 48.2542 48.5998 47.8329L62.333 34.0998C62.7542 33.6786 63.007 33.0888 63.007 32.499C63.007 31.9093 62.7542 31.3195 62.333 30.8982Z" fill="#F4511E"/>
</g>
<path d="M43.0455 66.0938C42.9858 65.8864 42.902 65.7031 42.794 65.544C42.6861 65.3821 42.554 65.2457 42.3977 65.1349C42.2443 65.0213 42.0682 64.9347 41.8693 64.875C41.6733 64.8153 41.456 64.7855 41.2173 64.7855C40.7713 64.7855 40.3793 64.8963 40.0412 65.1179C39.706 65.3395 39.4446 65.6619 39.2571 66.0852C39.0696 66.5057 38.9759 67.0199 38.9759 67.6278C38.9759 68.2358 39.0682 68.7528 39.2528 69.179C39.4375 69.6051 39.6989 69.9304 40.0369 70.1548C40.375 70.3764 40.7741 70.4872 41.2344 70.4872C41.652 70.4872 42.0085 70.4134 42.304 70.2656C42.6023 70.1151 42.8295 69.9034 42.9858 69.6307C43.1449 69.358 43.2244 69.0355 43.2244 68.6634L43.5994 68.7188H41.3494V67.3295H45.0014V68.429C45.0014 69.196 44.8395 69.8551 44.5156 70.4062C44.1918 70.9545 43.7457 71.3778 43.1776 71.6761C42.6094 71.9716 41.9588 72.1193 41.2259 72.1193C40.4077 72.1193 39.6889 71.9389 39.0696 71.5781C38.4503 71.2145 37.9673 70.6989 37.6207 70.0312C37.277 69.3608 37.1051 68.5653 37.1051 67.6449C37.1051 66.9375 37.2074 66.3068 37.4119 65.7528C37.6193 65.196 37.9091 64.7244 38.2812 64.3381C38.6534 63.9517 39.0866 63.6577 39.581 63.456C40.0753 63.2543 40.6108 63.1534 41.1875 63.1534C41.6818 63.1534 42.142 63.2259 42.5682 63.3707C42.9943 63.5128 43.3722 63.7145 43.7017 63.9759C44.0341 64.2372 44.3054 64.5483 44.5156 64.9091C44.7259 65.267 44.8608 65.6619 44.9205 66.0938H43.0455ZM47.9926 63.2727V72H46.1474V63.2727H47.9926ZM48.9383 64.794V63.2727H56.1059V64.794H53.4341V72H51.6102V64.794H48.9383Z" fill="black"/>
</g>
<defs>
<filter id="filter0_d_509_356" x="0" y="0" width="94" height="98" filterUnits="userSpaceOnUse" color-interpolation-filters="sRGB">
<feFlood flood-opacity="0" result="BackgroundImageFix"/>
<feColorMatrix in="SourceAlpha" type="matrix" values="0 0 0 0 0 0 0 0 0 0 0 0 0 0 0 0 0 0 127 0" result="hardAlpha"/>
<feMorphology radius="4" operator="erode" in="SourceAlpha" result="effect1_dropShadow_509_356"/>
<feOffset dy="6"/>
<feGaussianBlur stdDeviation="3"/>
<feComposite in2="hardAlpha" operator="out"/>
<feColorMatrix type="matrix" values="0 0 0 0 0 0 0 0 0 0 0 0 0 0 0 0 0 0 1 0"/>
<feBlend mode="normal" in2="BackgroundImageFix" result="effect1_dropShadow_509_356"/>
<feBlend mode="normal" in="SourceGraphic" in2="effect1_dropShadow_509_356" result="shape"/>
</filter>
<clipPath id="clip0_509_356">
<rect width="33" height="33" fill="white" transform="translate(30.5 16)"/>
</clipPath>
</defs>
</svg>
