<svg width="90" height="90" viewBox="0 0 90 90" fill="none" xmlns="http://www.w3.org/2000/svg">
<rect x="1" y="1" width="88" height="88" rx="13" fill="white"/>
<rect x="1" y="1" width="88" height="88" rx="13" stroke="black" stroke-width="2"/>
<g clip-path="url(#clip0_97_172)">
<path d="M60.3331 30.8982L46.6 17.1651C46.1787 16.7438 45.5889 16.4911 44.9992 16.4911C44.4094 16.4911 43.8196 16.7438 43.3984 17.1651L40.4495 20.1139L43.9039 23.5683C44.2409 23.3998 44.5779 23.3155 44.9992 23.3155C46.4314 23.3155 47.5267 24.4108 47.5267 25.8431C47.5267 26.2643 47.4425 26.6014 47.274 26.9384L50.6441 30.3085C50.9811 30.14 51.3181 30.0557 51.7393 30.0557C53.1716 30.0557 54.2669 31.151 54.2669 32.5833C54.2669 34.0156 53.1716 35.1108 51.7393 35.1108C50.3071 35.1108 49.2118 34.0156 49.2118 32.5833C49.2118 32.162 49.296 31.825 49.4645 31.488L46.0944 28.1179C46.0102 28.1179 45.9259 28.2021 45.8417 28.2021V36.9644C46.8527 37.3014 47.5267 38.2282 47.5267 39.3235C47.5267 40.7557 46.4314 41.851 44.9992 41.851C43.5669 41.851 42.4716 40.7557 42.4716 39.3235C42.4716 38.2282 43.1456 37.3014 44.1566 36.9644V28.1179C43.1456 27.7809 42.4716 26.8541 42.4716 25.7588C42.4716 25.3376 42.5558 25.0006 42.7243 24.6636L39.27 21.2092L29.6652 30.8982C29.244 31.3195 28.9912 31.9093 28.9912 32.499C28.9912 33.0888 29.244 33.6786 29.6652 34.0998L43.3984 47.8329C43.8196 48.2542 44.4094 48.507 44.9992 48.507C45.5889 48.507 46.1787 48.2542 46.6 47.8329L60.3331 34.0998C60.7543 33.6786 61.0071 33.0888 61.0071 32.499C61.0071 31.9093 60.7543 31.3195 60.3331 30.8982Z" fill="#F4511E"/>
</g>
<path d="M39.636 72.228C38.852 72.228 38.168 72.1 37.584 71.844C37 71.58 36.516 71.228 36.132 70.788C35.756 70.348 35.476 69.86 35.292 69.324C35.108 68.788 35.016 68.252 35.016 67.716V67.452C35.016 66.9 35.108 66.36 35.292 65.832C35.476 65.304 35.752 64.824 36.12 64.392C36.496 63.96 36.96 63.616 37.512 63.36C38.072 63.104 38.716 62.976 39.444 62.976C40.236 62.976 40.936 63.124 41.544 63.42C42.152 63.708 42.64 64.112 43.008 64.632C43.376 65.144 43.588 65.74 43.644 66.42H41.676C41.628 66.1 41.5 65.82 41.292 65.58C41.092 65.34 40.832 65.152 40.512 65.016C40.2 64.88 39.844 64.812 39.444 64.812C39.06 64.812 38.716 64.88 38.412 65.016C38.116 65.152 37.86 65.344 37.644 65.592C37.436 65.84 37.276 66.136 37.164 66.48C37.06 66.816 37.008 67.188 37.008 67.596C37.008 68.02 37.064 68.408 37.176 68.76C37.296 69.104 37.468 69.404 37.692 69.66C37.916 69.908 38.192 70.1 38.52 70.236C38.856 70.372 39.228 70.44 39.636 70.44C40.18 70.44 40.652 70.328 41.052 70.104C41.452 69.88 41.74 69.584 41.916 69.216L41.676 70.56V68.472H43.488V70.344C43.112 70.952 42.592 71.42 41.928 71.748C41.272 72.068 40.508 72.228 39.636 72.228ZM39.384 68.856V67.44H44.208V68.856H39.384ZM45.2641 72V63.24H47.2321V72H45.2641ZM50.7245 72V64.716H52.6925V72H50.7245ZM48.2645 64.956V63.24H55.1645V64.956H48.2645Z" fill="black"/>
<defs>
<clipPath id="clip0_97_172">
<rect width="33" height="33" fill="white" transform="translate(28.5 16)"/>
</clipPath>
</defs>
</svg>
