<svg width="94" height="98" viewBox="0 0 94 98" fill="none" xmlns="http://www.w3.org/2000/svg">
<g filter="url(#filter0_d_509_328)">
<rect x="2" width="90" height="90" rx="14" fill="white"/>
<path d="M35.408 45.3587L32.8286 16.4282H61.1714L58.5892 45.3543L46.9827 48.5718L35.408 45.3587Z" fill="#E44D26"/>
<path d="M47 46.1125L56.3787 43.5122L58.5853 18.7937H47V46.1125Z" fill="#F16529"/>
<path d="M47 29.5236H42.3047L41.9804 25.8899H47V22.3419H38.1026L38.1877 23.2938L39.0596 33.0718H47V29.5236ZM47 38.7386L46.9843 38.7429L43.0328 37.6756L42.7804 34.8461H39.2182L39.7152 40.4172L46.9838 42.4348L47 42.4304V38.7386Z" fill="#EBEBEB"/>
<path d="M46.9876 29.5236V33.0718H51.3568L50.945 37.6735L46.9876 38.7416V42.4333L54.2618 40.4172L54.3152 39.8178L55.1489 30.4764L55.2353 29.5236H54.2793H46.9876ZM46.9876 22.3419V25.8899H55.5583L55.6295 25.0928L55.7914 23.2938L55.8762 22.3419H46.9876Z" fill="white"/>
<path d="M30.2585 72V63.2727H32.1037V66.8736H35.8494V63.2727H37.6903V72H35.8494V68.3949H32.1037V72H30.2585ZM38.6393 64.794V63.2727H45.8069V64.794H43.135V72H41.3111V64.794H38.6393ZM46.7473 63.2727H49.0228L51.4263 69.1364H51.5285L53.9319 63.2727H56.2075V72H54.4177V66.3196H54.3453L52.0868 71.9574H50.868L48.6095 66.2983H48.537V72H46.7473V63.2727ZM57.4877 72V63.2727H59.3329V70.4787H63.0744V72H57.4877Z" fill="black"/>
</g>
<defs>
<filter id="filter0_d_509_328" x="0" y="0" width="94" height="98" filterUnits="userSpaceOnUse" color-interpolation-filters="sRGB">
<feFlood flood-opacity="0" result="BackgroundImageFix"/>
<feColorMatrix in="SourceAlpha" type="matrix" values="0 0 0 0 0 0 0 0 0 0 0 0 0 0 0 0 0 0 127 0" result="hardAlpha"/>
<feMorphology radius="4" operator="erode" in="SourceAlpha" result="effect1_dropShadow_509_328"/>
<feOffset dy="6"/>
<feGaussianBlur stdDeviation="3"/>
<feComposite in2="hardAlpha" operator="out"/>
<feColorMatrix type="matrix" values="0 0 0 0 0 0 0 0 0 0 0 0 0 0 0 0 0 0 1 0"/>
<feBlend mode="normal" in2="BackgroundImageFix" result="effect1_dropShadow_509_328"/>
<feBlend mode="normal" in="SourceGraphic" in2="effect1_dropShadow_509_328" result="shape"/>
</filter>
</defs>
</svg>
