<svg width="90" height="90" viewBox="0 0 90 90" fill="none" xmlns="http://www.w3.org/2000/svg">
<rect x="1" y="1" width="88" height="88" rx="13" fill="white"/>
<rect x="1" y="1" width="88" height="88" rx="13" stroke="black" stroke-width="2"/>
<path d="M33.4075 45.3587L30.8281 16.4282H59.171L56.5887 45.3543L44.9823 48.5718L33.4075 45.3587Z" fill="#E44D26"/>
<path d="M45 46.1125L54.3787 43.5122L56.5853 18.7937H45V46.1125Z" fill="#F16529"/>
<path d="M44.9999 29.5236H40.3046L39.9803 25.8899H44.9999V22.3419H36.1025L36.1876 23.2938L37.0595 33.0718H44.9999V29.5236ZM44.9999 38.7386L44.9842 38.7429L41.0327 37.6756L40.7803 34.8461H37.2181L37.7152 40.4172L44.9837 42.4348L44.9999 42.4304V38.7386Z" fill="#EBEBEB"/>
<path d="M44.9873 29.5236V33.0718H49.3565L48.9447 37.6735L44.9873 38.7416V42.4333L52.2615 40.4172L52.3149 39.8178L53.1486 30.4764L53.235 29.5236H52.279H44.9873ZM44.9873 22.3419V25.8899H53.558L53.6292 25.0928L53.7911 23.2938L53.8759 22.3419H44.9873Z" fill="white"/>
<path d="M34.148 72V63.24H36.116V72H34.148ZM28.484 72V63.24H30.452V72H28.484ZM30.104 68.46V66.732H34.496V68.46H30.104ZM39.5817 72V64.716H41.5497V72H39.5817ZM37.1217 64.956V63.24H44.0217V64.956H37.1217ZM45.0196 72V63.24H47.7316L49.7356 68.16H49.9636L51.9436 63.24H54.7036V72H52.7596V64.524L53.0356 64.548L50.7196 70.224H48.8476L46.5196 64.548L46.8196 64.524V72H45.0196ZM56.4281 72V63.24H58.3961V72H56.4281ZM58.1561 72V70.272H61.8281V72H58.1561Z" fill="black"/>
</svg>
