<svg width="90" height="90" viewBox="0 0 90 90" fill="none" xmlns="http://www.w3.org/2000/svg">
<rect x="1" y="1" width="88" height="88" rx="13" fill="white"/>
<rect x="1" y="1" width="88" height="88" rx="13" stroke="black" stroke-width="2"/>
<rect x="28.5" y="16" width="33" height="33" rx="4" fill="#FFD600"/>
<path d="M52.932 42.7761C53.4077 43.5488 53.9247 44.2893 55.0199 44.2893C55.9398 44.2893 56.4224 43.8321 56.4224 43.1996C56.4224 42.4426 55.9233 42.1738 54.9113 41.7331L54.3565 41.4966C52.7553 40.8174 51.6903 39.9663 51.6903 38.1685C51.6903 36.5116 52.9588 35.2507 54.9408 35.2507C56.3523 35.2507 57.3663 35.7395 58.0978 37.0196L56.3695 38.1245C55.9893 37.4452 55.5781 37.1778 54.9408 37.1778C54.2905 37.1778 53.8786 37.5882 53.8786 38.1245C53.8786 38.7872 54.2911 39.0553 55.2433 39.4658L55.7981 39.7023C57.6853 40.506 58.7496 41.3268 58.7496 43.1721C58.7496 45.1603 57.1793 46.25 55.0715 46.25C53.0096 46.25 51.8388 45.2153 51.1871 43.9345L52.932 42.7761ZM44.9666 42.8324C45.3145 43.4553 45.8431 43.9345 46.6035 43.9345C47.3309 43.9345 47.7496 43.6471 47.7496 42.53V35.25H50.041V42.882C50.041 45.1968 48.6983 46.25 46.7376 46.25C44.9659 46.25 43.6871 45.0496 43.166 43.9345L44.9666 42.8324Z" fill="#000001"/>
<path d="M9.636 72.228C8.972 72.228 8.396 72.104 7.908 71.856C7.428 71.6 7.056 71.232 6.792 70.752C6.536 70.272 6.408 69.688 6.408 69V68.556H8.352V69.108C8.352 69.492 8.464 69.804 8.688 70.044C8.92 70.276 9.236 70.392 9.636 70.392C10.028 70.392 10.336 70.276 10.56 70.044C10.792 69.804 10.908 69.492 10.908 69.108V64.716H12.876V69C12.876 69.688 12.744 70.272 12.48 70.752C12.224 71.232 11.852 71.6 11.364 71.856C10.884 72.104 10.308 72.228 9.636 72.228ZM7.428 64.956V63.24H12.876V64.956H7.428ZM13.3105 72L16.2025 63.24H19.3825L22.3825 72H20.3425L17.9185 64.596L18.5425 64.848H16.9945L17.6425 64.596L15.2785 72H13.3105ZM15.5065 69.828L16.1065 68.196H19.5385L20.1505 69.828H15.5065ZM24.6196 72L21.9556 63.24H23.9836L26.0956 70.632L25.6396 70.404H26.8636L26.3836 70.632L28.3396 63.24H30.3076L27.8236 72H24.6196ZM29.9048 72L32.7968 63.24H35.9768L38.9768 72H36.9368L34.5128 64.596L35.1368 64.848H33.5888L34.2368 64.596L31.8728 72H29.9048ZM32.1008 69.828L32.7008 68.196H36.1328L36.7448 69.828H32.1008ZM42.8806 72.228C42.0886 72.228 41.4206 72.104 40.8766 71.856C40.3326 71.6 39.9206 71.256 39.6406 70.824C39.3606 70.384 39.2206 69.88 39.2206 69.312H41.1286C41.1286 69.536 41.1886 69.744 41.3086 69.936C41.4366 70.128 41.6286 70.284 41.8846 70.404C42.1406 70.516 42.4726 70.572 42.8806 70.572C43.2486 70.572 43.5566 70.524 43.8046 70.428C44.0526 70.332 44.2406 70.2 44.3686 70.032C44.4966 69.856 44.5606 69.656 44.5606 69.432C44.5606 69.152 44.4406 68.932 44.2006 68.772C43.9606 68.604 43.5726 68.496 43.0366 68.448L42.3766 68.388C41.5046 68.316 40.8086 68.044 40.2886 67.572C39.7686 67.1 39.5086 66.476 39.5086 65.7C39.5086 65.14 39.6406 64.656 39.9046 64.248C40.1766 63.84 40.5526 63.528 41.0326 63.312C41.5126 63.088 42.0806 62.976 42.7366 62.976C43.4246 62.976 44.0126 63.096 44.5006 63.336C44.9966 63.568 45.3766 63.9 45.6406 64.332C45.9046 64.756 46.0366 65.256 46.0366 65.832H44.1166C44.1166 65.616 44.0646 65.42 43.9606 65.244C43.8566 65.06 43.7006 64.912 43.4926 64.8C43.2926 64.688 43.0406 64.632 42.7366 64.632C42.4486 64.632 42.2046 64.68 42.0046 64.776C41.8126 64.872 41.6686 65.004 41.5726 65.172C41.4766 65.332 41.4286 65.508 41.4286 65.7C41.4286 65.948 41.5166 66.164 41.6926 66.348C41.8686 66.532 42.1566 66.64 42.5566 66.672L43.2286 66.732C43.8686 66.788 44.4326 66.928 44.9206 67.152C45.4086 67.368 45.7886 67.668 46.0606 68.052C46.3406 68.428 46.4806 68.888 46.4806 69.432C46.4806 69.992 46.3326 70.484 46.0366 70.908C45.7486 71.324 45.3366 71.648 44.8006 71.88C44.2646 72.112 43.6246 72.228 42.8806 72.228ZM51.6165 72.228C50.8245 72.228 50.1445 72.092 49.5765 71.82C49.0085 71.54 48.5445 71.176 48.1845 70.728C47.8245 70.272 47.5565 69.784 47.3805 69.264C47.2125 68.736 47.1285 68.224 47.1285 67.728V67.464C47.1285 66.92 47.2165 66.384 47.3925 65.856C47.5685 65.32 47.8365 64.836 48.1965 64.404C48.5645 63.972 49.0245 63.628 49.5765 63.372C50.1365 63.108 50.7965 62.976 51.5565 62.976C52.3485 62.976 53.0485 63.124 53.6565 63.42C54.2645 63.716 54.7485 64.128 55.1085 64.656C55.4765 65.176 55.6925 65.788 55.7565 66.492H53.7765C53.7205 66.14 53.5925 65.84 53.3925 65.592C53.1925 65.344 52.9325 65.152 52.6125 65.016C52.3005 64.88 51.9485 64.812 51.5565 64.812C51.1645 64.812 50.8165 64.88 50.5125 65.016C50.2085 65.152 49.9525 65.344 49.7445 65.592C49.5445 65.84 49.3885 66.136 49.2765 66.48C49.1725 66.816 49.1205 67.192 49.1205 67.608C49.1205 68.016 49.1725 68.392 49.2765 68.736C49.3885 69.072 49.5485 69.368 49.7565 69.624C49.9725 69.872 50.2365 70.064 50.5485 70.2C50.8605 70.328 51.2165 70.392 51.6165 70.392C52.2245 70.392 52.7365 70.244 53.1525 69.948C53.5765 69.652 53.8325 69.244 53.9205 68.724H55.8885C55.8165 69.364 55.6005 69.952 55.2405 70.488C54.8885 71.016 54.4045 71.44 53.7885 71.76C53.1805 72.072 52.4565 72.228 51.6165 72.228ZM56.9542 72V63.168H58.9222V72H56.9542ZM62.2702 72L59.7022 68.232H61.8622L64.5502 72H62.2702ZM58.3942 69.192V67.644H60.5542C60.8422 67.644 61.0902 67.588 61.2982 67.476C61.5142 67.356 61.6782 67.192 61.7902 66.984C61.9102 66.768 61.9702 66.52 61.9702 66.24C61.9702 65.96 61.9102 65.716 61.7902 65.508C61.6782 65.292 61.5142 65.128 61.2982 65.016C61.0902 64.896 60.8422 64.836 60.5542 64.836H58.3942V63.168H60.3982C61.1262 63.168 61.7582 63.28 62.2942 63.504C62.8302 63.72 63.2422 64.044 63.5302 64.476C63.8182 64.908 63.9622 65.452 63.9622 66.108V66.3C63.9622 66.948 63.8142 67.488 63.5182 67.92C63.2302 68.344 62.8182 68.664 62.2822 68.88C61.7542 69.088 61.1262 69.192 60.3982 69.192H58.3942ZM65.5038 72V63.24H67.4718V72H65.5038ZM70.9522 69.492V67.788H72.5242C72.8282 67.788 73.0882 67.728 73.3042 67.608C73.5282 67.488 73.7002 67.32 73.8202 67.104C73.9402 66.88 74.0002 66.624 74.0002 66.336C74.0002 66.032 73.9402 65.772 73.8202 65.556C73.7002 65.332 73.5282 65.164 73.3042 65.052C73.0882 64.932 72.8282 64.872 72.5242 64.872H70.9522V63.168H72.4282C73.1722 63.168 73.8082 63.292 74.3362 63.54C74.8722 63.788 75.2802 64.14 75.5602 64.596C75.8482 65.052 75.9922 65.6 75.9922 66.24V66.432C75.9922 67.056 75.8482 67.6 75.5602 68.064C75.2802 68.52 74.8722 68.872 74.3362 69.12C73.8082 69.368 73.1722 69.492 72.4282 69.492H70.9522ZM69.2242 72V63.168H71.1922V72H69.2242ZM78.7046 72V64.716H80.6726V72H78.7046ZM76.2446 64.956V63.24H83.1446V64.956H76.2446Z" fill="black"/>
</svg>
