<svg width="90" height="90" viewBox="0 0 90 90" fill="none" xmlns="http://www.w3.org/2000/svg">
<rect x="1" y="1" width="88" height="88" rx="13" fill="white"/>
<rect x="1" y="1" width="88" height="88" rx="13" stroke="black" stroke-width="2"/>
<g clip-path="url(#clip0_97_278)">
<path d="M43.9204 16.0258C43.8495 16.0322 43.6239 16.0548 43.4209 16.0709C38.7388 16.493 34.3532 19.0193 31.5756 22.9023C30.0289 25.0612 29.0396 27.5102 28.6658 30.1042C28.5337 31.0097 28.5176 31.2771 28.5176 32.5048C28.5176 33.7325 28.5337 34 28.6658 34.9055C29.5616 41.0956 33.9666 46.2965 39.9408 48.2234C41.0106 48.5682 42.1384 48.8034 43.4209 48.9452C43.9204 49 46.0793 49 46.5788 48.9452C48.7926 48.7003 50.668 48.1525 52.5176 47.2084C52.8011 47.0634 52.8559 47.0247 52.8173 46.9925C52.7915 46.9731 51.5831 45.3523 50.133 43.3931L47.4972 39.8324L44.1943 34.9441C42.3769 32.2567 40.8817 30.0591 40.8688 30.0591C40.8559 30.0559 40.843 32.2277 40.8366 34.8797C40.8269 39.5231 40.8237 39.71 40.7657 39.8195C40.6819 39.9774 40.6175 40.0419 40.4821 40.1128C40.379 40.1643 40.2888 40.174 39.8022 40.174H39.2448L39.0965 40.0806C38.9999 40.0193 38.929 39.9388 38.8806 39.8453L38.813 39.7003L38.8194 33.2395L38.8291 26.7755L38.929 26.6498C38.9805 26.5822 39.0901 26.4952 39.1674 26.4533C39.2995 26.3888 39.3511 26.3824 39.9086 26.3824C40.5659 26.3824 40.6755 26.4082 40.8463 26.5951C40.8946 26.6466 42.683 29.3405 44.8226 32.5854C46.9623 35.8303 49.8882 40.261 51.3253 42.4361L53.9354 46.3899L54.0675 46.3029C55.2372 45.5424 56.4746 44.4597 57.4542 43.3319C59.5391 40.9377 60.8828 38.0183 61.3339 34.9055C61.466 34 61.4821 33.7325 61.4821 32.5048C61.4821 31.2771 61.466 31.0097 61.3339 30.1042C60.4381 23.9141 56.0332 18.7132 50.0589 16.7863C49.0052 16.4447 47.8839 16.2095 46.6271 16.0677C46.3178 16.0354 44.1878 16 43.9204 16.0258ZM50.668 25.9957C50.8226 26.073 50.9483 26.2213 50.9934 26.3759C51.0192 26.4597 51.0256 28.2513 51.0192 32.2889L51.0095 38.0827L49.988 36.5166L48.9633 34.9506V30.739C48.9633 28.0161 48.9762 26.4855 48.9956 26.4114C49.0471 26.2309 49.1599 26.0891 49.3146 26.0054C49.4467 25.9377 49.495 25.9313 50.0009 25.9313C50.4778 25.9313 50.5616 25.9377 50.668 25.9957Z" fill="black"/>
<path d="M53.7746 46.4608C53.6619 46.5317 53.6264 46.58 53.7263 46.5252C53.7972 46.4834 53.9132 46.3963 53.8939 46.3931C53.8842 46.3931 53.8294 46.4254 53.7746 46.4608ZM53.5523 46.6058C53.4943 46.6509 53.4943 46.6541 53.5652 46.6187C53.6039 46.5994 53.6361 46.5768 53.6361 46.5704C53.6361 46.5446 53.62 46.551 53.5523 46.6058ZM53.3912 46.7025C53.3332 46.7476 53.3332 46.7508 53.4041 46.7154C53.4427 46.696 53.475 46.6735 53.475 46.667C53.475 46.6412 53.4588 46.6477 53.3912 46.7025ZM53.2301 46.7991C53.1721 46.8443 53.1721 46.8475 53.2429 46.812C53.2816 46.7927 53.3138 46.7701 53.3138 46.7637C53.3138 46.7379 53.2977 46.7444 53.2301 46.7991ZM52.9852 46.928C52.8627 46.9925 52.8692 47.0183 52.9916 46.957C53.0464 46.928 53.0883 46.899 53.0883 46.8926C53.0883 46.87 53.0851 46.8733 52.9852 46.928Z" fill="black"/>
</g>
<path d="M28.984 72V63.24H32.212L35.512 70.404H35.92L35.68 70.62V63.24H37.528V72H34.276L30.976 64.836H30.568L30.808 64.62V72H28.984ZM39.2557 72V63.24H41.1757V72H39.2557ZM40.9357 72V70.368H44.7637V72H40.9357ZM40.9357 68.364V66.732H44.4877V68.364H40.9357ZM40.9357 64.872V63.24H44.6797V64.872H40.9357ZM45.2647 72L48.2527 67.332L48.2767 67.536L45.5167 63.24H47.6767L49.3807 65.976H49.6567L51.3367 63.24H53.4367L50.6647 67.56L50.6287 67.368L53.7127 72H51.5407L49.5487 68.904H49.2607L47.3647 72H45.2647ZM56.3243 72V64.716H58.2923V72H56.3243ZM53.8643 64.956V63.24H60.7643V64.956H53.8643Z" fill="black"/>
<defs>
<clipPath id="clip0_97_278">
<rect width="33" height="33" fill="white" transform="translate(28.5 16)"/>
</clipPath>
</defs>
</svg>
