<svg width="94" height="98" viewBox="0 0 94 98" fill="none" xmlns="http://www.w3.org/2000/svg">
<g filter="url(#filter0_d_509_424)">
<rect x="2" width="90" height="90" rx="14" fill="white"/>
<g clip-path="url(#clip0_509_424)">
<path d="M30.5 26.3125V36.625H39.7812V38.6875H47V36.625H63.5V26.3125H30.5Z" fill="#CC0000"/>
<path d="M36.1327 28.375H32.5625V34.5625H36.1327V30.0363H37.9487V34.5625H39.7658V28.375H36.1327ZM41.5818 28.375V36.625H45.2149V34.5625H48.7851V28.375H41.5818ZM46.9691 32.9012H45.2149V30.0353H46.968V32.9001L46.9691 32.9012ZM54.1713 28.375H50.6011V34.5625H54.1713V30.0363H55.9884V34.5625H57.8044V30.0363H59.6215V34.5625H61.4375V28.375H54.1713Z" fill="white"/>
</g>
<path d="M41.0582 63.2727V72H39.4645L35.6676 66.5071H35.6037V72H33.7585V63.2727H35.3778L39.1449 68.7614H39.2216V63.2727H41.0582ZM42.3427 72V63.2727H45.7859C46.4479 63.2727 47.0118 63.3991 47.4777 63.652C47.9436 63.902 48.2987 64.25 48.543 64.696C48.7902 65.1392 48.9138 65.6506 48.9138 66.2301C48.9138 66.8097 48.7888 67.321 48.5388 67.7642C48.2888 68.2074 47.9265 68.5526 47.4521 68.7997C46.9805 69.0469 46.4095 69.1705 45.739 69.1705H43.5444V67.6918H45.4408C45.7959 67.6918 46.0885 67.6307 46.3186 67.5085C46.5515 67.3835 46.7248 67.2116 46.8385 66.9929C46.955 66.7713 47.0132 66.517 47.0132 66.2301C47.0132 65.9403 46.955 65.6875 46.8385 65.4716C46.7248 65.2528 46.5515 65.0838 46.3186 64.9645C46.0856 64.8423 45.7902 64.7812 45.4322 64.7812H44.1879V72H42.3427ZM49.8723 63.2727H52.1478L54.5513 69.1364H54.6535L57.0569 63.2727H59.3325V72H57.5427V66.3196H57.4703L55.2118 71.9574H53.993L51.7345 66.2983H51.662V72H49.8723V63.2727Z" fill="black"/>
</g>
<defs>
<filter id="filter0_d_509_424" x="0" y="0" width="94" height="98" filterUnits="userSpaceOnUse" color-interpolation-filters="sRGB">
<feFlood flood-opacity="0" result="BackgroundImageFix"/>
<feColorMatrix in="SourceAlpha" type="matrix" values="0 0 0 0 0 0 0 0 0 0 0 0 0 0 0 0 0 0 127 0" result="hardAlpha"/>
<feMorphology radius="4" operator="erode" in="SourceAlpha" result="effect1_dropShadow_509_424"/>
<feOffset dy="6"/>
<feGaussianBlur stdDeviation="3"/>
<feComposite in2="hardAlpha" operator="out"/>
<feColorMatrix type="matrix" values="0 0 0 0 0 0 0 0 0 0 0 0 0 0 0 0 0 0 1 0"/>
<feBlend mode="normal" in2="BackgroundImageFix" result="effect1_dropShadow_509_424"/>
<feBlend mode="normal" in="SourceGraphic" in2="effect1_dropShadow_509_424" result="shape"/>
</filter>
<clipPath id="clip0_509_424">
<rect width="33" height="33" fill="white" transform="translate(30.5 16)"/>
</clipPath>
</defs>
</svg>
