<svg width="22" height="22" viewBox="0 0 22 22" fill="none" xmlns="http://www.w3.org/2000/svg">
<path fill-rule="evenodd" clip-rule="evenodd" d="M2.74013 4.4675C3.0301 3.98646 4.62869 2.24023 5.76784 2.29295C6.10865 2.32213 6.40991 2.52735 6.65469 2.76646C7.21578 3.31621 8.82662 5.39098 8.917 5.82777C9.14012 6.89905 7.86257 7.51658 8.25327 8.59632C9.24932 11.0335 10.9656 12.7496 13.404 13.7447C14.4829 14.1362 15.1005 12.8598 16.1718 13.0819C16.6086 13.1732 18.6846 14.7821 19.2334 15.344C19.4716 15.5878 19.6787 15.8901 19.7069 16.2308C19.7494 17.431 17.8947 19.0512 17.5332 19.2583C16.6803 19.8692 15.5675 19.8579 14.2108 19.2272C10.4252 17.6523 4.37543 11.717 2.7712 7.78863C2.15738 6.43966 2.11595 5.31944 2.74013 4.4675Z" stroke="black" stroke-width="2" stroke-linecap="round" stroke-linejoin="round"/>
<path d="M13.3516 2.52106C16.7451 2.89781 19.4244 5.57447 19.8059 8.96706" stroke="black" stroke-width="2" stroke-linecap="round" stroke-linejoin="round"/>
<path d="M13.3516 5.76855C14.9741 6.0848 16.2419 7.35255 16.5581 8.97505" stroke="black" stroke-width="2" stroke-linecap="round" stroke-linejoin="round"/>
</svg>
