<svg width="90" height="90" viewBox="0 0 90 90" fill="none" xmlns="http://www.w3.org/2000/svg">
<rect x="1" y="1" width="88" height="88" rx="13" fill="white"/>
<rect x="1" y="1" width="88" height="88" rx="13" stroke="black" stroke-width="2"/>
<g clip-path="url(#clip0_97_245)">
<path d="M45 39.8425C35.5934 39.8425 28.5 36.7652 28.5 32.5C28.5 28.2347 35.5934 25.075 45 25.075C54.4067 25.075 61.5 28.2347 61.5 32.5C61.5 36.7652 54.4067 39.8425 45 39.8425ZM45 27.4939C36.9736 27.4939 30.8719 30.1883 30.8719 32.552C30.8719 34.9156 36.9736 37.5061 45 37.5061C53.0264 37.5061 59.1281 34.8116 59.1281 32.448C59.1281 30.0844 53.0264 27.4939 45 27.4939Z" fill="#149ECA"/>
<path d="M38.7321 47.35C37.964 47.35 37.2628 47.1718 36.6465 46.8203C35.64 46.2453 34.9181 45.2297 34.5576 43.8817C33.6121 40.349 35.1376 34.409 38.4458 28.7479C42.3274 22.1108 47.4812 17.6525 51.2696 17.6525C52.0369 17.6525 52.7381 17.8307 53.3544 18.1821C54.3592 18.7555 55.0819 19.7702 55.4425 21.1175C56.3887 24.6501 54.8625 30.5909 51.5526 36.2521C47.6743 42.89 42.5213 47.35 38.7321 47.35ZM51.2696 20.1275C48.887 20.1275 44.3322 23.5867 40.5826 29.9969C37.1811 35.8181 36.1837 40.6469 36.9493 43.2415C37.1563 43.9419 37.4484 44.4278 37.8741 44.6704C39.8219 45.7825 45.1415 42.3191 49.4167 35.0039C52.8198 29.1818 53.9212 24.4562 53.0516 21.7585C52.828 21.0647 52.5533 20.5746 52.1284 20.3329C51.8867 20.1943 51.6054 20.1275 51.2696 20.1275Z" fill="#149ECA"/>
<path d="M51.2696 47.3475C47.4771 47.3467 42.3241 42.8884 38.4458 36.2521C35.1376 30.5909 33.6121 24.6501 34.5576 21.1183C34.9181 19.7702 35.64 18.7547 36.6457 18.1805C37.2628 17.8282 37.964 17.65 38.7304 17.65C42.5213 17.65 47.6734 22.1099 51.5526 28.7479C54.8617 34.4082 56.3871 40.349 55.4416 43.8825C55.0803 45.2297 54.3584 46.2445 53.3544 46.8179C52.7381 47.1693 52.036 47.3475 51.2696 47.3475ZM38.7304 20.125C38.3947 20.125 38.1142 20.1926 37.8724 20.3296C37.4476 20.5721 37.1514 21.0564 36.9484 21.7585C36.1828 24.4051 37.1803 29.1827 40.5817 35.0039C44.3281 41.4133 48.8837 44.8725 51.2688 44.8725C51.6054 44.8725 51.8859 44.8049 52.1276 44.6671C52.5517 44.4262 52.8561 43.9444 53.05 43.2415C53.7652 40.646 52.8181 35.8165 49.4158 29.9961C45.6695 23.585 41.1147 20.125 38.7304 20.125Z" fill="#149ECA"/>
<path d="M47.8873 32.5C47.8873 34.0964 46.5962 35.3875 44.9998 35.3875C43.4034 35.3875 42.1123 34.0964 42.1123 32.5C42.1123 30.9036 43.4034 29.6125 44.9998 29.6125C46.5962 29.6125 47.8873 30.9036 47.8873 32.5Z" fill="#149ECA"/>
<path d="M45.0002 35.8C43.1802 35.8 41.7002 34.3199 41.7002 32.5C41.7002 30.68 43.1802 29.2 45.0002 29.2C46.8201 29.2 48.3002 30.68 48.3002 32.5C48.3002 34.3199 46.8201 35.8 45.0002 35.8ZM45.0002 30.025C43.6356 30.025 42.5252 31.1354 42.5252 32.5C42.5252 33.8645 43.6356 34.975 45.0002 34.975C46.3647 34.975 47.4752 33.8645 47.4752 32.5C47.4752 31.1354 46.3647 30.025 45.0002 30.025Z" fill="#149ECA"/>
<path d="M45.0002 39.1561C36.2106 39.1561 29.3252 36.2323 29.3252 32.5C29.3252 28.7677 36.2106 25.8439 45.0002 25.8439C53.7898 25.8439 60.6752 28.7677 60.6752 32.5C60.6752 36.2323 53.7898 39.1561 45.0002 39.1561ZM45.0002 26.6689C36.9507 26.6689 30.1502 29.3394 30.1502 32.5C30.1502 35.6606 36.9507 38.3311 45.0002 38.3311C53.0497 38.3311 59.8502 35.6614 59.8502 32.5C59.8502 29.3386 53.0497 26.6689 45.0002 26.6689Z" fill="#149ECA"/>
<path d="M38.7317 46.525C38.1088 46.525 37.5454 46.3831 37.0545 46.1034C36.2328 45.634 35.6611 44.8148 35.3533 43.668C34.4615 40.3375 35.9548 34.6442 39.1566 29.1637C42.8377 22.8723 47.8183 18.4775 51.2692 18.4775C51.8913 18.4775 52.4556 18.6194 52.9456 18.8991C53.7665 19.3677 54.3382 20.1861 54.646 21.3312C55.5378 24.6617 54.0445 30.355 50.8411 35.8363C47.1624 42.1294 42.1835 46.525 38.7317 46.525ZM51.2692 19.3025C48.1474 19.3025 43.3534 23.6247 39.8702 29.5803C36.8218 34.7985 35.3269 40.3738 36.1511 43.4552C36.3994 44.3817 36.8408 45.0309 37.4645 45.3873C37.8283 45.5944 38.254 45.7 38.7309 45.7C41.8535 45.7 46.6468 41.377 50.1274 35.4197C53.1775 30.2007 54.6732 24.6246 53.8474 21.5448C53.5999 20.62 53.1585 19.9707 52.5356 19.616C52.1718 19.4081 51.7461 19.3025 51.2692 19.3025Z" fill="#149ECA"/>
<path d="M51.2695 46.5225C47.8152 46.5217 42.8347 42.1278 39.1576 35.8363C35.955 30.3558 34.4626 24.6625 35.3544 21.332C35.6613 20.1852 36.233 19.366 37.0555 18.8966C37.5456 18.6169 38.1091 18.475 38.7303 18.475C42.1829 18.475 47.1626 22.8706 50.8405 29.1637C54.0439 34.6434 55.5364 40.3367 54.6437 43.6689C54.3376 44.8148 53.7659 45.6332 52.945 46.101C52.455 46.3806 51.8915 46.5225 51.2695 46.5225ZM38.7303 19.3C38.2543 19.3 37.8277 19.4056 37.4639 19.6127C36.8402 19.9691 36.3988 20.6184 36.1505 21.5448C35.3263 24.6254 36.8212 30.2016 39.8696 35.4197C43.3503 41.3745 48.1452 45.6967 51.2695 45.6975C51.7463 45.6975 52.1728 45.5919 52.5367 45.384C53.1587 45.0293 53.6001 44.38 53.8476 43.4552C54.6726 40.3738 53.1777 34.7976 50.1285 29.5803C46.647 23.6238 41.8546 19.3 38.7303 19.3Z" fill="#149ECA"/>
</g>
<path d="M25.484 72V63.168H27.452V72H25.484ZM30.8 72L28.232 68.232H30.392L33.08 72H30.8ZM26.924 69.192V67.644H29.084C29.372 67.644 29.62 67.588 29.828 67.476C30.044 67.356 30.208 67.192 30.32 66.984C30.44 66.768 30.5 66.52 30.5 66.24C30.5 65.96 30.44 65.716 30.32 65.508C30.208 65.292 30.044 65.128 29.828 65.016C29.62 64.896 29.372 64.836 29.084 64.836H26.924V63.168H28.928C29.656 63.168 30.288 63.28 30.824 63.504C31.36 63.72 31.772 64.044 32.06 64.476C32.348 64.908 32.492 65.452 32.492 66.108V66.3C32.492 66.948 32.344 67.488 32.048 67.92C31.76 68.344 31.348 68.664 30.812 68.88C30.284 69.088 29.656 69.192 28.928 69.192H26.924ZM34.0096 72V63.24H35.9296V72H34.0096ZM35.6896 72V70.368H39.5176V72H35.6896ZM35.6896 68.364V66.732H39.2416V68.364H35.6896ZM35.6896 64.872V63.24H39.4336V64.872H35.6896ZM40.0666 72L42.9586 63.24H46.1386L49.1386 72H47.0986L44.6746 64.596L45.2986 64.848H43.7506L44.3986 64.596L42.0346 72H40.0666ZM42.2626 69.828L42.8626 68.196H46.2946L46.9066 69.828H42.2626ZM53.6863 72.228C52.8943 72.228 52.2143 72.092 51.6463 71.82C51.0783 71.54 50.6143 71.176 50.2543 70.728C49.8943 70.272 49.6263 69.784 49.4503 69.264C49.2823 68.736 49.1983 68.224 49.1983 67.728V67.464C49.1983 66.92 49.2863 66.384 49.4623 65.856C49.6383 65.32 49.9063 64.836 50.2663 64.404C50.6343 63.972 51.0943 63.628 51.6463 63.372C52.2063 63.108 52.8663 62.976 53.6263 62.976C54.4183 62.976 55.1183 63.124 55.7263 63.42C56.3343 63.716 56.8183 64.128 57.1783 64.656C57.5463 65.176 57.7623 65.788 57.8263 66.492H55.8463C55.7903 66.14 55.6623 65.84 55.4623 65.592C55.2623 65.344 55.0023 65.152 54.6823 65.016C54.3703 64.88 54.0183 64.812 53.6263 64.812C53.2343 64.812 52.8863 64.88 52.5823 65.016C52.2783 65.152 52.0223 65.344 51.8143 65.592C51.6143 65.84 51.4583 66.136 51.3463 66.48C51.2423 66.816 51.1903 67.192 51.1903 67.608C51.1903 68.016 51.2423 68.392 51.3463 68.736C51.4583 69.072 51.6183 69.368 51.8263 69.624C52.0423 69.872 52.3063 70.064 52.6183 70.2C52.9303 70.328 53.2863 70.392 53.6863 70.392C54.2943 70.392 54.8063 70.244 55.2223 69.948C55.6463 69.652 55.9023 69.244 55.9903 68.724H57.9583C57.8863 69.364 57.6703 69.952 57.3103 70.488C56.9583 71.016 56.4743 71.44 55.8583 71.76C55.2503 72.072 54.5263 72.228 53.6863 72.228ZM60.682 72V64.716H62.65V72H60.682ZM58.222 64.956V63.24H65.122V64.956H58.222Z" fill="black"/>
<defs>
<clipPath id="clip0_97_245">
<rect width="33" height="33" fill="white" transform="translate(28.5 16)"/>
</clipPath>
</defs>
</svg>
