<svg width="90" height="90" viewBox="0 0 90 90" fill="none" xmlns="http://www.w3.org/2000/svg">
<rect x="1" y="1" width="88" height="88" rx="13" fill="white"/>
<rect x="1" y="1" width="88" height="88" rx="13" stroke="black" stroke-width="2"/>
<path d="M44.3125 18.75C39.7633 18.75 36.0625 23.7481 36.0625 29.8909C36.0625 33.2143 37.1501 36.1946 38.8661 38.2344C38.8331 38.3809 38.8125 38.5314 38.8125 38.6875C38.8125 39.8267 39.7358 40.75 40.875 40.75C42.0142 40.75 42.9375 39.8267 42.9375 38.6875C42.9375 37.5483 42.0142 36.625 40.875 36.625C40.6584 36.625 40.4543 36.6676 40.2583 36.7295C38.9541 35.0651 38.125 32.6203 38.125 29.8909C38.125 24.8853 40.9004 20.8125 44.3125 20.8125C46.9504 20.8125 49.2013 23.2511 50.0903 26.6686C50.8616 26.9065 51.6282 27.2063 52.3796 27.5679C51.5856 22.5368 48.2718 18.75 44.3125 18.75Z" fill="#764ABC"/>
<path d="M52.9111 29.8077C50.1975 28.1632 47.1539 27.4414 44.5359 27.7734C44.1578 27.3052 43.5858 27 42.9375 27C41.7983 27 40.875 27.9233 40.875 29.0625C40.875 30.2017 41.7983 31.125 42.9375 31.125C43.812 31.125 44.5552 30.5784 44.8549 29.8105C46.9986 29.5499 49.5382 30.1756 51.842 31.5726C56.2441 34.2407 58.4901 38.8387 56.8484 41.8239C56.2798 42.8579 55.2768 43.5921 53.9485 43.9482C52.3769 44.3683 50.5062 44.2191 48.6362 43.5852C48.0594 44.116 47.4338 44.6151 46.7628 45.0757C48.5173 45.8437 50.335 46.2472 52.0352 46.2472C52.8877 46.2472 53.7113 46.1462 54.482 45.9399C56.3664 45.436 57.8102 44.3559 58.6558 42.8173C60.8235 38.8772 58.2461 33.0411 52.9111 29.8077Z" fill="#764ABC"/>
<path d="M52.5629 35.932C52.5629 34.7963 51.6396 33.875 50.5004 33.875C49.3612 33.875 48.4379 34.7963 48.4379 35.932C48.4379 36.3919 48.5946 36.8127 48.8504 37.1551C47.9711 39.0814 46.2764 40.9824 43.9952 42.3649C41.3381 43.9764 38.3681 44.5663 36.0512 43.9476C34.7229 43.5914 33.7199 42.8572 33.1513 41.8232C31.9812 39.6961 32.7931 36.7522 34.9457 34.2689C34.7236 33.4824 34.5593 32.6602 34.4603 31.8111C30.9747 35.1091 29.5729 39.5957 31.3446 42.8173C32.1902 44.3559 33.6339 45.436 35.5184 45.9399C36.2891 46.1462 37.112 46.2472 37.9652 46.2472C40.2656 46.2472 42.7825 45.513 45.0643 44.1298C47.7016 42.5313 49.6589 40.2956 50.708 37.9684C51.7482 37.8632 52.5629 36.9969 52.5629 35.932Z" fill="#764ABC"/>
<path d="M24.484 72V63.168H26.452V72H24.484ZM29.8 72L27.232 68.232H29.392L32.08 72H29.8ZM25.924 69.192V67.644H28.084C28.372 67.644 28.62 67.588 28.828 67.476C29.044 67.356 29.208 67.192 29.32 66.984C29.44 66.768 29.5 66.52 29.5 66.24C29.5 65.96 29.44 65.716 29.32 65.508C29.208 65.292 29.044 65.128 28.828 65.016C28.62 64.896 28.372 64.836 28.084 64.836H25.924V63.168H27.928C28.656 63.168 29.288 63.28 29.824 63.504C30.36 63.72 30.772 64.044 31.06 64.476C31.348 64.908 31.492 65.452 31.492 66.108V66.3C31.492 66.948 31.344 67.488 31.048 67.92C30.76 68.344 30.348 68.664 29.812 68.88C29.284 69.088 28.656 69.192 27.928 69.192H25.924ZM33.0096 72V63.24H34.9296V72H33.0096ZM34.6896 72V70.368H38.5176V72H34.6896ZM34.6896 68.364V66.732H38.2416V68.364H34.6896ZM34.6896 64.872V63.24H38.4336V64.872H34.6896ZM41.6226 72.048V70.212H43.2546C43.6626 70.212 44.0306 70.152 44.3586 70.032C44.6866 69.904 44.9666 69.728 45.1986 69.504C45.4306 69.272 45.6066 68.996 45.7266 68.676C45.8466 68.348 45.9066 67.988 45.9066 67.596C45.9066 67.188 45.8466 66.824 45.7266 66.504C45.6066 66.184 45.4306 65.912 45.1986 65.688C44.9666 65.464 44.6866 65.296 44.3586 65.184C44.0306 65.064 43.6626 65.004 43.2546 65.004H41.6226V63.168H43.1466C43.9386 63.168 44.6306 63.284 45.2226 63.516C45.8146 63.748 46.3106 64.064 46.7106 64.464C47.1106 64.864 47.4066 65.324 47.5986 65.844C47.7986 66.356 47.8986 66.896 47.8986 67.464V67.728C47.8986 68.256 47.7986 68.78 47.5986 69.3C47.4066 69.812 47.1106 70.276 46.7106 70.692C46.3106 71.1 45.8146 71.428 45.2226 71.676C44.6306 71.924 43.9386 72.048 43.1466 72.048H41.6226ZM39.8946 72.048V63.168H41.8626V72.048H39.8946ZM52.7016 72.228C51.8776 72.228 51.1776 72.076 50.6016 71.772C50.0336 71.46 49.6016 71.02 49.3056 70.452C49.0096 69.884 48.8616 69.212 48.8616 68.436V63.24H50.8296V68.508C50.8296 68.892 50.9016 69.228 51.0456 69.516C51.1976 69.796 51.4096 70.012 51.6816 70.164C51.9616 70.316 52.3016 70.392 52.7016 70.392C53.1096 70.392 53.4496 70.316 53.7216 70.164C54.0016 70.012 54.2136 69.796 54.3576 69.516C54.5016 69.236 54.5736 68.9 54.5736 68.508V63.24H56.5416V68.436C56.5416 69.212 56.3936 69.884 56.0976 70.452C55.8016 71.02 55.3696 71.46 54.8016 71.772C54.2336 72.076 53.5336 72.228 52.7016 72.228ZM57.1246 72L60.1126 67.332L60.1366 67.536L57.3766 63.24H59.5366L61.2406 65.976H61.5166L63.1966 63.24H65.2966L62.5246 67.56L62.4886 67.368L65.5726 72H63.4006L61.4086 68.904H61.1206L59.2246 72H57.1246Z" fill="black"/>
</svg>
