<svg width="90" height="90" viewBox="0 0 90 90" fill="none" xmlns="http://www.w3.org/2000/svg">
<rect x="1" y="1" width="88" height="88" rx="13" fill="white"/>
<rect x="1" y="1" width="88" height="88" rx="13" stroke="black" stroke-width="2"/>
<g clip-path="url(#clip0_97_159)">
<path d="M58.881 36.7131C57.535 36.7206 56.3695 37.0439 55.3919 37.5252C55.031 36.8108 54.6701 36.1867 54.6099 35.7205C54.5422 35.1791 54.4595 34.8482 54.5422 34.2015C54.6249 33.5549 55.0009 32.6375 55.0009 32.5623C54.9934 32.4946 54.9182 32.1638 54.1437 32.1562C53.3692 32.1487 52.6999 32.3066 52.6247 32.5097C52.5496 32.7127 52.3992 33.1789 52.3014 33.6601C52.1661 34.367 50.7524 36.871 49.9478 38.1869C49.6846 37.6756 49.459 37.2244 49.4139 36.8635C49.3462 36.3221 49.2635 35.9912 49.3462 35.3445C49.4289 34.6978 49.8049 33.7805 49.8049 33.7053C49.7974 33.6376 49.7222 33.3067 48.9477 33.2992C48.1732 33.2917 47.5039 33.4496 47.4287 33.6526C47.3535 33.8556 47.2708 34.3369 47.1054 34.8031C46.9475 35.2693 45.0676 39.4502 44.5788 40.5405C44.3307 41.0969 44.1126 41.5406 43.9547 41.8414C43.7968 42.1422 43.9472 41.8639 43.9322 41.894C43.7968 42.1497 43.7216 42.2926 43.7216 42.2926V42.3001C43.6163 42.4881 43.5035 42.6685 43.4509 42.6685C43.4133 42.6685 43.3381 42.1647 43.4659 41.4729C43.7442 40.0217 44.4209 37.7583 44.4134 37.6756C44.4134 37.638 44.5412 37.2394 43.9773 37.0364C43.4283 36.8334 43.2328 37.1718 43.1877 37.1718C43.1426 37.1718 43.105 37.2921 43.105 37.2921C43.105 37.2921 43.7141 34.743 41.9395 34.743C40.8266 34.743 39.2926 35.9536 38.5331 37.059C38.0519 37.3221 37.0292 37.8786 35.9464 38.4726C35.5328 38.6982 35.1042 38.9388 34.6982 39.1569L34.6154 39.0667C32.4649 36.7732 28.487 35.149 28.6525 32.066C28.7126 30.9456 29.1036 27.9904 36.2923 24.4111C42.1801 21.4785 46.8949 22.2831 47.7145 24.0728C48.88 26.6294 45.1954 31.3817 39.0745 32.066C36.7435 32.3292 35.5178 31.4268 35.2095 31.0885C34.8862 30.735 34.841 30.72 34.7207 30.7877C34.5252 30.893 34.6455 31.2088 34.7207 31.3968C34.9012 31.8705 35.6531 32.7127 36.9315 33.1338C38.0519 33.5022 40.789 33.7053 44.0976 32.4269C47.8047 30.9907 50.6997 27.0054 49.85 23.6742C48.9853 20.2829 43.3607 19.17 38.0444 21.0574C34.8786 22.1854 31.4497 23.9449 28.9833 26.2534C26.0507 28.9905 25.5845 31.3817 25.78 32.3743C26.4643 35.916 31.3444 38.2245 33.2995 39.9314C33.2018 39.9841 33.1115 40.0367 33.0288 40.0818C32.0513 40.5631 28.3291 42.5106 27.3967 44.571C26.344 46.902 27.5621 48.5789 28.3742 48.8045C30.8858 49.5038 33.4574 48.248 34.8486 46.1801C36.2321 44.1123 36.0667 41.4278 35.4276 40.2021L35.405 40.157L36.172 39.7058C36.6683 39.4126 37.1571 39.1419 37.5857 38.9088C37.345 39.563 37.1721 40.3375 37.0819 41.4654C36.9766 42.7888 37.518 44.5033 38.2323 45.18C38.5482 45.4733 38.9241 45.4808 39.1572 45.4808C39.9844 45.4808 40.3604 44.7966 40.774 43.9769C41.2853 42.9768 41.7365 41.8188 41.7365 41.8188C41.7365 41.8188 41.1725 44.9545 42.714 44.9545C43.278 44.9545 43.8419 44.2251 44.0976 43.8491V43.8566C44.0976 43.8566 44.1126 43.8341 44.1427 43.7814C44.2029 43.6912 44.2329 43.6385 44.2329 43.6385V43.6235C44.4585 43.2325 44.9623 42.3377 45.7143 40.8563C46.6843 38.9464 47.6167 36.5552 47.6167 36.5552C47.6167 36.5552 47.707 37.1417 47.9852 38.1042C48.1506 38.6757 48.5116 39.2998 48.7898 39.9089C48.5642 40.2247 48.4288 40.4052 48.4288 40.4052L48.4364 40.4127C48.2559 40.6533 48.0529 40.909 47.8423 41.1646C47.0753 42.082 46.1579 43.1272 46.0376 43.428C45.8948 43.7814 45.9248 44.0446 46.2031 44.2551C46.4061 44.4055 46.767 44.4356 47.1505 44.4055C47.8423 44.3604 48.3236 44.1875 48.5642 44.0822C48.9402 43.9468 49.3688 43.7438 49.7824 43.443C50.5343 42.8866 50.993 42.097 50.9479 41.0443C50.9253 40.4653 50.7373 39.8938 50.5042 39.3524C50.5719 39.2547 50.6396 39.1569 50.7073 39.0516C51.8954 37.3146 52.8127 35.4047 52.8127 35.4047C52.8127 35.4047 52.903 35.9912 53.1812 36.9537C53.3241 37.4425 53.6098 37.9763 53.8655 38.5027C52.7526 39.4126 52.0533 40.4653 51.8126 41.1571C51.369 42.4354 51.7149 43.0144 52.3691 43.1498C52.6623 43.2099 53.0834 43.0746 53.3993 42.9392C53.7903 42.8114 54.264 42.5933 54.7001 42.27C55.4521 41.7135 56.174 40.939 56.1364 39.8938C56.1138 39.4126 55.986 38.9388 55.813 38.4877C56.7605 38.0967 57.9862 37.8711 59.5427 38.0591C62.8889 38.4501 63.5506 40.5405 63.4228 41.4128C63.295 42.285 62.5957 42.7663 62.3626 42.9167C62.1294 43.0595 62.0543 43.1122 62.0768 43.2175C62.1069 43.3754 62.2122 43.3678 62.4152 43.3378C62.6934 43.2927 64.1748 42.6234 64.2349 41.0142C64.3252 38.9464 62.3626 36.6905 58.881 36.7131ZM33.0739 45.4132C31.9686 46.6238 30.412 47.0825 29.7503 46.6915C29.0359 46.2779 29.3142 44.4958 30.6752 43.2099C31.5024 42.4279 32.5777 41.706 33.2845 41.2624C33.4424 41.1646 33.683 41.0218 33.9688 40.8488C34.0139 40.8187 34.044 40.8037 34.044 40.8037C34.0966 40.7736 34.1568 40.736 34.2169 40.6984C34.7207 42.5332 34.2395 44.1424 33.0739 45.4132ZM41.1574 39.9164C40.774 40.8563 39.9618 43.2701 39.4731 43.1347C39.052 43.0219 38.7963 41.1947 39.3904 39.39C39.6911 38.4802 40.3303 37.3973 40.7063 36.9762C41.3154 36.2995 41.9771 36.0739 42.1425 36.3521C42.338 36.7131 41.3981 39.3299 41.1574 39.9164ZM47.8273 43.1047C47.6618 43.1874 47.5115 43.2475 47.4438 43.2024C47.3911 43.1723 47.5115 43.0595 47.5115 43.0595C47.5115 43.0595 48.3461 42.1647 48.677 41.7511C48.865 41.5105 49.0906 41.2323 49.3312 40.9165V41.0067C49.3312 42.0895 48.2935 42.8114 47.8273 43.1047ZM52.9706 41.9316C52.8503 41.8414 52.8654 41.5632 53.2714 40.6909C53.4293 40.345 53.7903 39.766 54.4144 39.2171C54.4896 39.4427 54.5347 39.6607 54.5272 39.8637C54.5197 41.2173 53.5572 41.7211 52.9706 41.9316Z" fill="#CF649A"/>
</g>
<path d="M32.532 72.228C31.74 72.228 31.072 72.104 30.528 71.856C29.984 71.6 29.572 71.256 29.292 70.824C29.012 70.384 28.872 69.88 28.872 69.312H30.78C30.78 69.536 30.84 69.744 30.96 69.936C31.088 70.128 31.28 70.284 31.536 70.404C31.792 70.516 32.124 70.572 32.532 70.572C32.9 70.572 33.208 70.524 33.456 70.428C33.704 70.332 33.892 70.2 34.02 70.032C34.148 69.856 34.212 69.656 34.212 69.432C34.212 69.152 34.092 68.932 33.852 68.772C33.612 68.604 33.224 68.496 32.688 68.448L32.028 68.388C31.156 68.316 30.46 68.044 29.94 67.572C29.42 67.1 29.16 66.476 29.16 65.7C29.16 65.14 29.292 64.656 29.556 64.248C29.828 63.84 30.204 63.528 30.684 63.312C31.164 63.088 31.732 62.976 32.388 62.976C33.076 62.976 33.664 63.096 34.152 63.336C34.648 63.568 35.028 63.9 35.292 64.332C35.556 64.756 35.688 65.256 35.688 65.832H33.768C33.768 65.616 33.716 65.42 33.612 65.244C33.508 65.06 33.352 64.912 33.144 64.8C32.944 64.688 32.692 64.632 32.388 64.632C32.1 64.632 31.856 64.68 31.656 64.776C31.464 64.872 31.32 65.004 31.224 65.172C31.128 65.332 31.08 65.508 31.08 65.7C31.08 65.948 31.168 66.164 31.344 66.348C31.52 66.532 31.808 66.64 32.208 66.672L32.88 66.732C33.52 66.788 34.084 66.928 34.572 67.152C35.06 67.368 35.44 67.668 35.712 68.052C35.992 68.428 36.132 68.888 36.132 69.432C36.132 69.992 35.984 70.484 35.688 70.908C35.4 71.324 34.988 71.648 34.452 71.88C33.916 72.112 33.276 72.228 32.532 72.228ZM36.373 72L39.265 63.24H42.445L45.445 72H43.405L40.981 64.596L41.605 64.848H40.057L40.705 64.596L38.341 72H36.373ZM38.569 69.828L39.169 68.196H42.601L43.213 69.828H38.569ZM49.3489 72.228C48.5569 72.228 47.8889 72.104 47.3449 71.856C46.8009 71.6 46.3889 71.256 46.1089 70.824C45.8289 70.384 45.6889 69.88 45.6889 69.312H47.5969C47.5969 69.536 47.6569 69.744 47.7769 69.936C47.9049 70.128 48.0969 70.284 48.3529 70.404C48.6089 70.516 48.9409 70.572 49.3489 70.572C49.7169 70.572 50.0249 70.524 50.2729 70.428C50.5209 70.332 50.7089 70.2 50.8369 70.032C50.9649 69.856 51.0289 69.656 51.0289 69.432C51.0289 69.152 50.9089 68.932 50.6689 68.772C50.4289 68.604 50.0409 68.496 49.5049 68.448L48.8449 68.388C47.9729 68.316 47.2769 68.044 46.7569 67.572C46.2369 67.1 45.9769 66.476 45.9769 65.7C45.9769 65.14 46.1089 64.656 46.3729 64.248C46.6449 63.84 47.0209 63.528 47.5009 63.312C47.9809 63.088 48.5489 62.976 49.2049 62.976C49.8929 62.976 50.4809 63.096 50.9689 63.336C51.4649 63.568 51.8449 63.9 52.1089 64.332C52.3729 64.756 52.5049 65.256 52.5049 65.832H50.5849C50.5849 65.616 50.5329 65.42 50.4289 65.244C50.3249 65.06 50.1689 64.912 49.9609 64.8C49.7609 64.688 49.5089 64.632 49.2049 64.632C48.9169 64.632 48.6729 64.68 48.4729 64.776C48.2809 64.872 48.1369 65.004 48.0409 65.172C47.9449 65.332 47.8969 65.508 47.8969 65.7C47.8969 65.948 47.9849 66.164 48.1609 66.348C48.3369 66.532 48.6249 66.64 49.0249 66.672L49.6969 66.732C50.3369 66.788 50.9009 66.928 51.3889 67.152C51.8769 67.368 52.2569 67.668 52.5289 68.052C52.8089 68.428 52.9489 68.888 52.9489 69.432C52.9489 69.992 52.8009 70.484 52.5049 70.908C52.2169 71.324 51.8049 71.648 51.2689 71.88C50.7329 72.112 50.0929 72.228 49.3489 72.228ZM57.1128 72.228C56.3208 72.228 55.6528 72.104 55.1088 71.856C54.5648 71.6 54.1528 71.256 53.8728 70.824C53.5928 70.384 53.4528 69.88 53.4528 69.312H55.3608C55.3608 69.536 55.4208 69.744 55.5408 69.936C55.6688 70.128 55.8608 70.284 56.1168 70.404C56.3728 70.516 56.7048 70.572 57.1128 70.572C57.4808 70.572 57.7888 70.524 58.0368 70.428C58.2848 70.332 58.4728 70.2 58.6008 70.032C58.7288 69.856 58.7928 69.656 58.7928 69.432C58.7928 69.152 58.6728 68.932 58.4328 68.772C58.1928 68.604 57.8048 68.496 57.2688 68.448L56.6088 68.388C55.7368 68.316 55.0408 68.044 54.5208 67.572C54.0008 67.1 53.7408 66.476 53.7408 65.7C53.7408 65.14 53.8728 64.656 54.1368 64.248C54.4088 63.84 54.7848 63.528 55.2648 63.312C55.7448 63.088 56.3128 62.976 56.9688 62.976C57.6568 62.976 58.2448 63.096 58.7328 63.336C59.2288 63.568 59.6088 63.9 59.8728 64.332C60.1368 64.756 60.2688 65.256 60.2688 65.832H58.3488C58.3488 65.616 58.2968 65.42 58.1928 65.244C58.0888 65.06 57.9328 64.912 57.7248 64.8C57.5248 64.688 57.2728 64.632 56.9688 64.632C56.6808 64.632 56.4368 64.68 56.2368 64.776C56.0448 64.872 55.9008 65.004 55.8048 65.172C55.7088 65.332 55.6608 65.508 55.6608 65.7C55.6608 65.948 55.7488 66.164 55.9248 66.348C56.1008 66.532 56.3888 66.64 56.7888 66.672L57.4608 66.732C58.1008 66.788 58.6648 66.928 59.1528 67.152C59.6408 67.368 60.0208 67.668 60.2928 68.052C60.5728 68.428 60.7128 68.888 60.7128 69.432C60.7128 69.992 60.5648 70.484 60.2688 70.908C59.9808 71.324 59.5688 71.648 59.0328 71.88C58.4968 72.112 57.8568 72.228 57.1128 72.228Z" fill="black"/>
<defs>
<clipPath id="clip0_97_159">
<rect width="38.5" height="28.875" fill="white" transform="translate(25.75 20.125)"/>
</clipPath>
</defs>
</svg>
