<svg width="90" height="90" viewBox="0 0 90 90" fill="none" xmlns="http://www.w3.org/2000/svg">
<rect x="1" y="1" width="88" height="88" rx="13" fill="white"/>
<rect x="1" y="1" width="88" height="88" rx="13" stroke="black" stroke-width="2"/>
<g clip-path="url(#clip0_2_9)">
<path d="M60.8986 20.8622L45.8691 47.7376C45.5588 48.2925 44.7616 48.2957 44.4466 47.7436L29.1191 20.8647C28.7759 20.263 29.2905 19.5341 29.9723 19.656L45.018 22.3453C45.1139 22.3625 45.2122 22.3623 45.3082 22.3448L60.0392 19.6599C60.7188 19.536 61.2358 20.2592 60.8986 20.8622Z" fill="url(#paint0_linear_2_9)"/>
<path d="M52.1852 16.1286L41.0629 18.308C40.8801 18.3438 40.7448 18.4987 40.7337 18.6846L40.0496 30.2398C40.0335 30.512 40.2834 30.7232 40.5491 30.662L43.6457 29.9473C43.9354 29.8805 44.1972 30.1357 44.1376 30.427L43.2176 34.9321C43.1557 35.2353 43.4404 35.4946 43.7365 35.4047L45.6491 34.8236C45.9456 34.7335 46.2305 34.9935 46.1678 35.297L44.7057 42.3734C44.6143 42.8161 45.203 43.0575 45.4486 42.678L45.6126 42.4245L54.6757 24.3376C54.8274 24.0347 54.5657 23.6894 54.2331 23.7536L51.0457 24.3688C50.7461 24.4265 50.4913 24.1476 50.5758 23.8545L52.6562 16.6426C52.7408 16.349 52.4851 16.0699 52.1852 16.1286Z" fill="url(#paint1_linear_2_9)"/>
</g>
<path d="M34.416 72L31.752 63.24H33.78L35.892 70.632L35.436 70.404H36.66L36.18 70.632L38.136 63.24H40.104L37.62 72H34.416ZM41.1508 72V63.24H43.1188V72H41.1508ZM46.6112 72V64.716H48.5792V72H46.6112ZM44.1512 64.956V63.24H51.0512V64.956H44.1512ZM52.0492 72V63.24H53.9692V72H52.0492ZM53.7292 72V70.368H57.5572V72H53.7292ZM53.7292 68.364V66.732H57.2812V68.364H53.7292ZM53.7292 64.872V63.24H57.4732V64.872H53.7292Z" fill="black"/>
<defs>
<linearGradient id="paint0_linear_2_9" x1="28.7448" y1="18.6955" x2="47.4503" y2="44.099" gradientUnits="userSpaceOnUse">
<stop stop-color="#41D1FF"/>
<stop offset="1" stop-color="#BD34FE"/>
</linearGradient>
<linearGradient id="paint1_linear_2_9" x1="44.1546" y1="16.7203" x2="47.5384" y2="39.9323" gradientUnits="userSpaceOnUse">
<stop stop-color="#FFEA83"/>
<stop offset="0.0833333" stop-color="#FFDD35"/>
<stop offset="1" stop-color="#FFA800"/>
</linearGradient>
<clipPath id="clip0_2_9">
<rect width="33.4901" height="33" fill="white" transform="translate(28.2549 16)"/>
</clipPath>
</defs>
</svg>
