<svg width="94" height="98" viewBox="0 0 94 98" fill="none" xmlns="http://www.w3.org/2000/svg">
<g filter="url(#filter0_d_509_409)">
<rect x="2" width="90" height="90" rx="14" fill="white"/>
<path d="M62.6662 20.8622L47.8566 47.7376C47.5509 48.2925 46.7653 48.2957 46.4549 47.7436L31.3517 20.8647C31.0136 20.263 31.5206 19.5341 32.1925 19.656L47.018 22.3453C47.1125 22.3625 47.2094 22.3623 47.3039 22.3448L61.8193 19.6599C62.489 19.536 62.9984 20.2592 62.6662 20.8622Z" fill="url(#paint0_linear_509_409)"/>
<path d="M54.0801 16.1286L43.1206 18.308C42.9405 18.3438 42.8071 18.4987 42.7962 18.6846L42.1221 30.2398C42.1062 30.512 42.3525 30.7232 42.6142 30.662L45.6655 29.9473C45.951 29.8805 46.209 30.1357 46.1503 30.4271L45.2438 34.9321C45.1828 35.2353 45.4633 35.4946 45.755 35.4047L47.6397 34.8236C47.9318 34.7336 48.2126 34.9936 48.1508 35.297L46.7101 42.3735C46.62 42.8161 47.2001 43.0575 47.4421 42.678L47.6037 42.4245L56.5341 24.3376C56.6837 24.0347 56.4258 23.6894 56.098 23.7536L52.9573 24.3688C52.6621 24.4265 52.411 24.1476 52.4943 23.8545L54.5442 16.6426C54.6276 16.3491 54.3756 16.0699 54.0801 16.1286Z" fill="url(#paint1_linear_509_409)"/>
<path d="M35.8352 63.2727L37.9446 69.9034H38.0256L40.1392 63.2727H42.1847L39.1761 72H36.7983L33.7855 63.2727H35.8352ZM44.8403 63.2727V72H42.9951V63.2727H44.8403ZM45.786 64.794V63.2727H52.9536V64.794H50.2817V72H48.4579V64.794H45.786ZM53.894 72V63.2727H59.7747V64.794H55.7392V66.8736H59.4721V68.3949H55.7392V70.4787H59.7917V72H53.894Z" fill="black"/>
</g>
<defs>
<filter id="filter0_d_509_409" x="0" y="0" width="94" height="98" filterUnits="userSpaceOnUse" color-interpolation-filters="sRGB">
<feFlood flood-opacity="0" result="BackgroundImageFix"/>
<feColorMatrix in="SourceAlpha" type="matrix" values="0 0 0 0 0 0 0 0 0 0 0 0 0 0 0 0 0 0 127 0" result="hardAlpha"/>
<feMorphology radius="4" operator="erode" in="SourceAlpha" result="effect1_dropShadow_509_409"/>
<feOffset dy="6"/>
<feGaussianBlur stdDeviation="3"/>
<feComposite in2="hardAlpha" operator="out"/>
<feColorMatrix type="matrix" values="0 0 0 0 0 0 0 0 0 0 0 0 0 0 0 0 0 0 1 0"/>
<feBlend mode="normal" in2="BackgroundImageFix" result="effect1_dropShadow_509_409"/>
<feBlend mode="normal" in="SourceGraphic" in2="effect1_dropShadow_509_409" result="shape"/>
</filter>
<linearGradient id="paint0_linear_509_409" x1="30.9829" y1="18.6955" x2="49.7686" y2="43.8345" gradientUnits="userSpaceOnUse">
<stop stop-color="#41D1FF"/>
<stop offset="1" stop-color="#BD34FE"/>
</linearGradient>
<linearGradient id="paint1_linear_509_409" x1="46.1671" y1="16.7203" x2="49.5989" y2="39.9178" gradientUnits="userSpaceOnUse">
<stop stop-color="#FFEA83"/>
<stop offset="0.0833333" stop-color="#FFDD35"/>
<stop offset="1" stop-color="#FFA800"/>
</linearGradient>
</defs>
</svg>
