<svg width="94" height="98" viewBox="0 0 94 98" fill="none" xmlns="http://www.w3.org/2000/svg">
<g filter="url(#filter0_d_509_385)">
<rect x="2" width="90" height="90" rx="14" fill="white"/>
<path d="M60.4165 21.1872L54.4704 18.3244C54.1346 18.1625 53.7567 18.1091 53.3892 18.1715C53.0217 18.234 52.6827 18.4092 52.4192 18.673L32.9544 36.4187C32.7182 36.633 32.5768 36.9324 32.5614 37.2509C32.5459 37.5694 32.6576 37.881 32.8719 38.1172C32.8976 38.1451 32.9234 38.1719 32.9513 38.1966L34.5404 39.6404C34.7481 39.8294 35.0154 39.9396 35.2959 39.9521C35.5764 39.9645 35.8524 39.8783 36.076 39.7084L59.5214 21.9297C59.6985 21.7953 59.9096 21.713 60.1309 21.6921C60.3522 21.6712 60.575 21.7124 60.7741 21.8113C60.9733 21.9101 61.1409 22.0625 61.2581 22.2514C61.3752 22.4403 61.4374 22.6582 61.4375 22.8805V22.8114C61.4375 22.472 61.3416 22.1395 61.161 21.8522C60.9804 21.5649 60.7224 21.3343 60.4165 21.1872Z" fill="#0065A9"/>
<path d="M60.4165 43.8128L54.4704 46.6766C54.1345 46.838 53.7567 46.8912 53.3893 46.8288C53.0219 46.7663 52.6829 46.5914 52.4192 46.328L32.9544 28.5812C32.7182 28.367 32.5768 28.0676 32.5614 27.7491C32.5459 27.4306 32.6576 27.119 32.8719 26.8828C32.8976 26.8549 32.9234 26.8281 32.9513 26.8034L34.5404 25.3596C34.7483 25.1698 35.0162 25.0591 35.2974 25.0466C35.5786 25.0342 35.8552 25.1209 36.079 25.2916L59.5214 43.0703C59.6985 43.2047 59.9096 43.287 60.1309 43.3079C60.3522 43.3288 60.575 43.2875 60.7741 43.1887C60.9733 43.0899 61.1409 42.9375 61.2581 42.7486C61.3752 42.5597 61.4374 42.3418 61.4375 42.1195V42.1937C61.4364 42.5322 61.34 42.8636 61.1595 43.1499C60.979 43.4362 60.7215 43.6659 60.4165 43.8128Z" fill="#007ACC"/>
<path d="M54.4704 46.6766C54.1345 46.838 53.7567 46.8912 53.3893 46.8288C53.0219 46.7664 52.6829 46.5914 52.4192 46.328C52.5673 46.4742 52.7553 46.5734 52.9595 46.6132C53.1637 46.653 53.3751 46.6317 53.5673 46.5518C53.7594 46.472 53.9238 46.3372 54.0396 46.1644C54.1555 45.9916 54.2178 45.7885 54.2188 45.5804V19.4196C54.2189 19.2106 54.1571 19.0062 54.041 18.8323C53.9249 18.6585 53.7598 18.523 53.5667 18.4431C53.3735 18.3631 53.161 18.3423 52.956 18.3832C52.751 18.4241 52.5627 18.525 52.4151 18.673C52.6786 18.4094 53.0175 18.2341 53.385 18.1715C53.7524 18.1088 54.1303 18.1619 54.4663 18.3234L60.4114 21.182C60.7182 21.3285 60.9773 21.5587 61.1589 21.8461C61.3404 22.1335 61.437 22.4663 61.4375 22.8063V42.1938C61.4376 42.5334 61.3417 42.8662 61.1609 43.1537C60.9801 43.4413 60.7217 43.6719 60.4155 43.819L54.4704 46.6766Z" fill="#1F9CF0"/>
<path d="M23.8352 63.2727L25.9446 69.9034H26.0256L28.1392 63.2727H30.1847L27.1761 72H24.7983L21.7855 63.2727H23.8352ZM35.7295 65.7827C35.6954 65.4389 35.5491 65.1719 35.2905 64.9815C35.032 64.7912 34.6812 64.696 34.238 64.696C33.9368 64.696 33.6826 64.7386 33.4752 64.8239C33.2678 64.9062 33.1087 65.0213 32.9979 65.169C32.89 65.3168 32.836 65.4844 32.836 65.6719C32.8303 65.8281 32.863 65.9645 32.934 66.081C33.0079 66.1974 33.1087 66.2983 33.2366 66.3835C33.3644 66.4659 33.5121 66.5384 33.6797 66.6009C33.8474 66.6605 34.0263 66.7116 34.2167 66.7543L35.0008 66.9418C35.3814 67.027 35.7309 67.1406 36.0491 67.2827C36.3672 67.4247 36.6428 67.5994 36.8758 67.8068C37.1087 68.0142 37.2891 68.2585 37.417 68.5398C37.5476 68.821 37.6144 69.1435 37.6172 69.5071C37.6144 70.0412 37.478 70.5043 37.2082 70.8963C36.9411 71.2855 36.5547 71.5881 36.0491 71.804C35.5462 72.017 34.9397 72.1236 34.2295 72.1236C33.5249 72.1236 32.9113 72.0156 32.3886 71.7997C31.8687 71.5838 31.4624 71.2642 31.1698 70.8409C30.88 70.4148 30.728 69.8878 30.7138 69.2599H32.4993C32.5192 69.5526 32.603 69.7969 32.7508 69.9929C32.9013 70.1861 33.1016 70.3324 33.3516 70.4318C33.6045 70.5284 33.89 70.5767 34.2082 70.5767C34.5207 70.5767 34.792 70.5312 35.0221 70.4403C35.255 70.3494 35.4354 70.223 35.5633 70.0611C35.6911 69.8991 35.755 69.7131 35.755 69.5028C35.755 69.3068 35.6968 69.142 35.5803 69.0085C35.4667 68.875 35.2991 68.7614 35.0775 68.6676C34.8587 68.5739 34.5903 68.4886 34.2721 68.4119L33.3218 68.1733C32.586 67.9943 32.005 67.7145 31.5789 67.3338C31.1528 66.9531 30.9411 66.4403 30.9439 65.7955C30.9411 65.267 31.0817 64.8054 31.3658 64.4105C31.6528 64.0156 32.0462 63.7074 32.5462 63.4858C33.0462 63.2642 33.6144 63.1534 34.2508 63.1534C34.8985 63.1534 35.4638 63.2642 35.9468 63.4858C36.4326 63.7074 36.8104 64.0156 37.0803 64.4105C37.3502 64.8054 37.4894 65.2628 37.4979 65.7827H35.7295ZM46.3187 66.3281H44.4522C44.4181 66.0866 44.3485 65.8722 44.2434 65.6847C44.1383 65.4943 44.0033 65.3324 43.8385 65.1989C43.6738 65.0653 43.4834 64.9631 43.2675 64.892C43.0544 64.821 42.8229 64.7855 42.5729 64.7855C42.1212 64.7855 41.7277 64.8977 41.3925 65.1222C41.0573 65.3437 40.7973 65.6676 40.6127 66.0938C40.428 66.517 40.3357 67.0312 40.3357 67.6364C40.3357 68.2585 40.428 68.7812 40.6127 69.2045C40.8002 69.6278 41.0615 69.9474 41.3968 70.1634C41.732 70.3793 42.1198 70.4872 42.5601 70.4872C42.8073 70.4872 43.036 70.4545 43.2462 70.3892C43.4593 70.3239 43.6482 70.2287 43.813 70.1037C43.9777 69.9759 44.1141 69.821 44.2221 69.6392C44.3329 69.4574 44.4096 69.25 44.4522 69.017L46.3187 69.0256C46.2704 69.4261 46.1496 69.8125 45.9564 70.1847C45.7661 70.554 45.509 70.8849 45.1851 71.1776C44.8641 71.4673 44.4806 71.6974 44.0346 71.8679C43.5914 72.0355 43.09 72.1193 42.5303 72.1193C41.7519 72.1193 41.0559 71.9432 40.4422 71.5909C39.8314 71.2386 39.3485 70.7287 38.9934 70.0611C38.6411 69.3935 38.465 68.5852 38.465 67.6364C38.465 66.6847 38.6439 65.875 39.0019 65.2074C39.3598 64.5398 39.8456 64.0312 40.4593 63.6818C41.0729 63.3295 41.7633 63.1534 42.5303 63.1534C43.036 63.1534 43.5047 63.2244 43.9365 63.3665C44.3712 63.5085 44.7562 63.7159 45.0914 63.9886C45.4266 64.2585 45.6993 64.5895 45.9096 64.9815C46.1226 65.3736 46.259 65.8224 46.3187 66.3281ZM55.4217 67.6364C55.4217 68.5881 55.2413 69.3977 54.8805 70.0653C54.5225 70.733 54.0339 71.2429 53.4146 71.5952C52.7981 71.9446 52.1049 72.1193 51.335 72.1193C50.5595 72.1193 49.8635 71.9432 49.247 71.5909C48.6305 71.2386 48.1433 70.7287 47.7853 70.0611C47.4274 69.3935 47.2484 68.5852 47.2484 67.6364C47.2484 66.6847 47.4274 65.875 47.7853 65.2074C48.1433 64.5398 48.6305 64.0312 49.247 63.6818C49.8635 63.3295 50.5595 63.1534 51.335 63.1534C52.1049 63.1534 52.7981 63.3295 53.4146 63.6818C54.0339 64.0312 54.5225 64.5398 54.8805 65.2074C55.2413 65.875 55.4217 66.6847 55.4217 67.6364ZM53.551 67.6364C53.551 67.0199 53.4586 66.5 53.274 66.0767C53.0921 65.6534 52.835 65.3324 52.5027 65.1136C52.1703 64.8949 51.7811 64.7855 51.335 64.7855C50.889 64.7855 50.4998 64.8949 50.1674 65.1136C49.835 65.3324 49.5765 65.6534 49.3919 66.0767C49.21 66.5 49.1191 67.0199 49.1191 67.6364C49.1191 68.2528 49.21 68.7727 49.3919 69.196C49.5765 69.6193 49.835 69.9403 50.1674 70.1591C50.4998 70.3778 50.889 70.4872 51.335 70.4872C51.7811 70.4872 52.1703 70.3778 52.5027 70.1591C52.835 69.9403 53.0921 69.6193 53.274 69.196C53.4586 68.7727 53.551 68.2528 53.551 67.6364ZM59.6423 72H56.5485V63.2727H59.6678C60.5457 63.2727 61.3014 63.4474 61.9349 63.7969C62.5684 64.1435 63.0556 64.642 63.3965 65.2926C63.7403 65.9432 63.9122 66.7216 63.9122 67.6278C63.9122 68.5369 63.7403 69.3182 63.3965 69.9716C63.0556 70.625 62.5656 71.1264 61.9264 71.4759C61.29 71.8253 60.5286 72 59.6423 72ZM58.3937 70.419H59.5656C60.111 70.419 60.5698 70.3224 60.942 70.1293C61.317 69.9332 61.5982 69.6307 61.7857 69.2216C61.9761 68.8097 62.0713 68.2784 62.0713 67.6278C62.0713 66.983 61.9761 66.456 61.7857 66.0469C61.5982 65.6378 61.3184 65.3366 60.9463 65.1435C60.5741 64.9503 60.1153 64.8537 59.5698 64.8537H58.3937V70.419ZM65.039 72V63.2727H70.9197V64.794H66.8842V66.8736H70.6171V68.3949H66.8842V70.4787H70.9367V72H65.039Z" fill="black"/>
</g>
<defs>
<filter id="filter0_d_509_385" x="0" y="0" width="94" height="98" filterUnits="userSpaceOnUse" color-interpolation-filters="sRGB">
<feFlood flood-opacity="0" result="BackgroundImageFix"/>
<feColorMatrix in="SourceAlpha" type="matrix" values="0 0 0 0 0 0 0 0 0 0 0 0 0 0 0 0 0 0 127 0" result="hardAlpha"/>
<feMorphology radius="4" operator="erode" in="SourceAlpha" result="effect1_dropShadow_509_385"/>
<feOffset dy="6"/>
<feGaussianBlur stdDeviation="3"/>
<feComposite in2="hardAlpha" operator="out"/>
<feColorMatrix type="matrix" values="0 0 0 0 0 0 0 0 0 0 0 0 0 0 0 0 0 0 1 0"/>
<feBlend mode="normal" in2="BackgroundImageFix" result="effect1_dropShadow_509_385"/>
<feBlend mode="normal" in="SourceGraphic" in2="effect1_dropShadow_509_385" result="shape"/>
</filter>
</defs>
</svg>
