<svg width="90" height="90" viewBox="0 0 90 90" fill="none" xmlns="http://www.w3.org/2000/svg">
<rect x="1" y="1" width="88" height="88" rx="13" fill="white"/>
<rect x="1" y="1" width="88" height="88" rx="13" stroke="black" stroke-width="2"/>
<path d="M32.1094 24.7656L45 17.5469L58.4062 24.7656L45 31.9844L32.1094 24.7656Z" fill="#ACE3FF"/>
<path d="M31.5938 24.7656V40.2344L45 47.9688V31.9844L31.5938 24.7656Z" fill="#ACE3FF"/>
<path d="M37.2656 27.8594L45 23.7344L52.7344 27.8594L45 31.9844L37.2656 27.8594Z" fill="#7BBEEB"/>
<path d="M45 47.9688L58.9219 40.2344V24.7656L45 31.9844V47.9688Z" fill="#ACE3FF"/>
<path d="M37.2656 27.8594V37.1406L45 41.2656V31.9844L37.2656 27.8594Z" fill="#7BBEEB"/>
<path d="M45 41.2656L52.7344 37.1406V27.8594L45 31.9844V41.2656Z" fill="#7BBEEB"/>
<path d="M37.2656 37.1406L31.5938 40.2344V24.7656L37.2656 27.8594V37.1406Z" fill="#E3F2FF"/>
<path d="M45 32.5C44.9165 32.5 44.8329 32.4799 44.7571 32.4397L37.0228 28.3147C36.8552 28.225 36.75 28.0496 36.75 27.8594C36.75 27.6691 36.8552 27.4938 37.0228 27.4041L44.7571 23.2791C44.9087 23.1986 45.0908 23.1986 45.2423 23.2791L52.9767 27.4041C53.1448 27.4938 53.25 27.6691 53.25 27.8594C53.25 28.0496 53.1448 28.225 52.9772 28.3147L45.2429 32.4397C45.1671 32.4799 45.0835 32.5 45 32.5ZM38.3613 27.8594L45 31.3997L51.6387 27.8594L45 24.3191L38.3613 27.8594Z" fill="#8D6C9F"/>
<path d="M37.2656 29.9219C36.981 29.9219 36.75 29.6914 36.75 29.4063V28.1657L31.3468 25.2184C31.1807 25.1276 31.0776 24.9533 31.0781 24.7641C31.0786 24.5754 31.1828 24.4016 31.3493 24.3114L44.7556 17.0926C45.0067 16.9575 45.3192 17.0514 45.4537 17.3025C45.5888 17.5526 45.495 17.8655 45.2444 18.0006L32.676 24.7687L37.5126 27.4067C37.6781 27.4969 37.7813 27.6707 37.7813 27.8594V29.4063C37.7813 29.6914 37.5503 29.9219 37.2656 29.9219Z" fill="#8D6C9F"/>
<path d="M37.2656 34.0469C36.981 34.0469 36.75 33.8164 36.75 33.5312V31.4688C36.75 31.1836 36.981 30.9531 37.2656 30.9531C37.5502 30.9531 37.7812 31.1836 37.7812 31.4688V33.5312C37.7812 33.8164 37.5502 34.0469 37.2656 34.0469Z" fill="#8D6C9F"/>
<path d="M45 41.7812C44.9165 41.7812 44.8335 41.7611 44.7571 41.7209L37.0228 37.5959C36.8552 37.5062 36.75 37.3309 36.75 37.1406V35.5938C36.75 35.3086 36.981 35.0781 37.2656 35.0781C37.5502 35.0781 37.7812 35.3086 37.7812 35.5938V36.8313L44.4844 40.4061V31.9844C44.4844 31.6992 44.7154 31.4688 45 31.4688C45.2846 31.4688 45.5156 31.6992 45.5156 31.9844V41.2656C45.5156 41.4471 45.4207 41.6147 45.2655 41.7075C45.1836 41.7565 45.0918 41.7812 45 41.7812Z" fill="#8D6C9F"/>
<path d="M58.9219 40.2344L45 47.4531V41.2656L52.7344 37.1406L58.9219 40.2344Z" fill="#85CBF8"/>
<path d="M45 48.4844C44.9098 48.4844 44.819 48.4606 44.7386 48.4132C44.5808 48.3209 44.4844 48.1513 44.4844 47.9687V41.2656C44.4844 40.9805 44.7154 40.75 45 40.75C45.2846 40.75 45.5156 40.9805 45.5156 41.2656V47.0927L58.6713 39.7837C58.9208 39.6445 59.2343 39.7352 59.3725 39.9843C59.5112 40.2328 59.421 40.5468 59.1725 40.685L45.2506 48.4194C45.1722 48.4627 45.0861 48.4844 45 48.4844Z" fill="#8D6C9F"/>
<path d="M52.7344 37.6562C52.4497 37.6562 52.2188 37.4257 52.2188 37.1406V27.8594C52.2188 27.6639 52.3291 27.4855 52.5039 27.3979L57.786 24.7568L45.5156 18.3951V23.7344C45.5156 24.0195 45.2846 24.25 45 24.25C44.7154 24.25 44.4844 24.0195 44.4844 23.7344V17.5469C44.4844 17.3664 44.5782 17.1998 44.7319 17.1065C44.8855 17.0127 45.0773 17.0065 45.2372 17.0895L59.1591 24.3083C59.3313 24.3975 59.4385 24.5759 59.4375 24.7703C59.436 24.9641 59.3261 25.141 59.1524 25.2276L53.25 28.178V37.1406C53.25 37.4257 53.019 37.6562 52.7344 37.6562Z" fill="#8D6C9F"/>
<path d="M51.2594 39.0278C51.0753 39.0278 50.8969 38.9288 50.8041 38.7551L50.3189 37.845C50.1843 37.5939 50.2797 37.2814 50.5308 37.1473C50.7835 37.0128 51.0944 37.1087 51.2284 37.3593L51.7137 38.2693C51.8482 38.5204 51.7528 38.8329 51.5017 38.967C51.4239 39.0082 51.3409 39.0278 51.2594 39.0278Z" fill="#8D6C9F"/>
<path d="M49.1101 40.174C48.9261 40.174 48.7477 40.075 48.6543 39.9013L48.1691 38.9907C48.0351 38.7396 48.1305 38.4266 48.3816 38.2925C48.6337 38.159 48.9451 38.2544 49.0797 38.505L49.5649 39.4155C49.699 39.6667 49.6036 39.9796 49.3525 40.1137C49.2746 40.1544 49.1916 40.174 49.1101 40.174Z" fill="#8D6C9F"/>
<path d="M46.9618 41.3192C46.7777 41.3192 46.5993 41.2202 46.5065 41.0465L46.0208 40.1364C45.8867 39.8853 45.9816 39.5728 46.2332 39.4387C46.4859 39.3042 46.7973 39.4001 46.9309 39.6507L47.4161 40.5607C47.5507 40.8119 47.4553 41.1243 47.2042 41.2584C47.1263 41.2996 47.0433 41.3192 46.9618 41.3192Z" fill="#8D6C9F"/>
<path d="M58.9218 40.75C58.8429 40.75 58.764 40.732 58.6913 40.6959L52.5038 37.6021C52.2491 37.4748 52.146 37.1649 52.2733 36.9101C52.4007 36.6559 52.7101 36.5533 52.9653 36.6797L58.4062 39.4001V24.7656C58.4062 24.4805 58.6372 24.25 58.9218 24.25C59.2064 24.25 59.4374 24.4805 59.4374 24.7656V40.2344C59.4374 40.4133 59.3446 40.5788 59.193 40.6732C59.11 40.7242 59.0162 40.75 58.9218 40.75Z" fill="#8D6C9F"/>
<path d="M31.5938 40.75C31.5025 40.75 31.4112 40.7258 31.3308 40.6778C31.174 40.585 31.0781 40.4164 31.0781 40.2344V24.7656C31.0781 24.4805 31.3091 24.25 31.5938 24.25C31.8784 24.25 32.1094 24.4805 32.1094 24.7656V39.3655L37.0186 36.6879C37.2698 36.5518 37.5822 36.6441 37.7183 36.8936C37.855 37.1432 37.7627 37.4567 37.5126 37.5928L31.8407 40.6866C31.7639 40.7289 31.6788 40.75 31.5938 40.75Z" fill="#8D6C9F"/>
<path d="M44.9995 48.4844C44.9124 48.4844 44.8237 48.4622 44.7422 48.4153L31.3359 40.6809C31.0895 40.5386 31.0049 40.2235 31.1472 39.9766C31.2895 39.7301 31.6046 39.645 31.8516 39.7878L45.2578 47.5222C45.5048 47.6645 45.5894 47.9801 45.4471 48.2266C45.3512 48.3916 45.1779 48.4844 44.9995 48.4844Z" fill="#8D6C9F"/>
<path d="M16.412 72L14.252 63.24H16.28L17.972 70.68L17.552 70.404H18.644L18.176 70.68L19.484 63.564H21.116L19.4 72H16.412ZM21.632 72L19.784 63.564H21.5L23.012 70.68L22.556 70.404H23.6L23.204 70.68L24.68 63.24H26.6L24.68 72H21.632ZM27.5995 72V63.24H29.5195V72H27.5995ZM29.2795 72V70.368H33.1075V72H29.2795ZM29.2795 68.364V66.732H32.8315V68.364H29.2795ZM29.2795 64.872V63.24H33.0235V64.872H29.2795ZM36.1645 72.06V70.524H38.2165C38.5845 70.524 38.8605 70.428 39.0445 70.236C39.2285 70.044 39.3205 69.772 39.3205 69.42C39.3205 69.068 39.2285 68.8 39.0445 68.616C38.8605 68.424 38.5845 68.328 38.2165 68.328H36.1645V67.14H38.1205C38.7285 67.14 39.2685 67.216 39.7405 67.368C40.2125 67.512 40.5845 67.748 40.8565 68.076C41.1285 68.404 41.2645 68.848 41.2645 69.408V69.576C41.2645 70.096 41.1445 70.544 40.9045 70.92C40.6645 71.288 40.3125 71.572 39.8485 71.772C39.3845 71.964 38.8085 72.06 38.1205 72.06H36.1645ZM34.4845 72.06V63.168H36.4045V72.06H34.4845ZM36.1645 68.016V66.84H37.8925C38.2685 66.84 38.5405 66.744 38.7085 66.552C38.8765 66.36 38.9605 66.104 38.9605 65.784C38.9605 65.448 38.8765 65.184 38.7085 64.992C38.5405 64.8 38.2685 64.704 37.8925 64.704H36.1645V63.168H37.7725C38.7805 63.168 39.5525 63.38 40.0885 63.804C40.6325 64.228 40.9045 64.832 40.9045 65.616V65.796C40.9045 66.34 40.7645 66.776 40.4845 67.104C40.2125 67.432 39.8405 67.668 39.3685 67.812C38.9045 67.948 38.3725 68.016 37.7725 68.016H36.1645ZM44.2811 69.492V67.788H45.8531C46.1571 67.788 46.4171 67.728 46.6331 67.608C46.8571 67.488 47.0291 67.32 47.1491 67.104C47.2691 66.88 47.3291 66.624 47.3291 66.336C47.3291 66.032 47.2691 65.772 47.1491 65.556C47.0291 65.332 46.8571 65.164 46.6331 65.052C46.4171 64.932 46.1571 64.872 45.8531 64.872H44.2811V63.168H45.7571C46.5011 63.168 47.1371 63.292 47.6651 63.54C48.2011 63.788 48.6091 64.14 48.8891 64.596C49.1771 65.052 49.3211 65.6 49.3211 66.24V66.432C49.3211 67.056 49.1771 67.6 48.8891 68.064C48.6091 68.52 48.2011 68.872 47.6651 69.12C47.1371 69.368 46.5011 69.492 45.7571 69.492H44.2811ZM42.5531 72V63.168H44.5211V72H42.5531ZM48.8444 72L51.7364 63.24H54.9164L57.9164 72H55.8764L53.4524 64.596L54.0764 64.848H52.5284L53.1764 64.596L50.8124 72H48.8444ZM51.0404 69.828L51.6404 68.196H55.0724L55.6844 69.828H51.0404ZM62.4642 72.228C61.6722 72.228 60.9922 72.092 60.4242 71.82C59.8562 71.54 59.3922 71.176 59.0322 70.728C58.6722 70.272 58.4042 69.784 58.2282 69.264C58.0602 68.736 57.9762 68.224 57.9762 67.728V67.464C57.9762 66.92 58.0642 66.384 58.2402 65.856C58.4162 65.32 58.6842 64.836 59.0442 64.404C59.4122 63.972 59.8722 63.628 60.4242 63.372C60.9842 63.108 61.6442 62.976 62.4042 62.976C63.1962 62.976 63.8962 63.124 64.5042 63.42C65.1122 63.716 65.5962 64.128 65.9562 64.656C66.3242 65.176 66.5402 65.788 66.6042 66.492H64.6242C64.5682 66.14 64.4402 65.84 64.2402 65.592C64.0402 65.344 63.7802 65.152 63.4602 65.016C63.1482 64.88 62.7962 64.812 62.4042 64.812C62.0122 64.812 61.6642 64.88 61.3602 65.016C61.0562 65.152 60.8002 65.344 60.5922 65.592C60.3922 65.84 60.2362 66.136 60.1242 66.48C60.0202 66.816 59.9682 67.192 59.9682 67.608C59.9682 68.016 60.0202 68.392 60.1242 68.736C60.2362 69.072 60.3962 69.368 60.6042 69.624C60.8202 69.872 61.0842 70.064 61.3962 70.2C61.7082 70.328 62.0642 70.392 62.4642 70.392C63.0722 70.392 63.5842 70.244 64.0002 69.948C64.4242 69.652 64.6802 69.244 64.7682 68.724H66.7362C66.6642 69.364 66.4482 69.952 66.0882 70.488C65.7362 71.016 65.2522 71.44 64.6362 71.76C64.0282 72.072 63.3042 72.228 62.4642 72.228ZM73.5618 72L70.5378 67.908H69.3258L72.9978 63.24H75.2538L71.9538 67.428L71.9298 66.576L75.9378 72H73.5618ZM67.8018 72V63.24H69.7698V72H67.8018Z" fill="black"/>
</svg>
