<svg width="280" height="40" viewBox="0 0 280 40" fill="none" xmlns="http://www.w3.org/2000/svg">
<rect width="280" height="40" rx="4" fill="white"/>
<path d="M42.652 25V17.524H43.996V25H42.652ZM41.504 18.588V17.524H43.996V18.588H41.504ZM43.03 16.32C42.7313 16.32 42.5073 16.2407 42.358 16.082C42.218 15.9233 42.148 15.7227 42.148 15.48C42.148 15.2373 42.218 15.0367 42.358 14.878C42.5073 14.7193 42.7313 14.64 43.03 14.64C43.3287 14.64 43.548 14.7193 43.688 14.878C43.8373 15.0367 43.912 15.2373 43.912 15.48C43.912 15.7227 43.8373 15.9233 43.688 16.082C43.548 16.2407 43.3287 16.32 43.03 16.32ZM46.3146 25V17.524H47.3786V20.73H47.2106C47.2106 19.9927 47.3086 19.372 47.5046 18.868C47.71 18.3547 48.018 17.9673 48.4286 17.706C48.8393 17.4353 49.3573 17.3 49.9826 17.3H50.0386C50.9813 17.3 51.6766 17.594 52.1246 18.182C52.582 18.77 52.8106 19.6193 52.8106 20.73V25H51.4666V20.45C51.4666 19.8713 51.3033 19.4093 50.9766 19.064C50.65 18.7093 50.202 18.532 49.6326 18.532C49.0446 18.532 48.5686 18.714 48.2046 19.078C47.8406 19.442 47.6586 19.9273 47.6586 20.534V25H46.3146ZM55.1857 25V17.146C55.1857 16.3153 55.4051 15.704 55.8437 15.312C56.2824 14.92 56.9264 14.724 57.7757 14.724H58.6997V15.844H57.5517C57.2064 15.844 56.9404 15.942 56.7537 16.138C56.5671 16.3247 56.4737 16.586 56.4737 16.922V25H55.1857ZM54.1497 18.616V17.608H58.8397V18.616H54.1497ZM63.4037 25.252C62.7504 25.252 62.1764 25.14 61.6817 24.916C61.1871 24.692 60.7671 24.398 60.4217 24.034C60.0857 23.6607 59.8291 23.2453 59.6517 22.788C59.4837 22.3307 59.3997 21.864 59.3997 21.388V21.136C59.3997 20.66 59.4884 20.1933 59.6657 19.736C59.8431 19.2693 60.1044 18.854 60.4497 18.49C60.7951 18.1167 61.2151 17.8227 61.7097 17.608C62.2044 17.384 62.7691 17.272 63.4037 17.272C64.0384 17.272 64.6031 17.384 65.0977 17.608C65.5924 17.8227 66.0124 18.1167 66.3577 18.49C66.7031 18.854 66.9644 19.2693 67.1417 19.736C67.3191 20.1933 67.4077 20.66 67.4077 21.136V21.388C67.4077 21.864 67.3191 22.3307 67.1417 22.788C66.9737 23.2453 66.7171 23.6607 66.3717 24.034C66.0357 24.398 65.6204 24.692 65.1257 24.916C64.6311 25.14 64.0571 25.252 63.4037 25.252ZM63.4037 24.048C63.9637 24.048 64.4397 23.9267 64.8317 23.684C65.2331 23.432 65.5364 23.096 65.7417 22.676C65.9564 22.256 66.0637 21.7847 66.0637 21.262C66.0637 20.73 65.9564 20.254 65.7417 19.834C65.5271 19.414 65.2191 19.0827 64.8177 18.84C64.4257 18.5973 63.9544 18.476 63.4037 18.476C62.8624 18.476 62.3911 18.5973 61.9897 18.84C61.5884 19.0827 61.2804 19.414 61.0657 19.834C60.8511 20.254 60.7437 20.73 60.7437 21.262C60.7437 21.7847 60.8464 22.256 61.0517 22.676C61.2664 23.096 61.5697 23.432 61.9617 23.684C62.3631 23.9267 62.8437 24.048 63.4037 24.048ZM75.7627 28.402C74.7547 28.402 73.8213 28.234 72.9627 27.898C72.1133 27.5713 71.376 27.1 70.7507 26.484C70.1253 25.8773 69.64 25.154 69.2947 24.314C68.9493 23.4647 68.7767 22.5267 68.7767 21.5C68.7767 20.5107 68.9447 19.5913 69.2807 18.742C69.6167 17.8927 70.0927 17.1507 70.7087 16.516C71.334 15.8813 72.0807 15.3867 72.9487 15.032C73.8167 14.6773 74.778 14.5 75.8327 14.5C76.7567 14.5 77.6293 14.6353 78.4507 14.906C79.272 15.1673 80 15.5593 80.6347 16.082C81.2693 16.5953 81.764 17.2347 82.1187 18C82.4827 18.756 82.6647 19.6333 82.6647 20.632C82.6647 21.4533 82.5387 22.186 82.2867 22.83C82.0347 23.474 81.6847 23.9827 81.2367 24.356C80.798 24.7293 80.2847 24.916 79.6967 24.916C79.258 24.916 78.88 24.8227 78.5627 24.636C78.2453 24.4493 77.998 24.1927 77.8207 23.866C77.6527 23.53 77.5687 23.1473 77.5687 22.718V21.85H77.9747C77.9467 22.5127 77.802 23.0633 77.5407 23.502C77.2887 23.9407 76.9573 24.2673 76.5467 24.482C76.1453 24.6967 75.7067 24.804 75.2307 24.804C74.6613 24.804 74.148 24.664 73.6907 24.384C73.2427 24.0947 72.888 23.7073 72.6267 23.222C72.3653 22.7367 72.2347 22.186 72.2347 21.57V21.346C72.2347 20.73 72.37 20.184 72.6407 19.708C72.9113 19.232 73.2753 18.8587 73.7327 18.588C74.1993 18.3173 74.7173 18.182 75.2867 18.182C75.8 18.182 76.262 18.294 76.6727 18.518C77.0833 18.742 77.4147 19.064 77.6667 19.484C77.928 19.904 78.0727 20.4173 78.1007 21.024H77.5967V18.378H78.6887V22.69C78.6887 22.9513 78.7307 23.166 78.8147 23.334C78.908 23.502 79.0293 23.628 79.1787 23.712C79.328 23.7867 79.4913 23.824 79.6687 23.824C79.986 23.824 80.28 23.698 80.5507 23.446C80.8213 23.1847 81.0407 22.8207 81.2087 22.354C81.3767 21.8873 81.4607 21.332 81.4607 20.688C81.4607 19.8387 81.3113 19.0967 81.0127 18.462C80.7233 17.8273 80.3173 17.3 79.7947 16.88C79.272 16.46 78.67 16.1473 77.9887 15.942C77.3167 15.7273 76.6027 15.62 75.8467 15.62C74.9507 15.62 74.1387 15.7693 73.4107 16.068C72.692 16.3667 72.076 16.7867 71.5627 17.328C71.0493 17.86 70.6573 18.4853 70.3867 19.204C70.116 19.9133 69.9807 20.6833 69.9807 21.514C69.9807 22.6527 70.2233 23.656 70.7087 24.524C71.194 25.3827 71.8707 26.05 72.7387 26.526C73.616 27.0113 74.624 27.254 75.7627 27.254C76.0613 27.254 76.3507 27.2353 76.6307 27.198C76.9107 27.17 77.1813 27.1233 77.4427 27.058V28.22C77.1813 28.276 76.9107 28.318 76.6307 28.346C76.3507 28.3833 76.0613 28.402 75.7627 28.402ZM75.4687 23.74C75.8327 23.74 76.1687 23.656 76.4767 23.488C76.794 23.32 77.046 23.0727 77.2327 22.746C77.4193 22.4193 77.5127 22.0227 77.5127 21.556V21.192C77.5127 20.7533 77.4147 20.394 77.2187 20.114C77.0227 19.8247 76.7707 19.61 76.4627 19.47C76.1547 19.3207 75.8233 19.246 75.4687 19.246C75.0673 19.246 74.7127 19.3393 74.4047 19.526C74.106 19.7033 73.8727 19.96 73.7047 20.296C73.546 20.6227 73.4667 21.01 73.4667 21.458C73.4667 21.906 73.5507 22.3027 73.7187 22.648C73.8867 22.9933 74.12 23.264 74.4187 23.46C74.7173 23.6467 75.0673 23.74 75.4687 23.74ZM88.0136 25.252C87.3603 25.252 86.7863 25.14 86.2916 24.916C85.797 24.692 85.377 24.398 85.0316 24.034C84.6956 23.6607 84.439 23.2453 84.2616 22.788C84.0936 22.3307 84.0096 21.864 84.0096 21.388V21.136C84.0096 20.66 84.0983 20.1933 84.2756 19.736C84.453 19.2693 84.7143 18.854 85.0596 18.49C85.405 18.1167 85.825 17.8227 86.3196 17.608C86.8143 17.384 87.379 17.272 88.0136 17.272C88.6483 17.272 89.213 17.384 89.7076 17.608C90.2023 17.8227 90.6223 18.1167 90.9676 18.49C91.313 18.854 91.5743 19.2693 91.7516 19.736C91.929 20.1933 92.0176 20.66 92.0176 21.136V21.388C92.0176 21.864 91.929 22.3307 91.7516 22.788C91.5836 23.2453 91.327 23.6607 90.9816 24.034C90.6456 24.398 90.2303 24.692 89.7356 24.916C89.241 25.14 88.667 25.252 88.0136 25.252ZM88.0136 24.048C88.5736 24.048 89.0496 23.9267 89.4416 23.684C89.843 23.432 90.1463 23.096 90.3516 22.676C90.5663 22.256 90.6736 21.7847 90.6736 21.262C90.6736 20.73 90.5663 20.254 90.3516 19.834C90.137 19.414 89.829 19.0827 89.4276 18.84C89.0356 18.5973 88.5643 18.476 88.0136 18.476C87.4723 18.476 87.001 18.5973 86.5996 18.84C86.1983 19.0827 85.8903 19.414 85.6756 19.834C85.461 20.254 85.3536 20.73 85.3536 21.262C85.3536 21.7847 85.4563 22.256 85.6616 22.676C85.8763 23.096 86.1796 23.432 86.5716 23.684C86.973 23.9267 87.4536 24.048 88.0136 24.048ZM93.8346 25V14.78H95.1786V25H93.8346ZM92.7986 15.844V14.78H95.1786V15.844H92.7986ZM100.654 25.252C100.001 25.252 99.4364 25.14 98.9604 24.916C98.4844 24.692 98.0971 24.398 97.7984 24.034C97.4998 23.6607 97.2758 23.2453 97.1264 22.788C96.9864 22.3307 96.9164 21.864 96.9164 21.388V21.136C96.9164 20.6507 96.9864 20.1793 97.1264 19.722C97.2758 19.2647 97.4998 18.854 97.7984 18.49C98.0971 18.1167 98.4751 17.8227 98.9324 17.608C99.3991 17.384 99.9451 17.272 100.57 17.272C101.382 17.272 102.05 17.4493 102.572 17.804C103.104 18.1493 103.496 18.5973 103.748 19.148C104.01 19.6987 104.14 20.2867 104.14 20.912V21.514H97.5044V20.506H103.16L102.852 21.052C102.852 20.52 102.768 20.0627 102.6 19.68C102.432 19.288 102.18 18.9847 101.844 18.77C101.508 18.5553 101.084 18.448 100.57 18.448C100.038 18.448 99.5951 18.5693 99.2404 18.812C98.8951 19.0547 98.6338 19.386 98.4564 19.806C98.2884 20.226 98.2044 20.7113 98.2044 21.262C98.2044 21.794 98.2884 22.2747 98.4564 22.704C98.6338 23.124 98.9044 23.46 99.2684 23.712C99.6324 23.9547 100.094 24.076 100.654 24.076C101.242 24.076 101.718 23.9453 102.082 23.684C102.456 23.4227 102.68 23.1193 102.754 22.774H104.014C103.912 23.2873 103.706 23.7307 103.398 24.104C103.09 24.4773 102.703 24.762 102.236 24.958C101.77 25.154 101.242 25.252 100.654 25.252ZM108.597 27.912C108.251 27.912 107.901 27.898 107.547 27.87C107.201 27.842 106.87 27.8047 106.553 27.758V26.624C106.889 26.6707 107.239 26.708 107.603 26.736C107.976 26.7733 108.326 26.792 108.653 26.792C109.334 26.792 109.875 26.6987 110.277 26.512C110.687 26.3347 110.981 26.05 111.159 25.658C111.345 25.2753 111.439 24.7807 111.439 24.174V22.746L111.887 21.682C111.859 22.438 111.7 23.068 111.411 23.572C111.121 24.0667 110.743 24.44 110.277 24.692C109.819 24.9347 109.311 25.056 108.751 25.056C108.228 25.056 107.747 24.958 107.309 24.762C106.879 24.5567 106.506 24.2767 106.189 23.922C105.881 23.5673 105.638 23.1613 105.461 22.704C105.293 22.2373 105.209 21.7473 105.209 21.234V20.982C105.209 20.4593 105.297 19.974 105.475 19.526C105.652 19.0687 105.899 18.672 106.217 18.336C106.534 18 106.912 17.7387 107.351 17.552C107.799 17.3653 108.289 17.272 108.821 17.272C109.446 17.272 109.997 17.4073 110.473 17.678C110.949 17.9393 111.322 18.3267 111.593 18.84C111.873 19.344 112.027 19.9647 112.055 20.702L111.663 20.716V17.524H112.727V24.118C112.727 25.014 112.587 25.7373 112.307 26.288C112.036 26.848 111.597 27.2587 110.991 27.52C110.393 27.7813 109.595 27.912 108.597 27.912ZM109.003 23.824C109.451 23.824 109.857 23.726 110.221 23.53C110.594 23.334 110.888 23.054 111.103 22.69C111.327 22.3167 111.439 21.8733 111.439 21.36V20.716C111.439 20.212 111.322 19.7873 111.089 19.442C110.865 19.0967 110.571 18.8353 110.207 18.658C109.843 18.4807 109.446 18.392 109.017 18.392C108.531 18.392 108.102 18.504 107.729 18.728C107.355 18.952 107.066 19.2693 106.861 19.68C106.655 20.0813 106.553 20.5573 106.553 21.108C106.553 21.6587 106.655 22.1393 106.861 22.55C107.075 22.9607 107.365 23.278 107.729 23.502C108.102 23.7167 108.527 23.824 109.003 23.824ZM114.572 21.682V20.534H119.78V21.682H114.572ZM126.863 25L124.049 21.514H122.817L126.247 17.524H127.661L124.553 21.122L124.651 20.408L128.417 25H126.863ZM121.711 25V14.78H123.055V25H121.711ZM131.964 25.224C131.077 25.224 130.396 24.9347 129.92 24.356C129.444 23.7773 129.206 22.942 129.206 21.85V17.51H130.55V22.116C130.55 22.704 130.709 23.166 131.026 23.502C131.343 23.8287 131.773 23.992 132.314 23.992C132.874 23.992 133.331 23.8147 133.686 23.46C134.041 23.096 134.218 22.6013 134.218 21.976V17.51H135.562V25H134.498V21.794H134.666C134.666 22.5313 134.568 23.1567 134.372 23.67C134.176 24.174 133.882 24.5613 133.49 24.832C133.107 25.0933 132.617 25.224 132.02 25.224H131.964ZM137.409 25V23.502L141.483 18.616V18.84L141.259 18.504L141.441 18.588H137.353V17.524H142.673V19.022L138.599 23.908V23.712L138.851 24.062L138.655 23.936H142.897V25H137.409ZM144.441 25V17.524H145.505V20.73H145.337C145.337 20.002 145.43 19.386 145.617 18.882C145.813 18.3687 146.102 17.9767 146.485 17.706C146.868 17.4353 147.353 17.3 147.941 17.3H147.997C148.585 17.3 149.07 17.4353 149.453 17.706C149.845 17.9767 150.134 18.3687 150.321 18.882C150.508 19.386 150.601 20.002 150.601 20.73H150.209C150.209 20.002 150.307 19.386 150.503 18.882C150.699 18.3687 150.988 17.9767 151.371 17.706C151.763 17.4353 152.253 17.3 152.841 17.3H152.897C153.485 17.3 153.975 17.4353 154.367 17.706C154.759 17.9767 155.048 18.3687 155.235 18.882C155.431 19.386 155.529 20.002 155.529 20.73V25H154.185V20.436C154.185 19.8293 154.036 19.3627 153.737 19.036C153.438 18.7 153.023 18.532 152.491 18.532C151.94 18.532 151.497 18.7093 151.161 19.064C150.825 19.4093 150.657 19.8947 150.657 20.52V25H149.313V20.436C149.313 19.8293 149.164 19.3627 148.865 19.036C148.566 18.7 148.151 18.532 147.619 18.532C147.068 18.532 146.625 18.7093 146.289 19.064C145.953 19.4093 145.785 19.8947 145.785 20.52V25H144.441ZM158.074 25V17.524H159.418V25H158.074ZM156.926 18.588V17.524H159.418V18.588H156.926ZM158.452 16.32C158.153 16.32 157.929 16.2407 157.78 16.082C157.64 15.9233 157.57 15.7227 157.57 15.48C157.57 15.2373 157.64 15.0367 157.78 14.878C157.929 14.7193 158.153 14.64 158.452 14.64C158.75 14.64 158.97 14.7193 159.11 14.878C159.259 15.0367 159.334 15.2373 159.334 15.48C159.334 15.7227 159.259 15.9233 159.11 16.082C158.97 16.2407 158.75 16.32 158.452 16.32ZM161.736 25V17.524H162.8V20.73H162.632C162.632 19.9927 162.73 19.372 162.926 18.868C163.132 18.3547 163.44 17.9673 163.85 17.706C164.261 17.4353 164.779 17.3 165.404 17.3H165.46C166.403 17.3 167.098 17.594 167.546 18.182C168.004 18.77 168.232 19.6193 168.232 20.73V25H166.888V20.45C166.888 19.8713 166.725 19.4093 166.398 19.064C166.072 18.7093 165.624 18.532 165.054 18.532C164.466 18.532 163.99 18.714 163.626 19.078C163.262 19.442 163.08 19.9273 163.08 20.534V25H161.736ZM170.146 25V23.292H171.77V25H170.146ZM173.796 25V17.524H174.86V20.604H174.804C174.804 19.512 175.042 18.714 175.518 18.21C176.003 17.6967 176.726 17.44 177.688 17.44H177.94V18.644H177.464C176.717 18.644 176.143 18.8447 175.742 19.246C175.34 19.638 175.14 20.2073 175.14 20.954V25H173.796ZM181.848 25.224C180.961 25.224 180.28 24.9347 179.804 24.356C179.328 23.7773 179.09 22.942 179.09 21.85V17.51H180.434V22.116C180.434 22.704 180.592 23.166 180.91 23.502C181.227 23.8287 181.656 23.992 182.198 23.992C182.758 23.992 183.215 23.8147 183.57 23.46C183.924 23.096 184.102 22.6013 184.102 21.976V17.51H185.446V25H184.382V21.794H184.55C184.55 22.5313 184.452 23.1567 184.256 23.67C184.06 24.174 183.766 24.5613 183.374 24.832C182.991 25.0933 182.501 25.224 181.904 25.224H181.848Z" fill="black"/>
<path fill-rule="evenodd" clip-rule="evenodd" d="M5 17.6C5 15.5496 5 14.5244 5.3355 13.717C5.78182 12.639 6.63806 11.7823 7.7159 11.3355C8.5244 11 9.5496 11 11.6 11H20.4C22.4504 11 23.4756 11 24.283 11.3355C25.3611 11.7818 26.2177 12.6381 26.6645 13.7159C27 14.5244 27 15.5496 27 17.6V22C27 24.0504 27 25.0756 26.6645 25.883C26.2182 26.961 25.3619 27.8177 24.2841 28.2645C23.4756 28.6 22.4504 28.6 20.4 28.6H11.6C9.5496 28.6 8.5244 28.6 7.717 28.2645C6.63895 27.8182 5.78232 26.9619 5.3355 25.8841C5 25.0756 5 24.0504 5 22V17.6ZM7.2 16.8377V22C7.2 23.056 7.2011 23.7358 7.2363 24.2572C7.2715 24.7599 7.3298 24.9502 7.3683 25.0415C7.47874 25.3085 7.64069 25.5511 7.8449 25.7555C8.04912 25.9599 8.2916 26.1221 8.5585 26.2328C8.6498 26.2702 8.8412 26.3296 9.3428 26.3637C9.8631 26.3989 10.5451 26.4 11.6 26.4H20.4C21.456 26.4 22.1358 26.3989 22.6572 26.3637C23.1599 26.3296 23.3502 26.2702 23.4415 26.2317C23.7085 26.1213 23.9511 25.9593 24.1555 25.7551C24.3599 25.5509 24.5221 25.3084 24.6328 25.0415C24.6702 24.9502 24.7296 24.7599 24.7637 24.2572C24.7989 23.7358 24.8 23.0549 24.8 22V16.852L15.9989 21.9164L7.2 16.8377ZM24.58 14.4408C24.3449 13.9555 23.9398 13.5734 23.4415 13.3672C23.3502 13.3298 23.1599 13.2715 22.6572 13.2363C22.1358 13.2011 21.456 13.2 20.4 13.2H11.6C10.544 13.2 9.8631 13.2011 9.3417 13.2363C8.8412 13.2715 8.6487 13.3298 8.5585 13.3683C8.06476 13.5721 7.66204 13.9487 7.4255 14.4276L16 19.3776L24.58 14.4408Z" fill="black"/>
</svg>
