<svg width="280" height="36" viewBox="0 0 280 36" fill="none" xmlns="http://www.w3.org/2000/svg">
<rect width="280" height="36" rx="4" fill="white"/>
<path d="M42.652 23V15.524H43.996V23H42.652ZM41.504 16.588V15.524H43.996V16.588H41.504ZM43.03 14.32C42.7313 14.32 42.5073 14.2407 42.358 14.082C42.218 13.9233 42.148 13.7227 42.148 13.48C42.148 13.2373 42.218 13.0367 42.358 12.878C42.5073 12.7193 42.7313 12.64 43.03 12.64C43.3287 12.64 43.548 12.7193 43.688 12.878C43.8373 13.0367 43.912 13.2373 43.912 13.48C43.912 13.7227 43.8373 13.9233 43.688 14.082C43.548 14.2407 43.3287 14.32 43.03 14.32ZM46.3146 23V15.524H47.3786V18.73H47.2106C47.2106 17.9927 47.3086 17.372 47.5046 16.868C47.71 16.3547 48.018 15.9673 48.4286 15.706C48.8393 15.4353 49.3573 15.3 49.9826 15.3H50.0386C50.9813 15.3 51.6766 15.594 52.1246 16.182C52.582 16.77 52.8106 17.6193 52.8106 18.73V23H51.4666V18.45C51.4666 17.8713 51.3033 17.4093 50.9766 17.064C50.65 16.7093 50.202 16.532 49.6326 16.532C49.0446 16.532 48.5686 16.714 48.2046 17.078C47.8406 17.442 47.6586 17.9273 47.6586 18.534V23H46.3146ZM55.1857 23V15.146C55.1857 14.3153 55.4051 13.704 55.8437 13.312C56.2824 12.92 56.9264 12.724 57.7757 12.724H58.6997V13.844H57.5517C57.2064 13.844 56.9404 13.942 56.7537 14.138C56.5671 14.3247 56.4737 14.586 56.4737 14.922V23H55.1857ZM54.1497 16.616V15.608H58.8397V16.616H54.1497ZM63.4037 23.252C62.7504 23.252 62.1764 23.14 61.6817 22.916C61.1871 22.692 60.7671 22.398 60.4217 22.034C60.0857 21.6607 59.8291 21.2453 59.6517 20.788C59.4837 20.3307 59.3997 19.864 59.3997 19.388V19.136C59.3997 18.66 59.4884 18.1933 59.6657 17.736C59.8431 17.2693 60.1044 16.854 60.4497 16.49C60.7951 16.1167 61.2151 15.8227 61.7097 15.608C62.2044 15.384 62.7691 15.272 63.4037 15.272C64.0384 15.272 64.6031 15.384 65.0977 15.608C65.5924 15.8227 66.0124 16.1167 66.3577 16.49C66.7031 16.854 66.9644 17.2693 67.1417 17.736C67.3191 18.1933 67.4077 18.66 67.4077 19.136V19.388C67.4077 19.864 67.3191 20.3307 67.1417 20.788C66.9737 21.2453 66.7171 21.6607 66.3717 22.034C66.0357 22.398 65.6204 22.692 65.1257 22.916C64.6311 23.14 64.0571 23.252 63.4037 23.252ZM63.4037 22.048C63.9637 22.048 64.4397 21.9267 64.8317 21.684C65.2331 21.432 65.5364 21.096 65.7417 20.676C65.9564 20.256 66.0637 19.7847 66.0637 19.262C66.0637 18.73 65.9564 18.254 65.7417 17.834C65.5271 17.414 65.2191 17.0827 64.8177 16.84C64.4257 16.5973 63.9544 16.476 63.4037 16.476C62.8624 16.476 62.3911 16.5973 61.9897 16.84C61.5884 17.0827 61.2804 17.414 61.0657 17.834C60.8511 18.254 60.7437 18.73 60.7437 19.262C60.7437 19.7847 60.8464 20.256 61.0517 20.676C61.2664 21.096 61.5697 21.432 61.9617 21.684C62.3631 21.9267 62.8437 22.048 63.4037 22.048ZM75.7627 26.402C74.7547 26.402 73.8213 26.234 72.9627 25.898C72.1133 25.5713 71.376 25.1 70.7507 24.484C70.1253 23.8773 69.64 23.154 69.2947 22.314C68.9493 21.4647 68.7767 20.5267 68.7767 19.5C68.7767 18.5107 68.9447 17.5913 69.2807 16.742C69.6167 15.8927 70.0927 15.1507 70.7087 14.516C71.334 13.8813 72.0807 13.3867 72.9487 13.032C73.8167 12.6773 74.778 12.5 75.8327 12.5C76.7567 12.5 77.6293 12.6353 78.4507 12.906C79.272 13.1673 80 13.5593 80.6347 14.082C81.2693 14.5953 81.764 15.2347 82.1187 16C82.4827 16.756 82.6647 17.6333 82.6647 18.632C82.6647 19.4533 82.5387 20.186 82.2867 20.83C82.0347 21.474 81.6847 21.9827 81.2367 22.356C80.798 22.7293 80.2847 22.916 79.6967 22.916C79.258 22.916 78.88 22.8227 78.5627 22.636C78.2453 22.4493 77.998 22.1927 77.8207 21.866C77.6527 21.53 77.5687 21.1473 77.5687 20.718V19.85H77.9747C77.9467 20.5127 77.802 21.0633 77.5407 21.502C77.2887 21.9407 76.9573 22.2673 76.5467 22.482C76.1453 22.6967 75.7067 22.804 75.2307 22.804C74.6613 22.804 74.148 22.664 73.6907 22.384C73.2427 22.0947 72.888 21.7073 72.6267 21.222C72.3653 20.7367 72.2347 20.186 72.2347 19.57V19.346C72.2347 18.73 72.37 18.184 72.6407 17.708C72.9113 17.232 73.2753 16.8587 73.7327 16.588C74.1993 16.3173 74.7173 16.182 75.2867 16.182C75.8 16.182 76.262 16.294 76.6727 16.518C77.0833 16.742 77.4147 17.064 77.6667 17.484C77.928 17.904 78.0727 18.4173 78.1007 19.024H77.5967V16.378H78.6887V20.69C78.6887 20.9513 78.7307 21.166 78.8147 21.334C78.908 21.502 79.0293 21.628 79.1787 21.712C79.328 21.7867 79.4913 21.824 79.6687 21.824C79.986 21.824 80.28 21.698 80.5507 21.446C80.8213 21.1847 81.0407 20.8207 81.2087 20.354C81.3767 19.8873 81.4607 19.332 81.4607 18.688C81.4607 17.8387 81.3113 17.0967 81.0127 16.462C80.7233 15.8273 80.3173 15.3 79.7947 14.88C79.272 14.46 78.67 14.1473 77.9887 13.942C77.3167 13.7273 76.6027 13.62 75.8467 13.62C74.9507 13.62 74.1387 13.7693 73.4107 14.068C72.692 14.3667 72.076 14.7867 71.5627 15.328C71.0493 15.86 70.6573 16.4853 70.3867 17.204C70.116 17.9133 69.9807 18.6833 69.9807 19.514C69.9807 20.6527 70.2233 21.656 70.7087 22.524C71.194 23.3827 71.8707 24.05 72.7387 24.526C73.616 25.0113 74.624 25.254 75.7627 25.254C76.0613 25.254 76.3507 25.2353 76.6307 25.198C76.9107 25.17 77.1813 25.1233 77.4427 25.058V26.22C77.1813 26.276 76.9107 26.318 76.6307 26.346C76.3507 26.3833 76.0613 26.402 75.7627 26.402ZM75.4687 21.74C75.8327 21.74 76.1687 21.656 76.4767 21.488C76.794 21.32 77.046 21.0727 77.2327 20.746C77.4193 20.4193 77.5127 20.0227 77.5127 19.556V19.192C77.5127 18.7533 77.4147 18.394 77.2187 18.114C77.0227 17.8247 76.7707 17.61 76.4627 17.47C76.1547 17.3207 75.8233 17.246 75.4687 17.246C75.0673 17.246 74.7127 17.3393 74.4047 17.526C74.106 17.7033 73.8727 17.96 73.7047 18.296C73.546 18.6227 73.4667 19.01 73.4667 19.458C73.4667 19.906 73.5507 20.3027 73.7187 20.648C73.8867 20.9933 74.12 21.264 74.4187 21.46C74.7173 21.6467 75.0673 21.74 75.4687 21.74ZM88.0136 23.252C87.3603 23.252 86.7863 23.14 86.2916 22.916C85.797 22.692 85.377 22.398 85.0316 22.034C84.6956 21.6607 84.439 21.2453 84.2616 20.788C84.0936 20.3307 84.0096 19.864 84.0096 19.388V19.136C84.0096 18.66 84.0983 18.1933 84.2756 17.736C84.453 17.2693 84.7143 16.854 85.0596 16.49C85.405 16.1167 85.825 15.8227 86.3196 15.608C86.8143 15.384 87.379 15.272 88.0136 15.272C88.6483 15.272 89.213 15.384 89.7076 15.608C90.2023 15.8227 90.6223 16.1167 90.9676 16.49C91.313 16.854 91.5743 17.2693 91.7516 17.736C91.929 18.1933 92.0176 18.66 92.0176 19.136V19.388C92.0176 19.864 91.929 20.3307 91.7516 20.788C91.5836 21.2453 91.327 21.6607 90.9816 22.034C90.6456 22.398 90.2303 22.692 89.7356 22.916C89.241 23.14 88.667 23.252 88.0136 23.252ZM88.0136 22.048C88.5736 22.048 89.0496 21.9267 89.4416 21.684C89.843 21.432 90.1463 21.096 90.3516 20.676C90.5663 20.256 90.6736 19.7847 90.6736 19.262C90.6736 18.73 90.5663 18.254 90.3516 17.834C90.137 17.414 89.829 17.0827 89.4276 16.84C89.0356 16.5973 88.5643 16.476 88.0136 16.476C87.4723 16.476 87.001 16.5973 86.5996 16.84C86.1983 17.0827 85.8903 17.414 85.6756 17.834C85.461 18.254 85.3536 18.73 85.3536 19.262C85.3536 19.7847 85.4563 20.256 85.6616 20.676C85.8763 21.096 86.1796 21.432 86.5716 21.684C86.973 21.9267 87.4536 22.048 88.0136 22.048ZM93.8346 23V12.78H95.1786V23H93.8346ZM92.7986 13.844V12.78H95.1786V13.844H92.7986ZM100.654 23.252C100.001 23.252 99.4364 23.14 98.9604 22.916C98.4844 22.692 98.0971 22.398 97.7984 22.034C97.4998 21.6607 97.2758 21.2453 97.1264 20.788C96.9864 20.3307 96.9164 19.864 96.9164 19.388V19.136C96.9164 18.6507 96.9864 18.1793 97.1264 17.722C97.2758 17.2647 97.4998 16.854 97.7984 16.49C98.0971 16.1167 98.4751 15.8227 98.9324 15.608C99.3991 15.384 99.9451 15.272 100.57 15.272C101.382 15.272 102.05 15.4493 102.572 15.804C103.104 16.1493 103.496 16.5973 103.748 17.148C104.01 17.6987 104.14 18.2867 104.14 18.912V19.514H97.5044V18.506H103.16L102.852 19.052C102.852 18.52 102.768 18.0627 102.6 17.68C102.432 17.288 102.18 16.9847 101.844 16.77C101.508 16.5553 101.084 16.448 100.57 16.448C100.038 16.448 99.5951 16.5693 99.2404 16.812C98.8951 17.0547 98.6338 17.386 98.4564 17.806C98.2884 18.226 98.2044 18.7113 98.2044 19.262C98.2044 19.794 98.2884 20.2747 98.4564 20.704C98.6338 21.124 98.9044 21.46 99.2684 21.712C99.6324 21.9547 100.094 22.076 100.654 22.076C101.242 22.076 101.718 21.9453 102.082 21.684C102.456 21.4227 102.68 21.1193 102.754 20.774H104.014C103.912 21.2873 103.706 21.7307 103.398 22.104C103.09 22.4773 102.703 22.762 102.236 22.958C101.77 23.154 101.242 23.252 100.654 23.252ZM108.597 25.912C108.251 25.912 107.901 25.898 107.547 25.87C107.201 25.842 106.87 25.8047 106.553 25.758V24.624C106.889 24.6707 107.239 24.708 107.603 24.736C107.976 24.7733 108.326 24.792 108.653 24.792C109.334 24.792 109.875 24.6987 110.277 24.512C110.687 24.3347 110.981 24.05 111.159 23.658C111.345 23.2753 111.439 22.7807 111.439 22.174V20.746L111.887 19.682C111.859 20.438 111.7 21.068 111.411 21.572C111.121 22.0667 110.743 22.44 110.277 22.692C109.819 22.9347 109.311 23.056 108.751 23.056C108.228 23.056 107.747 22.958 107.309 22.762C106.879 22.5567 106.506 22.2767 106.189 21.922C105.881 21.5673 105.638 21.1613 105.461 20.704C105.293 20.2373 105.209 19.7473 105.209 19.234V18.982C105.209 18.4593 105.297 17.974 105.475 17.526C105.652 17.0687 105.899 16.672 106.217 16.336C106.534 16 106.912 15.7387 107.351 15.552C107.799 15.3653 108.289 15.272 108.821 15.272C109.446 15.272 109.997 15.4073 110.473 15.678C110.949 15.9393 111.322 16.3267 111.593 16.84C111.873 17.344 112.027 17.9647 112.055 18.702L111.663 18.716V15.524H112.727V22.118C112.727 23.014 112.587 23.7373 112.307 24.288C112.036 24.848 111.597 25.2587 110.991 25.52C110.393 25.7813 109.595 25.912 108.597 25.912ZM109.003 21.824C109.451 21.824 109.857 21.726 110.221 21.53C110.594 21.334 110.888 21.054 111.103 20.69C111.327 20.3167 111.439 19.8733 111.439 19.36V18.716C111.439 18.212 111.322 17.7873 111.089 17.442C110.865 17.0967 110.571 16.8353 110.207 16.658C109.843 16.4807 109.446 16.392 109.017 16.392C108.531 16.392 108.102 16.504 107.729 16.728C107.355 16.952 107.066 17.2693 106.861 17.68C106.655 18.0813 106.553 18.5573 106.553 19.108C106.553 19.6587 106.655 20.1393 106.861 20.55C107.075 20.9607 107.365 21.278 107.729 21.502C108.102 21.7167 108.527 21.824 109.003 21.824ZM114.572 19.682V18.534H119.78V19.682H114.572ZM126.863 23L124.049 19.514H122.817L126.247 15.524H127.661L124.553 19.122L124.651 18.408L128.417 23H126.863ZM121.711 23V12.78H123.055V23H121.711ZM131.964 23.224C131.077 23.224 130.396 22.9347 129.92 22.356C129.444 21.7773 129.206 20.942 129.206 19.85V15.51H130.55V20.116C130.55 20.704 130.709 21.166 131.026 21.502C131.343 21.8287 131.773 21.992 132.314 21.992C132.874 21.992 133.331 21.8147 133.686 21.46C134.041 21.096 134.218 20.6013 134.218 19.976V15.51H135.562V23H134.498V19.794H134.666C134.666 20.5313 134.568 21.1567 134.372 21.67C134.176 22.174 133.882 22.5613 133.49 22.832C133.107 23.0933 132.617 23.224 132.02 23.224H131.964ZM137.409 23V21.502L141.483 16.616V16.84L141.259 16.504L141.441 16.588H137.353V15.524H142.673V17.022L138.599 21.908V21.712L138.851 22.062L138.655 21.936H142.897V23H137.409ZM144.441 23V15.524H145.505V18.73H145.337C145.337 18.002 145.43 17.386 145.617 16.882C145.813 16.3687 146.102 15.9767 146.485 15.706C146.868 15.4353 147.353 15.3 147.941 15.3H147.997C148.585 15.3 149.07 15.4353 149.453 15.706C149.845 15.9767 150.134 16.3687 150.321 16.882C150.508 17.386 150.601 18.002 150.601 18.73H150.209C150.209 18.002 150.307 17.386 150.503 16.882C150.699 16.3687 150.988 15.9767 151.371 15.706C151.763 15.4353 152.253 15.3 152.841 15.3H152.897C153.485 15.3 153.975 15.4353 154.367 15.706C154.759 15.9767 155.048 16.3687 155.235 16.882C155.431 17.386 155.529 18.002 155.529 18.73V23H154.185V18.436C154.185 17.8293 154.036 17.3627 153.737 17.036C153.438 16.7 153.023 16.532 152.491 16.532C151.94 16.532 151.497 16.7093 151.161 17.064C150.825 17.4093 150.657 17.8947 150.657 18.52V23H149.313V18.436C149.313 17.8293 149.164 17.3627 148.865 17.036C148.566 16.7 148.151 16.532 147.619 16.532C147.068 16.532 146.625 16.7093 146.289 17.064C145.953 17.4093 145.785 17.8947 145.785 18.52V23H144.441ZM158.074 23V15.524H159.418V23H158.074ZM156.926 16.588V15.524H159.418V16.588H156.926ZM158.452 14.32C158.153 14.32 157.929 14.2407 157.78 14.082C157.64 13.9233 157.57 13.7227 157.57 13.48C157.57 13.2373 157.64 13.0367 157.78 12.878C157.929 12.7193 158.153 12.64 158.452 12.64C158.75 12.64 158.97 12.7193 159.11 12.878C159.259 13.0367 159.334 13.2373 159.334 13.48C159.334 13.7227 159.259 13.9233 159.11 14.082C158.97 14.2407 158.75 14.32 158.452 14.32ZM161.736 23V15.524H162.8V18.73H162.632C162.632 17.9927 162.73 17.372 162.926 16.868C163.132 16.3547 163.44 15.9673 163.85 15.706C164.261 15.4353 164.779 15.3 165.404 15.3H165.46C166.403 15.3 167.098 15.594 167.546 16.182C168.004 16.77 168.232 17.6193 168.232 18.73V23H166.888V18.45C166.888 17.8713 166.725 17.4093 166.398 17.064C166.072 16.7093 165.624 16.532 165.054 16.532C164.466 16.532 163.99 16.714 163.626 17.078C163.262 17.442 163.08 17.9273 163.08 18.534V23H161.736ZM170.146 23V21.292H171.77V23H170.146ZM173.796 23V15.524H174.86V18.604H174.804C174.804 17.512 175.042 16.714 175.518 16.21C176.003 15.6967 176.726 15.44 177.688 15.44H177.94V16.644H177.464C176.717 16.644 176.143 16.8447 175.742 17.246C175.34 17.638 175.14 18.2073 175.14 18.954V23H173.796ZM181.848 23.224C180.961 23.224 180.28 22.9347 179.804 22.356C179.328 21.7773 179.09 20.942 179.09 19.85V15.51H180.434V20.116C180.434 20.704 180.592 21.166 180.91 21.502C181.227 21.8287 181.656 21.992 182.198 21.992C182.758 21.992 183.215 21.8147 183.57 21.46C183.924 21.096 184.102 20.6013 184.102 19.976V15.51H185.446V23H184.382V19.794H184.55C184.55 20.5313 184.452 21.1567 184.256 21.67C184.06 22.174 183.766 22.5613 183.374 22.832C182.991 23.0933 182.501 23.224 181.904 23.224H181.848Z" fill="black"/>
<path fill-rule="evenodd" clip-rule="evenodd" d="M5 15.6C5 13.5496 5 12.5244 5.3355 11.717C5.78182 10.639 6.63806 9.78232 7.7159 9.3355C8.5244 9 9.5496 9 11.6 9H20.4C22.4504 9 23.4756 9 24.283 9.3355C25.3611 9.78182 26.2177 10.6381 26.6645 11.7159C27 12.5244 27 13.5496 27 15.6V20C27 22.0504 27 23.0756 26.6645 23.883C26.2182 24.961 25.3619 25.8177 24.2841 26.2645C23.4756 26.6 22.4504 26.6 20.4 26.6H11.6C9.5496 26.6 8.5244 26.6 7.717 26.2645C6.63895 25.8182 5.78232 24.9619 5.3355 23.8841C5 23.0756 5 22.0504 5 20V15.6ZM7.2 14.8377V20C7.2 21.056 7.2011 21.7358 7.2363 22.2572C7.2715 22.7599 7.3298 22.9502 7.3683 23.0415C7.47874 23.3085 7.64069 23.5511 7.8449 23.7555C8.04912 23.9599 8.2916 24.1221 8.5585 24.2328C8.6498 24.2702 8.8412 24.3296 9.3428 24.3637C9.8631 24.3989 10.5451 24.4 11.6 24.4H20.4C21.456 24.4 22.1358 24.3989 22.6572 24.3637C23.1599 24.3296 23.3502 24.2702 23.4415 24.2317C23.7085 24.1213 23.9511 23.9593 24.1555 23.7551C24.3599 23.5509 24.5221 23.3084 24.6328 23.0415C24.6702 22.9502 24.7296 22.7599 24.7637 22.2572C24.7989 21.7358 24.8 21.0549 24.8 20V14.852L15.9989 19.9164L7.2 14.8377ZM24.58 12.4408C24.3449 11.9555 23.9398 11.5734 23.4415 11.3672C23.3502 11.3298 23.1599 11.2715 22.6572 11.2363C22.1358 11.2011 21.456 11.2 20.4 11.2H11.6C10.544 11.2 9.8631 11.2011 9.3417 11.2363C8.8412 11.2715 8.6487 11.3298 8.5585 11.3683C8.06476 11.5721 7.66204 11.9487 7.4255 12.4276L16 17.3776L24.58 12.4408Z" fill="black"/>
</svg>
