<svg width="280" height="46" viewBox="0 0 280 46" fill="none" xmlns="http://www.w3.org/2000/svg">
<rect width="280" height="46" rx="4" fill="white"/>
<path fill-rule="evenodd" clip-rule="evenodd" d="M0.350586 20.6C0.350586 18.5496 0.350586 17.5244 0.703744 16.717C1.17355 15.639 2.07486 14.7823 3.20943 14.3355C4.06048 14 5.13964 14 7.29795 14H16.5611C18.7194 14 19.7986 14 20.6485 14.3355C21.7833 14.7818 22.685 15.6381 23.1553 16.7159C23.5085 17.5244 23.5085 18.5496 23.5085 20.6V25C23.5085 27.0504 23.5085 28.0756 23.1553 28.883C22.6855 29.961 21.7842 30.8177 20.6496 31.2645C19.7986 31.6 18.7194 31.6 16.5611 31.6H7.29795C5.13964 31.6 4.06048 31.6 3.21059 31.2645C2.0758 30.8182 1.17408 29.9619 0.703744 28.8841C0.350586 28.0756 0.350586 27.0504 0.350586 25V20.6ZM2.66638 19.8377V25C2.66638 26.056 2.66753 26.7358 2.70459 27.2572C2.74164 27.7599 2.80301 27.9502 2.84353 28.0415C2.95978 28.3085 3.13026 28.5511 3.34522 28.7555C3.56019 28.9599 3.81543 29.1221 4.09637 29.2328C4.19248 29.2702 4.39395 29.3296 4.92195 29.3637C5.46964 29.3989 6.18753 29.4 7.29795 29.4H16.5611C17.6727 29.4 18.3883 29.3989 18.9371 29.3637C19.4663 29.3296 19.6666 29.2702 19.7627 29.2317C20.0437 29.1213 20.2991 28.9593 20.5143 28.7551C20.7295 28.5509 20.9002 28.3084 21.0167 28.0415C21.0561 27.9502 21.1186 27.7599 21.1545 27.2572C21.1915 26.7358 21.1927 26.0549 21.1927 25V19.852L11.9284 24.9164L2.66638 19.8377ZM20.9611 17.4408C20.7136 16.9555 20.2872 16.5734 19.7627 16.3672C19.6666 16.3298 19.4663 16.2715 18.9371 16.2363C18.3883 16.2011 17.6727 16.2 16.5611 16.2H7.29795C6.18638 16.2 5.46964 16.2011 4.9208 16.2363C4.39395 16.2715 4.19132 16.3298 4.09637 16.3683C3.57665 16.5721 3.15274 16.9487 2.90374 17.4276L11.9295 22.3776L20.9611 17.4408Z" fill="black"/>
<path d="M40.3633 27V20.592H41.5153V27H40.3633ZM39.3793 21.504V20.592H41.5153V21.504H39.3793ZM40.6873 19.56C40.4313 19.56 40.2393 19.492 40.1113 19.356C39.9913 19.22 39.9313 19.048 39.9313 18.84C39.9313 18.632 39.9913 18.46 40.1113 18.324C40.2393 18.188 40.4313 18.12 40.6873 18.12C40.9433 18.12 41.1313 18.188 41.2513 18.324C41.3793 18.46 41.4433 18.632 41.4433 18.84C41.4433 19.048 41.3793 19.22 41.2513 19.356C41.1313 19.492 40.9433 19.56 40.6873 19.56ZM43.5027 27V20.592H44.4147V23.34H44.2707C44.2707 22.708 44.3547 22.176 44.5227 21.744C44.6987 21.304 44.9627 20.972 45.3147 20.748C45.6667 20.516 46.1107 20.4 46.6467 20.4H46.6947C47.5027 20.4 48.0987 20.652 48.4827 21.156C48.8747 21.66 49.0707 22.388 49.0707 23.34V27H47.9187V23.1C47.9187 22.604 47.7787 22.208 47.4987 21.912C47.2187 21.608 46.8347 21.456 46.3467 21.456C45.8427 21.456 45.4347 21.612 45.1227 21.924C44.8107 22.236 44.6547 22.652 44.6547 23.172V27H43.5027ZM51.1065 27V20.268C51.1065 19.556 51.2945 19.032 51.6705 18.696C52.0465 18.36 52.5985 18.192 53.3265 18.192H54.1185V19.152H53.1345C52.8385 19.152 52.6105 19.236 52.4505 19.404C52.2905 19.564 52.2105 19.788 52.2105 20.076V27H51.1065ZM50.2185 21.528V20.664H54.2385V21.528H50.2185ZM58.1505 27.216C57.5905 27.216 57.0985 27.12 56.6745 26.928C56.2505 26.736 55.8905 26.484 55.5945 26.172C55.3065 25.852 55.0865 25.496 54.9345 25.104C54.7905 24.712 54.7185 24.312 54.7185 23.904V23.688C54.7185 23.28 54.7945 22.88 54.9465 22.488C55.0985 22.088 55.3225 21.732 55.6185 21.42C55.9145 21.1 56.2745 20.848 56.6985 20.664C57.1225 20.472 57.6065 20.376 58.1505 20.376C58.6945 20.376 59.1785 20.472 59.6025 20.664C60.0265 20.848 60.3865 21.1 60.6825 21.42C60.9785 21.732 61.2025 22.088 61.3545 22.488C61.5065 22.88 61.5825 23.28 61.5825 23.688V23.904C61.5825 24.312 61.5065 24.712 61.3545 25.104C61.2105 25.496 60.9905 25.852 60.6945 26.172C60.4065 26.484 60.0505 26.736 59.6265 26.928C59.2025 27.12 58.7105 27.216 58.1505 27.216ZM58.1505 26.184C58.6305 26.184 59.0385 26.08 59.3745 25.872C59.7185 25.656 59.9785 25.368 60.1545 25.008C60.3385 24.648 60.4305 24.244 60.4305 23.796C60.4305 23.34 60.3385 22.932 60.1545 22.572C59.9705 22.212 59.7065 21.928 59.3625 21.72C59.0265 21.512 58.6225 21.408 58.1505 21.408C57.6865 21.408 57.2825 21.512 56.9385 21.72C56.5945 21.928 56.3305 22.212 56.1465 22.572C55.9625 22.932 55.8705 23.34 55.8705 23.796C55.8705 24.244 55.9585 24.648 56.1345 25.008C56.3185 25.368 56.5785 25.656 56.9145 25.872C57.2585 26.08 57.6705 26.184 58.1505 26.184ZM68.7438 29.916C67.8798 29.916 67.0798 29.772 66.3438 29.484C65.6158 29.204 64.9838 28.8 64.4478 28.272C63.9118 27.752 63.4958 27.132 63.1998 26.412C62.9038 25.684 62.7558 24.88 62.7558 24C62.7558 23.152 62.8998 22.364 63.1878 21.636C63.4758 20.908 63.8838 20.272 64.4118 19.728C64.9478 19.184 65.5878 18.76 66.3318 18.456C67.0758 18.152 67.8998 18 68.8038 18C69.5958 18 70.3438 18.116 71.0478 18.348C71.7518 18.572 72.3758 18.908 72.9198 19.356C73.4638 19.796 73.8878 20.344 74.1918 21C74.5038 21.648 74.6598 22.4 74.6598 23.256C74.6598 23.96 74.5518 24.588 74.3358 25.14C74.1198 25.692 73.8198 26.128 73.4358 26.448C73.0598 26.768 72.6198 26.928 72.1158 26.928C71.7398 26.928 71.4158 26.848 71.1438 26.688C70.8718 26.528 70.6598 26.308 70.5078 26.028C70.3638 25.74 70.2918 25.412 70.2918 25.044V24.3H70.6398C70.6158 24.868 70.4918 25.34 70.2678 25.716C70.0518 26.092 69.7678 26.372 69.4158 26.556C69.0718 26.74 68.6958 26.832 68.2878 26.832C67.7998 26.832 67.3598 26.712 66.9678 26.472C66.5838 26.224 66.2798 25.892 66.0558 25.476C65.8318 25.06 65.7198 24.588 65.7198 24.06V23.868C65.7198 23.34 65.8358 22.872 66.0678 22.464C66.2998 22.056 66.6118 21.736 67.0038 21.504C67.4038 21.272 67.8478 21.156 68.3358 21.156C68.7758 21.156 69.1718 21.252 69.5238 21.444C69.8758 21.636 70.1598 21.912 70.3758 22.272C70.5998 22.632 70.7238 23.072 70.7478 23.592H70.3158V21.324H71.2518V25.02C71.2518 25.244 71.2878 25.428 71.3598 25.572C71.4398 25.716 71.5438 25.824 71.6718 25.896C71.7998 25.96 71.9398 25.992 72.0918 25.992C72.3638 25.992 72.6158 25.884 72.8478 25.668C73.0798 25.444 73.2678 25.132 73.4118 24.732C73.5558 24.332 73.6278 23.856 73.6278 23.304C73.6278 22.576 73.4998 21.94 73.2438 21.396C72.9958 20.852 72.6478 20.4 72.1998 20.04C71.7518 19.68 71.2358 19.412 70.6518 19.236C70.0758 19.052 69.4638 18.96 68.8158 18.96C68.0478 18.96 67.3518 19.088 66.7278 19.344C66.1118 19.6 65.5838 19.96 65.1438 20.424C64.7038 20.88 64.3678 21.416 64.1358 22.032C63.9038 22.64 63.7878 23.3 63.7878 24.012C63.7878 24.988 63.9958 25.848 64.4118 26.592C64.8278 27.328 65.4078 27.9 66.1518 28.308C66.9038 28.724 67.7678 28.932 68.7438 28.932C68.9998 28.932 69.2478 28.916 69.4878 28.884C69.7278 28.86 69.9598 28.82 70.1838 28.764V29.76C69.9598 29.808 69.7278 29.844 69.4878 29.868C69.2478 29.9 68.9998 29.916 68.7438 29.916ZM68.4918 25.92C68.8038 25.92 69.0918 25.848 69.3558 25.704C69.6278 25.56 69.8438 25.348 70.0038 25.068C70.1638 24.788 70.2438 24.448 70.2438 24.048V23.736C70.2438 23.36 70.1598 23.052 69.9918 22.812C69.8238 22.564 69.6078 22.38 69.3438 22.26C69.0798 22.132 68.7958 22.068 68.4918 22.068C68.1478 22.068 67.8438 22.148 67.5798 22.308C67.3238 22.46 67.1238 22.68 66.9798 22.968C66.8438 23.248 66.7758 23.58 66.7758 23.964C66.7758 24.348 66.8478 24.688 66.9918 24.984C67.1358 25.28 67.3358 25.512 67.5918 25.68C67.8478 25.84 68.1478 25.92 68.4918 25.92ZM79.2447 27.216C78.6847 27.216 78.1927 27.12 77.7687 26.928C77.3447 26.736 76.9847 26.484 76.6887 26.172C76.4007 25.852 76.1807 25.496 76.0287 25.104C75.8847 24.712 75.8127 24.312 75.8127 23.904V23.688C75.8127 23.28 75.8887 22.88 76.0407 22.488C76.1927 22.088 76.4167 21.732 76.7127 21.42C77.0087 21.1 77.3687 20.848 77.7927 20.664C78.2167 20.472 78.7007 20.376 79.2447 20.376C79.7887 20.376 80.2727 20.472 80.6967 20.664C81.1207 20.848 81.4807 21.1 81.7767 21.42C82.0727 21.732 82.2967 22.088 82.4487 22.488C82.6007 22.88 82.6767 23.28 82.6767 23.688V23.904C82.6767 24.312 82.6007 24.712 82.4487 25.104C82.3047 25.496 82.0847 25.852 81.7887 26.172C81.5007 26.484 81.1447 26.736 80.7207 26.928C80.2967 27.12 79.8047 27.216 79.2447 27.216ZM79.2447 26.184C79.7247 26.184 80.1327 26.08 80.4687 25.872C80.8127 25.656 81.0727 25.368 81.2487 25.008C81.4327 24.648 81.5247 24.244 81.5247 23.796C81.5247 23.34 81.4327 22.932 81.2487 22.572C81.0647 22.212 80.8007 21.928 80.4567 21.72C80.1207 21.512 79.7167 21.408 79.2447 21.408C78.7807 21.408 78.3767 21.512 78.0327 21.72C77.6887 21.928 77.4247 22.212 77.2407 22.572C77.0567 22.932 76.9647 23.34 76.9647 23.796C76.9647 24.244 77.0527 24.648 77.2287 25.008C77.4127 25.368 77.6727 25.656 78.0087 25.872C78.3527 26.08 78.7647 26.184 79.2447 26.184ZM84.234 27V18.24H85.386V27H84.234ZM83.346 19.152V18.24H85.386V19.152H83.346ZM90.0796 27.216C89.5196 27.216 89.0356 27.12 88.6276 26.928C88.2196 26.736 87.8876 26.484 87.6316 26.172C87.3756 25.852 87.1836 25.496 87.0556 25.104C86.9356 24.712 86.8756 24.312 86.8756 23.904V23.688C86.8756 23.272 86.9356 22.868 87.0556 22.476C87.1836 22.084 87.3756 21.732 87.6316 21.42C87.8876 21.1 88.2116 20.848 88.6036 20.664C89.0036 20.472 89.4716 20.376 90.0076 20.376C90.7036 20.376 91.2756 20.528 91.7236 20.832C92.1796 21.128 92.5156 21.512 92.7316 21.984C92.9556 22.456 93.0676 22.96 93.0676 23.496V24.012H87.3796V23.148H92.2276L91.9636 23.616C91.9636 23.16 91.8916 22.768 91.7476 22.44C91.6036 22.104 91.3876 21.844 91.0996 21.66C90.8116 21.476 90.4476 21.384 90.0076 21.384C89.5516 21.384 89.1716 21.488 88.8676 21.696C88.5716 21.904 88.3476 22.188 88.1956 22.548C88.0516 22.908 87.9796 23.324 87.9796 23.796C87.9796 24.252 88.0516 24.664 88.1956 25.032C88.3476 25.392 88.5796 25.68 88.8916 25.896C89.2036 26.104 89.5996 26.208 90.0796 26.208C90.5836 26.208 90.9916 26.096 91.3036 25.872C91.6236 25.648 91.8156 25.388 91.8796 25.092H92.9596C92.8716 25.532 92.6956 25.912 92.4316 26.232C92.1676 26.552 91.8356 26.796 91.4356 26.964C91.0356 27.132 90.5836 27.216 90.0796 27.216ZM96.8873 29.496C96.5913 29.496 96.2913 29.484 95.9873 29.46C95.6913 29.436 95.4073 29.404 95.1353 29.364V28.392C95.4233 28.432 95.7233 28.464 96.0353 28.488C96.3553 28.52 96.6553 28.536 96.9353 28.536C97.5193 28.536 97.9833 28.456 98.3273 28.296C98.6793 28.144 98.9313 27.9 99.0833 27.564C99.2433 27.236 99.3233 26.812 99.3233 26.292V25.068L99.7073 24.156C99.6833 24.804 99.5473 25.344 99.2993 25.776C99.0513 26.2 98.7273 26.52 98.3273 26.736C97.9353 26.944 97.4993 27.048 97.0193 27.048C96.5713 27.048 96.1593 26.964 95.7833 26.796C95.4153 26.62 95.0953 26.38 94.8233 26.076C94.5593 25.772 94.3513 25.424 94.1993 25.032C94.0553 24.632 93.9833 24.212 93.9833 23.772V23.556C93.9833 23.108 94.0593 22.692 94.2113 22.308C94.3633 21.916 94.5753 21.576 94.8473 21.288C95.1193 21 95.4433 20.776 95.8193 20.616C96.2033 20.456 96.6233 20.376 97.0793 20.376C97.6153 20.376 98.0873 20.492 98.4953 20.724C98.9033 20.948 99.2233 21.28 99.4553 21.72C99.6953 22.152 99.8273 22.684 99.8513 23.316L99.5153 23.328V20.592H100.427V26.244C100.427 27.012 100.307 27.632 100.067 28.104C99.8353 28.584 99.4593 28.936 98.9393 29.16C98.4273 29.384 97.7433 29.496 96.8873 29.496ZM97.2353 25.992C97.6193 25.992 97.9673 25.908 98.2793 25.74C98.5993 25.572 98.8513 25.332 99.0353 25.02C99.2273 24.7 99.3233 24.32 99.3233 23.88V23.328C99.3233 22.896 99.2233 22.532 99.0233 22.236C98.8313 21.94 98.5793 21.716 98.2673 21.564C97.9553 21.412 97.6153 21.336 97.2473 21.336C96.8313 21.336 96.4633 21.432 96.1433 21.624C95.8233 21.816 95.5753 22.088 95.3993 22.44C95.2233 22.784 95.1353 23.192 95.1353 23.664C95.1353 24.136 95.2233 24.548 95.3993 24.9C95.5833 25.252 95.8313 25.524 96.1433 25.716C96.4633 25.9 96.8273 25.992 97.2353 25.992ZM102.009 24.156V23.172H106.473V24.156H102.009ZM112.544 27L110.132 24.012H109.076L112.016 20.592H113.228L110.564 23.676L110.648 23.064L113.876 27H112.544ZM108.128 27V18.24H109.28V27H108.128ZM116.916 27.192C116.156 27.192 115.572 26.944 115.164 26.448C114.756 25.952 114.552 25.236 114.552 24.3V20.58H115.704V24.528C115.704 25.032 115.84 25.428 116.112 25.716C116.384 25.996 116.752 26.136 117.216 26.136C117.696 26.136 118.088 25.984 118.392 25.68C118.696 25.368 118.848 24.944 118.848 24.408V20.58H120V27H119.088V24.252H119.232C119.232 24.884 119.148 25.42 118.98 25.86C118.812 26.292 118.56 26.624 118.224 26.856C117.896 27.08 117.476 27.192 116.964 27.192H116.916ZM121.584 27V25.716L125.076 21.528V21.72L124.884 21.432L125.04 21.504H121.536V20.592H126.096V21.876L122.604 26.064V25.896L122.82 26.196L122.652 26.088H126.288V27H121.584ZM127.611 27V20.592H128.523V23.34H128.379C128.379 22.716 128.459 22.188 128.619 21.756C128.787 21.316 129.035 20.98 129.363 20.748C129.691 20.516 130.107 20.4 130.611 20.4H130.659C131.163 20.4 131.579 20.516 131.907 20.748C132.243 20.98 132.491 21.316 132.651 21.756C132.811 22.188 132.891 22.716 132.891 23.34H132.555C132.555 22.716 132.639 22.188 132.807 21.756C132.975 21.316 133.223 20.98 133.551 20.748C133.887 20.516 134.307 20.4 134.811 20.4H134.859C135.363 20.4 135.783 20.516 136.119 20.748C136.455 20.98 136.703 21.316 136.863 21.756C137.031 22.188 137.115 22.716 137.115 23.34V27H135.963V23.088C135.963 22.568 135.835 22.168 135.579 21.888C135.323 21.6 134.967 21.456 134.511 21.456C134.039 21.456 133.659 21.608 133.371 21.912C133.083 22.208 132.939 22.624 132.939 23.16V27H131.787V23.088C131.787 22.568 131.659 22.168 131.403 21.888C131.147 21.6 130.791 21.456 130.335 21.456C129.863 21.456 129.483 21.608 129.195 21.912C128.907 22.208 128.763 22.624 128.763 23.16V27H127.611ZM139.296 27V20.592H140.448V27H139.296ZM138.312 21.504V20.592H140.448V21.504H138.312ZM139.62 19.56C139.364 19.56 139.172 19.492 139.044 19.356C138.924 19.22 138.864 19.048 138.864 18.84C138.864 18.632 138.924 18.46 139.044 18.324C139.172 18.188 139.364 18.12 139.62 18.12C139.876 18.12 140.064 18.188 140.184 18.324C140.312 18.46 140.376 18.632 140.376 18.84C140.376 19.048 140.312 19.22 140.184 19.356C140.064 19.492 139.876 19.56 139.62 19.56ZM142.436 27V20.592H143.348V23.34H143.204C143.204 22.708 143.288 22.176 143.456 21.744C143.632 21.304 143.896 20.972 144.248 20.748C144.6 20.516 145.044 20.4 145.58 20.4H145.628C146.436 20.4 147.032 20.652 147.416 21.156C147.808 21.66 148.004 22.388 148.004 23.34V27H146.852V23.1C146.852 22.604 146.712 22.208 146.432 21.912C146.152 21.608 145.768 21.456 145.28 21.456C144.776 21.456 144.368 21.612 144.056 21.924C143.744 22.236 143.588 22.652 143.588 23.172V27H142.436ZM149.643 27V25.536H151.035V27H149.643ZM152.772 27V20.592H153.684V23.232H153.636C153.636 22.296 153.84 21.612 154.248 21.18C154.664 20.74 155.284 20.52 156.108 20.52H156.324V21.552H155.916C155.276 21.552 154.784 21.724 154.44 22.068C154.096 22.404 153.924 22.892 153.924 23.532V27H152.772ZM159.674 27.192C158.914 27.192 158.33 26.944 157.922 26.448C157.514 25.952 157.31 25.236 157.31 24.3V20.58H158.462V24.528C158.462 25.032 158.598 25.428 158.87 25.716C159.142 25.996 159.51 26.136 159.974 26.136C160.454 26.136 160.846 25.984 161.15 25.68C161.454 25.368 161.606 24.944 161.606 24.408V20.58H162.758V27H161.846V24.252H161.99C161.99 24.884 161.906 25.42 161.738 25.86C161.57 26.292 161.318 26.624 160.982 26.856C160.654 27.08 160.234 27.192 159.722 27.192H159.674Z" fill="black"/>
</svg>
