<svg width="280" height="46" viewBox="0 0 280 46" fill="none" xmlns="http://www.w3.org/2000/svg">
<rect width="280" height="46" rx="4" fill="white"/>
<path fill-rule="evenodd" clip-rule="evenodd" d="M5.35059 20.6C5.35059 18.5496 5.35059 17.5244 5.70374 16.717C6.17355 15.639 7.07486 14.7823 8.20943 14.3355C9.06048 14 10.1396 14 12.298 14H21.5611C23.7194 14 24.7986 14 25.6485 14.3355C26.7833 14.7818 27.685 15.6381 28.1553 16.7159C28.5085 17.5244 28.5085 18.5496 28.5085 20.6V25C28.5085 27.0504 28.5085 28.0756 28.1553 28.883C27.6855 29.961 26.7842 30.8177 25.6496 31.2645C24.7986 31.6 23.7194 31.6 21.5611 31.6H12.298C10.1396 31.6 9.06048 31.6 8.21059 31.2645C7.0758 30.8182 6.17408 29.9619 5.70374 28.8841C5.35059 28.0756 5.35059 27.0504 5.35059 25V20.6ZM7.66638 19.8377V25C7.66638 26.056 7.66753 26.7358 7.70459 27.2572C7.74164 27.7599 7.80301 27.9502 7.84353 28.0415C7.95978 28.3085 8.13026 28.5511 8.34522 28.7555C8.56019 28.9599 8.81543 29.1221 9.09637 29.2328C9.19248 29.2702 9.39395 29.3296 9.92195 29.3637C10.4696 29.3989 11.1875 29.4 12.298 29.4H21.5611C22.6727 29.4 23.3883 29.3989 23.9371 29.3637C24.4663 29.3296 24.6666 29.2702 24.7627 29.2317C25.0437 29.1213 25.2991 28.9593 25.5143 28.7551C25.7295 28.5509 25.9002 28.3084 26.0167 28.0415C26.0561 27.9502 26.1186 27.7599 26.1545 27.2572C26.1915 26.7358 26.1927 26.0549 26.1927 25V19.852L16.9284 24.9164L7.66638 19.8377ZM25.9611 17.4408C25.7136 16.9555 25.2872 16.5734 24.7627 16.3672C24.6666 16.3298 24.4663 16.2715 23.9371 16.2363C23.3883 16.2011 22.6727 16.2 21.5611 16.2H12.298C11.1864 16.2 10.4696 16.2011 9.9208 16.2363C9.39395 16.2715 9.19132 16.3298 9.09637 16.3683C8.57665 16.5721 8.15274 16.9487 7.90374 17.4276L16.9295 22.3776L25.9611 17.4408Z" fill="black"/>
<path d="M45.5993 28V20.524H46.9433V28H45.5993ZM44.4513 21.588V20.524H46.9433V21.588H44.4513ZM45.9773 19.32C45.6786 19.32 45.4546 19.2407 45.3053 19.082C45.1653 18.9233 45.0953 18.7227 45.0953 18.48C45.0953 18.2373 45.1653 18.0367 45.3053 17.878C45.4546 17.7193 45.6786 17.64 45.9773 17.64C46.2759 17.64 46.4953 17.7193 46.6353 17.878C46.7846 18.0367 46.8593 18.2373 46.8593 18.48C46.8593 18.7227 46.7846 18.9233 46.6353 19.082C46.4953 19.2407 46.2759 19.32 45.9773 19.32ZM49.2619 28V20.524H50.3259V23.73H50.1579C50.1579 22.9927 50.2559 22.372 50.4519 21.868C50.6572 21.3547 50.9652 20.9673 51.3759 20.706C51.7866 20.4353 52.3046 20.3 52.9299 20.3H52.9859C53.9286 20.3 54.6239 20.594 55.0719 21.182C55.5292 21.77 55.7579 22.6193 55.7579 23.73V28H54.4139V23.45C54.4139 22.8713 54.2506 22.4093 53.9239 22.064C53.5972 21.7093 53.1492 21.532 52.5799 21.532C51.9919 21.532 51.5159 21.714 51.1519 22.078C50.7879 22.442 50.6059 22.9273 50.6059 23.534V28H49.2619ZM58.133 28V20.146C58.133 19.3153 58.3523 18.704 58.791 18.312C59.2297 17.92 59.8737 17.724 60.723 17.724H61.647V18.844H60.499C60.1537 18.844 59.8877 18.942 59.701 19.138C59.5143 19.3247 59.421 19.586 59.421 19.922V28H58.133ZM57.097 21.616V20.608H61.787V21.616H57.097ZM66.351 28.252C65.6977 28.252 65.1237 28.14 64.629 27.916C64.1343 27.692 63.7143 27.398 63.369 27.034C63.033 26.6607 62.7763 26.2453 62.599 25.788C62.431 25.3307 62.347 24.864 62.347 24.388V24.136C62.347 23.66 62.4357 23.1933 62.613 22.736C62.7903 22.2693 63.0517 21.854 63.397 21.49C63.7423 21.1167 64.1623 20.8227 64.657 20.608C65.1517 20.384 65.7163 20.272 66.351 20.272C66.9857 20.272 67.5503 20.384 68.045 20.608C68.5397 20.8227 68.9597 21.1167 69.305 21.49C69.6503 21.854 69.9117 22.2693 70.089 22.736C70.2663 23.1933 70.355 23.66 70.355 24.136V24.388C70.355 24.864 70.2663 25.3307 70.089 25.788C69.921 26.2453 69.6643 26.6607 69.319 27.034C68.983 27.398 68.5677 27.692 68.073 27.916C67.5783 28.14 67.0043 28.252 66.351 28.252ZM66.351 27.048C66.911 27.048 67.387 26.9267 67.779 26.684C68.1803 26.432 68.4837 26.096 68.689 25.676C68.9037 25.256 69.011 24.7847 69.011 24.262C69.011 23.73 68.9037 23.254 68.689 22.834C68.4743 22.414 68.1663 22.0827 67.765 21.84C67.373 21.5973 66.9017 21.476 66.351 21.476C65.8097 21.476 65.3383 21.5973 64.937 21.84C64.5357 22.0827 64.2277 22.414 64.013 22.834C63.7983 23.254 63.691 23.73 63.691 24.262C63.691 24.7847 63.7937 25.256 63.999 25.676C64.2137 26.096 64.517 26.432 64.909 26.684C65.3103 26.9267 65.791 27.048 66.351 27.048ZM78.7099 31.402C77.7019 31.402 76.7686 31.234 75.9099 30.898C75.0606 30.5713 74.3233 30.1 73.6979 29.484C73.0726 28.8773 72.5873 28.154 72.2419 27.314C71.8966 26.4647 71.7239 25.5267 71.7239 24.5C71.7239 23.5107 71.8919 22.5913 72.2279 21.742C72.5639 20.8927 73.0399 20.1507 73.6559 19.516C74.2813 18.8813 75.0279 18.3867 75.8959 18.032C76.7639 17.6773 77.7253 17.5 78.7799 17.5C79.7039 17.5 80.5766 17.6353 81.3979 17.906C82.2193 18.1673 82.9473 18.5593 83.5819 19.082C84.2166 19.5953 84.7113 20.2347 85.0659 21C85.4299 21.756 85.6119 22.6333 85.6119 23.632C85.6119 24.4533 85.4859 25.186 85.2339 25.83C84.9819 26.474 84.6319 26.9827 84.1839 27.356C83.7453 27.7293 83.2319 27.916 82.6439 27.916C82.2053 27.916 81.8273 27.8227 81.5099 27.636C81.1926 27.4493 80.9453 27.1927 80.7679 26.866C80.5999 26.53 80.5159 26.1473 80.5159 25.718V24.85H80.9219C80.8939 25.5127 80.7493 26.0633 80.4879 26.502C80.2359 26.9407 79.9046 27.2673 79.4939 27.482C79.0926 27.6967 78.6539 27.804 78.1779 27.804C77.6086 27.804 77.0953 27.664 76.6379 27.384C76.1899 27.0947 75.8353 26.7073 75.5739 26.222C75.3126 25.7367 75.1819 25.186 75.1819 24.57V24.346C75.1819 23.73 75.3173 23.184 75.5879 22.708C75.8586 22.232 76.2226 21.8587 76.6799 21.588C77.1466 21.3173 77.6646 21.182 78.2339 21.182C78.7473 21.182 79.2093 21.294 79.6199 21.518C80.0306 21.742 80.3619 22.064 80.6139 22.484C80.8753 22.904 81.0199 23.4173 81.0479 24.024H80.5439V21.378H81.6359V25.69C81.6359 25.9513 81.6779 26.166 81.7619 26.334C81.8553 26.502 81.9766 26.628 82.1259 26.712C82.2753 26.7867 82.4386 26.824 82.6159 26.824C82.9333 26.824 83.2273 26.698 83.4979 26.446C83.7686 26.1847 83.9879 25.8207 84.1559 25.354C84.3239 24.8873 84.4079 24.332 84.4079 23.688C84.4079 22.8387 84.2586 22.0967 83.9599 21.462C83.6706 20.8273 83.2646 20.3 82.7419 19.88C82.2193 19.46 81.6173 19.1473 80.9359 18.942C80.2639 18.7273 79.5499 18.62 78.7939 18.62C77.8979 18.62 77.0859 18.7693 76.3579 19.068C75.6393 19.3667 75.0233 19.7867 74.5099 20.328C73.9966 20.86 73.6046 21.4853 73.3339 22.204C73.0633 22.9133 72.9279 23.6833 72.9279 24.514C72.9279 25.6527 73.1706 26.656 73.6559 27.524C74.1413 28.3827 74.8179 29.05 75.6859 29.526C76.5633 30.0113 77.5713 30.254 78.7099 30.254C79.0086 30.254 79.2979 30.2353 79.5779 30.198C79.8579 30.17 80.1286 30.1233 80.3899 30.058V31.22C80.1286 31.276 79.8579 31.318 79.5779 31.346C79.2979 31.3833 79.0086 31.402 78.7099 31.402ZM78.4159 26.74C78.7799 26.74 79.1159 26.656 79.4239 26.488C79.7413 26.32 79.9933 26.0727 80.1799 25.746C80.3666 25.4193 80.4599 25.0227 80.4599 24.556V24.192C80.4599 23.7533 80.3619 23.394 80.1659 23.114C79.9699 22.8247 79.7179 22.61 79.4099 22.47C79.1019 22.3207 78.7706 22.246 78.4159 22.246C78.0146 22.246 77.6599 22.3393 77.3519 22.526C77.0533 22.7033 76.8199 22.96 76.6519 23.296C76.4933 23.6227 76.4139 24.01 76.4139 24.458C76.4139 24.906 76.4979 25.3027 76.6659 25.648C76.8339 25.9933 77.0673 26.264 77.3659 26.46C77.6646 26.6467 78.0146 26.74 78.4159 26.74ZM90.9609 28.252C90.3076 28.252 89.7336 28.14 89.2389 27.916C88.7442 27.692 88.3242 27.398 87.9789 27.034C87.6429 26.6607 87.3862 26.2453 87.2089 25.788C87.0409 25.3307 86.9569 24.864 86.9569 24.388V24.136C86.9569 23.66 87.0456 23.1933 87.2229 22.736C87.4002 22.2693 87.6616 21.854 88.0069 21.49C88.3522 21.1167 88.7722 20.8227 89.2669 20.608C89.7616 20.384 90.3262 20.272 90.9609 20.272C91.5956 20.272 92.1602 20.384 92.6549 20.608C93.1496 20.8227 93.5696 21.1167 93.9149 21.49C94.2602 21.854 94.5216 22.2693 94.6989 22.736C94.8762 23.1933 94.9649 23.66 94.9649 24.136V24.388C94.9649 24.864 94.8762 25.3307 94.6989 25.788C94.5309 26.2453 94.2742 26.6607 93.9289 27.034C93.5929 27.398 93.1776 27.692 92.6829 27.916C92.1882 28.14 91.6142 28.252 90.9609 28.252ZM90.9609 27.048C91.5209 27.048 91.9969 26.9267 92.3889 26.684C92.7902 26.432 93.0936 26.096 93.2989 25.676C93.5136 25.256 93.6209 24.7847 93.6209 24.262C93.6209 23.73 93.5136 23.254 93.2989 22.834C93.0842 22.414 92.7762 22.0827 92.3749 21.84C91.9829 21.5973 91.5116 21.476 90.9609 21.476C90.4196 21.476 89.9482 21.5973 89.5469 21.84C89.1456 22.0827 88.8376 22.414 88.6229 22.834C88.4082 23.254 88.3009 23.73 88.3009 24.262C88.3009 24.7847 88.4036 25.256 88.6089 25.676C88.8236 26.096 89.1269 26.432 89.5189 26.684C89.9202 26.9267 90.4009 27.048 90.9609 27.048ZM96.7818 28V17.78H98.1258V28H96.7818ZM95.7458 18.844V17.78H98.1258V18.844H95.7458ZM103.602 28.252C102.948 28.252 102.384 28.14 101.908 27.916C101.432 27.692 101.044 27.398 100.746 27.034C100.447 26.6607 100.223 26.2453 100.074 25.788C99.9337 25.3307 99.8637 24.864 99.8637 24.388V24.136C99.8637 23.6507 99.9337 23.1793 100.074 22.722C100.223 22.2647 100.447 21.854 100.746 21.49C101.044 21.1167 101.422 20.8227 101.88 20.608C102.346 20.384 102.892 20.272 103.518 20.272C104.33 20.272 104.997 20.4493 105.52 20.804C106.052 21.1493 106.444 21.5973 106.696 22.148C106.957 22.6987 107.088 23.2867 107.088 23.912V24.514H100.452V23.506H106.108L105.8 24.052C105.8 23.52 105.716 23.0627 105.548 22.68C105.38 22.288 105.128 21.9847 104.792 21.77C104.456 21.5553 104.031 21.448 103.518 21.448C102.986 21.448 102.542 21.5693 102.188 21.812C101.842 22.0547 101.581 22.386 101.404 22.806C101.236 23.226 101.152 23.7113 101.152 24.262C101.152 24.794 101.236 25.2747 101.404 25.704C101.581 26.124 101.852 26.46 102.216 26.712C102.58 26.9547 103.042 27.076 103.602 27.076C104.19 27.076 104.666 26.9453 105.03 26.684C105.403 26.4227 105.627 26.1193 105.702 25.774H106.962C106.859 26.2873 106.654 26.7307 106.346 27.104C106.038 27.4773 105.65 27.762 105.184 27.958C104.717 28.154 104.19 28.252 103.602 28.252ZM111.544 30.912C111.199 30.912 110.849 30.898 110.494 30.87C110.149 30.842 109.817 30.8047 109.5 30.758V29.624C109.836 29.6707 110.186 29.708 110.55 29.736C110.923 29.7733 111.273 29.792 111.6 29.792C112.281 29.792 112.823 29.6987 113.224 29.512C113.635 29.3347 113.929 29.05 114.106 28.658C114.293 28.2753 114.386 27.7807 114.386 27.174V25.746L114.834 24.682C114.806 25.438 114.647 26.068 114.358 26.572C114.069 27.0667 113.691 27.44 113.224 27.692C112.767 27.9347 112.258 28.056 111.698 28.056C111.175 28.056 110.695 27.958 110.256 27.762C109.827 27.5567 109.453 27.2767 109.136 26.922C108.828 26.5673 108.585 26.1613 108.408 25.704C108.24 25.2373 108.156 24.7473 108.156 24.234V23.982C108.156 23.4593 108.245 22.974 108.422 22.526C108.599 22.0687 108.847 21.672 109.164 21.336C109.481 21 109.859 20.7387 110.298 20.552C110.746 20.3653 111.236 20.272 111.768 20.272C112.393 20.272 112.944 20.4073 113.42 20.678C113.896 20.9393 114.269 21.3267 114.54 21.84C114.82 22.344 114.974 22.9647 115.002 23.702L114.61 23.716V20.524H115.674V27.118C115.674 28.014 115.534 28.7373 115.254 29.288C114.983 29.848 114.545 30.2587 113.938 30.52C113.341 30.7813 112.543 30.912 111.544 30.912ZM111.95 26.824C112.398 26.824 112.804 26.726 113.168 26.53C113.541 26.334 113.835 26.054 114.05 25.69C114.274 25.3167 114.386 24.8733 114.386 24.36V23.716C114.386 23.212 114.269 22.7873 114.036 22.442C113.812 22.0967 113.518 21.8353 113.154 21.658C112.79 21.4807 112.393 21.392 111.964 21.392C111.479 21.392 111.049 21.504 110.676 21.728C110.303 21.952 110.013 22.2693 109.808 22.68C109.603 23.0813 109.5 23.5573 109.5 24.108C109.5 24.6587 109.603 25.1393 109.808 25.55C110.023 25.9607 110.312 26.278 110.676 26.502C111.049 26.7167 111.474 26.824 111.95 26.824ZM117.519 24.682V23.534H122.727V24.682H117.519ZM129.81 28L126.996 24.514H125.764L129.194 20.524H130.608L127.5 24.122L127.598 23.408L131.364 28H129.81ZM124.658 28V17.78H126.002V28H124.658ZM134.911 28.224C134.025 28.224 133.343 27.9347 132.867 27.356C132.391 26.7773 132.153 25.942 132.153 24.85V20.51H133.497V25.116C133.497 25.704 133.656 26.166 133.973 26.502C134.291 26.8287 134.72 26.992 135.261 26.992C135.821 26.992 136.279 26.8147 136.633 26.46C136.988 26.096 137.165 25.6013 137.165 24.976V20.51H138.509V28H137.445V24.794H137.613C137.613 25.5313 137.515 26.1567 137.319 26.67C137.123 27.174 136.829 27.5613 136.437 27.832C136.055 28.0933 135.565 28.224 134.967 28.224H134.911ZM140.356 28V26.502L144.43 21.616V21.84L144.206 21.504L144.388 21.588H140.3V20.524H145.62V22.022L141.546 26.908V26.712L141.798 27.062L141.602 26.936H145.844V28H140.356ZM147.388 28V20.524H148.452V23.73H148.284C148.284 23.002 148.378 22.386 148.564 21.882C148.76 21.3687 149.05 20.9767 149.432 20.706C149.815 20.4353 150.3 20.3 150.888 20.3H150.944C151.532 20.3 152.018 20.4353 152.4 20.706C152.792 20.9767 153.082 21.3687 153.268 21.882C153.455 22.386 153.548 23.002 153.548 23.73H153.156C153.156 23.002 153.254 22.386 153.45 21.882C153.646 21.3687 153.936 20.9767 154.318 20.706C154.71 20.4353 155.2 20.3 155.788 20.3H155.844C156.432 20.3 156.922 20.4353 157.314 20.706C157.706 20.9767 157.996 21.3687 158.182 21.882C158.378 22.386 158.476 23.002 158.476 23.73V28H157.132V23.436C157.132 22.8293 156.983 22.3627 156.684 22.036C156.386 21.7 155.97 21.532 155.438 21.532C154.888 21.532 154.444 21.7093 154.108 22.064C153.772 22.4093 153.604 22.8947 153.604 23.52V28H152.26V23.436C152.26 22.8293 152.111 22.3627 151.812 22.036C151.514 21.7 151.098 21.532 150.566 21.532C150.016 21.532 149.572 21.7093 149.236 22.064C148.9 22.4093 148.732 22.8947 148.732 23.52V28H147.388ZM161.021 28V20.524H162.365V28H161.021ZM159.873 21.588V20.524H162.365V21.588H159.873ZM161.399 19.32C161.1 19.32 160.876 19.2407 160.727 19.082C160.587 18.9233 160.517 18.7227 160.517 18.48C160.517 18.2373 160.587 18.0367 160.727 17.878C160.876 17.7193 161.1 17.64 161.399 17.64C161.698 17.64 161.917 17.7193 162.057 17.878C162.206 18.0367 162.281 18.2373 162.281 18.48C162.281 18.7227 162.206 18.9233 162.057 19.082C161.917 19.2407 161.698 19.32 161.399 19.32ZM164.684 28V20.524H165.748V23.73H165.58C165.58 22.9927 165.678 22.372 165.874 21.868C166.079 21.3547 166.387 20.9673 166.798 20.706C167.208 20.4353 167.726 20.3 168.352 20.3H168.408C169.35 20.3 170.046 20.594 170.494 21.182C170.951 21.77 171.18 22.6193 171.18 23.73V28H169.836V23.45C169.836 22.8713 169.672 22.4093 169.346 22.064C169.019 21.7093 168.571 21.532 168.002 21.532C167.414 21.532 166.938 21.714 166.574 22.078C166.21 22.442 166.028 22.9273 166.028 23.534V28H164.684ZM173.093 28V26.292H174.717V28H173.093ZM176.743 28V20.524H177.807V23.604H177.751C177.751 22.512 177.989 21.714 178.465 21.21C178.95 20.6967 179.674 20.44 180.635 20.44H180.887V21.644H180.411C179.664 21.644 179.09 21.8447 178.689 22.246C178.288 22.638 178.087 23.2073 178.087 23.954V28H176.743ZM184.795 28.224C183.908 28.224 183.227 27.9347 182.751 27.356C182.275 26.7773 182.037 25.942 182.037 24.85V20.51H183.381V25.116C183.381 25.704 183.54 26.166 183.857 26.502C184.174 26.8287 184.604 26.992 185.145 26.992C185.705 26.992 186.162 26.8147 186.517 26.46C186.872 26.096 187.049 25.6013 187.049 24.976V20.51H188.393V28H187.329V24.794H187.497C187.497 25.5313 187.399 26.1567 187.203 26.67C187.007 27.174 186.713 27.5613 186.321 27.832C185.938 28.0933 185.448 28.224 184.851 28.224H184.795Z" fill="black"/>
</svg>
