<svg width="280" height="46" viewBox="0 0 280 46" fill="none" xmlns="http://www.w3.org/2000/svg">
<rect width="280" height="46" rx="4" fill="white"/>
<path fill-rule="evenodd" clip-rule="evenodd" d="M4.35059 20.6C4.35059 18.5496 4.35059 17.5244 4.70374 16.717C5.17355 15.639 6.07486 14.7823 7.20943 14.3355C8.06048 14 9.13964 14 11.298 14H20.5611C22.7194 14 23.7986 14 24.6485 14.3355C25.7833 14.7818 26.685 15.6381 27.1553 16.7159C27.5085 17.5244 27.5085 18.5496 27.5085 20.6V25C27.5085 27.0504 27.5085 28.0756 27.1553 28.883C26.6855 29.961 25.7842 30.8177 24.6496 31.2645C23.7986 31.6 22.7194 31.6 20.5611 31.6H11.298C9.13964 31.6 8.06048 31.6 7.21059 31.2645C6.0758 30.8182 5.17408 29.9619 4.70374 28.8841C4.35059 28.0756 4.35059 27.0504 4.35059 25V20.6ZM6.66638 19.8377V25C6.66638 26.056 6.66753 26.7358 6.70459 27.2572C6.74164 27.7599 6.80301 27.9502 6.84353 28.0415C6.95978 28.3085 7.13026 28.5511 7.34522 28.7555C7.56019 28.9599 7.81543 29.1221 8.09637 29.2328C8.19248 29.2702 8.39395 29.3296 8.92195 29.3637C9.46964 29.3989 10.1875 29.4 11.298 29.4H20.5611C21.6727 29.4 22.3883 29.3989 22.9371 29.3637C23.4663 29.3296 23.6666 29.2702 23.7627 29.2317C24.0437 29.1213 24.2991 28.9593 24.5143 28.7551C24.7295 28.5509 24.9002 28.3084 25.0167 28.0415C25.0561 27.9502 25.1186 27.7599 25.1545 27.2572C25.1915 26.7358 25.1927 26.0549 25.1927 25V19.852L15.9284 24.9164L6.66638 19.8377ZM24.9611 17.4408C24.7136 16.9555 24.2872 16.5734 23.7627 16.3672C23.6666 16.3298 23.4663 16.2715 22.9371 16.2363C22.3883 16.2011 21.6727 16.2 20.5611 16.2H11.298C10.1864 16.2 9.46964 16.2011 8.9208 16.2363C8.39395 16.2715 8.19132 16.3298 8.09637 16.3683C7.57665 16.5721 7.15274 16.9487 6.90374 17.4276L15.9295 22.3776L24.9611 17.4408Z" fill="black"/>
<path d="M44.5993 28V20.524H45.9433V28H44.5993ZM43.4513 21.588V20.524H45.9433V21.588H43.4513ZM44.9773 19.32C44.6786 19.32 44.4546 19.2407 44.3053 19.082C44.1653 18.9233 44.0953 18.7227 44.0953 18.48C44.0953 18.2373 44.1653 18.0367 44.3053 17.878C44.4546 17.7193 44.6786 17.64 44.9773 17.64C45.2759 17.64 45.4953 17.7193 45.6353 17.878C45.7846 18.0367 45.8593 18.2373 45.8593 18.48C45.8593 18.7227 45.7846 18.9233 45.6353 19.082C45.4953 19.2407 45.2759 19.32 44.9773 19.32ZM48.2619 28V20.524H49.3259V23.73H49.1579C49.1579 22.9927 49.2559 22.372 49.4519 21.868C49.6572 21.3547 49.9652 20.9673 50.3759 20.706C50.7866 20.4353 51.3046 20.3 51.9299 20.3H51.9859C52.9286 20.3 53.6239 20.594 54.0719 21.182C54.5292 21.77 54.7579 22.6193 54.7579 23.73V28H53.4139V23.45C53.4139 22.8713 53.2506 22.4093 52.9239 22.064C52.5972 21.7093 52.1492 21.532 51.5799 21.532C50.9919 21.532 50.5159 21.714 50.1519 22.078C49.7879 22.442 49.6059 22.9273 49.6059 23.534V28H48.2619ZM57.133 28V20.146C57.133 19.3153 57.3523 18.704 57.791 18.312C58.2297 17.92 58.8737 17.724 59.723 17.724H60.647V18.844H59.499C59.1537 18.844 58.8877 18.942 58.701 19.138C58.5143 19.3247 58.421 19.586 58.421 19.922V28H57.133ZM56.097 21.616V20.608H60.787V21.616H56.097ZM65.351 28.252C64.6977 28.252 64.1237 28.14 63.629 27.916C63.1343 27.692 62.7143 27.398 62.369 27.034C62.033 26.6607 61.7763 26.2453 61.599 25.788C61.431 25.3307 61.347 24.864 61.347 24.388V24.136C61.347 23.66 61.4357 23.1933 61.613 22.736C61.7903 22.2693 62.0517 21.854 62.397 21.49C62.7423 21.1167 63.1623 20.8227 63.657 20.608C64.1517 20.384 64.7163 20.272 65.351 20.272C65.9857 20.272 66.5503 20.384 67.045 20.608C67.5397 20.8227 67.9597 21.1167 68.305 21.49C68.6503 21.854 68.9117 22.2693 69.089 22.736C69.2663 23.1933 69.355 23.66 69.355 24.136V24.388C69.355 24.864 69.2663 25.3307 69.089 25.788C68.921 26.2453 68.6643 26.6607 68.319 27.034C67.983 27.398 67.5677 27.692 67.073 27.916C66.5783 28.14 66.0043 28.252 65.351 28.252ZM65.351 27.048C65.911 27.048 66.387 26.9267 66.779 26.684C67.1803 26.432 67.4837 26.096 67.689 25.676C67.9037 25.256 68.011 24.7847 68.011 24.262C68.011 23.73 67.9037 23.254 67.689 22.834C67.4743 22.414 67.1663 22.0827 66.765 21.84C66.373 21.5973 65.9017 21.476 65.351 21.476C64.8097 21.476 64.3383 21.5973 63.937 21.84C63.5357 22.0827 63.2277 22.414 63.013 22.834C62.7983 23.254 62.691 23.73 62.691 24.262C62.691 24.7847 62.7937 25.256 62.999 25.676C63.2137 26.096 63.517 26.432 63.909 26.684C64.3103 26.9267 64.791 27.048 65.351 27.048ZM77.7099 31.402C76.7019 31.402 75.7686 31.234 74.9099 30.898C74.0606 30.5713 73.3233 30.1 72.6979 29.484C72.0726 28.8773 71.5873 28.154 71.2419 27.314C70.8966 26.4647 70.7239 25.5267 70.7239 24.5C70.7239 23.5107 70.8919 22.5913 71.2279 21.742C71.5639 20.8927 72.0399 20.1507 72.6559 19.516C73.2813 18.8813 74.0279 18.3867 74.8959 18.032C75.7639 17.6773 76.7253 17.5 77.7799 17.5C78.7039 17.5 79.5766 17.6353 80.3979 17.906C81.2193 18.1673 81.9473 18.5593 82.5819 19.082C83.2166 19.5953 83.7113 20.2347 84.0659 21C84.4299 21.756 84.6119 22.6333 84.6119 23.632C84.6119 24.4533 84.4859 25.186 84.2339 25.83C83.9819 26.474 83.6319 26.9827 83.1839 27.356C82.7453 27.7293 82.2319 27.916 81.6439 27.916C81.2053 27.916 80.8273 27.8227 80.5099 27.636C80.1926 27.4493 79.9453 27.1927 79.7679 26.866C79.5999 26.53 79.5159 26.1473 79.5159 25.718V24.85H79.9219C79.8939 25.5127 79.7493 26.0633 79.4879 26.502C79.2359 26.9407 78.9046 27.2673 78.4939 27.482C78.0926 27.6967 77.6539 27.804 77.1779 27.804C76.6086 27.804 76.0953 27.664 75.6379 27.384C75.1899 27.0947 74.8353 26.7073 74.5739 26.222C74.3126 25.7367 74.1819 25.186 74.1819 24.57V24.346C74.1819 23.73 74.3173 23.184 74.5879 22.708C74.8586 22.232 75.2226 21.8587 75.6799 21.588C76.1466 21.3173 76.6646 21.182 77.2339 21.182C77.7473 21.182 78.2093 21.294 78.6199 21.518C79.0306 21.742 79.3619 22.064 79.6139 22.484C79.8753 22.904 80.0199 23.4173 80.0479 24.024H79.5439V21.378H80.6359V25.69C80.6359 25.9513 80.6779 26.166 80.7619 26.334C80.8553 26.502 80.9766 26.628 81.1259 26.712C81.2753 26.7867 81.4386 26.824 81.6159 26.824C81.9333 26.824 82.2273 26.698 82.4979 26.446C82.7686 26.1847 82.9879 25.8207 83.1559 25.354C83.3239 24.8873 83.4079 24.332 83.4079 23.688C83.4079 22.8387 83.2586 22.0967 82.9599 21.462C82.6706 20.8273 82.2646 20.3 81.7419 19.88C81.2193 19.46 80.6173 19.1473 79.9359 18.942C79.2639 18.7273 78.5499 18.62 77.7939 18.62C76.8979 18.62 76.0859 18.7693 75.3579 19.068C74.6393 19.3667 74.0233 19.7867 73.5099 20.328C72.9966 20.86 72.6046 21.4853 72.3339 22.204C72.0633 22.9133 71.9279 23.6833 71.9279 24.514C71.9279 25.6527 72.1706 26.656 72.6559 27.524C73.1413 28.3827 73.8179 29.05 74.6859 29.526C75.5633 30.0113 76.5713 30.254 77.7099 30.254C78.0086 30.254 78.2979 30.2353 78.5779 30.198C78.8579 30.17 79.1286 30.1233 79.3899 30.058V31.22C79.1286 31.276 78.8579 31.318 78.5779 31.346C78.2979 31.3833 78.0086 31.402 77.7099 31.402ZM77.4159 26.74C77.7799 26.74 78.1159 26.656 78.4239 26.488C78.7413 26.32 78.9933 26.0727 79.1799 25.746C79.3666 25.4193 79.4599 25.0227 79.4599 24.556V24.192C79.4599 23.7533 79.3619 23.394 79.1659 23.114C78.9699 22.8247 78.7179 22.61 78.4099 22.47C78.1019 22.3207 77.7706 22.246 77.4159 22.246C77.0146 22.246 76.6599 22.3393 76.3519 22.526C76.0533 22.7033 75.8199 22.96 75.6519 23.296C75.4933 23.6227 75.4139 24.01 75.4139 24.458C75.4139 24.906 75.4979 25.3027 75.6659 25.648C75.8339 25.9933 76.0673 26.264 76.3659 26.46C76.6646 26.6467 77.0146 26.74 77.4159 26.74ZM89.9609 28.252C89.3076 28.252 88.7336 28.14 88.2389 27.916C87.7442 27.692 87.3242 27.398 86.9789 27.034C86.6429 26.6607 86.3862 26.2453 86.2089 25.788C86.0409 25.3307 85.9569 24.864 85.9569 24.388V24.136C85.9569 23.66 86.0456 23.1933 86.2229 22.736C86.4002 22.2693 86.6616 21.854 87.0069 21.49C87.3522 21.1167 87.7722 20.8227 88.2669 20.608C88.7616 20.384 89.3262 20.272 89.9609 20.272C90.5956 20.272 91.1602 20.384 91.6549 20.608C92.1496 20.8227 92.5696 21.1167 92.9149 21.49C93.2602 21.854 93.5216 22.2693 93.6989 22.736C93.8762 23.1933 93.9649 23.66 93.9649 24.136V24.388C93.9649 24.864 93.8762 25.3307 93.6989 25.788C93.5309 26.2453 93.2742 26.6607 92.9289 27.034C92.5929 27.398 92.1776 27.692 91.6829 27.916C91.1882 28.14 90.6142 28.252 89.9609 28.252ZM89.9609 27.048C90.5209 27.048 90.9969 26.9267 91.3889 26.684C91.7902 26.432 92.0936 26.096 92.2989 25.676C92.5136 25.256 92.6209 24.7847 92.6209 24.262C92.6209 23.73 92.5136 23.254 92.2989 22.834C92.0842 22.414 91.7762 22.0827 91.3749 21.84C90.9829 21.5973 90.5116 21.476 89.9609 21.476C89.4196 21.476 88.9482 21.5973 88.5469 21.84C88.1456 22.0827 87.8376 22.414 87.6229 22.834C87.4082 23.254 87.3009 23.73 87.3009 24.262C87.3009 24.7847 87.4036 25.256 87.6089 25.676C87.8236 26.096 88.1269 26.432 88.5189 26.684C88.9202 26.9267 89.4009 27.048 89.9609 27.048ZM95.7818 28V17.78H97.1258V28H95.7818ZM94.7458 18.844V17.78H97.1258V18.844H94.7458ZM102.602 28.252C101.948 28.252 101.384 28.14 100.908 27.916C100.432 27.692 100.044 27.398 99.7457 27.034C99.447 26.6607 99.223 26.2453 99.0737 25.788C98.9337 25.3307 98.8637 24.864 98.8637 24.388V24.136C98.8637 23.6507 98.9337 23.1793 99.0737 22.722C99.223 22.2647 99.447 21.854 99.7457 21.49C100.044 21.1167 100.422 20.8227 100.88 20.608C101.346 20.384 101.892 20.272 102.518 20.272C103.33 20.272 103.997 20.4493 104.52 20.804C105.052 21.1493 105.444 21.5973 105.696 22.148C105.957 22.6987 106.088 23.2867 106.088 23.912V24.514H99.4517V23.506H105.108L104.8 24.052C104.8 23.52 104.716 23.0627 104.548 22.68C104.38 22.288 104.128 21.9847 103.792 21.77C103.456 21.5553 103.031 21.448 102.518 21.448C101.986 21.448 101.542 21.5693 101.188 21.812C100.842 22.0547 100.581 22.386 100.404 22.806C100.236 23.226 100.152 23.7113 100.152 24.262C100.152 24.794 100.236 25.2747 100.404 25.704C100.581 26.124 100.852 26.46 101.216 26.712C101.58 26.9547 102.042 27.076 102.602 27.076C103.19 27.076 103.666 26.9453 104.03 26.684C104.403 26.4227 104.627 26.1193 104.702 25.774H105.962C105.859 26.2873 105.654 26.7307 105.346 27.104C105.038 27.4773 104.65 27.762 104.184 27.958C103.717 28.154 103.19 28.252 102.602 28.252ZM110.544 30.912C110.199 30.912 109.849 30.898 109.494 30.87C109.149 30.842 108.817 30.8047 108.5 30.758V29.624C108.836 29.6707 109.186 29.708 109.55 29.736C109.923 29.7733 110.273 29.792 110.6 29.792C111.281 29.792 111.823 29.6987 112.224 29.512C112.635 29.3347 112.929 29.05 113.106 28.658C113.293 28.2753 113.386 27.7807 113.386 27.174V25.746L113.834 24.682C113.806 25.438 113.647 26.068 113.358 26.572C113.069 27.0667 112.691 27.44 112.224 27.692C111.767 27.9347 111.258 28.056 110.698 28.056C110.175 28.056 109.695 27.958 109.256 27.762C108.827 27.5567 108.453 27.2767 108.136 26.922C107.828 26.5673 107.585 26.1613 107.408 25.704C107.24 25.2373 107.156 24.7473 107.156 24.234V23.982C107.156 23.4593 107.245 22.974 107.422 22.526C107.599 22.0687 107.847 21.672 108.164 21.336C108.481 21 108.859 20.7387 109.298 20.552C109.746 20.3653 110.236 20.272 110.768 20.272C111.393 20.272 111.944 20.4073 112.42 20.678C112.896 20.9393 113.269 21.3267 113.54 21.84C113.82 22.344 113.974 22.9647 114.002 23.702L113.61 23.716V20.524H114.674V27.118C114.674 28.014 114.534 28.7373 114.254 29.288C113.983 29.848 113.545 30.2587 112.938 30.52C112.341 30.7813 111.543 30.912 110.544 30.912ZM110.95 26.824C111.398 26.824 111.804 26.726 112.168 26.53C112.541 26.334 112.835 26.054 113.05 25.69C113.274 25.3167 113.386 24.8733 113.386 24.36V23.716C113.386 23.212 113.269 22.7873 113.036 22.442C112.812 22.0967 112.518 21.8353 112.154 21.658C111.79 21.4807 111.393 21.392 110.964 21.392C110.479 21.392 110.049 21.504 109.676 21.728C109.303 21.952 109.013 22.2693 108.808 22.68C108.603 23.0813 108.5 23.5573 108.5 24.108C108.5 24.6587 108.603 25.1393 108.808 25.55C109.023 25.9607 109.312 26.278 109.676 26.502C110.049 26.7167 110.474 26.824 110.95 26.824ZM116.519 24.682V23.534H121.727V24.682H116.519ZM128.81 28L125.996 24.514H124.764L128.194 20.524H129.608L126.5 24.122L126.598 23.408L130.364 28H128.81ZM123.658 28V17.78H125.002V28H123.658ZM133.911 28.224C133.025 28.224 132.343 27.9347 131.867 27.356C131.391 26.7773 131.153 25.942 131.153 24.85V20.51H132.497V25.116C132.497 25.704 132.656 26.166 132.973 26.502C133.291 26.8287 133.72 26.992 134.261 26.992C134.821 26.992 135.279 26.8147 135.633 26.46C135.988 26.096 136.165 25.6013 136.165 24.976V20.51H137.509V28H136.445V24.794H136.613C136.613 25.5313 136.515 26.1567 136.319 26.67C136.123 27.174 135.829 27.5613 135.437 27.832C135.055 28.0933 134.565 28.224 133.967 28.224H133.911ZM139.356 28V26.502L143.43 21.616V21.84L143.206 21.504L143.388 21.588H139.3V20.524H144.62V22.022L140.546 26.908V26.712L140.798 27.062L140.602 26.936H144.844V28H139.356ZM146.388 28V20.524H147.452V23.73H147.284C147.284 23.002 147.378 22.386 147.564 21.882C147.76 21.3687 148.05 20.9767 148.432 20.706C148.815 20.4353 149.3 20.3 149.888 20.3H149.944C150.532 20.3 151.018 20.4353 151.4 20.706C151.792 20.9767 152.082 21.3687 152.268 21.882C152.455 22.386 152.548 23.002 152.548 23.73H152.156C152.156 23.002 152.254 22.386 152.45 21.882C152.646 21.3687 152.936 20.9767 153.318 20.706C153.71 20.4353 154.2 20.3 154.788 20.3H154.844C155.432 20.3 155.922 20.4353 156.314 20.706C156.706 20.9767 156.996 21.3687 157.182 21.882C157.378 22.386 157.476 23.002 157.476 23.73V28H156.132V23.436C156.132 22.8293 155.983 22.3627 155.684 22.036C155.386 21.7 154.97 21.532 154.438 21.532C153.888 21.532 153.444 21.7093 153.108 22.064C152.772 22.4093 152.604 22.8947 152.604 23.52V28H151.26V23.436C151.26 22.8293 151.111 22.3627 150.812 22.036C150.514 21.7 150.098 21.532 149.566 21.532C149.016 21.532 148.572 21.7093 148.236 22.064C147.9 22.4093 147.732 22.8947 147.732 23.52V28H146.388ZM160.021 28V20.524H161.365V28H160.021ZM158.873 21.588V20.524H161.365V21.588H158.873ZM160.399 19.32C160.1 19.32 159.876 19.2407 159.727 19.082C159.587 18.9233 159.517 18.7227 159.517 18.48C159.517 18.2373 159.587 18.0367 159.727 17.878C159.876 17.7193 160.1 17.64 160.399 17.64C160.698 17.64 160.917 17.7193 161.057 17.878C161.206 18.0367 161.281 18.2373 161.281 18.48C161.281 18.7227 161.206 18.9233 161.057 19.082C160.917 19.2407 160.698 19.32 160.399 19.32ZM163.684 28V20.524H164.748V23.73H164.58C164.58 22.9927 164.678 22.372 164.874 21.868C165.079 21.3547 165.387 20.9673 165.798 20.706C166.208 20.4353 166.726 20.3 167.352 20.3H167.408C168.35 20.3 169.046 20.594 169.494 21.182C169.951 21.77 170.18 22.6193 170.18 23.73V28H168.836V23.45C168.836 22.8713 168.672 22.4093 168.346 22.064C168.019 21.7093 167.571 21.532 167.002 21.532C166.414 21.532 165.938 21.714 165.574 22.078C165.21 22.442 165.028 22.9273 165.028 23.534V28H163.684ZM172.093 28V26.292H173.717V28H172.093ZM175.743 28V20.524H176.807V23.604H176.751C176.751 22.512 176.989 21.714 177.465 21.21C177.95 20.6967 178.674 20.44 179.635 20.44H179.887V21.644H179.411C178.664 21.644 178.09 21.8447 177.689 22.246C177.288 22.638 177.087 23.2073 177.087 23.954V28H175.743ZM183.795 28.224C182.908 28.224 182.227 27.9347 181.751 27.356C181.275 26.7773 181.037 25.942 181.037 24.85V20.51H182.381V25.116C182.381 25.704 182.54 26.166 182.857 26.502C183.174 26.8287 183.604 26.992 184.145 26.992C184.705 26.992 185.162 26.8147 185.517 26.46C185.872 26.096 186.049 25.6013 186.049 24.976V20.51H187.393V28H186.329V24.794H186.497C186.497 25.5313 186.399 26.1567 186.203 26.67C186.007 27.174 185.713 27.5613 185.321 27.832C184.938 28.0933 184.448 28.224 183.851 28.224H183.795Z" fill="black"/>
</svg>
