<svg width="280" height="46" viewBox="0 0 280 46" fill="none" xmlns="http://www.w3.org/2000/svg">
<rect width="280" height="46" rx="4" fill="white"/>
<path fill-rule="evenodd" clip-rule="evenodd" d="M0.350586 20.6C0.350586 18.5496 0.350586 17.5244 0.703744 16.717C1.17355 15.639 2.07486 14.7823 3.20943 14.3355C4.06048 14 5.13964 14 7.29795 14H16.5611C18.7194 14 19.7986 14 20.6485 14.3355C21.7833 14.7818 22.685 15.6381 23.1553 16.7159C23.5085 17.5244 23.5085 18.5496 23.5085 20.6V25C23.5085 27.0504 23.5085 28.0756 23.1553 28.883C22.6855 29.961 21.7842 30.8177 20.6496 31.2645C19.7986 31.6 18.7194 31.6 16.5611 31.6H7.29795C5.13964 31.6 4.06048 31.6 3.21059 31.2645C2.0758 30.8182 1.17408 29.9619 0.703744 28.8841C0.350586 28.0756 0.350586 27.0504 0.350586 25V20.6ZM2.66638 19.8377V25C2.66638 26.056 2.66753 26.7358 2.70459 27.2572C2.74164 27.7599 2.80301 27.9502 2.84353 28.0415C2.95978 28.3085 3.13026 28.5511 3.34522 28.7555C3.56019 28.9599 3.81543 29.1221 4.09637 29.2328C4.19248 29.2702 4.39395 29.3296 4.92195 29.3637C5.46964 29.3989 6.18753 29.4 7.29795 29.4H16.5611C17.6727 29.4 18.3883 29.3989 18.9371 29.3637C19.4663 29.3296 19.6666 29.2702 19.7627 29.2317C20.0437 29.1213 20.2991 28.9593 20.5143 28.7551C20.7295 28.5509 20.9002 28.3084 21.0167 28.0415C21.0561 27.9502 21.1186 27.7599 21.1545 27.2572C21.1915 26.7358 21.1927 26.0549 21.1927 25V19.852L11.9284 24.9164L2.66638 19.8377ZM20.9611 17.4408C20.7136 16.9555 20.2872 16.5734 19.7627 16.3672C19.6666 16.3298 19.4663 16.2715 18.9371 16.2363C18.3883 16.2011 17.6727 16.2 16.5611 16.2H7.29795C6.18638 16.2 5.46964 16.2011 4.9208 16.2363C4.39395 16.2715 4.19132 16.3298 4.09637 16.3683C3.57665 16.5721 3.15274 16.9487 2.90374 17.4276L11.9295 22.3776L20.9611 17.4408Z" fill="black"/>
<path d="M40.5993 28V20.524H41.9433V28H40.5993ZM39.4513 21.588V20.524H41.9433V21.588H39.4513ZM40.9773 19.32C40.6786 19.32 40.4546 19.2407 40.3053 19.082C40.1653 18.9233 40.0953 18.7227 40.0953 18.48C40.0953 18.2373 40.1653 18.0367 40.3053 17.878C40.4546 17.7193 40.6786 17.64 40.9773 17.64C41.2759 17.64 41.4953 17.7193 41.6353 17.878C41.7846 18.0367 41.8593 18.2373 41.8593 18.48C41.8593 18.7227 41.7846 18.9233 41.6353 19.082C41.4953 19.2407 41.2759 19.32 40.9773 19.32ZM44.2619 28V20.524H45.3259V23.73H45.1579C45.1579 22.9927 45.2559 22.372 45.4519 21.868C45.6572 21.3547 45.9652 20.9673 46.3759 20.706C46.7866 20.4353 47.3046 20.3 47.9299 20.3H47.9859C48.9286 20.3 49.6239 20.594 50.0719 21.182C50.5292 21.77 50.7579 22.6193 50.7579 23.73V28H49.4139V23.45C49.4139 22.8713 49.2506 22.4093 48.9239 22.064C48.5972 21.7093 48.1492 21.532 47.5799 21.532C46.9919 21.532 46.5159 21.714 46.1519 22.078C45.7879 22.442 45.6059 22.9273 45.6059 23.534V28H44.2619ZM53.133 28V20.146C53.133 19.3153 53.3523 18.704 53.791 18.312C54.2297 17.92 54.8737 17.724 55.723 17.724H56.647V18.844H55.499C55.1537 18.844 54.8877 18.942 54.701 19.138C54.5143 19.3247 54.421 19.586 54.421 19.922V28H53.133ZM52.097 21.616V20.608H56.787V21.616H52.097ZM61.351 28.252C60.6977 28.252 60.1237 28.14 59.629 27.916C59.1343 27.692 58.7143 27.398 58.369 27.034C58.033 26.6607 57.7763 26.2453 57.599 25.788C57.431 25.3307 57.347 24.864 57.347 24.388V24.136C57.347 23.66 57.4357 23.1933 57.613 22.736C57.7903 22.2693 58.0517 21.854 58.397 21.49C58.7423 21.1167 59.1623 20.8227 59.657 20.608C60.1517 20.384 60.7163 20.272 61.351 20.272C61.9857 20.272 62.5503 20.384 63.045 20.608C63.5397 20.8227 63.9597 21.1167 64.305 21.49C64.6503 21.854 64.9117 22.2693 65.089 22.736C65.2663 23.1933 65.355 23.66 65.355 24.136V24.388C65.355 24.864 65.2663 25.3307 65.089 25.788C64.921 26.2453 64.6643 26.6607 64.319 27.034C63.983 27.398 63.5677 27.692 63.073 27.916C62.5783 28.14 62.0043 28.252 61.351 28.252ZM61.351 27.048C61.911 27.048 62.387 26.9267 62.779 26.684C63.1803 26.432 63.4837 26.096 63.689 25.676C63.9037 25.256 64.011 24.7847 64.011 24.262C64.011 23.73 63.9037 23.254 63.689 22.834C63.4743 22.414 63.1663 22.0827 62.765 21.84C62.373 21.5973 61.9017 21.476 61.351 21.476C60.8097 21.476 60.3383 21.5973 59.937 21.84C59.5357 22.0827 59.2277 22.414 59.013 22.834C58.7983 23.254 58.691 23.73 58.691 24.262C58.691 24.7847 58.7937 25.256 58.999 25.676C59.2137 26.096 59.517 26.432 59.909 26.684C60.3103 26.9267 60.791 27.048 61.351 27.048ZM73.7099 31.402C72.7019 31.402 71.7686 31.234 70.9099 30.898C70.0606 30.5713 69.3233 30.1 68.6979 29.484C68.0726 28.8773 67.5873 28.154 67.2419 27.314C66.8966 26.4647 66.7239 25.5267 66.7239 24.5C66.7239 23.5107 66.8919 22.5913 67.2279 21.742C67.5639 20.8927 68.0399 20.1507 68.6559 19.516C69.2813 18.8813 70.0279 18.3867 70.8959 18.032C71.7639 17.6773 72.7253 17.5 73.7799 17.5C74.7039 17.5 75.5766 17.6353 76.3979 17.906C77.2193 18.1673 77.9473 18.5593 78.5819 19.082C79.2166 19.5953 79.7113 20.2347 80.0659 21C80.4299 21.756 80.6119 22.6333 80.6119 23.632C80.6119 24.4533 80.4859 25.186 80.2339 25.83C79.9819 26.474 79.6319 26.9827 79.1839 27.356C78.7453 27.7293 78.2319 27.916 77.6439 27.916C77.2053 27.916 76.8273 27.8227 76.5099 27.636C76.1926 27.4493 75.9453 27.1927 75.7679 26.866C75.5999 26.53 75.5159 26.1473 75.5159 25.718V24.85H75.9219C75.8939 25.5127 75.7493 26.0633 75.4879 26.502C75.2359 26.9407 74.9046 27.2673 74.4939 27.482C74.0926 27.6967 73.6539 27.804 73.1779 27.804C72.6086 27.804 72.0953 27.664 71.6379 27.384C71.1899 27.0947 70.8353 26.7073 70.5739 26.222C70.3126 25.7367 70.1819 25.186 70.1819 24.57V24.346C70.1819 23.73 70.3173 23.184 70.5879 22.708C70.8586 22.232 71.2226 21.8587 71.6799 21.588C72.1466 21.3173 72.6646 21.182 73.2339 21.182C73.7473 21.182 74.2093 21.294 74.6199 21.518C75.0306 21.742 75.3619 22.064 75.6139 22.484C75.8753 22.904 76.0199 23.4173 76.0479 24.024H75.5439V21.378H76.6359V25.69C76.6359 25.9513 76.6779 26.166 76.7619 26.334C76.8553 26.502 76.9766 26.628 77.1259 26.712C77.2753 26.7867 77.4386 26.824 77.6159 26.824C77.9333 26.824 78.2273 26.698 78.4979 26.446C78.7686 26.1847 78.9879 25.8207 79.1559 25.354C79.3239 24.8873 79.4079 24.332 79.4079 23.688C79.4079 22.8387 79.2586 22.0967 78.9599 21.462C78.6706 20.8273 78.2646 20.3 77.7419 19.88C77.2193 19.46 76.6173 19.1473 75.9359 18.942C75.2639 18.7273 74.5499 18.62 73.7939 18.62C72.8979 18.62 72.0859 18.7693 71.3579 19.068C70.6393 19.3667 70.0233 19.7867 69.5099 20.328C68.9966 20.86 68.6046 21.4853 68.3339 22.204C68.0633 22.9133 67.9279 23.6833 67.9279 24.514C67.9279 25.6527 68.1706 26.656 68.6559 27.524C69.1413 28.3827 69.8179 29.05 70.6859 29.526C71.5633 30.0113 72.5713 30.254 73.7099 30.254C74.0086 30.254 74.2979 30.2353 74.5779 30.198C74.8579 30.17 75.1286 30.1233 75.3899 30.058V31.22C75.1286 31.276 74.8579 31.318 74.5779 31.346C74.2979 31.3833 74.0086 31.402 73.7099 31.402ZM73.4159 26.74C73.7799 26.74 74.1159 26.656 74.4239 26.488C74.7413 26.32 74.9933 26.0727 75.1799 25.746C75.3666 25.4193 75.4599 25.0227 75.4599 24.556V24.192C75.4599 23.7533 75.3619 23.394 75.1659 23.114C74.9699 22.8247 74.7179 22.61 74.4099 22.47C74.1019 22.3207 73.7706 22.246 73.4159 22.246C73.0146 22.246 72.6599 22.3393 72.3519 22.526C72.0533 22.7033 71.8199 22.96 71.6519 23.296C71.4933 23.6227 71.4139 24.01 71.4139 24.458C71.4139 24.906 71.4979 25.3027 71.6659 25.648C71.8339 25.9933 72.0673 26.264 72.3659 26.46C72.6646 26.6467 73.0146 26.74 73.4159 26.74ZM85.9609 28.252C85.3076 28.252 84.7336 28.14 84.2389 27.916C83.7442 27.692 83.3242 27.398 82.9789 27.034C82.6429 26.6607 82.3862 26.2453 82.2089 25.788C82.0409 25.3307 81.9569 24.864 81.9569 24.388V24.136C81.9569 23.66 82.0456 23.1933 82.2229 22.736C82.4002 22.2693 82.6616 21.854 83.0069 21.49C83.3522 21.1167 83.7722 20.8227 84.2669 20.608C84.7616 20.384 85.3262 20.272 85.9609 20.272C86.5956 20.272 87.1602 20.384 87.6549 20.608C88.1496 20.8227 88.5696 21.1167 88.9149 21.49C89.2602 21.854 89.5216 22.2693 89.6989 22.736C89.8762 23.1933 89.9649 23.66 89.9649 24.136V24.388C89.9649 24.864 89.8762 25.3307 89.6989 25.788C89.5309 26.2453 89.2742 26.6607 88.9289 27.034C88.5929 27.398 88.1776 27.692 87.6829 27.916C87.1882 28.14 86.6142 28.252 85.9609 28.252ZM85.9609 27.048C86.5209 27.048 86.9969 26.9267 87.3889 26.684C87.7902 26.432 88.0936 26.096 88.2989 25.676C88.5136 25.256 88.6209 24.7847 88.6209 24.262C88.6209 23.73 88.5136 23.254 88.2989 22.834C88.0842 22.414 87.7762 22.0827 87.3749 21.84C86.9829 21.5973 86.5116 21.476 85.9609 21.476C85.4196 21.476 84.9482 21.5973 84.5469 21.84C84.1456 22.0827 83.8376 22.414 83.6229 22.834C83.4082 23.254 83.3009 23.73 83.3009 24.262C83.3009 24.7847 83.4036 25.256 83.6089 25.676C83.8236 26.096 84.1269 26.432 84.5189 26.684C84.9202 26.9267 85.4009 27.048 85.9609 27.048ZM91.7818 28V17.78H93.1258V28H91.7818ZM90.7458 18.844V17.78H93.1258V18.844H90.7458ZM98.6017 28.252C97.9484 28.252 97.3837 28.14 96.9077 27.916C96.4317 27.692 96.0444 27.398 95.7457 27.034C95.447 26.6607 95.223 26.2453 95.0737 25.788C94.9337 25.3307 94.8637 24.864 94.8637 24.388V24.136C94.8637 23.6507 94.9337 23.1793 95.0737 22.722C95.223 22.2647 95.447 21.854 95.7457 21.49C96.0444 21.1167 96.4224 20.8227 96.8797 20.608C97.3464 20.384 97.8924 20.272 98.5177 20.272C99.3297 20.272 99.997 20.4493 100.52 20.804C101.052 21.1493 101.444 21.5973 101.696 22.148C101.957 22.6987 102.088 23.2867 102.088 23.912V24.514H95.4517V23.506H101.108L100.8 24.052C100.8 23.52 100.716 23.0627 100.548 22.68C100.38 22.288 100.128 21.9847 99.7917 21.77C99.4557 21.5553 99.031 21.448 98.5177 21.448C97.9857 21.448 97.5424 21.5693 97.1877 21.812C96.8424 22.0547 96.581 22.386 96.4037 22.806C96.2357 23.226 96.1517 23.7113 96.1517 24.262C96.1517 24.794 96.2357 25.2747 96.4037 25.704C96.581 26.124 96.8517 26.46 97.2157 26.712C97.5797 26.9547 98.0417 27.076 98.6017 27.076C99.1897 27.076 99.6657 26.9453 100.03 26.684C100.403 26.4227 100.627 26.1193 100.702 25.774H101.962C101.859 26.2873 101.654 26.7307 101.346 27.104C101.038 27.4773 100.65 27.762 100.184 27.958C99.717 28.154 99.1897 28.252 98.6017 28.252ZM106.544 30.912C106.199 30.912 105.849 30.898 105.494 30.87C105.149 30.842 104.817 30.8047 104.5 30.758V29.624C104.836 29.6707 105.186 29.708 105.55 29.736C105.923 29.7733 106.273 29.792 106.6 29.792C107.281 29.792 107.823 29.6987 108.224 29.512C108.635 29.3347 108.929 29.05 109.106 28.658C109.293 28.2753 109.386 27.7807 109.386 27.174V25.746L109.834 24.682C109.806 25.438 109.647 26.068 109.358 26.572C109.069 27.0667 108.691 27.44 108.224 27.692C107.767 27.9347 107.258 28.056 106.698 28.056C106.175 28.056 105.695 27.958 105.256 27.762C104.827 27.5567 104.453 27.2767 104.136 26.922C103.828 26.5673 103.585 26.1613 103.408 25.704C103.24 25.2373 103.156 24.7473 103.156 24.234V23.982C103.156 23.4593 103.245 22.974 103.422 22.526C103.599 22.0687 103.847 21.672 104.164 21.336C104.481 21 104.859 20.7387 105.298 20.552C105.746 20.3653 106.236 20.272 106.768 20.272C107.393 20.272 107.944 20.4073 108.42 20.678C108.896 20.9393 109.269 21.3267 109.54 21.84C109.82 22.344 109.974 22.9647 110.002 23.702L109.61 23.716V20.524H110.674V27.118C110.674 28.014 110.534 28.7373 110.254 29.288C109.983 29.848 109.545 30.2587 108.938 30.52C108.341 30.7813 107.543 30.912 106.544 30.912ZM106.95 26.824C107.398 26.824 107.804 26.726 108.168 26.53C108.541 26.334 108.835 26.054 109.05 25.69C109.274 25.3167 109.386 24.8733 109.386 24.36V23.716C109.386 23.212 109.269 22.7873 109.036 22.442C108.812 22.0967 108.518 21.8353 108.154 21.658C107.79 21.4807 107.393 21.392 106.964 21.392C106.479 21.392 106.049 21.504 105.676 21.728C105.303 21.952 105.013 22.2693 104.808 22.68C104.603 23.0813 104.5 23.5573 104.5 24.108C104.5 24.6587 104.603 25.1393 104.808 25.55C105.023 25.9607 105.312 26.278 105.676 26.502C106.049 26.7167 106.474 26.824 106.95 26.824ZM112.519 24.682V23.534H117.727V24.682H112.519ZM124.81 28L121.996 24.514H120.764L124.194 20.524H125.608L122.5 24.122L122.598 23.408L126.364 28H124.81ZM119.658 28V17.78H121.002V28H119.658ZM129.911 28.224C129.025 28.224 128.343 27.9347 127.867 27.356C127.391 26.7773 127.153 25.942 127.153 24.85V20.51H128.497V25.116C128.497 25.704 128.656 26.166 128.973 26.502C129.291 26.8287 129.72 26.992 130.261 26.992C130.821 26.992 131.279 26.8147 131.633 26.46C131.988 26.096 132.165 25.6013 132.165 24.976V20.51H133.509V28H132.445V24.794H132.613C132.613 25.5313 132.515 26.1567 132.319 26.67C132.123 27.174 131.829 27.5613 131.437 27.832C131.055 28.0933 130.565 28.224 129.967 28.224H129.911ZM135.356 28V26.502L139.43 21.616V21.84L139.206 21.504L139.388 21.588H135.3V20.524H140.62V22.022L136.546 26.908V26.712L136.798 27.062L136.602 26.936H140.844V28H135.356ZM142.388 28V20.524H143.452V23.73H143.284C143.284 23.002 143.378 22.386 143.564 21.882C143.76 21.3687 144.05 20.9767 144.432 20.706C144.815 20.4353 145.3 20.3 145.888 20.3H145.944C146.532 20.3 147.018 20.4353 147.4 20.706C147.792 20.9767 148.082 21.3687 148.268 21.882C148.455 22.386 148.548 23.002 148.548 23.73H148.156C148.156 23.002 148.254 22.386 148.45 21.882C148.646 21.3687 148.936 20.9767 149.318 20.706C149.71 20.4353 150.2 20.3 150.788 20.3H150.844C151.432 20.3 151.922 20.4353 152.314 20.706C152.706 20.9767 152.996 21.3687 153.182 21.882C153.378 22.386 153.476 23.002 153.476 23.73V28H152.132V23.436C152.132 22.8293 151.983 22.3627 151.684 22.036C151.386 21.7 150.97 21.532 150.438 21.532C149.888 21.532 149.444 21.7093 149.108 22.064C148.772 22.4093 148.604 22.8947 148.604 23.52V28H147.26V23.436C147.26 22.8293 147.111 22.3627 146.812 22.036C146.514 21.7 146.098 21.532 145.566 21.532C145.016 21.532 144.572 21.7093 144.236 22.064C143.9 22.4093 143.732 22.8947 143.732 23.52V28H142.388ZM156.021 28V20.524H157.365V28H156.021ZM154.873 21.588V20.524H157.365V21.588H154.873ZM156.399 19.32C156.1 19.32 155.876 19.2407 155.727 19.082C155.587 18.9233 155.517 18.7227 155.517 18.48C155.517 18.2373 155.587 18.0367 155.727 17.878C155.876 17.7193 156.1 17.64 156.399 17.64C156.698 17.64 156.917 17.7193 157.057 17.878C157.206 18.0367 157.281 18.2373 157.281 18.48C157.281 18.7227 157.206 18.9233 157.057 19.082C156.917 19.2407 156.698 19.32 156.399 19.32ZM159.684 28V20.524H160.748V23.73H160.58C160.58 22.9927 160.678 22.372 160.874 21.868C161.079 21.3547 161.387 20.9673 161.798 20.706C162.208 20.4353 162.726 20.3 163.352 20.3H163.408C164.35 20.3 165.046 20.594 165.494 21.182C165.951 21.77 166.18 22.6193 166.18 23.73V28H164.836V23.45C164.836 22.8713 164.672 22.4093 164.346 22.064C164.019 21.7093 163.571 21.532 163.002 21.532C162.414 21.532 161.938 21.714 161.574 22.078C161.21 22.442 161.028 22.9273 161.028 23.534V28H159.684ZM168.093 28V26.292H169.717V28H168.093ZM171.743 28V20.524H172.807V23.604H172.751C172.751 22.512 172.989 21.714 173.465 21.21C173.95 20.6967 174.674 20.44 175.635 20.44H175.887V21.644H175.411C174.664 21.644 174.09 21.8447 173.689 22.246C173.288 22.638 173.087 23.2073 173.087 23.954V28H171.743ZM179.795 28.224C178.908 28.224 178.227 27.9347 177.751 27.356C177.275 26.7773 177.037 25.942 177.037 24.85V20.51H178.381V25.116C178.381 25.704 178.54 26.166 178.857 26.502C179.174 26.8287 179.604 26.992 180.145 26.992C180.705 26.992 181.162 26.8147 181.517 26.46C181.872 26.096 182.049 25.6013 182.049 24.976V20.51H183.393V28H182.329V24.794H182.497C182.497 25.5313 182.399 26.1567 182.203 26.67C182.007 27.174 181.713 27.5613 181.321 27.832C180.938 28.0933 180.448 28.224 179.851 28.224H179.795Z" fill="black"/>
</svg>
