<svg width="266" height="46" viewBox="0 0 266 46" fill="none" xmlns="http://www.w3.org/2000/svg">
<rect x="1" y="1" width="264" height="44" rx="3" fill="white"/>
<rect x="1" y="1" width="264" height="44" rx="3" stroke="black" stroke-width="2"/>
<path fill-rule="evenodd" clip-rule="evenodd" d="M17.333 20.6C17.333 18.5496 17.333 17.5244 17.6685 16.717C18.1148 15.639 18.9711 14.7823 20.0489 14.3355C20.8574 14 21.8826 14 23.933 14H32.733C34.7834 14 35.8086 14 36.616 14.3355C37.6941 14.7818 38.5507 15.6381 38.9975 16.7159C39.333 17.5244 39.333 18.5496 39.333 20.6V25C39.333 27.0504 39.333 28.0756 38.9975 28.883C38.5512 29.961 37.695 30.8177 36.6171 31.2645C35.8086 31.6 34.7834 31.6 32.733 31.6H23.933C21.8826 31.6 20.8574 31.6 20.05 31.2645C18.972 30.8182 18.1153 29.9619 17.6685 28.8841C17.333 28.0756 17.333 27.0504 17.333 25V20.6ZM19.533 19.8377V25C19.533 26.056 19.5341 26.7358 19.5693 27.2572C19.6045 27.7599 19.6628 27.9502 19.7013 28.0415C19.8117 28.3085 19.9737 28.5511 20.1779 28.7555C20.3821 28.9599 20.6246 29.1221 20.8915 29.2328C20.9828 29.2702 21.1742 29.3296 21.6758 29.3637C22.1961 29.3989 22.8781 29.4 23.933 29.4H32.733C33.789 29.4 34.4688 29.3989 34.9902 29.3637C35.4929 29.3296 35.6832 29.2702 35.7745 29.2317C36.0415 29.1213 36.2841 28.9593 36.4885 28.7551C36.6929 28.5509 36.8551 28.3084 36.9658 28.0415C37.0032 27.9502 37.0626 27.7599 37.0967 27.2572C37.1319 26.7358 37.133 26.0549 37.133 25V19.852L28.3319 24.9164L19.533 19.8377ZM36.913 17.4408C36.6779 16.9555 36.2728 16.5734 35.7745 16.3672C35.6832 16.3298 35.4929 16.2715 34.9902 16.2363C34.4688 16.2011 33.789 16.2 32.733 16.2H23.933C22.877 16.2 22.1961 16.2011 21.6747 16.2363C21.1742 16.2715 20.9817 16.3298 20.8915 16.3683C20.3978 16.5721 19.995 16.9487 19.7585 17.4276L28.333 22.3776L36.913 17.4408Z" fill="black"/>
<path d="M55.416 27V20.592H56.568V27H55.416ZM54.432 21.504V20.592H56.568V21.504H54.432ZM55.74 19.56C55.484 19.56 55.292 19.492 55.164 19.356C55.044 19.22 54.984 19.048 54.984 18.84C54.984 18.632 55.044 18.46 55.164 18.324C55.292 18.188 55.484 18.12 55.74 18.12C55.996 18.12 56.184 18.188 56.304 18.324C56.432 18.46 56.496 18.632 56.496 18.84C56.496 19.048 56.432 19.22 56.304 19.356C56.184 19.492 55.996 19.56 55.74 19.56ZM58.5554 27V20.592H59.4674V23.34H59.3234C59.3234 22.708 59.4074 22.176 59.5754 21.744C59.7514 21.304 60.0154 20.972 60.3674 20.748C60.7194 20.516 61.1634 20.4 61.6994 20.4H61.7474C62.5554 20.4 63.1514 20.652 63.5354 21.156C63.9274 21.66 64.1234 22.388 64.1234 23.34V27H62.9714V23.1C62.9714 22.604 62.8314 22.208 62.5514 21.912C62.2714 21.608 61.8874 21.456 61.3994 21.456C60.8954 21.456 60.4874 21.612 60.1754 21.924C59.8634 22.236 59.7074 22.652 59.7074 23.172V27H58.5554ZM66.1592 27V20.268C66.1592 19.556 66.3472 19.032 66.7232 18.696C67.0992 18.36 67.6512 18.192 68.3792 18.192H69.1712V19.152H68.1872C67.8912 19.152 67.6632 19.236 67.5032 19.404C67.3432 19.564 67.2632 19.788 67.2632 20.076V27H66.1592ZM65.2712 21.528V20.664H69.2912V21.528H65.2712ZM73.2032 27.216C72.6432 27.216 72.1512 27.12 71.7272 26.928C71.3032 26.736 70.9432 26.484 70.6472 26.172C70.3592 25.852 70.1392 25.496 69.9872 25.104C69.8432 24.712 69.7712 24.312 69.7712 23.904V23.688C69.7712 23.28 69.8472 22.88 69.9992 22.488C70.1512 22.088 70.3752 21.732 70.6712 21.42C70.9672 21.1 71.3272 20.848 71.7512 20.664C72.1752 20.472 72.6592 20.376 73.2032 20.376C73.7472 20.376 74.2312 20.472 74.6552 20.664C75.0792 20.848 75.4392 21.1 75.7352 21.42C76.0312 21.732 76.2552 22.088 76.4072 22.488C76.5592 22.88 76.6352 23.28 76.6352 23.688V23.904C76.6352 24.312 76.5592 24.712 76.4072 25.104C76.2632 25.496 76.0432 25.852 75.7472 26.172C75.4592 26.484 75.1032 26.736 74.6792 26.928C74.2552 27.12 73.7632 27.216 73.2032 27.216ZM73.2032 26.184C73.6832 26.184 74.0912 26.08 74.4272 25.872C74.7712 25.656 75.0312 25.368 75.2072 25.008C75.3912 24.648 75.4832 24.244 75.4832 23.796C75.4832 23.34 75.3912 22.932 75.2072 22.572C75.0232 22.212 74.7592 21.928 74.4152 21.72C74.0792 21.512 73.6752 21.408 73.2032 21.408C72.7392 21.408 72.3352 21.512 71.9912 21.72C71.6472 21.928 71.3832 22.212 71.1992 22.572C71.0152 22.932 70.9232 23.34 70.9232 23.796C70.9232 24.244 71.0112 24.648 71.1872 25.008C71.3712 25.368 71.6312 25.656 71.9672 25.872C72.3112 26.08 72.7232 26.184 73.2032 26.184ZM83.7966 29.916C82.9326 29.916 82.1326 29.772 81.3966 29.484C80.6686 29.204 80.0366 28.8 79.5006 28.272C78.9646 27.752 78.5486 27.132 78.2526 26.412C77.9566 25.684 77.8086 24.88 77.8086 24C77.8086 23.152 77.9526 22.364 78.2406 21.636C78.5286 20.908 78.9366 20.272 79.4646 19.728C80.0006 19.184 80.6406 18.76 81.3846 18.456C82.1286 18.152 82.9526 18 83.8566 18C84.6486 18 85.3966 18.116 86.1006 18.348C86.8046 18.572 87.4286 18.908 87.9726 19.356C88.5166 19.796 88.9406 20.344 89.2446 21C89.5566 21.648 89.7126 22.4 89.7126 23.256C89.7126 23.96 89.6046 24.588 89.3886 25.14C89.1726 25.692 88.8726 26.128 88.4886 26.448C88.1126 26.768 87.6726 26.928 87.1686 26.928C86.7926 26.928 86.4686 26.848 86.1966 26.688C85.9246 26.528 85.7126 26.308 85.5606 26.028C85.4166 25.74 85.3446 25.412 85.3446 25.044V24.3H85.6926C85.6686 24.868 85.5446 25.34 85.3206 25.716C85.1046 26.092 84.8206 26.372 84.4686 26.556C84.1246 26.74 83.7486 26.832 83.3406 26.832C82.8526 26.832 82.4126 26.712 82.0206 26.472C81.6366 26.224 81.3326 25.892 81.1086 25.476C80.8846 25.06 80.7726 24.588 80.7726 24.06V23.868C80.7726 23.34 80.8886 22.872 81.1206 22.464C81.3526 22.056 81.6646 21.736 82.0566 21.504C82.4566 21.272 82.9006 21.156 83.3886 21.156C83.8286 21.156 84.2246 21.252 84.5766 21.444C84.9286 21.636 85.2126 21.912 85.4286 22.272C85.6526 22.632 85.7766 23.072 85.8006 23.592H85.3686V21.324H86.3046V25.02C86.3046 25.244 86.3406 25.428 86.4126 25.572C86.4926 25.716 86.5966 25.824 86.7246 25.896C86.8526 25.96 86.9926 25.992 87.1446 25.992C87.4166 25.992 87.6686 25.884 87.9006 25.668C88.1326 25.444 88.3206 25.132 88.4646 24.732C88.6086 24.332 88.6806 23.856 88.6806 23.304C88.6806 22.576 88.5526 21.94 88.2966 21.396C88.0486 20.852 87.7006 20.4 87.2526 20.04C86.8046 19.68 86.2886 19.412 85.7046 19.236C85.1286 19.052 84.5166 18.96 83.8686 18.96C83.1006 18.96 82.4046 19.088 81.7806 19.344C81.1646 19.6 80.6366 19.96 80.1966 20.424C79.7566 20.88 79.4206 21.416 79.1886 22.032C78.9566 22.64 78.8406 23.3 78.8406 24.012C78.8406 24.988 79.0486 25.848 79.4646 26.592C79.8806 27.328 80.4606 27.9 81.2046 28.308C81.9566 28.724 82.8206 28.932 83.7966 28.932C84.0526 28.932 84.3006 28.916 84.5406 28.884C84.7806 28.86 85.0126 28.82 85.2366 28.764V29.76C85.0126 29.808 84.7806 29.844 84.5406 29.868C84.3006 29.9 84.0526 29.916 83.7966 29.916ZM83.5446 25.92C83.8566 25.92 84.1446 25.848 84.4086 25.704C84.6806 25.56 84.8966 25.348 85.0566 25.068C85.2166 24.788 85.2966 24.448 85.2966 24.048V23.736C85.2966 23.36 85.2126 23.052 85.0446 22.812C84.8766 22.564 84.6606 22.38 84.3966 22.26C84.1326 22.132 83.8486 22.068 83.5446 22.068C83.2006 22.068 82.8966 22.148 82.6326 22.308C82.3766 22.46 82.1766 22.68 82.0326 22.968C81.8966 23.248 81.8286 23.58 81.8286 23.964C81.8286 24.348 81.9006 24.688 82.0446 24.984C82.1886 25.28 82.3886 25.512 82.6446 25.68C82.9006 25.84 83.2006 25.92 83.5446 25.92ZM94.2974 27.216C93.7374 27.216 93.2454 27.12 92.8214 26.928C92.3974 26.736 92.0374 26.484 91.7414 26.172C91.4534 25.852 91.2334 25.496 91.0814 25.104C90.9374 24.712 90.8654 24.312 90.8654 23.904V23.688C90.8654 23.28 90.9414 22.88 91.0934 22.488C91.2454 22.088 91.4694 21.732 91.7654 21.42C92.0614 21.1 92.4214 20.848 92.8454 20.664C93.2694 20.472 93.7534 20.376 94.2974 20.376C94.8414 20.376 95.3254 20.472 95.7494 20.664C96.1734 20.848 96.5334 21.1 96.8294 21.42C97.1254 21.732 97.3494 22.088 97.5014 22.488C97.6534 22.88 97.7294 23.28 97.7294 23.688V23.904C97.7294 24.312 97.6534 24.712 97.5014 25.104C97.3574 25.496 97.1374 25.852 96.8414 26.172C96.5534 26.484 96.1974 26.736 95.7734 26.928C95.3494 27.12 94.8574 27.216 94.2974 27.216ZM94.2974 26.184C94.7774 26.184 95.1854 26.08 95.5214 25.872C95.8654 25.656 96.1254 25.368 96.3014 25.008C96.4854 24.648 96.5774 24.244 96.5774 23.796C96.5774 23.34 96.4854 22.932 96.3014 22.572C96.1174 22.212 95.8534 21.928 95.5094 21.72C95.1734 21.512 94.7694 21.408 94.2974 21.408C93.8334 21.408 93.4294 21.512 93.0854 21.72C92.7414 21.928 92.4774 22.212 92.2934 22.572C92.1094 22.932 92.0174 23.34 92.0174 23.796C92.0174 24.244 92.1054 24.648 92.2814 25.008C92.4654 25.368 92.7254 25.656 93.0614 25.872C93.4054 26.08 93.8174 26.184 94.2974 26.184ZM99.2868 27V18.24H100.439V27H99.2868ZM98.3988 19.152V18.24H100.439V19.152H98.3988ZM105.132 27.216C104.572 27.216 104.088 27.12 103.68 26.928C103.272 26.736 102.94 26.484 102.684 26.172C102.428 25.852 102.236 25.496 102.108 25.104C101.988 24.712 101.928 24.312 101.928 23.904V23.688C101.928 23.272 101.988 22.868 102.108 22.476C102.236 22.084 102.428 21.732 102.684 21.42C102.94 21.1 103.264 20.848 103.656 20.664C104.056 20.472 104.524 20.376 105.06 20.376C105.756 20.376 106.328 20.528 106.776 20.832C107.232 21.128 107.568 21.512 107.784 21.984C108.008 22.456 108.12 22.96 108.12 23.496V24.012H102.432V23.148H107.28L107.016 23.616C107.016 23.16 106.944 22.768 106.8 22.44C106.656 22.104 106.44 21.844 106.152 21.66C105.864 21.476 105.5 21.384 105.06 21.384C104.604 21.384 104.224 21.488 103.92 21.696C103.624 21.904 103.4 22.188 103.248 22.548C103.104 22.908 103.032 23.324 103.032 23.796C103.032 24.252 103.104 24.664 103.248 25.032C103.4 25.392 103.632 25.68 103.944 25.896C104.256 26.104 104.652 26.208 105.132 26.208C105.636 26.208 106.044 26.096 106.356 25.872C106.676 25.648 106.868 25.388 106.932 25.092H108.012C107.924 25.532 107.748 25.912 107.484 26.232C107.22 26.552 106.888 26.796 106.488 26.964C106.088 27.132 105.636 27.216 105.132 27.216ZM111.94 29.496C111.644 29.496 111.344 29.484 111.04 29.46C110.744 29.436 110.46 29.404 110.188 29.364V28.392C110.476 28.432 110.776 28.464 111.088 28.488C111.408 28.52 111.708 28.536 111.988 28.536C112.572 28.536 113.036 28.456 113.38 28.296C113.732 28.144 113.984 27.9 114.136 27.564C114.296 27.236 114.376 26.812 114.376 26.292V25.068L114.76 24.156C114.736 24.804 114.6 25.344 114.352 25.776C114.104 26.2 113.78 26.52 113.38 26.736C112.988 26.944 112.552 27.048 112.072 27.048C111.624 27.048 111.212 26.964 110.836 26.796C110.468 26.62 110.148 26.38 109.876 26.076C109.612 25.772 109.404 25.424 109.252 25.032C109.108 24.632 109.036 24.212 109.036 23.772V23.556C109.036 23.108 109.112 22.692 109.264 22.308C109.416 21.916 109.628 21.576 109.9 21.288C110.172 21 110.496 20.776 110.872 20.616C111.256 20.456 111.676 20.376 112.132 20.376C112.668 20.376 113.14 20.492 113.548 20.724C113.956 20.948 114.276 21.28 114.508 21.72C114.748 22.152 114.88 22.684 114.904 23.316L114.568 23.328V20.592H115.48V26.244C115.48 27.012 115.36 27.632 115.12 28.104C114.888 28.584 114.512 28.936 113.992 29.16C113.48 29.384 112.796 29.496 111.94 29.496ZM112.288 25.992C112.672 25.992 113.02 25.908 113.332 25.74C113.652 25.572 113.904 25.332 114.088 25.02C114.28 24.7 114.376 24.32 114.376 23.88V23.328C114.376 22.896 114.276 22.532 114.076 22.236C113.884 21.94 113.632 21.716 113.32 21.564C113.008 21.412 112.668 21.336 112.3 21.336C111.884 21.336 111.516 21.432 111.196 21.624C110.876 21.816 110.628 22.088 110.452 22.44C110.276 22.784 110.188 23.192 110.188 23.664C110.188 24.136 110.276 24.548 110.452 24.9C110.636 25.252 110.884 25.524 111.196 25.716C111.516 25.9 111.88 25.992 112.288 25.992ZM117.062 24.156V23.172H121.526V24.156H117.062ZM127.597 27L125.185 24.012H124.129L127.069 20.592H128.281L125.617 23.676L125.701 23.064L128.929 27H127.597ZM123.181 27V18.24H124.333V27H123.181ZM131.969 27.192C131.209 27.192 130.625 26.944 130.217 26.448C129.809 25.952 129.605 25.236 129.605 24.3V20.58H130.757V24.528C130.757 25.032 130.893 25.428 131.165 25.716C131.437 25.996 131.805 26.136 132.269 26.136C132.749 26.136 133.141 25.984 133.445 25.68C133.749 25.368 133.901 24.944 133.901 24.408V20.58H135.053V27H134.141V24.252H134.285C134.285 24.884 134.201 25.42 134.033 25.86C133.865 26.292 133.613 26.624 133.277 26.856C132.949 27.08 132.529 27.192 132.017 27.192H131.969ZM136.636 27V25.716L140.128 21.528V21.72L139.936 21.432L140.092 21.504H136.588V20.592H141.148V21.876L137.656 26.064V25.896L137.872 26.196L137.704 26.088H141.34V27H136.636ZM142.664 27V20.592H143.576V23.34H143.432C143.432 22.716 143.512 22.188 143.672 21.756C143.84 21.316 144.088 20.98 144.416 20.748C144.744 20.516 145.16 20.4 145.664 20.4H145.712C146.216 20.4 146.632 20.516 146.96 20.748C147.296 20.98 147.544 21.316 147.704 21.756C147.864 22.188 147.944 22.716 147.944 23.34H147.608C147.608 22.716 147.692 22.188 147.86 21.756C148.028 21.316 148.276 20.98 148.604 20.748C148.94 20.516 149.36 20.4 149.864 20.4H149.912C150.416 20.4 150.836 20.516 151.172 20.748C151.508 20.98 151.756 21.316 151.916 21.756C152.084 22.188 152.168 22.716 152.168 23.34V27H151.016V23.088C151.016 22.568 150.888 22.168 150.632 21.888C150.376 21.6 150.02 21.456 149.564 21.456C149.092 21.456 148.712 21.608 148.424 21.912C148.136 22.208 147.992 22.624 147.992 23.16V27H146.84V23.088C146.84 22.568 146.712 22.168 146.456 21.888C146.2 21.6 145.844 21.456 145.388 21.456C144.916 21.456 144.536 21.608 144.248 21.912C143.96 22.208 143.816 22.624 143.816 23.16V27H142.664ZM154.349 27V20.592H155.501V27H154.349ZM153.365 21.504V20.592H155.501V21.504H153.365ZM154.673 19.56C154.417 19.56 154.225 19.492 154.097 19.356C153.977 19.22 153.917 19.048 153.917 18.84C153.917 18.632 153.977 18.46 154.097 18.324C154.225 18.188 154.417 18.12 154.673 18.12C154.929 18.12 155.117 18.188 155.237 18.324C155.365 18.46 155.429 18.632 155.429 18.84C155.429 19.048 155.365 19.22 155.237 19.356C155.117 19.492 154.929 19.56 154.673 19.56ZM157.488 27V20.592H158.4V23.34H158.256C158.256 22.708 158.34 22.176 158.508 21.744C158.684 21.304 158.948 20.972 159.3 20.748C159.652 20.516 160.096 20.4 160.632 20.4H160.68C161.488 20.4 162.084 20.652 162.468 21.156C162.86 21.66 163.056 22.388 163.056 23.34V27H161.904V23.1C161.904 22.604 161.764 22.208 161.484 21.912C161.204 21.608 160.82 21.456 160.332 21.456C159.828 21.456 159.42 21.612 159.108 21.924C158.796 22.236 158.64 22.652 158.64 23.172V27H157.488ZM164.696 27V25.536H166.088V27H164.696ZM167.825 27V20.592H168.737V23.232H168.689C168.689 22.296 168.893 21.612 169.301 21.18C169.717 20.74 170.337 20.52 171.161 20.52H171.377V21.552H170.969C170.329 21.552 169.837 21.724 169.493 22.068C169.149 22.404 168.977 22.892 168.977 23.532V27H167.825ZM174.727 27.192C173.967 27.192 173.383 26.944 172.975 26.448C172.567 25.952 172.363 25.236 172.363 24.3V20.58H173.515V24.528C173.515 25.032 173.651 25.428 173.923 25.716C174.195 25.996 174.563 26.136 175.027 26.136C175.507 26.136 175.899 25.984 176.203 25.68C176.507 25.368 176.659 24.944 176.659 24.408V20.58H177.811V27H176.899V24.252H177.043C177.043 24.884 176.959 25.42 176.791 25.86C176.623 26.292 176.371 26.624 176.035 26.856C175.707 27.08 175.287 27.192 174.775 27.192H174.727Z" fill="black"/>
</svg>
