<svg width="280" height="36" viewBox="0 0 280 36" fill="none" xmlns="http://www.w3.org/2000/svg">
<rect width="280" height="36" rx="4" fill="white"/>
<path d="M44.556 21.516V14.852H45.704V21.516H44.556ZM41.924 18.716V17.652H48.336V18.716H41.924ZM50.9938 23L55.3198 14.054L55.2358 13.928H49.6498V12.78H56.5098V14.404L52.3938 23H50.9938ZM49.6498 15.552V12.78H50.7698V15.552H49.6498ZM63.1424 25.548C62.6478 24.9787 62.2091 24.358 61.8264 23.686C61.4531 23.0233 61.1638 22.2907 60.9584 21.488C60.7531 20.676 60.6504 19.7753 60.6504 18.786C60.6504 17.7967 60.7531 16.9007 60.9584 16.098C61.1731 15.2953 61.4671 14.5673 61.8404 13.914C62.2231 13.2607 62.6571 12.668 63.1424 12.136H64.6824C64.1038 12.7613 63.6091 13.41 63.1984 14.082C62.7971 14.754 62.4891 15.4773 62.2744 16.252C62.0691 17.0173 61.9664 17.862 61.9664 18.786C61.9664 19.71 62.0691 20.564 62.2744 21.348C62.4798 22.1227 62.7831 22.8507 63.1844 23.532C63.5951 24.2227 64.0944 24.8947 64.6824 25.548H63.1424ZM68.9661 12.5C69.7128 12.5 70.3334 12.6307 70.8281 12.892C71.3321 13.1533 71.7288 13.5127 72.0181 13.97C72.3168 14.418 72.5268 14.936 72.6481 15.524C72.7788 16.112 72.8441 16.728 72.8441 17.372V18.044C72.8441 19.6587 72.4428 20.9047 71.6401 21.782C70.8374 22.65 69.6754 23.084 68.1541 23.084C67.7901 23.084 67.4821 23.0747 67.2301 23.056C66.9781 23.0373 66.7028 23.0093 66.4041 22.972V21.824C66.7121 21.8613 66.9968 21.8893 67.2581 21.908C67.5194 21.9267 67.8368 21.936 68.2101 21.936C69.0594 21.936 69.7314 21.7773 70.2261 21.46C70.7208 21.1427 71.0754 20.69 71.2901 20.102C71.5048 19.5047 71.6121 18.786 71.6121 17.946V17.316L71.9481 16.07C71.9388 16.8073 71.7941 17.4187 71.5141 17.904C71.2434 18.3893 70.8654 18.7533 70.3801 18.996C69.9041 19.2387 69.3534 19.36 68.7281 19.36C68.0001 19.36 67.3841 19.2153 66.8801 18.926C66.3761 18.6273 65.9934 18.2213 65.7321 17.708C65.4801 17.1947 65.3541 16.6113 65.3541 15.958C65.3541 15.2953 65.4894 14.7027 65.7601 14.18C66.0308 13.6573 66.4321 13.2467 66.9641 12.948C67.5054 12.6493 68.1728 12.5 68.9661 12.5ZM68.9661 13.676C68.4528 13.676 68.0234 13.774 67.6781 13.97C67.3328 14.166 67.0714 14.4367 66.8941 14.782C66.7261 15.118 66.6421 15.51 66.6421 15.958C66.6421 16.406 66.7261 16.8027 66.8941 17.148C67.0621 17.4933 67.3094 17.764 67.6361 17.96C67.9721 18.1467 68.3828 18.24 68.8681 18.24C69.3441 18.24 69.7688 18.1513 70.1421 17.974C70.5248 17.7967 70.8234 17.54 71.0381 17.204C71.2528 16.8587 71.3601 16.4387 71.3601 15.944C71.3601 15.5333 71.2761 15.1553 71.1081 14.81C70.9401 14.4647 70.6788 14.1893 70.3241 13.984C69.9694 13.7787 69.5168 13.676 68.9661 13.676ZM74.6386 23V21.32C74.6386 20.9093 74.6946 20.5593 74.8066 20.27C74.9279 19.9807 75.1333 19.7193 75.4226 19.486C75.7119 19.2433 76.1039 19.01 76.5986 18.786L78.5166 17.904C78.9833 17.6893 79.3519 17.414 79.6226 17.078C79.8933 16.7327 80.0286 16.2893 80.0286 15.748C80.0286 15.0947 79.8466 14.586 79.4826 14.222C79.1186 13.858 78.6053 13.676 77.9426 13.676C77.2893 13.676 76.7759 13.858 76.4026 14.222C76.0293 14.586 75.8426 15.0947 75.8426 15.748H74.5266C74.5266 15.16 74.6479 14.6187 74.8906 14.124C75.1426 13.6293 75.5206 13.2373 76.0246 12.948C76.5286 12.6493 77.1679 12.5 77.9426 12.5C78.7173 12.5 79.3519 12.6493 79.8466 12.948C80.3506 13.2373 80.7239 13.62 80.9666 14.096C81.2186 14.572 81.3446 15.09 81.3446 15.65V15.846C81.3446 16.5833 81.1299 17.204 80.7006 17.708C80.2806 18.212 79.7113 18.6273 78.9926 18.954L77.0746 19.836C76.6453 20.032 76.3559 20.228 76.2066 20.424C76.0573 20.62 75.9826 20.8813 75.9826 21.208V22.496L75.6186 21.852H81.4706V23H74.6386ZM84.8049 23V13.452L85.4209 13.928H82.5369V12.78H86.1489V23H84.8049ZM89.3118 25.548H87.7718C88.3598 24.8947 88.8545 24.2227 89.2558 23.532C89.6665 22.8507 89.9745 22.1227 90.1798 21.348C90.3851 20.564 90.4878 19.71 90.4878 18.786C90.4878 17.862 90.3805 17.0173 90.1658 16.252C89.9605 15.4773 89.6525 14.754 89.2418 14.082C88.8405 13.41 88.3505 12.7613 87.7718 12.136H89.3118C89.7971 12.668 90.2265 13.2607 90.5998 13.914C90.9825 14.5673 91.2765 15.2953 91.4818 16.098C91.6965 16.9007 91.8038 17.7967 91.8038 18.786C91.8038 19.7753 91.7011 20.676 91.4958 21.488C91.2905 22.2907 90.9965 23.0233 90.6138 23.686C90.2405 24.358 89.8065 24.9787 89.3118 25.548ZM99.889 23.252C99.161 23.252 98.5124 23.1213 97.943 22.86C97.383 22.5987 96.9397 22.2347 96.613 21.768C96.2957 21.3013 96.137 20.76 96.137 20.144C96.137 19.7333 96.2164 19.3647 96.375 19.038C96.5337 18.702 96.753 18.4127 97.033 18.17C97.313 17.9273 97.6304 17.7407 97.985 17.61V17.47C97.705 17.3487 97.4484 17.1853 97.215 16.98C96.991 16.7747 96.809 16.532 96.669 16.252C96.5384 15.972 96.473 15.6547 96.473 15.3C96.473 14.712 96.627 14.2127 96.935 13.802C97.2524 13.3913 97.6677 13.0787 98.181 12.864C98.7037 12.64 99.273 12.528 99.889 12.528C100.514 12.528 101.084 12.64 101.597 12.864C102.12 13.0787 102.535 13.3913 102.843 13.802C103.151 14.2127 103.305 14.712 103.305 15.3C103.305 15.6547 103.24 15.972 103.109 16.252C102.978 16.532 102.796 16.7747 102.563 16.98C102.339 17.1853 102.082 17.3487 101.793 17.47V17.61C102.157 17.7407 102.479 17.932 102.759 18.184C103.039 18.4267 103.258 18.716 103.417 19.052C103.576 19.3787 103.655 19.7427 103.655 20.144C103.655 20.76 103.492 21.3013 103.165 21.768C102.848 22.2347 102.404 22.5987 101.835 22.86C101.275 23.1213 100.626 23.252 99.889 23.252ZM99.889 22.104C100.402 22.104 100.841 22.0247 101.205 21.866C101.569 21.698 101.849 21.4647 102.045 21.166C102.241 20.858 102.339 20.4987 102.339 20.088C102.339 19.6773 102.241 19.3227 102.045 19.024C101.858 18.7253 101.583 18.4967 101.219 18.338C100.855 18.17 100.412 18.086 99.889 18.086C99.3757 18.086 98.937 18.17 98.573 18.338C98.209 18.4967 97.929 18.7253 97.733 19.024C97.5464 19.3227 97.453 19.6773 97.453 20.088C97.453 20.4987 97.5464 20.858 97.733 21.166C97.929 21.4647 98.209 21.698 98.573 21.866C98.937 22.0247 99.3757 22.104 99.889 22.104ZM99.889 17.022C100.524 17.022 101.032 16.8867 101.415 16.616C101.798 16.336 101.989 15.9113 101.989 15.342C101.989 14.7633 101.793 14.3433 101.401 14.082C101.018 13.8113 100.514 13.676 99.889 13.676C99.2637 13.676 98.755 13.8113 98.363 14.082C97.9804 14.3527 97.789 14.7727 97.789 15.342C97.789 15.9113 97.9804 16.336 98.363 16.616C98.755 16.8867 99.2637 17.022 99.889 17.022ZM108.411 12.5C109.158 12.5 109.778 12.6307 110.273 12.892C110.777 13.1533 111.174 13.5127 111.463 13.97C111.762 14.418 111.972 14.936 112.093 15.524C112.224 16.112 112.289 16.728 112.289 17.372V18.044C112.289 19.6587 111.888 20.9047 111.085 21.782C110.282 22.65 109.12 23.084 107.599 23.084C107.235 23.084 106.927 23.0747 106.675 23.056C106.423 23.0373 106.148 23.0093 105.849 22.972V21.824C106.157 21.8613 106.442 21.8893 106.703 21.908C106.964 21.9267 107.282 21.936 107.655 21.936C108.504 21.936 109.176 21.7773 109.671 21.46C110.166 21.1427 110.52 20.69 110.735 20.102C110.95 19.5047 111.057 18.786 111.057 17.946V17.316L111.393 16.07C111.384 16.8073 111.239 17.4187 110.959 17.904C110.688 18.3893 110.31 18.7533 109.825 18.996C109.349 19.2387 108.798 19.36 108.173 19.36C107.445 19.36 106.829 19.2153 106.325 18.926C105.821 18.6273 105.438 18.2213 105.177 17.708C104.925 17.1947 104.799 16.6113 104.799 15.958C104.799 15.2953 104.934 14.7027 105.205 14.18C105.476 13.6573 105.877 13.2467 106.409 12.948C106.95 12.6493 107.618 12.5 108.411 12.5ZM108.411 13.676C107.898 13.676 107.468 13.774 107.123 13.97C106.778 14.166 106.516 14.4367 106.339 14.782C106.171 15.118 106.087 15.51 106.087 15.958C106.087 16.406 106.171 16.8027 106.339 17.148C106.507 17.4933 106.754 17.764 107.081 17.96C107.417 18.1467 107.828 18.24 108.313 18.24C108.789 18.24 109.214 18.1513 109.587 17.974C109.97 17.7967 110.268 17.54 110.483 17.204C110.698 16.8587 110.805 16.4387 110.805 15.944C110.805 15.5333 110.721 15.1553 110.553 14.81C110.385 14.4647 110.124 14.1893 109.769 13.984C109.414 13.7787 108.962 13.676 108.411 13.676ZM117.36 12.5C118.106 12.5 118.727 12.6307 119.222 12.892C119.726 13.1533 120.122 13.5127 120.412 13.97C120.71 14.418 120.92 14.936 121.042 15.524C121.172 16.112 121.238 16.728 121.238 17.372V18.044C121.238 19.6587 120.836 20.9047 120.034 21.782C119.231 22.65 118.069 23.084 116.548 23.084C116.184 23.084 115.876 23.0747 115.624 23.056C115.372 23.0373 115.096 23.0093 114.798 22.972V21.824C115.106 21.8613 115.39 21.8893 115.652 21.908C115.913 21.9267 116.23 21.936 116.604 21.936C117.453 21.936 118.125 21.7773 118.62 21.46C119.114 21.1427 119.469 20.69 119.684 20.102C119.898 19.5047 120.006 18.786 120.006 17.946V17.316L120.342 16.07C120.332 16.8073 120.188 17.4187 119.908 17.904C119.637 18.3893 119.259 18.7533 118.774 18.996C118.298 19.2387 117.747 19.36 117.122 19.36C116.394 19.36 115.778 19.2153 115.274 18.926C114.77 18.6273 114.387 18.2213 114.126 17.708C113.874 17.1947 113.748 16.6113 113.748 15.958C113.748 15.2953 113.883 14.7027 114.154 14.18C114.424 13.6573 114.826 13.2467 115.358 12.948C115.899 12.6493 116.566 12.5 117.36 12.5ZM117.36 13.676C116.846 13.676 116.417 13.774 116.072 13.97C115.726 14.166 115.465 14.4367 115.288 14.782C115.12 15.118 115.036 15.51 115.036 15.958C115.036 16.406 115.12 16.8027 115.288 17.148C115.456 17.4933 115.703 17.764 116.03 17.96C116.366 18.1467 116.776 18.24 117.262 18.24C117.738 18.24 118.162 18.1513 118.536 17.974C118.918 17.7967 119.217 17.54 119.432 17.204C119.646 16.8587 119.754 16.4387 119.754 15.944C119.754 15.5333 119.67 15.1553 119.502 14.81C119.334 14.4647 119.072 14.1893 118.718 13.984C118.363 13.7787 117.91 13.676 117.36 13.676ZM122.892 19.682V18.534H128.1V19.682H122.892ZM129.415 20.578V18.926L133.657 12.528L134.595 13.27L130.633 19.262L130.759 19.514H137.367V20.578H129.415ZM134.749 23V15.762H136.009V23H134.749ZM142.653 23.252C141.888 23.252 141.235 23.1213 140.693 22.86C140.161 22.5893 139.727 22.2253 139.391 21.768C139.065 21.3107 138.827 20.7833 138.677 20.186C138.528 19.5793 138.453 18.94 138.453 18.268V17.512C138.453 16.5693 138.598 15.72 138.887 14.964C139.186 14.208 139.643 13.6107 140.259 13.172C140.885 12.724 141.683 12.5 142.653 12.5C143.624 12.5 144.417 12.724 145.033 13.172C145.649 13.6107 146.102 14.208 146.391 14.964C146.69 15.72 146.839 16.5693 146.839 17.512V18.268C146.839 18.94 146.765 19.5793 146.615 20.186C146.466 20.7833 146.223 21.3107 145.887 21.768C145.561 22.2253 145.131 22.5893 144.599 22.86C144.067 23.1213 143.419 23.252 142.653 23.252ZM142.653 22.02C143.624 22.02 144.333 21.6933 144.781 21.04C145.239 20.3773 145.467 19.332 145.467 17.904C145.467 16.4107 145.234 15.342 144.767 14.698C144.31 14.054 143.605 13.732 142.653 13.732C141.692 13.732 140.978 14.054 140.511 14.698C140.054 15.342 139.825 16.4013 139.825 17.876C139.825 19.3133 140.054 20.3633 140.511 21.026C140.969 21.6887 141.683 22.02 142.653 22.02ZM148.494 19.682V18.534H153.702V19.682H148.494ZM159.23 23.28C158.484 23.28 157.858 23.1493 157.354 22.888C156.86 22.6267 156.463 22.272 156.164 21.824C155.875 21.3667 155.665 20.844 155.534 20.256C155.413 19.668 155.352 19.052 155.352 18.408V17.736C155.352 16.1213 155.754 14.88 156.556 14.012C157.359 13.1347 158.521 12.696 160.042 12.696C160.406 12.696 160.714 12.7053 160.966 12.724C161.218 12.7427 161.494 12.7707 161.792 12.808V13.956C161.484 13.9187 161.2 13.8907 160.938 13.872C160.677 13.8533 160.36 13.844 159.986 13.844C159.137 13.844 158.465 14.0027 157.97 14.32C157.476 14.6373 157.121 15.0947 156.906 15.692C156.692 16.28 156.584 16.994 156.584 17.834V18.464L156.248 19.71C156.258 18.9727 156.398 18.3613 156.668 17.876C156.948 17.3907 157.326 17.0267 157.802 16.784C158.288 16.5413 158.843 16.42 159.468 16.42C160.196 16.42 160.812 16.5693 161.316 16.868C161.82 17.1573 162.198 17.5587 162.45 18.072C162.712 18.5853 162.842 19.1687 162.842 19.822C162.842 20.4847 162.707 21.0773 162.436 21.6C162.166 22.1227 161.76 22.5333 161.218 22.832C160.686 23.1307 160.024 23.28 159.23 23.28ZM159.23 22.104C159.744 22.104 160.173 22.006 160.518 21.81C160.864 21.614 161.12 21.348 161.288 21.012C161.466 20.6667 161.554 20.27 161.554 19.822C161.554 19.374 161.47 18.9773 161.302 18.632C161.134 18.2867 160.882 18.0207 160.546 17.834C160.22 17.638 159.814 17.54 159.328 17.54C158.852 17.54 158.423 17.6287 158.04 17.806C157.667 17.9833 157.373 18.2447 157.158 18.59C156.944 18.926 156.836 19.3413 156.836 19.836C156.836 20.2467 156.92 20.6247 157.088 20.97C157.256 21.3153 157.518 21.5907 157.872 21.796C158.227 22.0013 158.68 22.104 159.23 22.104ZM164.357 23V21.32C164.357 20.9093 164.413 20.5593 164.525 20.27C164.646 19.9807 164.851 19.7193 165.141 19.486C165.43 19.2433 165.822 19.01 166.317 18.786L168.235 17.904C168.701 17.6893 169.07 17.414 169.341 17.078C169.611 16.7327 169.747 16.2893 169.747 15.748C169.747 15.0947 169.565 14.586 169.201 14.222C168.837 13.858 168.323 13.676 167.661 13.676C167.007 13.676 166.494 13.858 166.121 14.222C165.747 14.586 165.561 15.0947 165.561 15.748H164.245C164.245 15.16 164.366 14.6187 164.609 14.124C164.861 13.6293 165.239 13.2373 165.743 12.948C166.247 12.6493 166.886 12.5 167.661 12.5C168.435 12.5 169.07 12.6493 169.565 12.948C170.069 13.2373 170.442 13.62 170.685 14.096C170.937 14.572 171.063 15.09 171.063 15.65V15.846C171.063 16.5833 170.848 17.204 170.419 17.708C169.999 18.212 169.429 18.6273 168.711 18.954L166.793 19.836C166.363 20.032 166.074 20.228 165.925 20.424C165.775 20.62 165.701 20.8813 165.701 21.208V22.496L165.337 21.852H171.189V23H164.357Z" fill="black"/>
<path fill-rule="evenodd" clip-rule="evenodd" d="M7.74013 11.4675C8.0301 10.9865 9.62869 9.24023 10.7678 9.29295C11.1086 9.32212 11.4099 9.52734 11.6547 9.76646C12.2158 10.3162 13.8266 12.391 13.917 12.8278C14.1401 13.899 12.8626 14.5166 13.2533 15.5963C14.2493 18.0335 15.9656 19.7496 18.404 20.7446C19.4829 21.1362 20.1005 19.8598 21.1718 20.0819C21.6086 20.1732 23.6846 21.7821 24.2334 22.344C24.4716 22.5878 24.6787 22.89 24.7069 23.2308C24.7494 24.431 22.8947 26.0512 22.5332 26.2582C21.6803 26.8692 20.5675 26.8579 19.2108 26.2272C15.4252 24.6522 9.37543 18.717 7.7712 14.7886C7.15738 13.4397 7.11595 12.3194 7.74013 11.4675Z" stroke="black" stroke-width="2" stroke-linecap="round" stroke-linejoin="round"/>
<path d="M18.3516 9.52106C21.7451 9.89781 24.4244 12.5745 24.8059 15.9671" stroke="black" stroke-width="2" stroke-linecap="round" stroke-linejoin="round"/>
<path d="M18.3516 12.7686C19.9741 13.0848 21.2419 14.3526 21.5581 15.9751" stroke="black" stroke-width="2" stroke-linecap="round" stroke-linejoin="round"/>
</svg>
