<svg width="280" height="40" viewBox="0 0 280 40" fill="none" xmlns="http://www.w3.org/2000/svg">
<rect width="280" height="40" rx="4" fill="white"/>
<path fill-rule="evenodd" clip-rule="evenodd" d="M7.74013 13.4675C8.0301 12.9865 9.62869 11.2402 10.7678 11.2929C11.1086 11.3221 11.4099 11.5273 11.6547 11.7665C12.2158 12.3162 13.8266 14.391 13.917 14.8278C14.1401 15.899 12.8626 16.5166 13.2533 17.5963C14.2493 20.0335 15.9656 21.7496 18.404 22.7446C19.4829 23.1362 20.1005 21.8598 21.1718 22.0819C21.6086 22.1732 23.6846 23.7821 24.2334 24.344C24.4716 24.5878 24.6787 24.89 24.7069 25.2308C24.7494 26.431 22.8947 28.0512 22.5332 28.2582C21.6803 28.8692 20.5675 28.8579 19.2108 28.2272C15.4252 26.6522 9.37543 20.717 7.7712 16.7886C7.15738 15.4397 7.11595 14.3194 7.74013 13.4675Z" stroke="black" stroke-width="2" stroke-linecap="round" stroke-linejoin="round"/>
<path d="M18.3516 11.5211C21.7451 11.8978 24.4244 14.5745 24.8059 17.9671" stroke="black" stroke-width="2" stroke-linecap="round" stroke-linejoin="round"/>
<path d="M18.3516 14.7686C19.9741 15.0848 21.2419 16.3526 21.5581 17.9751" stroke="black" stroke-width="2" stroke-linecap="round" stroke-linejoin="round"/>
<path d="M44.556 23.516V16.852H45.704V23.516H44.556ZM41.924 20.716V19.652H48.336V20.716H41.924ZM50.9938 25L55.3198 16.054L55.2358 15.928H49.6498V14.78H56.5098V16.404L52.3938 25H50.9938ZM49.6498 17.552V14.78H50.7698V17.552H49.6498ZM63.1424 27.548C62.6478 26.9787 62.2091 26.358 61.8264 25.686C61.4531 25.0233 61.1638 24.2907 60.9584 23.488C60.7531 22.676 60.6504 21.7753 60.6504 20.786C60.6504 19.7967 60.7531 18.9007 60.9584 18.098C61.1731 17.2953 61.4671 16.5673 61.8404 15.914C62.2231 15.2607 62.6571 14.668 63.1424 14.136H64.6824C64.1038 14.7613 63.6091 15.41 63.1984 16.082C62.7971 16.754 62.4891 17.4773 62.2744 18.252C62.0691 19.0173 61.9664 19.862 61.9664 20.786C61.9664 21.71 62.0691 22.564 62.2744 23.348C62.4798 24.1227 62.7831 24.8507 63.1844 25.532C63.5951 26.2227 64.0944 26.8947 64.6824 27.548H63.1424ZM68.9661 14.5C69.7128 14.5 70.3334 14.6307 70.8281 14.892C71.3321 15.1533 71.7288 15.5127 72.0181 15.97C72.3168 16.418 72.5268 16.936 72.6481 17.524C72.7788 18.112 72.8441 18.728 72.8441 19.372V20.044C72.8441 21.6587 72.4428 22.9047 71.6401 23.782C70.8374 24.65 69.6754 25.084 68.1541 25.084C67.7901 25.084 67.4821 25.0747 67.2301 25.056C66.9781 25.0373 66.7028 25.0093 66.4041 24.972V23.824C66.7121 23.8613 66.9968 23.8893 67.2581 23.908C67.5194 23.9267 67.8368 23.936 68.2101 23.936C69.0594 23.936 69.7314 23.7773 70.2261 23.46C70.7208 23.1427 71.0754 22.69 71.2901 22.102C71.5048 21.5047 71.6121 20.786 71.6121 19.946V19.316L71.9481 18.07C71.9388 18.8073 71.7941 19.4187 71.5141 19.904C71.2434 20.3893 70.8654 20.7533 70.3801 20.996C69.9041 21.2387 69.3534 21.36 68.7281 21.36C68.0001 21.36 67.3841 21.2153 66.8801 20.926C66.3761 20.6273 65.9934 20.2213 65.7321 19.708C65.4801 19.1947 65.3541 18.6113 65.3541 17.958C65.3541 17.2953 65.4894 16.7027 65.7601 16.18C66.0308 15.6573 66.4321 15.2467 66.9641 14.948C67.5054 14.6493 68.1728 14.5 68.9661 14.5ZM68.9661 15.676C68.4528 15.676 68.0234 15.774 67.6781 15.97C67.3328 16.166 67.0714 16.4367 66.8941 16.782C66.7261 17.118 66.6421 17.51 66.6421 17.958C66.6421 18.406 66.7261 18.8027 66.8941 19.148C67.0621 19.4933 67.3094 19.764 67.6361 19.96C67.9721 20.1467 68.3828 20.24 68.8681 20.24C69.3441 20.24 69.7688 20.1513 70.1421 19.974C70.5248 19.7967 70.8234 19.54 71.0381 19.204C71.2528 18.8587 71.3601 18.4387 71.3601 17.944C71.3601 17.5333 71.2761 17.1553 71.1081 16.81C70.9401 16.4647 70.6788 16.1893 70.3241 15.984C69.9694 15.7787 69.5168 15.676 68.9661 15.676ZM74.6386 25V23.32C74.6386 22.9093 74.6946 22.5593 74.8066 22.27C74.9279 21.9807 75.1333 21.7193 75.4226 21.486C75.7119 21.2433 76.1039 21.01 76.5986 20.786L78.5166 19.904C78.9833 19.6893 79.3519 19.414 79.6226 19.078C79.8933 18.7327 80.0286 18.2893 80.0286 17.748C80.0286 17.0947 79.8466 16.586 79.4826 16.222C79.1186 15.858 78.6053 15.676 77.9426 15.676C77.2893 15.676 76.7759 15.858 76.4026 16.222C76.0293 16.586 75.8426 17.0947 75.8426 17.748H74.5266C74.5266 17.16 74.6479 16.6187 74.8906 16.124C75.1426 15.6293 75.5206 15.2373 76.0246 14.948C76.5286 14.6493 77.1679 14.5 77.9426 14.5C78.7173 14.5 79.3519 14.6493 79.8466 14.948C80.3506 15.2373 80.7239 15.62 80.9666 16.096C81.2186 16.572 81.3446 17.09 81.3446 17.65V17.846C81.3446 18.5833 81.1299 19.204 80.7006 19.708C80.2806 20.212 79.7113 20.6273 78.9926 20.954L77.0746 21.836C76.6453 22.032 76.3559 22.228 76.2066 22.424C76.0573 22.62 75.9826 22.8813 75.9826 23.208V24.496L75.6186 23.852H81.4706V25H74.6386ZM84.8049 25V15.452L85.4209 15.928H82.5369V14.78H86.1489V25H84.8049ZM89.3118 27.548H87.7718C88.3598 26.8947 88.8545 26.2227 89.2558 25.532C89.6665 24.8507 89.9745 24.1227 90.1798 23.348C90.3851 22.564 90.4878 21.71 90.4878 20.786C90.4878 19.862 90.3805 19.0173 90.1658 18.252C89.9605 17.4773 89.6525 16.754 89.2418 16.082C88.8405 15.41 88.3505 14.7613 87.7718 14.136H89.3118C89.7971 14.668 90.2265 15.2607 90.5998 15.914C90.9825 16.5673 91.2765 17.2953 91.4818 18.098C91.6965 18.9007 91.8038 19.7967 91.8038 20.786C91.8038 21.7753 91.7011 22.676 91.4958 23.488C91.2905 24.2907 90.9965 25.0233 90.6138 25.686C90.2405 26.358 89.8065 26.9787 89.3118 27.548ZM99.889 25.252C99.161 25.252 98.5124 25.1213 97.943 24.86C97.383 24.5987 96.9397 24.2347 96.613 23.768C96.2957 23.3013 96.137 22.76 96.137 22.144C96.137 21.7333 96.2164 21.3647 96.375 21.038C96.5337 20.702 96.753 20.4127 97.033 20.17C97.313 19.9273 97.6304 19.7407 97.985 19.61V19.47C97.705 19.3487 97.4484 19.1853 97.215 18.98C96.991 18.7747 96.809 18.532 96.669 18.252C96.5384 17.972 96.473 17.6547 96.473 17.3C96.473 16.712 96.627 16.2127 96.935 15.802C97.2524 15.3913 97.6677 15.0787 98.181 14.864C98.7037 14.64 99.273 14.528 99.889 14.528C100.514 14.528 101.084 14.64 101.597 14.864C102.12 15.0787 102.535 15.3913 102.843 15.802C103.151 16.2127 103.305 16.712 103.305 17.3C103.305 17.6547 103.24 17.972 103.109 18.252C102.978 18.532 102.796 18.7747 102.563 18.98C102.339 19.1853 102.082 19.3487 101.793 19.47V19.61C102.157 19.7407 102.479 19.932 102.759 20.184C103.039 20.4267 103.258 20.716 103.417 21.052C103.576 21.3787 103.655 21.7427 103.655 22.144C103.655 22.76 103.492 23.3013 103.165 23.768C102.848 24.2347 102.404 24.5987 101.835 24.86C101.275 25.1213 100.626 25.252 99.889 25.252ZM99.889 24.104C100.402 24.104 100.841 24.0247 101.205 23.866C101.569 23.698 101.849 23.4647 102.045 23.166C102.241 22.858 102.339 22.4987 102.339 22.088C102.339 21.6773 102.241 21.3227 102.045 21.024C101.858 20.7253 101.583 20.4967 101.219 20.338C100.855 20.17 100.412 20.086 99.889 20.086C99.3757 20.086 98.937 20.17 98.573 20.338C98.209 20.4967 97.929 20.7253 97.733 21.024C97.5464 21.3227 97.453 21.6773 97.453 22.088C97.453 22.4987 97.5464 22.858 97.733 23.166C97.929 23.4647 98.209 23.698 98.573 23.866C98.937 24.0247 99.3757 24.104 99.889 24.104ZM99.889 19.022C100.524 19.022 101.032 18.8867 101.415 18.616C101.798 18.336 101.989 17.9113 101.989 17.342C101.989 16.7633 101.793 16.3433 101.401 16.082C101.018 15.8113 100.514 15.676 99.889 15.676C99.2637 15.676 98.755 15.8113 98.363 16.082C97.9804 16.3527 97.789 16.7727 97.789 17.342C97.789 17.9113 97.9804 18.336 98.363 18.616C98.755 18.8867 99.2637 19.022 99.889 19.022ZM108.411 14.5C109.158 14.5 109.778 14.6307 110.273 14.892C110.777 15.1533 111.174 15.5127 111.463 15.97C111.762 16.418 111.972 16.936 112.093 17.524C112.224 18.112 112.289 18.728 112.289 19.372V20.044C112.289 21.6587 111.888 22.9047 111.085 23.782C110.282 24.65 109.12 25.084 107.599 25.084C107.235 25.084 106.927 25.0747 106.675 25.056C106.423 25.0373 106.148 25.0093 105.849 24.972V23.824C106.157 23.8613 106.442 23.8893 106.703 23.908C106.964 23.9267 107.282 23.936 107.655 23.936C108.504 23.936 109.176 23.7773 109.671 23.46C110.166 23.1427 110.52 22.69 110.735 22.102C110.95 21.5047 111.057 20.786 111.057 19.946V19.316L111.393 18.07C111.384 18.8073 111.239 19.4187 110.959 19.904C110.688 20.3893 110.31 20.7533 109.825 20.996C109.349 21.2387 108.798 21.36 108.173 21.36C107.445 21.36 106.829 21.2153 106.325 20.926C105.821 20.6273 105.438 20.2213 105.177 19.708C104.925 19.1947 104.799 18.6113 104.799 17.958C104.799 17.2953 104.934 16.7027 105.205 16.18C105.476 15.6573 105.877 15.2467 106.409 14.948C106.95 14.6493 107.618 14.5 108.411 14.5ZM108.411 15.676C107.898 15.676 107.468 15.774 107.123 15.97C106.778 16.166 106.516 16.4367 106.339 16.782C106.171 17.118 106.087 17.51 106.087 17.958C106.087 18.406 106.171 18.8027 106.339 19.148C106.507 19.4933 106.754 19.764 107.081 19.96C107.417 20.1467 107.828 20.24 108.313 20.24C108.789 20.24 109.214 20.1513 109.587 19.974C109.97 19.7967 110.268 19.54 110.483 19.204C110.698 18.8587 110.805 18.4387 110.805 17.944C110.805 17.5333 110.721 17.1553 110.553 16.81C110.385 16.4647 110.124 16.1893 109.769 15.984C109.414 15.7787 108.962 15.676 108.411 15.676ZM117.36 14.5C118.106 14.5 118.727 14.6307 119.222 14.892C119.726 15.1533 120.122 15.5127 120.412 15.97C120.71 16.418 120.92 16.936 121.042 17.524C121.172 18.112 121.238 18.728 121.238 19.372V20.044C121.238 21.6587 120.836 22.9047 120.034 23.782C119.231 24.65 118.069 25.084 116.548 25.084C116.184 25.084 115.876 25.0747 115.624 25.056C115.372 25.0373 115.096 25.0093 114.798 24.972V23.824C115.106 23.8613 115.39 23.8893 115.652 23.908C115.913 23.9267 116.23 23.936 116.604 23.936C117.453 23.936 118.125 23.7773 118.62 23.46C119.114 23.1427 119.469 22.69 119.684 22.102C119.898 21.5047 120.006 20.786 120.006 19.946V19.316L120.342 18.07C120.332 18.8073 120.188 19.4187 119.908 19.904C119.637 20.3893 119.259 20.7533 118.774 20.996C118.298 21.2387 117.747 21.36 117.122 21.36C116.394 21.36 115.778 21.2153 115.274 20.926C114.77 20.6273 114.387 20.2213 114.126 19.708C113.874 19.1947 113.748 18.6113 113.748 17.958C113.748 17.2953 113.883 16.7027 114.154 16.18C114.424 15.6573 114.826 15.2467 115.358 14.948C115.899 14.6493 116.566 14.5 117.36 14.5ZM117.36 15.676C116.846 15.676 116.417 15.774 116.072 15.97C115.726 16.166 115.465 16.4367 115.288 16.782C115.12 17.118 115.036 17.51 115.036 17.958C115.036 18.406 115.12 18.8027 115.288 19.148C115.456 19.4933 115.703 19.764 116.03 19.96C116.366 20.1467 116.776 20.24 117.262 20.24C117.738 20.24 118.162 20.1513 118.536 19.974C118.918 19.7967 119.217 19.54 119.432 19.204C119.646 18.8587 119.754 18.4387 119.754 17.944C119.754 17.5333 119.67 17.1553 119.502 16.81C119.334 16.4647 119.072 16.1893 118.718 15.984C118.363 15.7787 117.91 15.676 117.36 15.676ZM122.892 21.682V20.534H128.1V21.682H122.892ZM129.415 22.578V20.926L133.657 14.528L134.595 15.27L130.633 21.262L130.759 21.514H137.367V22.578H129.415ZM134.749 25V17.762H136.009V25H134.749ZM142.653 25.252C141.888 25.252 141.235 25.1213 140.693 24.86C140.161 24.5893 139.727 24.2253 139.391 23.768C139.065 23.3107 138.827 22.7833 138.677 22.186C138.528 21.5793 138.453 20.94 138.453 20.268V19.512C138.453 18.5693 138.598 17.72 138.887 16.964C139.186 16.208 139.643 15.6107 140.259 15.172C140.885 14.724 141.683 14.5 142.653 14.5C143.624 14.5 144.417 14.724 145.033 15.172C145.649 15.6107 146.102 16.208 146.391 16.964C146.69 17.72 146.839 18.5693 146.839 19.512V20.268C146.839 20.94 146.765 21.5793 146.615 22.186C146.466 22.7833 146.223 23.3107 145.887 23.768C145.561 24.2253 145.131 24.5893 144.599 24.86C144.067 25.1213 143.419 25.252 142.653 25.252ZM142.653 24.02C143.624 24.02 144.333 23.6933 144.781 23.04C145.239 22.3773 145.467 21.332 145.467 19.904C145.467 18.4107 145.234 17.342 144.767 16.698C144.31 16.054 143.605 15.732 142.653 15.732C141.692 15.732 140.978 16.054 140.511 16.698C140.054 17.342 139.825 18.4013 139.825 19.876C139.825 21.3133 140.054 22.3633 140.511 23.026C140.969 23.6887 141.683 24.02 142.653 24.02ZM148.494 21.682V20.534H153.702V21.682H148.494ZM159.23 25.28C158.484 25.28 157.858 25.1493 157.354 24.888C156.86 24.6267 156.463 24.272 156.164 23.824C155.875 23.3667 155.665 22.844 155.534 22.256C155.413 21.668 155.352 21.052 155.352 20.408V19.736C155.352 18.1213 155.754 16.88 156.556 16.012C157.359 15.1347 158.521 14.696 160.042 14.696C160.406 14.696 160.714 14.7053 160.966 14.724C161.218 14.7427 161.494 14.7707 161.792 14.808V15.956C161.484 15.9187 161.2 15.8907 160.938 15.872C160.677 15.8533 160.36 15.844 159.986 15.844C159.137 15.844 158.465 16.0027 157.97 16.32C157.476 16.6373 157.121 17.0947 156.906 17.692C156.692 18.28 156.584 18.994 156.584 19.834V20.464L156.248 21.71C156.258 20.9727 156.398 20.3613 156.668 19.876C156.948 19.3907 157.326 19.0267 157.802 18.784C158.288 18.5413 158.843 18.42 159.468 18.42C160.196 18.42 160.812 18.5693 161.316 18.868C161.82 19.1573 162.198 19.5587 162.45 20.072C162.712 20.5853 162.842 21.1687 162.842 21.822C162.842 22.4847 162.707 23.0773 162.436 23.6C162.166 24.1227 161.76 24.5333 161.218 24.832C160.686 25.1307 160.024 25.28 159.23 25.28ZM159.23 24.104C159.744 24.104 160.173 24.006 160.518 23.81C160.864 23.614 161.12 23.348 161.288 23.012C161.466 22.6667 161.554 22.27 161.554 21.822C161.554 21.374 161.47 20.9773 161.302 20.632C161.134 20.2867 160.882 20.0207 160.546 19.834C160.22 19.638 159.814 19.54 159.328 19.54C158.852 19.54 158.423 19.6287 158.04 19.806C157.667 19.9833 157.373 20.2447 157.158 20.59C156.944 20.926 156.836 21.3413 156.836 21.836C156.836 22.2467 156.92 22.6247 157.088 22.97C157.256 23.3153 157.518 23.5907 157.872 23.796C158.227 24.0013 158.68 24.104 159.23 24.104ZM164.357 25V23.32C164.357 22.9093 164.413 22.5593 164.525 22.27C164.646 21.9807 164.851 21.7193 165.141 21.486C165.43 21.2433 165.822 21.01 166.317 20.786L168.235 19.904C168.701 19.6893 169.07 19.414 169.341 19.078C169.611 18.7327 169.747 18.2893 169.747 17.748C169.747 17.0947 169.565 16.586 169.201 16.222C168.837 15.858 168.323 15.676 167.661 15.676C167.007 15.676 166.494 15.858 166.121 16.222C165.747 16.586 165.561 17.0947 165.561 17.748H164.245C164.245 17.16 164.366 16.6187 164.609 16.124C164.861 15.6293 165.239 15.2373 165.743 14.948C166.247 14.6493 166.886 14.5 167.661 14.5C168.435 14.5 169.07 14.6493 169.565 14.948C170.069 15.2373 170.442 15.62 170.685 16.096C170.937 16.572 171.063 17.09 171.063 17.65V17.846C171.063 18.5833 170.848 19.204 170.419 19.708C169.999 20.212 169.429 20.6273 168.711 20.954L166.793 21.836C166.363 22.032 166.074 22.228 165.925 22.424C165.775 22.62 165.701 22.8813 165.701 23.208V24.496L165.337 23.852H171.189V25H164.357Z" fill="black"/>
</svg>
