<svg width="280" height="46" viewBox="0 0 280 46" fill="none" xmlns="http://www.w3.org/2000/svg">
<rect width="280" height="46" rx="4" fill="white"/>
<path d="M41.4505 26.516V19.852H42.5985V26.516H41.4505ZM38.8185 23.716V22.652H45.2305V23.716H38.8185ZM47.8883 28L52.2143 19.054L52.1303 18.928H46.5443V17.78H53.4043V19.404L49.2883 28H47.8883ZM46.5443 20.552V17.78H47.6643V20.552H46.5443ZM60.037 30.548C59.5423 29.9787 59.1036 29.358 58.721 28.686C58.3476 28.0233 58.0583 27.2907 57.853 26.488C57.6476 25.676 57.545 24.7753 57.545 23.786C57.545 22.7967 57.6476 21.9007 57.853 21.098C58.0676 20.2953 58.3616 19.5673 58.735 18.914C59.1176 18.2607 59.5516 17.668 60.037 17.136H61.577C60.9983 17.7613 60.5036 18.41 60.093 19.082C59.6916 19.754 59.3836 20.4773 59.169 21.252C58.9636 22.0173 58.861 22.862 58.861 23.786C58.861 24.71 58.9636 25.564 59.169 26.348C59.3743 27.1227 59.6776 27.8507 60.079 28.532C60.4896 29.2227 60.989 29.8947 61.577 30.548H60.037ZM65.8606 17.5C66.6073 17.5 67.228 17.6307 67.7226 17.892C68.2266 18.1533 68.6233 18.5127 68.9126 18.97C69.2113 19.418 69.4213 19.936 69.5426 20.524C69.6733 21.112 69.7386 21.728 69.7386 22.372V23.044C69.7386 24.6587 69.3373 25.9047 68.5346 26.782C67.732 27.65 66.57 28.084 65.0486 28.084C64.6846 28.084 64.3766 28.0747 64.1246 28.056C63.8726 28.0373 63.5973 28.0093 63.2986 27.972V26.824C63.6066 26.8613 63.8913 26.8893 64.1526 26.908C64.414 26.9267 64.7313 26.936 65.1046 26.936C65.954 26.936 66.626 26.7773 67.1206 26.46C67.6153 26.1427 67.97 25.69 68.1846 25.102C68.3993 24.5047 68.5066 23.786 68.5066 22.946V22.316L68.8426 21.07C68.8333 21.8073 68.6886 22.4187 68.4086 22.904C68.138 23.3893 67.76 23.7533 67.2746 23.996C66.7986 24.2387 66.248 24.36 65.6226 24.36C64.8946 24.36 64.2786 24.2153 63.7746 23.926C63.2706 23.6273 62.888 23.2213 62.6266 22.708C62.3746 22.1947 62.2486 21.6113 62.2486 20.958C62.2486 20.2953 62.384 19.7027 62.6546 19.18C62.9253 18.6573 63.3266 18.2467 63.8586 17.948C64.4 17.6493 65.0673 17.5 65.8606 17.5ZM65.8606 18.676C65.3473 18.676 64.918 18.774 64.5726 18.97C64.2273 19.166 63.966 19.4367 63.7886 19.782C63.6206 20.118 63.5366 20.51 63.5366 20.958C63.5366 21.406 63.6206 21.8027 63.7886 22.148C63.9566 22.4933 64.204 22.764 64.5306 22.96C64.8666 23.1467 65.2773 23.24 65.7626 23.24C66.2386 23.24 66.6633 23.1513 67.0366 22.974C67.4193 22.7967 67.718 22.54 67.9326 22.204C68.1473 21.8587 68.2546 21.4387 68.2546 20.944C68.2546 20.5333 68.1706 20.1553 68.0026 19.81C67.8346 19.4647 67.5733 19.1893 67.2186 18.984C66.864 18.7787 66.4113 18.676 65.8606 18.676ZM71.5331 28V26.32C71.5331 25.9093 71.5891 25.5593 71.7011 25.27C71.8225 24.9807 72.0278 24.7193 72.3171 24.486C72.6065 24.2433 72.9985 24.01 73.4931 23.786L75.4111 22.904C75.8778 22.6893 76.2465 22.414 76.5171 22.078C76.7878 21.7327 76.9231 21.2893 76.9231 20.748C76.9231 20.0947 76.7411 19.586 76.3771 19.222C76.0131 18.858 75.4998 18.676 74.8371 18.676C74.1838 18.676 73.6705 18.858 73.2971 19.222C72.9238 19.586 72.7371 20.0947 72.7371 20.748H71.4211C71.4211 20.16 71.5425 19.6187 71.7851 19.124C72.0371 18.6293 72.4151 18.2373 72.9191 17.948C73.4231 17.6493 74.0625 17.5 74.8371 17.5C75.6118 17.5 76.2465 17.6493 76.7411 17.948C77.2451 18.2373 77.6185 18.62 77.8611 19.096C78.1131 19.572 78.2391 20.09 78.2391 20.65V20.846C78.2391 21.5833 78.0245 22.204 77.5951 22.708C77.1751 23.212 76.6058 23.6273 75.8871 23.954L73.9691 24.836C73.5398 25.032 73.2505 25.228 73.1011 25.424C72.9518 25.62 72.8771 25.8813 72.8771 26.208V27.496L72.5131 26.852H78.3651V28H71.5331ZM81.6994 28V18.452L82.3154 18.928H79.4314V17.78H83.0434V28H81.6994ZM86.2063 30.548H84.6663C85.2543 29.8947 85.749 29.2227 86.1503 28.532C86.561 27.8507 86.869 27.1227 87.0743 26.348C87.2797 25.564 87.3823 24.71 87.3823 23.786C87.3823 22.862 87.275 22.0173 87.0603 21.252C86.855 20.4773 86.547 19.754 86.1363 19.082C85.735 18.41 85.245 17.7613 84.6663 17.136H86.2063C86.6917 17.668 87.121 18.2607 87.4943 18.914C87.877 19.5673 88.171 20.2953 88.3763 21.098C88.591 21.9007 88.6983 22.7967 88.6983 23.786C88.6983 24.7753 88.5957 25.676 88.3903 26.488C88.185 27.2907 87.891 28.0233 87.5083 28.686C87.135 29.358 86.701 29.9787 86.2063 30.548ZM96.7836 28.252C96.0556 28.252 95.4069 28.1213 94.8376 27.86C94.2776 27.5987 93.8342 27.2347 93.5076 26.768C93.1902 26.3013 93.0316 25.76 93.0316 25.144C93.0316 24.7333 93.1109 24.3647 93.2696 24.038C93.4282 23.702 93.6476 23.4127 93.9276 23.17C94.2076 22.9273 94.5249 22.7407 94.8796 22.61V22.47C94.5996 22.3487 94.3429 22.1853 94.1096 21.98C93.8856 21.7747 93.7036 21.532 93.5636 21.252C93.4329 20.972 93.3676 20.6547 93.3676 20.3C93.3676 19.712 93.5216 19.2127 93.8296 18.802C94.1469 18.3913 94.5622 18.0787 95.0756 17.864C95.5982 17.64 96.1676 17.528 96.7836 17.528C97.4089 17.528 97.9782 17.64 98.4916 17.864C99.0142 18.0787 99.4296 18.3913 99.7376 18.802C100.046 19.2127 100.2 19.712 100.2 20.3C100.2 20.6547 100.134 20.972 100.004 21.252C99.8729 21.532 99.6909 21.7747 99.4576 21.98C99.2336 22.1853 98.9769 22.3487 98.6876 22.47V22.61C99.0516 22.7407 99.3736 22.932 99.6536 23.184C99.9336 23.4267 100.153 23.716 100.312 24.052C100.47 24.3787 100.55 24.7427 100.55 25.144C100.55 25.76 100.386 26.3013 100.06 26.768C99.7422 27.2347 99.2989 27.5987 98.7296 27.86C98.1696 28.1213 97.5209 28.252 96.7836 28.252ZM96.7836 27.104C97.2969 27.104 97.7356 27.0247 98.0996 26.866C98.4636 26.698 98.7436 26.4647 98.9396 26.166C99.1356 25.858 99.2336 25.4987 99.2336 25.088C99.2336 24.6773 99.1356 24.3227 98.9396 24.024C98.7529 23.7253 98.4776 23.4967 98.1136 23.338C97.7496 23.17 97.3062 23.086 96.7836 23.086C96.2702 23.086 95.8316 23.17 95.4676 23.338C95.1036 23.4967 94.8236 23.7253 94.6276 24.024C94.4409 24.3227 94.3476 24.6773 94.3476 25.088C94.3476 25.4987 94.4409 25.858 94.6276 26.166C94.8236 26.4647 95.1036 26.698 95.4676 26.866C95.8316 27.0247 96.2702 27.104 96.7836 27.104ZM96.7836 22.022C97.4182 22.022 97.9269 21.8867 98.3096 21.616C98.6922 21.336 98.8836 20.9113 98.8836 20.342C98.8836 19.7633 98.6876 19.3433 98.2956 19.082C97.9129 18.8113 97.4089 18.676 96.7836 18.676C96.1582 18.676 95.6496 18.8113 95.2576 19.082C94.8749 19.3527 94.6836 19.7727 94.6836 20.342C94.6836 20.9113 94.8749 21.336 95.2576 21.616C95.6496 21.8867 96.1582 22.022 96.7836 22.022ZM105.306 17.5C106.052 17.5 106.673 17.6307 107.168 17.892C107.672 18.1533 108.068 18.5127 108.358 18.97C108.656 19.418 108.866 19.936 108.988 20.524C109.118 21.112 109.184 21.728 109.184 22.372V23.044C109.184 24.6587 108.782 25.9047 107.98 26.782C107.177 27.65 106.015 28.084 104.494 28.084C104.13 28.084 103.822 28.0747 103.57 28.056C103.318 28.0373 103.042 28.0093 102.744 27.972V26.824C103.052 26.8613 103.336 26.8893 103.598 26.908C103.859 26.9267 104.176 26.936 104.55 26.936C105.399 26.936 106.071 26.7773 106.566 26.46C107.06 26.1427 107.415 25.69 107.63 25.102C107.844 24.5047 107.952 23.786 107.952 22.946V22.316L108.288 21.07C108.278 21.8073 108.134 22.4187 107.854 22.904C107.583 23.3893 107.205 23.7533 106.72 23.996C106.244 24.2387 105.693 24.36 105.068 24.36C104.34 24.36 103.724 24.2153 103.22 23.926C102.716 23.6273 102.333 23.2213 102.072 22.708C101.82 22.1947 101.694 21.6113 101.694 20.958C101.694 20.2953 101.829 19.7027 102.1 19.18C102.37 18.6573 102.772 18.2467 103.304 17.948C103.845 17.6493 104.512 17.5 105.306 17.5ZM105.306 18.676C104.792 18.676 104.363 18.774 104.018 18.97C103.672 19.166 103.411 19.4367 103.234 19.782C103.066 20.118 102.982 20.51 102.982 20.958C102.982 21.406 103.066 21.8027 103.234 22.148C103.402 22.4933 103.649 22.764 103.976 22.96C104.312 23.1467 104.722 23.24 105.208 23.24C105.684 23.24 106.108 23.1513 106.482 22.974C106.864 22.7967 107.163 22.54 107.378 22.204C107.592 21.8587 107.7 21.4387 107.7 20.944C107.7 20.5333 107.616 20.1553 107.448 19.81C107.28 19.4647 107.018 19.1893 106.664 18.984C106.309 18.7787 105.856 18.676 105.306 18.676ZM114.254 17.5C115.001 17.5 115.621 17.6307 116.116 17.892C116.62 18.1533 117.017 18.5127 117.306 18.97C117.605 19.418 117.815 19.936 117.936 20.524C118.067 21.112 118.132 21.728 118.132 22.372V23.044C118.132 24.6587 117.731 25.9047 116.928 26.782C116.125 27.65 114.963 28.084 113.442 28.084C113.078 28.084 112.77 28.0747 112.518 28.056C112.266 28.0373 111.991 28.0093 111.692 27.972V26.824C112 26.8613 112.285 26.8893 112.546 26.908C112.807 26.9267 113.125 26.936 113.498 26.936C114.347 26.936 115.019 26.7773 115.514 26.46C116.009 26.1427 116.363 25.69 116.578 25.102C116.793 24.5047 116.9 23.786 116.9 22.946V22.316L117.236 21.07C117.227 21.8073 117.082 22.4187 116.802 22.904C116.531 23.3893 116.153 23.7533 115.668 23.996C115.192 24.2387 114.641 24.36 114.016 24.36C113.288 24.36 112.672 24.2153 112.168 23.926C111.664 23.6273 111.281 23.2213 111.02 22.708C110.768 22.1947 110.642 21.6113 110.642 20.958C110.642 20.2953 110.777 19.7027 111.048 19.18C111.319 18.6573 111.72 18.2467 112.252 17.948C112.793 17.6493 113.461 17.5 114.254 17.5ZM114.254 18.676C113.741 18.676 113.311 18.774 112.966 18.97C112.621 19.166 112.359 19.4367 112.182 19.782C112.014 20.118 111.93 20.51 111.93 20.958C111.93 21.406 112.014 21.8027 112.182 22.148C112.35 22.4933 112.597 22.764 112.924 22.96C113.26 23.1467 113.671 23.24 114.156 23.24C114.632 23.24 115.057 23.1513 115.43 22.974C115.813 22.7967 116.111 22.54 116.326 22.204C116.541 21.8587 116.648 21.4387 116.648 20.944C116.648 20.5333 116.564 20.1553 116.396 19.81C116.228 19.4647 115.967 19.1893 115.612 18.984C115.257 18.7787 114.805 18.676 114.254 18.676ZM119.535 25.578V23.926L123.777 17.528L124.715 18.27L120.753 24.262L120.879 24.514H127.487V25.578H119.535ZM124.869 28V20.762H126.129V28H124.869ZM132.773 28.252C132.008 28.252 131.354 28.1213 130.813 27.86C130.281 27.5893 129.847 27.2253 129.511 26.768C129.184 26.3107 128.946 25.7833 128.797 25.186C128.648 24.5793 128.573 23.94 128.573 23.268V22.512C128.573 21.5693 128.718 20.72 129.007 19.964C129.306 19.208 129.763 18.6107 130.379 18.172C131.004 17.724 131.802 17.5 132.773 17.5C133.744 17.5 134.537 17.724 135.153 18.172C135.769 18.6107 136.222 19.208 136.511 19.964C136.81 20.72 136.959 21.5693 136.959 22.512V23.268C136.959 23.94 136.884 24.5793 136.735 25.186C136.586 25.7833 136.343 26.3107 136.007 26.768C135.68 27.2253 135.251 27.5893 134.719 27.86C134.187 28.1213 133.538 28.252 132.773 28.252ZM132.773 27.02C133.744 27.02 134.453 26.6933 134.901 26.04C135.358 25.3773 135.587 24.332 135.587 22.904C135.587 21.4107 135.354 20.342 134.887 19.698C134.43 19.054 133.725 18.732 132.773 18.732C131.812 18.732 131.098 19.054 130.631 19.698C130.174 20.342 129.945 21.4013 129.945 22.876C129.945 24.3133 130.174 25.3633 130.631 26.026C131.088 26.6887 131.802 27.02 132.773 27.02ZM142.575 28.28C141.829 28.28 141.203 28.1493 140.699 27.888C140.205 27.6267 139.808 27.272 139.509 26.824C139.22 26.3667 139.01 25.844 138.879 25.256C138.758 24.668 138.697 24.052 138.697 23.408V22.736C138.697 21.1213 139.099 19.88 139.901 19.012C140.704 18.1347 141.866 17.696 143.387 17.696C143.751 17.696 144.059 17.7053 144.311 17.724C144.563 17.7427 144.839 17.7707 145.137 17.808V18.956C144.829 18.9187 144.545 18.8907 144.283 18.872C144.022 18.8533 143.705 18.844 143.331 18.844C142.482 18.844 141.81 19.0027 141.315 19.32C140.821 19.6373 140.466 20.0947 140.251 20.692C140.037 21.28 139.929 21.994 139.929 22.834V23.464L139.593 24.71C139.603 23.9727 139.743 23.3613 140.013 22.876C140.293 22.3907 140.671 22.0267 141.147 21.784C141.633 21.5413 142.188 21.42 142.813 21.42C143.541 21.42 144.157 21.5693 144.661 21.868C145.165 22.1573 145.543 22.5587 145.795 23.072C146.057 23.5853 146.187 24.1687 146.187 24.822C146.187 25.4847 146.052 26.0773 145.781 26.6C145.511 27.1227 145.105 27.5333 144.563 27.832C144.031 28.1307 143.369 28.28 142.575 28.28ZM142.575 27.104C143.089 27.104 143.518 27.006 143.863 26.81C144.209 26.614 144.465 26.348 144.633 26.012C144.811 25.6667 144.899 25.27 144.899 24.822C144.899 24.374 144.815 23.9773 144.647 23.632C144.479 23.2867 144.227 23.0207 143.891 22.834C143.565 22.638 143.159 22.54 142.673 22.54C142.197 22.54 141.768 22.6287 141.385 22.806C141.012 22.9833 140.718 23.2447 140.503 23.59C140.289 23.926 140.181 24.3413 140.181 24.836C140.181 25.2467 140.265 25.6247 140.433 25.97C140.601 26.3153 140.863 26.5907 141.217 26.796C141.572 27.0013 142.025 27.104 142.575 27.104ZM147.702 28V26.32C147.702 25.9093 147.758 25.5593 147.87 25.27C147.991 24.9807 148.197 24.7193 148.486 24.486C148.775 24.2433 149.167 24.01 149.662 23.786L151.58 22.904C152.047 22.6893 152.415 22.414 152.686 22.078C152.957 21.7327 153.092 21.2893 153.092 20.748C153.092 20.0947 152.91 19.586 152.546 19.222C152.182 18.858 151.669 18.676 151.006 18.676C150.353 18.676 149.839 18.858 149.466 19.222C149.093 19.586 148.906 20.0947 148.906 20.748H147.59C147.59 20.16 147.711 19.6187 147.954 19.124C148.206 18.6293 148.584 18.2373 149.088 17.948C149.592 17.6493 150.231 17.5 151.006 17.5C151.781 17.5 152.415 17.6493 152.91 17.948C153.414 18.2373 153.787 18.62 154.03 19.096C154.282 19.572 154.408 20.09 154.408 20.65V20.846C154.408 21.5833 154.193 22.204 153.764 22.708C153.344 23.212 152.775 23.6273 152.056 23.954L150.138 24.836C149.709 25.032 149.419 25.228 149.27 25.424C149.121 25.62 149.046 25.8813 149.046 26.208V27.496L148.682 26.852H154.534V28H147.702Z" fill="black"/>
<path fill-rule="evenodd" clip-rule="evenodd" d="M2.88486 16.4675C3.1901 15.9865 4.87282 14.2402 6.07192 14.2929C6.43067 14.3221 6.74779 14.5273 7.00545 14.7665C7.59607 15.3162 9.2917 17.391 9.38683 17.8278C9.6217 18.899 8.2769 19.5166 8.68817 20.5963C9.73664 23.0335 11.5433 24.7496 14.1099 25.7446C15.2456 26.1362 15.8958 24.8598 17.0234 25.0819C17.4833 25.1732 19.6685 26.7821 20.2461 27.344C20.497 27.5878 20.7149 27.89 20.7446 28.2308C20.7893 29.431 18.837 31.0512 18.4565 31.2582C17.5587 31.8692 16.3873 31.8579 14.9592 31.2272C10.9744 29.6522 4.60623 23.717 2.91757 19.7886C2.27144 18.4397 2.22783 17.3194 2.88486 16.4675Z" stroke="black" stroke-width="2" stroke-linecap="round" stroke-linejoin="round"/>
<path d="M14.0537 14.5211C17.6259 14.8978 20.4462 17.5745 20.8477 20.9671" stroke="black" stroke-width="2" stroke-linecap="round" stroke-linejoin="round"/>
<path d="M14.0537 17.7686C15.7617 18.0848 17.0961 19.3526 17.429 20.9751" stroke="black" stroke-width="2" stroke-linecap="round" stroke-linejoin="round"/>
</svg>
