<svg width="266" height="46" viewBox="0 0 266 46" fill="none" xmlns="http://www.w3.org/2000/svg">
<rect x="1" y="1" width="264" height="44" rx="3" fill="white"/>
<rect x="1" y="1" width="264" height="44" rx="3" stroke="black" stroke-width="2"/>
<path d="M56.048 25.728V20.016H57.032V25.728H56.048ZM53.792 23.328V22.416H59.288V23.328H53.792ZM61.5661 27L65.2741 19.332L65.2021 19.224H60.4141V18.24H66.2941V19.632L62.7661 27H61.5661ZM60.4141 20.616V18.24H61.3741V20.616H60.4141ZM71.9792 29.184C71.5552 28.696 71.1792 28.164 70.8512 27.588C70.5312 27.02 70.2832 26.392 70.1072 25.704C69.9312 25.008 69.8432 24.236 69.8432 23.388C69.8432 22.54 69.9312 21.772 70.1072 21.084C70.2912 20.396 70.5432 19.772 70.8632 19.212C71.1912 18.652 71.5632 18.144 71.9792 17.688H73.2992C72.8032 18.224 72.3792 18.78 72.0272 19.356C71.6832 19.932 71.4192 20.552 71.2352 21.216C71.0592 21.872 70.9712 22.596 70.9712 23.388C70.9712 24.18 71.0592 24.912 71.2352 25.584C71.4112 26.248 71.6712 26.872 72.0152 27.456C72.3672 28.048 72.7952 28.624 73.2992 29.184H71.9792ZM76.9709 18C77.6109 18 78.1429 18.112 78.5669 18.336C78.9989 18.56 79.3389 18.868 79.5869 19.26C79.8429 19.644 80.0229 20.088 80.1269 20.592C80.2389 21.096 80.2949 21.624 80.2949 22.176V22.752C80.2949 24.136 79.9509 25.204 79.2629 25.956C78.5749 26.7 77.5789 27.072 76.2749 27.072C75.9629 27.072 75.6989 27.064 75.4829 27.048C75.2669 27.032 75.0309 27.008 74.7749 26.976V25.992C75.0389 26.024 75.2829 26.048 75.5069 26.064C75.7309 26.08 76.0029 26.088 76.3229 26.088C77.0509 26.088 77.6269 25.952 78.0509 25.68C78.4749 25.408 78.7789 25.02 78.9629 24.516C79.1469 24.004 79.2389 23.388 79.2389 22.668V22.128L79.5269 21.06C79.5189 21.692 79.3949 22.216 79.1549 22.632C78.9229 23.048 78.5989 23.36 78.1829 23.568C77.7749 23.776 77.3029 23.88 76.7669 23.88C76.1429 23.88 75.6149 23.756 75.1829 23.508C74.7509 23.252 74.4229 22.904 74.1989 22.464C73.9829 22.024 73.8749 21.524 73.8749 20.964C73.8749 20.396 73.9909 19.888 74.2229 19.44C74.4549 18.992 74.7989 18.64 75.2549 18.384C75.7189 18.128 76.2909 18 76.9709 18ZM76.9709 19.008C76.5309 19.008 76.1629 19.092 75.8669 19.26C75.5709 19.428 75.3469 19.66 75.1949 19.956C75.0509 20.244 74.9789 20.58 74.9789 20.964C74.9789 21.348 75.0509 21.688 75.1949 21.984C75.3389 22.28 75.5509 22.512 75.8309 22.68C76.1189 22.84 76.4709 22.92 76.8869 22.92C77.2949 22.92 77.6589 22.844 77.9789 22.692C78.3069 22.54 78.5629 22.32 78.7469 22.032C78.9309 21.736 79.0229 21.376 79.0229 20.952C79.0229 20.6 78.9509 20.276 78.8069 19.98C78.6629 19.684 78.4389 19.448 78.1349 19.272C77.8309 19.096 77.4429 19.008 76.9709 19.008ZM81.8331 27V25.56C81.8331 25.208 81.8811 24.908 81.9771 24.66C82.0811 24.412 82.2571 24.188 82.5051 23.988C82.7531 23.78 83.0891 23.58 83.5131 23.388L85.1571 22.632C85.5571 22.448 85.8731 22.212 86.1051 21.924C86.3371 21.628 86.4531 21.248 86.4531 20.784C86.4531 20.224 86.2971 19.788 85.9851 19.476C85.6731 19.164 85.2331 19.008 84.6651 19.008C84.1051 19.008 83.6651 19.164 83.3451 19.476C83.0251 19.788 82.8651 20.224 82.8651 20.784H81.7371C81.7371 20.28 81.8411 19.816 82.0491 19.392C82.2651 18.968 82.5891 18.632 83.0211 18.384C83.4531 18.128 84.0011 18 84.6651 18C85.3291 18 85.8731 18.128 86.2971 18.384C86.7291 18.632 87.0491 18.96 87.2571 19.368C87.4731 19.776 87.5811 20.22 87.5811 20.7V20.868C87.5811 21.5 87.3971 22.032 87.0291 22.464C86.6691 22.896 86.1811 23.252 85.5651 23.532L83.9211 24.288C83.5531 24.456 83.3051 24.624 83.1771 24.792C83.0491 24.96 82.9851 25.184 82.9851 25.464V26.568L82.6731 26.016H87.6891V27H81.8331ZM90.5471 27V18.816L91.0751 19.224H88.6031V18.24H91.6991V27H90.5471ZM94.4101 29.184H93.0901C93.5941 28.624 94.0181 28.048 94.3621 27.456C94.7141 26.872 94.9781 26.248 95.1541 25.584C95.3301 24.912 95.4181 24.18 95.4181 23.388C95.4181 22.596 95.3261 21.872 95.1421 21.216C94.9661 20.552 94.7021 19.932 94.3501 19.356C94.0061 18.78 93.5861 18.224 93.0901 17.688H94.4101C94.8261 18.144 95.1941 18.652 95.5141 19.212C95.8421 19.772 96.0941 20.396 96.2701 21.084C96.4541 21.772 96.5461 22.54 96.5461 23.388C96.5461 24.236 96.4581 25.008 96.2821 25.704C96.1061 26.392 95.8541 27.02 95.5261 27.588C95.2061 28.164 94.8341 28.696 94.4101 29.184ZM103.476 27.216C102.852 27.216 102.296 27.104 101.808 26.88C101.328 26.656 100.948 26.344 100.668 25.944C100.396 25.544 100.26 25.08 100.26 24.552C100.26 24.2 100.328 23.884 100.464 23.604C100.6 23.316 100.788 23.068 101.028 22.86C101.268 22.652 101.54 22.492 101.844 22.38V22.26C101.604 22.156 101.384 22.016 101.184 21.84C100.992 21.664 100.836 21.456 100.716 21.216C100.604 20.976 100.548 20.704 100.548 20.4C100.548 19.896 100.68 19.468 100.944 19.116C101.216 18.764 101.572 18.496 102.012 18.312C102.46 18.12 102.948 18.024 103.476 18.024C104.012 18.024 104.5 18.12 104.94 18.312C105.388 18.496 105.744 18.764 106.008 19.116C106.272 19.468 106.404 19.896 106.404 20.4C106.404 20.704 106.348 20.976 106.236 21.216C106.124 21.456 105.968 21.664 105.768 21.84C105.576 22.016 105.356 22.156 105.108 22.26V22.38C105.42 22.492 105.696 22.656 105.936 22.872C106.176 23.08 106.364 23.328 106.5 23.616C106.636 23.896 106.704 24.208 106.704 24.552C106.704 25.08 106.564 25.544 106.284 25.944C106.012 26.344 105.632 26.656 105.144 26.88C104.664 27.104 104.108 27.216 103.476 27.216ZM103.476 26.232C103.916 26.232 104.292 26.164 104.604 26.028C104.916 25.884 105.156 25.684 105.324 25.428C105.492 25.164 105.576 24.856 105.576 24.504C105.576 24.152 105.492 23.848 105.324 23.592C105.164 23.336 104.928 23.14 104.616 23.004C104.304 22.86 103.924 22.788 103.476 22.788C103.036 22.788 102.66 22.86 102.348 23.004C102.036 23.14 101.796 23.336 101.628 23.592C101.468 23.848 101.388 24.152 101.388 24.504C101.388 24.856 101.468 25.164 101.628 25.428C101.796 25.684 102.036 25.884 102.348 26.028C102.66 26.164 103.036 26.232 103.476 26.232ZM103.476 21.876C104.02 21.876 104.456 21.76 104.784 21.528C105.112 21.288 105.276 20.924 105.276 20.436C105.276 19.94 105.108 19.58 104.772 19.356C104.444 19.124 104.012 19.008 103.476 19.008C102.94 19.008 102.504 19.124 102.168 19.356C101.84 19.588 101.676 19.948 101.676 20.436C101.676 20.924 101.84 21.288 102.168 21.528C102.504 21.76 102.94 21.876 103.476 21.876ZM110.781 18C111.421 18 111.953 18.112 112.377 18.336C112.809 18.56 113.149 18.868 113.397 19.26C113.653 19.644 113.833 20.088 113.937 20.592C114.049 21.096 114.105 21.624 114.105 22.176V22.752C114.105 24.136 113.761 25.204 113.073 25.956C112.385 26.7 111.389 27.072 110.085 27.072C109.773 27.072 109.509 27.064 109.293 27.048C109.077 27.032 108.841 27.008 108.585 26.976V25.992C108.849 26.024 109.093 26.048 109.317 26.064C109.541 26.08 109.813 26.088 110.133 26.088C110.861 26.088 111.437 25.952 111.861 25.68C112.285 25.408 112.589 25.02 112.773 24.516C112.957 24.004 113.049 23.388 113.049 22.668V22.128L113.337 21.06C113.329 21.692 113.205 22.216 112.965 22.632C112.733 23.048 112.409 23.36 111.993 23.568C111.585 23.776 111.113 23.88 110.577 23.88C109.953 23.88 109.425 23.756 108.993 23.508C108.561 23.252 108.233 22.904 108.009 22.464C107.793 22.024 107.685 21.524 107.685 20.964C107.685 20.396 107.801 19.888 108.033 19.44C108.265 18.992 108.609 18.64 109.065 18.384C109.529 18.128 110.101 18 110.781 18ZM110.781 19.008C110.341 19.008 109.973 19.092 109.677 19.26C109.381 19.428 109.157 19.66 109.005 19.956C108.861 20.244 108.789 20.58 108.789 20.964C108.789 21.348 108.861 21.688 109.005 21.984C109.149 22.28 109.361 22.512 109.641 22.68C109.929 22.84 110.281 22.92 110.697 22.92C111.105 22.92 111.469 22.844 111.789 22.692C112.117 22.54 112.373 22.32 112.557 22.032C112.741 21.736 112.833 21.376 112.833 20.952C112.833 20.6 112.761 20.276 112.617 19.98C112.473 19.684 112.249 19.448 111.945 19.272C111.641 19.096 111.253 19.008 110.781 19.008ZM118.451 18C119.091 18 119.623 18.112 120.047 18.336C120.479 18.56 120.819 18.868 121.067 19.26C121.323 19.644 121.503 20.088 121.607 20.592C121.719 21.096 121.775 21.624 121.775 22.176V22.752C121.775 24.136 121.431 25.204 120.743 25.956C120.055 26.7 119.059 27.072 117.755 27.072C117.443 27.072 117.179 27.064 116.963 27.048C116.747 27.032 116.511 27.008 116.255 26.976V25.992C116.519 26.024 116.763 26.048 116.987 26.064C117.211 26.08 117.483 26.088 117.803 26.088C118.531 26.088 119.107 25.952 119.531 25.68C119.955 25.408 120.259 25.02 120.443 24.516C120.627 24.004 120.719 23.388 120.719 22.668V22.128L121.007 21.06C120.999 21.692 120.875 22.216 120.635 22.632C120.403 23.048 120.079 23.36 119.663 23.568C119.255 23.776 118.783 23.88 118.247 23.88C117.623 23.88 117.095 23.756 116.663 23.508C116.231 23.252 115.903 22.904 115.679 22.464C115.463 22.024 115.355 21.524 115.355 20.964C115.355 20.396 115.471 19.888 115.703 19.44C115.935 18.992 116.279 18.64 116.735 18.384C117.199 18.128 117.771 18 118.451 18ZM118.451 19.008C118.011 19.008 117.643 19.092 117.347 19.26C117.051 19.428 116.827 19.66 116.675 19.956C116.531 20.244 116.459 20.58 116.459 20.964C116.459 21.348 116.531 21.688 116.675 21.984C116.819 22.28 117.031 22.512 117.311 22.68C117.599 22.84 117.951 22.92 118.367 22.92C118.775 22.92 119.139 22.844 119.459 22.692C119.787 22.54 120.043 22.32 120.227 22.032C120.411 21.736 120.503 21.376 120.503 20.952C120.503 20.6 120.431 20.276 120.287 19.98C120.143 19.684 119.919 19.448 119.615 19.272C119.311 19.096 118.923 19.008 118.451 19.008ZM122.977 24.924V23.508L126.613 18.024L127.417 18.66L124.021 23.796L124.129 24.012H129.793V24.924H122.977ZM127.549 27V20.796H128.629V27H127.549ZM134.324 27.216C133.668 27.216 133.108 27.104 132.644 26.88C132.188 26.648 131.816 26.336 131.528 25.944C131.248 25.552 131.044 25.1 130.916 24.588C130.788 24.068 130.724 23.52 130.724 22.944V22.296C130.724 21.488 130.848 20.76 131.096 20.112C131.352 19.464 131.744 18.952 132.272 18.576C132.808 18.192 133.492 18 134.324 18C135.156 18 135.836 18.192 136.364 18.576C136.892 18.952 137.28 19.464 137.528 20.112C137.784 20.76 137.912 21.488 137.912 22.296V22.944C137.912 23.52 137.848 24.068 137.72 24.588C137.592 25.1 137.384 25.552 137.096 25.944C136.816 26.336 136.448 26.648 135.992 26.88C135.536 27.104 134.98 27.216 134.324 27.216ZM134.324 26.16C135.156 26.16 135.764 25.88 136.148 25.32C136.54 24.752 136.736 23.856 136.736 22.632C136.736 21.352 136.536 20.436 136.136 19.884C135.744 19.332 135.14 19.056 134.324 19.056C133.5 19.056 132.888 19.332 132.488 19.884C132.096 20.436 131.9 21.344 131.9 22.608C131.9 23.84 132.096 24.74 132.488 25.308C132.88 25.876 133.492 26.16 134.324 26.16ZM142.726 27.24C142.086 27.24 141.55 27.128 141.118 26.904C140.694 26.68 140.354 26.376 140.098 25.992C139.85 25.6 139.67 25.152 139.558 24.648C139.454 24.144 139.402 23.616 139.402 23.064V22.488C139.402 21.104 139.746 20.04 140.434 19.296C141.122 18.544 142.118 18.168 143.422 18.168C143.734 18.168 143.998 18.176 144.214 18.192C144.43 18.208 144.666 18.232 144.922 18.264V19.248C144.658 19.216 144.414 19.192 144.19 19.176C143.966 19.16 143.694 19.152 143.374 19.152C142.646 19.152 142.07 19.288 141.646 19.56C141.222 19.832 140.918 20.224 140.734 20.736C140.55 21.24 140.458 21.852 140.458 22.572V23.112L140.17 24.18C140.178 23.548 140.298 23.024 140.53 22.608C140.77 22.192 141.094 21.88 141.502 21.672C141.918 21.464 142.394 21.36 142.93 21.36C143.554 21.36 144.082 21.488 144.514 21.744C144.946 21.992 145.27 22.336 145.486 22.776C145.71 23.216 145.822 23.716 145.822 24.276C145.822 24.844 145.706 25.352 145.474 25.8C145.242 26.248 144.894 26.6 144.43 26.856C143.974 27.112 143.406 27.24 142.726 27.24ZM142.726 26.232C143.166 26.232 143.534 26.148 143.83 25.98C144.126 25.812 144.346 25.584 144.49 25.296C144.642 25 144.718 24.66 144.718 24.276C144.718 23.892 144.646 23.552 144.502 23.256C144.358 22.96 144.142 22.732 143.854 22.572C143.574 22.404 143.226 22.32 142.81 22.32C142.402 22.32 142.034 22.396 141.706 22.548C141.386 22.7 141.134 22.924 140.95 23.22C140.766 23.508 140.674 23.864 140.674 24.288C140.674 24.64 140.746 24.964 140.89 25.26C141.034 25.556 141.258 25.792 141.562 25.968C141.866 26.144 142.254 26.232 142.726 26.232ZM147.121 27V25.56C147.121 25.208 147.169 24.908 147.265 24.66C147.369 24.412 147.545 24.188 147.793 23.988C148.041 23.78 148.377 23.58 148.801 23.388L150.445 22.632C150.845 22.448 151.161 22.212 151.393 21.924C151.625 21.628 151.741 21.248 151.741 20.784C151.741 20.224 151.585 19.788 151.273 19.476C150.961 19.164 150.521 19.008 149.953 19.008C149.393 19.008 148.953 19.164 148.633 19.476C148.313 19.788 148.153 20.224 148.153 20.784H147.025C147.025 20.28 147.129 19.816 147.337 19.392C147.553 18.968 147.877 18.632 148.309 18.384C148.741 18.128 149.289 18 149.953 18C150.617 18 151.161 18.128 151.585 18.384C152.017 18.632 152.337 18.96 152.545 19.368C152.761 19.776 152.869 20.22 152.869 20.7V20.868C152.869 21.5 152.685 22.032 152.317 22.464C151.957 22.896 151.469 23.252 150.853 23.532L149.209 24.288C148.841 24.456 148.593 24.624 148.465 24.792C148.337 24.96 148.273 25.184 148.273 25.464V26.568L147.961 26.016H152.977V27H147.121Z" fill="black"/>
<path fill-rule="evenodd" clip-rule="evenodd" d="M19.7401 16.4675C20.0301 15.9865 21.6287 14.2402 22.7678 14.2929C23.1086 14.3221 23.4099 14.5273 23.6547 14.7665C24.2158 15.3162 25.8266 17.391 25.917 17.8278C26.1401 18.899 24.8626 19.5166 25.2533 20.5963C26.2493 23.0335 27.9656 24.7496 30.404 25.7446C31.4829 26.1362 32.1005 24.8598 33.1718 25.0819C33.6086 25.1732 35.6846 26.7821 36.2334 27.344C36.4716 27.5878 36.6787 27.89 36.7069 28.2308C36.7494 29.431 34.8947 31.0512 34.5332 31.2582C33.6803 31.8692 32.5675 31.8579 31.2108 31.2272C27.4252 29.6522 21.3754 23.717 19.7712 19.7886C19.1574 18.4397 19.1159 17.3194 19.7401 16.4675Z" stroke="black" stroke-width="2" stroke-linecap="round" stroke-linejoin="round"/>
<path d="M30.3516 14.5211C33.7451 14.8978 36.4244 17.5745 36.8059 20.9671" stroke="black" stroke-width="2" stroke-linecap="round" stroke-linejoin="round"/>
<path d="M30.3516 17.7686C31.9741 18.0848 33.2419 19.3526 33.5581 20.9751" stroke="black" stroke-width="2" stroke-linecap="round" stroke-linejoin="round"/>
</svg>
