<svg width="280" height="46" viewBox="0 0 280 46" fill="none" xmlns="http://www.w3.org/2000/svg">
<rect width="280" height="46" rx="4" fill="white"/>
<path d="M40.9425 25.728V20.016H41.9265V25.728H40.9425ZM38.6865 23.328V22.416H44.1825V23.328H38.6865ZM46.4607 27L50.1687 19.332L50.0967 19.224H45.3087V18.24H51.1887V19.632L47.6607 27H46.4607ZM45.3087 20.616V18.24H46.2687V20.616H45.3087ZM56.8737 29.184C56.4497 28.696 56.0737 28.164 55.7457 27.588C55.4257 27.02 55.1777 26.392 55.0017 25.704C54.8257 25.008 54.7377 24.236 54.7377 23.388C54.7377 22.54 54.8257 21.772 55.0017 21.084C55.1857 20.396 55.4377 19.772 55.7577 19.212C56.0857 18.652 56.4577 18.144 56.8737 17.688H58.1937C57.6977 18.224 57.2737 18.78 56.9217 19.356C56.5777 19.932 56.3137 20.552 56.1297 21.216C55.9537 21.872 55.8657 22.596 55.8657 23.388C55.8657 24.18 55.9537 24.912 56.1297 25.584C56.3057 26.248 56.5657 26.872 56.9097 27.456C57.2617 28.048 57.6897 28.624 58.1937 29.184H56.8737ZM61.8655 18C62.5055 18 63.0375 18.112 63.4615 18.336C63.8935 18.56 64.2335 18.868 64.4815 19.26C64.7375 19.644 64.9175 20.088 65.0215 20.592C65.1335 21.096 65.1895 21.624 65.1895 22.176V22.752C65.1895 24.136 64.8455 25.204 64.1575 25.956C63.4695 26.7 62.4735 27.072 61.1695 27.072C60.8575 27.072 60.5935 27.064 60.3775 27.048C60.1615 27.032 59.9255 27.008 59.6695 26.976V25.992C59.9335 26.024 60.1775 26.048 60.4015 26.064C60.6255 26.08 60.8975 26.088 61.2175 26.088C61.9455 26.088 62.5215 25.952 62.9455 25.68C63.3695 25.408 63.6735 25.02 63.8575 24.516C64.0415 24.004 64.1335 23.388 64.1335 22.668V22.128L64.4215 21.06C64.4135 21.692 64.2895 22.216 64.0495 22.632C63.8175 23.048 63.4935 23.36 63.0775 23.568C62.6695 23.776 62.1975 23.88 61.6615 23.88C61.0375 23.88 60.5095 23.756 60.0775 23.508C59.6455 23.252 59.3175 22.904 59.0935 22.464C58.8775 22.024 58.7695 21.524 58.7695 20.964C58.7695 20.396 58.8855 19.888 59.1175 19.44C59.3495 18.992 59.6935 18.64 60.1495 18.384C60.6135 18.128 61.1855 18 61.8655 18ZM61.8655 19.008C61.4255 19.008 61.0575 19.092 60.7615 19.26C60.4655 19.428 60.2415 19.66 60.0895 19.956C59.9455 20.244 59.8735 20.58 59.8735 20.964C59.8735 21.348 59.9455 21.688 60.0895 21.984C60.2335 22.28 60.4455 22.512 60.7255 22.68C61.0135 22.84 61.3655 22.92 61.7815 22.92C62.1895 22.92 62.5535 22.844 62.8735 22.692C63.2015 22.54 63.4575 22.32 63.6415 22.032C63.8255 21.736 63.9175 21.376 63.9175 20.952C63.9175 20.6 63.8455 20.276 63.7015 19.98C63.5575 19.684 63.3335 19.448 63.0295 19.272C62.7255 19.096 62.3375 19.008 61.8655 19.008ZM66.7276 27V25.56C66.7276 25.208 66.7756 24.908 66.8716 24.66C66.9756 24.412 67.1516 24.188 67.3996 23.988C67.6476 23.78 67.9836 23.58 68.4076 23.388L70.0516 22.632C70.4516 22.448 70.7676 22.212 70.9996 21.924C71.2316 21.628 71.3476 21.248 71.3476 20.784C71.3476 20.224 71.1916 19.788 70.8796 19.476C70.5676 19.164 70.1276 19.008 69.5596 19.008C68.9996 19.008 68.5596 19.164 68.2396 19.476C67.9196 19.788 67.7596 20.224 67.7596 20.784H66.6316C66.6316 20.28 66.7356 19.816 66.9436 19.392C67.1596 18.968 67.4836 18.632 67.9156 18.384C68.3476 18.128 68.8956 18 69.5596 18C70.2236 18 70.7676 18.128 71.1916 18.384C71.6236 18.632 71.9436 18.96 72.1516 19.368C72.3676 19.776 72.4756 20.22 72.4756 20.7V20.868C72.4756 21.5 72.2916 22.032 71.9236 22.464C71.5636 22.896 71.0756 23.252 70.4596 23.532L68.8156 24.288C68.4476 24.456 68.1996 24.624 68.0716 24.792C67.9436 24.96 67.8796 25.184 67.8796 25.464V26.568L67.5676 26.016H72.5836V27H66.7276ZM75.4416 27V18.816L75.9696 19.224H73.4976V18.24H76.5936V27H75.4416ZM79.3047 29.184H77.9847C78.4887 28.624 78.9127 28.048 79.2567 27.456C79.6087 26.872 79.8727 26.248 80.0487 25.584C80.2247 24.912 80.3127 24.18 80.3127 23.388C80.3127 22.596 80.2207 21.872 80.0367 21.216C79.8607 20.552 79.5967 19.932 79.2447 19.356C78.9007 18.78 78.4807 18.224 77.9847 17.688H79.3047C79.7207 18.144 80.0887 18.652 80.4087 19.212C80.7367 19.772 80.9887 20.396 81.1647 21.084C81.3487 21.772 81.4407 22.54 81.4407 23.388C81.4407 24.236 81.3527 25.008 81.1767 25.704C81.0007 26.392 80.7487 27.02 80.4207 27.588C80.1007 28.164 79.7287 28.696 79.3047 29.184ZM88.3708 27.216C87.7468 27.216 87.1908 27.104 86.7028 26.88C86.2228 26.656 85.8428 26.344 85.5628 25.944C85.2908 25.544 85.1548 25.08 85.1548 24.552C85.1548 24.2 85.2228 23.884 85.3588 23.604C85.4948 23.316 85.6828 23.068 85.9228 22.86C86.1628 22.652 86.4348 22.492 86.7388 22.38V22.26C86.4988 22.156 86.2788 22.016 86.0788 21.84C85.8868 21.664 85.7308 21.456 85.6108 21.216C85.4988 20.976 85.4428 20.704 85.4428 20.4C85.4428 19.896 85.5748 19.468 85.8388 19.116C86.1108 18.764 86.4668 18.496 86.9068 18.312C87.3548 18.12 87.8428 18.024 88.3708 18.024C88.9068 18.024 89.3948 18.12 89.8348 18.312C90.2828 18.496 90.6388 18.764 90.9028 19.116C91.1668 19.468 91.2988 19.896 91.2988 20.4C91.2988 20.704 91.2428 20.976 91.1308 21.216C91.0188 21.456 90.8628 21.664 90.6628 21.84C90.4708 22.016 90.2508 22.156 90.0028 22.26V22.38C90.3148 22.492 90.5908 22.656 90.8308 22.872C91.0708 23.08 91.2588 23.328 91.3948 23.616C91.5308 23.896 91.5988 24.208 91.5988 24.552C91.5988 25.08 91.4588 25.544 91.1788 25.944C90.9068 26.344 90.5268 26.656 90.0388 26.88C89.5588 27.104 89.0028 27.216 88.3708 27.216ZM88.3708 26.232C88.8108 26.232 89.1868 26.164 89.4988 26.028C89.8108 25.884 90.0508 25.684 90.2188 25.428C90.3868 25.164 90.4708 24.856 90.4708 24.504C90.4708 24.152 90.3868 23.848 90.2188 23.592C90.0588 23.336 89.8228 23.14 89.5108 23.004C89.1988 22.86 88.8188 22.788 88.3708 22.788C87.9308 22.788 87.5548 22.86 87.2428 23.004C86.9308 23.14 86.6908 23.336 86.5228 23.592C86.3628 23.848 86.2828 24.152 86.2828 24.504C86.2828 24.856 86.3628 25.164 86.5228 25.428C86.6908 25.684 86.9308 25.884 87.2428 26.028C87.5548 26.164 87.9308 26.232 88.3708 26.232ZM88.3708 21.876C88.9148 21.876 89.3508 21.76 89.6788 21.528C90.0068 21.288 90.1708 20.924 90.1708 20.436C90.1708 19.94 90.0028 19.58 89.6668 19.356C89.3388 19.124 88.9068 19.008 88.3708 19.008C87.8348 19.008 87.3988 19.124 87.0628 19.356C86.7348 19.588 86.5708 19.948 86.5708 20.436C86.5708 20.924 86.7348 21.288 87.0628 21.528C87.3988 21.76 87.8348 21.876 88.3708 21.876ZM95.6755 18C96.3155 18 96.8475 18.112 97.2715 18.336C97.7035 18.56 98.0435 18.868 98.2915 19.26C98.5475 19.644 98.7275 20.088 98.8315 20.592C98.9435 21.096 98.9995 21.624 98.9995 22.176V22.752C98.9995 24.136 98.6555 25.204 97.9675 25.956C97.2795 26.7 96.2835 27.072 94.9795 27.072C94.6675 27.072 94.4035 27.064 94.1875 27.048C93.9715 27.032 93.7355 27.008 93.4795 26.976V25.992C93.7435 26.024 93.9875 26.048 94.2115 26.064C94.4355 26.08 94.7075 26.088 95.0275 26.088C95.7555 26.088 96.3315 25.952 96.7555 25.68C97.1795 25.408 97.4835 25.02 97.6675 24.516C97.8515 24.004 97.9435 23.388 97.9435 22.668V22.128L98.2315 21.06C98.2235 21.692 98.0995 22.216 97.8595 22.632C97.6275 23.048 97.3035 23.36 96.8875 23.568C96.4795 23.776 96.0075 23.88 95.4715 23.88C94.8475 23.88 94.3195 23.756 93.8875 23.508C93.4555 23.252 93.1275 22.904 92.9035 22.464C92.6875 22.024 92.5795 21.524 92.5795 20.964C92.5795 20.396 92.6955 19.888 92.9275 19.44C93.1595 18.992 93.5035 18.64 93.9595 18.384C94.4235 18.128 94.9955 18 95.6755 18ZM95.6755 19.008C95.2355 19.008 94.8675 19.092 94.5715 19.26C94.2755 19.428 94.0515 19.66 93.8995 19.956C93.7555 20.244 93.6835 20.58 93.6835 20.964C93.6835 21.348 93.7555 21.688 93.8995 21.984C94.0435 22.28 94.2555 22.512 94.5355 22.68C94.8235 22.84 95.1755 22.92 95.5915 22.92C95.9995 22.92 96.3635 22.844 96.6835 22.692C97.0115 22.54 97.2675 22.32 97.4515 22.032C97.6355 21.736 97.7275 21.376 97.7275 20.952C97.7275 20.6 97.6555 20.276 97.5115 19.98C97.3675 19.684 97.1435 19.448 96.8395 19.272C96.5355 19.096 96.1475 19.008 95.6755 19.008ZM103.346 18C103.986 18 104.518 18.112 104.942 18.336C105.374 18.56 105.714 18.868 105.962 19.26C106.218 19.644 106.398 20.088 106.502 20.592C106.614 21.096 106.67 21.624 106.67 22.176V22.752C106.67 24.136 106.326 25.204 105.638 25.956C104.95 26.7 103.954 27.072 102.65 27.072C102.338 27.072 102.074 27.064 101.858 27.048C101.642 27.032 101.406 27.008 101.15 26.976V25.992C101.414 26.024 101.658 26.048 101.882 26.064C102.106 26.08 102.378 26.088 102.698 26.088C103.426 26.088 104.002 25.952 104.426 25.68C104.85 25.408 105.154 25.02 105.338 24.516C105.522 24.004 105.614 23.388 105.614 22.668V22.128L105.902 21.06C105.894 21.692 105.77 22.216 105.53 22.632C105.298 23.048 104.974 23.36 104.558 23.568C104.15 23.776 103.678 23.88 103.142 23.88C102.518 23.88 101.99 23.756 101.558 23.508C101.126 23.252 100.798 22.904 100.574 22.464C100.358 22.024 100.25 21.524 100.25 20.964C100.25 20.396 100.366 19.888 100.598 19.44C100.83 18.992 101.174 18.64 101.63 18.384C102.094 18.128 102.666 18 103.346 18ZM103.346 19.008C102.906 19.008 102.538 19.092 102.242 19.26C101.946 19.428 101.722 19.66 101.57 19.956C101.426 20.244 101.354 20.58 101.354 20.964C101.354 21.348 101.426 21.688 101.57 21.984C101.714 22.28 101.926 22.512 102.206 22.68C102.494 22.84 102.846 22.92 103.262 22.92C103.67 22.92 104.034 22.844 104.354 22.692C104.682 22.54 104.938 22.32 105.122 22.032C105.306 21.736 105.398 21.376 105.398 20.952C105.398 20.6 105.326 20.276 105.182 19.98C105.038 19.684 104.814 19.448 104.51 19.272C104.206 19.096 103.818 19.008 103.346 19.008ZM107.872 24.924V23.508L111.508 18.024L112.312 18.66L108.916 23.796L109.024 24.012H114.688V24.924H107.872ZM112.444 27V20.796H113.524V27H112.444ZM119.219 27.216C118.563 27.216 118.003 27.104 117.539 26.88C117.083 26.648 116.711 26.336 116.423 25.944C116.143 25.552 115.939 25.1 115.811 24.588C115.683 24.068 115.619 23.52 115.619 22.944V22.296C115.619 21.488 115.743 20.76 115.991 20.112C116.247 19.464 116.639 18.952 117.167 18.576C117.703 18.192 118.387 18 119.219 18C120.051 18 120.731 18.192 121.259 18.576C121.787 18.952 122.175 19.464 122.423 20.112C122.679 20.76 122.807 21.488 122.807 22.296V22.944C122.807 23.52 122.743 24.068 122.615 24.588C122.487 25.1 122.279 25.552 121.991 25.944C121.711 26.336 121.343 26.648 120.887 26.88C120.431 27.104 119.875 27.216 119.219 27.216ZM119.219 26.16C120.051 26.16 120.659 25.88 121.043 25.32C121.435 24.752 121.631 23.856 121.631 22.632C121.631 21.352 121.431 20.436 121.031 19.884C120.639 19.332 120.035 19.056 119.219 19.056C118.395 19.056 117.783 19.332 117.383 19.884C116.991 20.436 116.795 21.344 116.795 22.608C116.795 23.84 116.991 24.74 117.383 25.308C117.775 25.876 118.387 26.16 119.219 26.16ZM127.621 27.24C126.981 27.24 126.445 27.128 126.013 26.904C125.589 26.68 125.249 26.376 124.993 25.992C124.745 25.6 124.565 25.152 124.453 24.648C124.349 24.144 124.297 23.616 124.297 23.064V22.488C124.297 21.104 124.641 20.04 125.329 19.296C126.017 18.544 127.013 18.168 128.317 18.168C128.629 18.168 128.893 18.176 129.109 18.192C129.325 18.208 129.561 18.232 129.817 18.264V19.248C129.553 19.216 129.309 19.192 129.085 19.176C128.861 19.16 128.589 19.152 128.269 19.152C127.541 19.152 126.965 19.288 126.541 19.56C126.117 19.832 125.813 20.224 125.629 20.736C125.445 21.24 125.353 21.852 125.353 22.572V23.112L125.065 24.18C125.073 23.548 125.193 23.024 125.425 22.608C125.665 22.192 125.989 21.88 126.397 21.672C126.813 21.464 127.289 21.36 127.825 21.36C128.449 21.36 128.977 21.488 129.409 21.744C129.841 21.992 130.165 22.336 130.381 22.776C130.605 23.216 130.717 23.716 130.717 24.276C130.717 24.844 130.601 25.352 130.369 25.8C130.137 26.248 129.789 26.6 129.325 26.856C128.869 27.112 128.301 27.24 127.621 27.24ZM127.621 26.232C128.061 26.232 128.429 26.148 128.725 25.98C129.021 25.812 129.241 25.584 129.385 25.296C129.537 25 129.613 24.66 129.613 24.276C129.613 23.892 129.541 23.552 129.397 23.256C129.253 22.96 129.037 22.732 128.749 22.572C128.469 22.404 128.121 22.32 127.705 22.32C127.297 22.32 126.929 22.396 126.601 22.548C126.281 22.7 126.029 22.924 125.845 23.22C125.661 23.508 125.569 23.864 125.569 24.288C125.569 24.64 125.641 24.964 125.785 25.26C125.929 25.556 126.153 25.792 126.457 25.968C126.761 26.144 127.149 26.232 127.621 26.232ZM132.015 27V25.56C132.015 25.208 132.063 24.908 132.159 24.66C132.263 24.412 132.439 24.188 132.687 23.988C132.935 23.78 133.271 23.58 133.695 23.388L135.339 22.632C135.739 22.448 136.055 22.212 136.287 21.924C136.519 21.628 136.635 21.248 136.635 20.784C136.635 20.224 136.479 19.788 136.167 19.476C135.855 19.164 135.415 19.008 134.847 19.008C134.287 19.008 133.847 19.164 133.527 19.476C133.207 19.788 133.047 20.224 133.047 20.784H131.919C131.919 20.28 132.023 19.816 132.231 19.392C132.447 18.968 132.771 18.632 133.203 18.384C133.635 18.128 134.183 18 134.847 18C135.511 18 136.055 18.128 136.479 18.384C136.911 18.632 137.231 18.96 137.439 19.368C137.655 19.776 137.763 20.22 137.763 20.7V20.868C137.763 21.5 137.579 22.032 137.211 22.464C136.851 22.896 136.363 23.252 135.747 23.532L134.103 24.288C133.735 24.456 133.487 24.624 133.359 24.792C133.231 24.96 133.167 25.184 133.167 25.464V26.568L132.855 26.016H137.871V27H132.015Z" fill="black"/>
<path fill-rule="evenodd" clip-rule="evenodd" d="M2.88486 16.4675C3.1901 15.9865 4.87282 14.2402 6.07192 14.2929C6.43067 14.3221 6.74779 14.5273 7.00545 14.7665C7.59607 15.3162 9.2917 17.391 9.38683 17.8278C9.6217 18.899 8.2769 19.5166 8.68817 20.5963C9.73664 23.0335 11.5433 24.7496 14.1099 25.7446C15.2456 26.1362 15.8958 24.8598 17.0234 25.0819C17.4833 25.1732 19.6685 26.7821 20.2461 27.344C20.497 27.5878 20.7149 27.89 20.7446 28.2308C20.7893 29.431 18.837 31.0512 18.4565 31.2582C17.5587 31.8692 16.3873 31.8579 14.9592 31.2272C10.9744 29.6522 4.60623 23.717 2.91757 19.7886C2.27144 18.4397 2.22783 17.3194 2.88486 16.4675Z" stroke="black" stroke-width="2" stroke-linecap="round" stroke-linejoin="round"/>
<path d="M14.0537 14.5211C17.6259 14.8978 20.4462 17.5745 20.8477 20.9671" stroke="black" stroke-width="2" stroke-linecap="round" stroke-linejoin="round"/>
<path d="M14.0537 17.7686C15.7617 18.0848 17.0961 19.3526 17.429 20.9751" stroke="black" stroke-width="2" stroke-linecap="round" stroke-linejoin="round"/>
</svg>
