<svg width="280" height="36" viewBox="0 0 280 36" fill="none" xmlns="http://www.w3.org/2000/svg">
<rect width="280" height="36" rx="4" fill="white"/>
<path d="M6.288 23V12.78H7.632V18.884H7.296C7.296 18.1467 7.38933 17.512 7.576 16.98C7.772 16.4387 8.07067 16.0233 8.472 15.734C8.87333 15.4447 9.38667 15.3 10.012 15.3H10.068C10.964 15.3 11.6407 15.5987 12.098 16.196C12.5553 16.784 12.784 17.6287 12.784 18.73V23H11.44V18.45C11.44 17.8433 11.2673 17.372 10.922 17.036C10.586 16.7 10.1473 16.532 9.606 16.532C9.00867 16.532 8.528 16.7327 8.164 17.134C7.80933 17.526 7.632 18.044 7.632 18.688V23H6.288ZM17.8751 23.084C17.3151 23.084 16.8297 23.0047 16.4191 22.846C16.0177 22.6873 15.7051 22.4167 15.4811 22.034C15.2664 21.642 15.1591 21.1147 15.1591 20.452V13.256H16.4471V20.62C16.4471 21.0213 16.5544 21.334 16.7691 21.558C16.9931 21.7727 17.3057 21.88 17.7071 21.88H19.0231V23.084H17.8751ZM13.8711 16.532V15.524H19.0231V16.532H13.8711ZM20.644 25.8V15.524H21.708V18.758L21.456 18.73C21.5027 17.9273 21.6707 17.274 21.96 16.77C22.2587 16.2567 22.646 15.8787 23.122 15.636C23.598 15.3933 24.116 15.272 24.676 15.272C25.2173 15.272 25.7073 15.3747 26.146 15.58C26.594 15.7853 26.9767 16.0653 27.294 16.42C27.6113 16.7747 27.854 17.1853 28.022 17.652C28.19 18.1187 28.274 18.6133 28.274 19.136V19.388C28.274 19.9107 28.1853 20.4053 28.008 20.872C27.8307 21.3387 27.5787 21.7493 27.252 22.104C26.9347 22.4587 26.552 22.7387 26.104 22.944C25.6653 23.1493 25.18 23.252 24.648 23.252C24.116 23.252 23.6073 23.1353 23.122 22.902C22.6367 22.6687 22.2353 22.2907 21.918 21.768C21.6007 21.2453 21.4187 20.5593 21.372 19.71L21.988 20.83V25.8H20.644ZM24.438 22.076C24.942 22.076 25.3807 21.9593 25.754 21.726C26.1273 21.4833 26.4167 21.152 26.622 20.732C26.8273 20.3027 26.93 19.8127 26.93 19.262C26.93 18.702 26.8273 18.212 26.622 17.792C26.4167 17.372 26.1273 17.0453 25.754 16.812C25.3807 16.5693 24.942 16.448 24.438 16.448C23.99 16.448 23.5747 16.5507 23.192 16.756C22.8093 16.952 22.5013 17.2413 22.268 17.624C22.044 17.9973 21.932 18.45 21.932 18.982V19.626C21.932 20.1393 22.0487 20.578 22.282 20.942C22.5153 21.306 22.8233 21.586 23.206 21.782C23.5887 21.978 23.9993 22.076 24.438 22.076ZM30.0164 25.8V15.524H31.0804V18.758L30.8284 18.73C30.875 17.9273 31.043 17.274 31.3324 16.77C31.631 16.2567 32.0184 15.8787 32.4944 15.636C32.9704 15.3933 33.4884 15.272 34.0484 15.272C34.5897 15.272 35.0797 15.3747 35.5184 15.58C35.9664 15.7853 36.349 16.0653 36.6664 16.42C36.9837 16.7747 37.2264 17.1853 37.3944 17.652C37.5624 18.1187 37.6464 18.6133 37.6464 19.136V19.388C37.6464 19.9107 37.5577 20.4053 37.3804 20.872C37.203 21.3387 36.951 21.7493 36.6244 22.104C36.307 22.4587 35.9244 22.7387 35.4764 22.944C35.0377 23.1493 34.5524 23.252 34.0204 23.252C33.4884 23.252 32.9797 23.1353 32.4944 22.902C32.009 22.6687 31.6077 22.2907 31.2904 21.768C30.973 21.2453 30.791 20.5593 30.7444 19.71L31.3604 20.83V25.8H30.0164ZM33.8104 22.076C34.3144 22.076 34.753 21.9593 35.1264 21.726C35.4997 21.4833 35.789 21.152 35.9944 20.732C36.1997 20.3027 36.3024 19.8127 36.3024 19.262C36.3024 18.702 36.1997 18.212 35.9944 17.792C35.789 17.372 35.4997 17.0453 35.1264 16.812C34.753 16.5693 34.3144 16.448 33.8104 16.448C33.3624 16.448 32.947 16.5507 32.5644 16.756C32.1817 16.952 31.8737 17.2413 31.6404 17.624C31.4164 17.9973 31.3044 18.45 31.3044 18.982V19.626C31.3044 20.1393 31.421 20.578 31.6544 20.942C31.8877 21.306 32.1957 21.586 32.5784 21.782C32.961 21.978 33.3717 22.076 33.8104 22.076ZM41.8387 23.224C40.8587 23.224 40.098 23.014 39.5567 22.594C39.0247 22.174 38.7494 21.6 38.7307 20.872H39.9907C40.0094 21.1613 40.154 21.4367 40.4247 21.698C40.7047 21.95 41.176 22.076 41.8387 22.076C42.436 22.076 42.8934 21.9593 43.2107 21.726C43.528 21.4833 43.6867 21.1893 43.6867 20.844C43.6867 20.536 43.57 20.298 43.3367 20.13C43.1034 19.9527 42.7254 19.836 42.2027 19.78L41.3907 19.696C40.6814 19.6213 40.1027 19.4113 39.6547 19.066C39.2067 18.7113 38.9827 18.2167 38.9827 17.582C38.9827 17.106 39.104 16.7 39.3467 16.364C39.5894 16.0187 39.9254 15.7573 40.3547 15.58C40.784 15.3933 41.2787 15.3 41.8387 15.3C42.6787 15.3 43.36 15.4867 43.8827 15.86C44.4054 16.2333 44.676 16.7887 44.6947 17.526H43.4347C43.4254 17.2273 43.2854 16.9753 43.0147 16.77C42.7534 16.5553 42.3614 16.448 41.8387 16.448C41.316 16.448 40.9194 16.5553 40.6487 16.77C40.378 16.9847 40.2427 17.2553 40.2427 17.582C40.2427 17.862 40.336 18.086 40.5227 18.254C40.7187 18.422 41.036 18.5293 41.4747 18.576L42.2867 18.66C43.0894 18.744 43.7334 18.968 44.2187 19.332C44.704 19.6867 44.9467 20.1907 44.9467 20.844C44.9467 21.3107 44.8114 21.726 44.5407 22.09C44.2794 22.4447 43.9154 22.7247 43.4487 22.93C42.982 23.126 42.4454 23.224 41.8387 23.224ZM46.3486 23V21.292H47.9726V23H46.3486ZM46.3486 17.82V16.112H47.9726V17.82H46.3486ZM49.0606 23.84L51.9166 12.08H53.1766L50.3206 23.84H49.0606ZM53.5931 23.84L56.4491 12.08H57.7091L54.8531 23.84H53.5931ZM62.2889 23.252C61.6355 23.252 61.0615 23.14 60.5669 22.916C60.0722 22.692 59.6522 22.398 59.3069 22.034C58.9709 21.6607 58.7142 21.2453 58.5369 20.788C58.3689 20.3307 58.2849 19.864 58.2849 19.388V19.136C58.2849 18.66 58.3735 18.1933 58.5509 17.736C58.7282 17.2693 58.9895 16.854 59.3349 16.49C59.6802 16.1167 60.1002 15.8227 60.5949 15.608C61.0895 15.384 61.6542 15.272 62.2889 15.272C62.9235 15.272 63.4882 15.384 63.9829 15.608C64.4775 15.8227 64.8975 16.1167 65.2429 16.49C65.5882 16.854 65.8495 17.2693 66.0269 17.736C66.2042 18.1933 66.2929 18.66 66.2929 19.136V19.388C66.2929 19.864 66.2042 20.3307 66.0269 20.788C65.8589 21.2453 65.6022 21.6607 65.2569 22.034C64.9209 22.398 64.5055 22.692 64.0109 22.916C63.5162 23.14 62.9422 23.252 62.2889 23.252ZM62.2889 22.048C62.8489 22.048 63.3249 21.9267 63.7169 21.684C64.1182 21.432 64.4215 21.096 64.6269 20.676C64.8415 20.256 64.9489 19.7847 64.9489 19.262C64.9489 18.73 64.8415 18.254 64.6269 17.834C64.4122 17.414 64.1042 17.0827 63.7029 16.84C63.3109 16.5973 62.8395 16.476 62.2889 16.476C61.7475 16.476 61.2762 16.5973 60.8749 16.84C60.4735 17.0827 60.1655 17.414 59.9509 17.834C59.7362 18.254 59.6289 18.73 59.6289 19.262C59.6289 19.7847 59.7315 20.256 59.9369 20.676C60.1515 21.096 60.4549 21.432 60.8469 21.684C61.2482 21.9267 61.7289 22.048 62.2889 22.048ZM68.1098 23V12.78H69.4538V23H68.1098ZM67.0738 13.844V12.78H69.4538V13.844H67.0738ZM74.9297 23.252C74.2763 23.252 73.7117 23.14 73.2357 22.916C72.7597 22.692 72.3723 22.398 72.0737 22.034C71.775 21.6607 71.551 21.2453 71.4017 20.788C71.2617 20.3307 71.1917 19.864 71.1917 19.388V19.136C71.1917 18.6507 71.2617 18.1793 71.4017 17.722C71.551 17.2647 71.775 16.854 72.0737 16.49C72.3723 16.1167 72.7503 15.8227 73.2077 15.608C73.6743 15.384 74.2203 15.272 74.8457 15.272C75.6577 15.272 76.325 15.4493 76.8477 15.804C77.3797 16.1493 77.7717 16.5973 78.0237 17.148C78.285 17.6987 78.4157 18.2867 78.4157 18.912V19.514H71.7797V18.506H77.4357L77.1277 19.052C77.1277 18.52 77.0437 18.0627 76.8757 17.68C76.7077 17.288 76.4557 16.9847 76.1197 16.77C75.7837 16.5553 75.359 16.448 74.8457 16.448C74.3137 16.448 73.8703 16.5693 73.5157 16.812C73.1703 17.0547 72.909 17.386 72.7317 17.806C72.5637 18.226 72.4797 18.7113 72.4797 19.262C72.4797 19.794 72.5637 20.2747 72.7317 20.704C72.909 21.124 73.1797 21.46 73.5437 21.712C73.9077 21.9547 74.3697 22.076 74.9297 22.076C75.5177 22.076 75.9937 21.9453 76.3577 21.684C76.731 21.4227 76.955 21.1193 77.0297 20.774H78.2897C78.187 21.2873 77.9817 21.7307 77.6737 22.104C77.3657 22.4773 76.9783 22.762 76.5117 22.958C76.045 23.154 75.5177 23.252 74.9297 23.252ZM82.8719 25.912C82.5266 25.912 82.1766 25.898 81.8219 25.87C81.4766 25.842 81.1453 25.8047 80.8279 25.758V24.624C81.1639 24.6707 81.5139 24.708 81.8779 24.736C82.2513 24.7733 82.6013 24.792 82.9279 24.792C83.6093 24.792 84.1506 24.6987 84.5519 24.512C84.9626 24.3347 85.2566 24.05 85.4339 23.658C85.6206 23.2753 85.7139 22.7807 85.7139 22.174V20.746L86.1619 19.682C86.1339 20.438 85.9753 21.068 85.6859 21.572C85.3966 22.0667 85.0186 22.44 84.5519 22.692C84.0946 22.9347 83.5859 23.056 83.0259 23.056C82.5033 23.056 82.0226 22.958 81.5839 22.762C81.1546 22.5567 80.7813 22.2767 80.4639 21.922C80.1559 21.5673 79.9133 21.1613 79.7359 20.704C79.5679 20.2373 79.4839 19.7473 79.4839 19.234V18.982C79.4839 18.4593 79.5726 17.974 79.7499 17.526C79.9273 17.0687 80.1746 16.672 80.4919 16.336C80.8093 16 81.1873 15.7387 81.6259 15.552C82.0739 15.3653 82.5639 15.272 83.0959 15.272C83.7213 15.272 84.2719 15.4073 84.7479 15.678C85.2239 15.9393 85.5973 16.3267 85.8679 16.84C86.1479 17.344 86.3019 17.9647 86.3299 18.702L85.9379 18.716V15.524H87.0019V22.118C87.0019 23.014 86.8619 23.7373 86.5819 24.288C86.3113 24.848 85.8726 25.2587 85.2659 25.52C84.6686 25.7813 83.8706 25.912 82.8719 25.912ZM83.2779 21.824C83.7259 21.824 84.1319 21.726 84.4959 21.53C84.8693 21.334 85.1633 21.054 85.3779 20.69C85.6019 20.3167 85.7139 19.8733 85.7139 19.36V18.716C85.7139 18.212 85.5973 17.7873 85.3639 17.442C85.1399 17.0967 84.8459 16.8353 84.4819 16.658C84.1179 16.4807 83.7213 16.392 83.2919 16.392C82.8066 16.392 82.3773 16.504 82.0039 16.728C81.6306 16.952 81.3413 17.2693 81.1359 17.68C80.9306 18.0813 80.8279 18.5573 80.8279 19.108C80.8279 19.6587 80.9306 20.1393 81.1359 20.55C81.3506 20.9607 81.6399 21.278 82.0039 21.502C82.3773 21.7167 82.8019 21.824 83.2779 21.824ZM88.8472 19.682V18.534H94.0552V19.682H88.8472ZM101.138 23L98.3239 19.514H97.0919L100.522 15.524H101.936L98.8279 19.122L98.9259 18.408L102.692 23H101.138ZM95.9859 23V12.78H97.3299V23H95.9859ZM106.239 23.224C105.353 23.224 104.671 22.9347 104.195 22.356C103.719 21.7773 103.481 20.942 103.481 19.85V15.51H104.825V20.116C104.825 20.704 104.984 21.166 105.301 21.502C105.619 21.8287 106.048 21.992 106.589 21.992C107.149 21.992 107.607 21.8147 107.961 21.46C108.316 21.096 108.493 20.6013 108.493 19.976V15.51H109.837V23H108.773V19.794H108.941C108.941 20.5313 108.843 21.1567 108.647 21.67C108.451 22.174 108.157 22.5613 107.765 22.832C107.383 23.0933 106.893 23.224 106.295 23.224H106.239ZM111.684 23V21.502L115.758 16.616V16.84L115.534 16.504L115.716 16.588H111.628V15.524H116.948V17.022L112.874 21.908V21.712L113.126 22.062L112.93 21.936H117.172V23H111.684ZM118.716 23V15.524H119.78V18.73H119.612C119.612 18.002 119.706 17.386 119.892 16.882C120.088 16.3687 120.378 15.9767 120.76 15.706C121.143 15.4353 121.628 15.3 122.216 15.3H122.272C122.86 15.3 123.346 15.4353 123.728 15.706C124.12 15.9767 124.41 16.3687 124.596 16.882C124.783 17.386 124.876 18.002 124.876 18.73H124.484C124.484 18.002 124.582 17.386 124.778 16.882C124.974 16.3687 125.264 15.9767 125.646 15.706C126.038 15.4353 126.528 15.3 127.116 15.3H127.172C127.76 15.3 128.25 15.4353 128.642 15.706C129.034 15.9767 129.324 16.3687 129.51 16.882C129.706 17.386 129.804 18.002 129.804 18.73V23H128.46V18.436C128.46 17.8293 128.311 17.3627 128.012 17.036C127.714 16.7 127.298 16.532 126.766 16.532C126.216 16.532 125.772 16.7093 125.436 17.064C125.1 17.4093 124.932 17.8947 124.932 18.52V23H123.588V18.436C123.588 17.8293 123.439 17.3627 123.14 17.036C122.842 16.7 122.426 16.532 121.894 16.532C121.344 16.532 120.9 16.7093 120.564 17.064C120.228 17.4093 120.06 17.8947 120.06 18.52V23H118.716ZM132.349 23V15.524H133.693V23H132.349ZM131.201 16.588V15.524H133.693V16.588H131.201ZM132.727 14.32C132.428 14.32 132.204 14.2407 132.055 14.082C131.915 13.9233 131.845 13.7227 131.845 13.48C131.845 13.2373 131.915 13.0367 132.055 12.878C132.204 12.7193 132.428 12.64 132.727 12.64C133.026 12.64 133.245 12.7193 133.385 12.878C133.534 13.0367 133.609 13.2373 133.609 13.48C133.609 13.7227 133.534 13.9233 133.385 14.082C133.245 14.2407 133.026 14.32 132.727 14.32ZM136.012 23V15.524H137.076V18.73H136.908C136.908 17.9927 137.006 17.372 137.202 16.868C137.407 16.3547 137.715 15.9673 138.126 15.706C138.536 15.4353 139.054 15.3 139.68 15.3H139.736C140.678 15.3 141.374 15.594 141.822 16.182C142.279 16.77 142.508 17.6193 142.508 18.73V23H141.164V18.45C141.164 17.8713 141 17.4093 140.674 17.064C140.347 16.7093 139.899 16.532 139.33 16.532C138.742 16.532 138.266 16.714 137.902 17.078C137.538 17.442 137.356 17.9273 137.356 18.534V23H136.012ZM144.421 23V21.292H146.045V23H144.421ZM150.707 25.912C150.362 25.912 150.012 25.898 149.657 25.87C149.312 25.842 148.981 25.8047 148.663 25.758V24.624C148.999 24.6707 149.349 24.708 149.713 24.736C150.087 24.7733 150.437 24.792 150.763 24.792C151.445 24.792 151.986 24.6987 152.387 24.512C152.798 24.3347 153.092 24.05 153.269 23.658C153.456 23.2753 153.549 22.7807 153.549 22.174V20.746L153.997 19.682C153.969 20.438 153.811 21.068 153.521 21.572C153.232 22.0667 152.854 22.44 152.387 22.692C151.93 22.9347 151.421 23.056 150.861 23.056C150.339 23.056 149.858 22.958 149.419 22.762C148.99 22.5567 148.617 22.2767 148.299 21.922C147.991 21.5673 147.749 21.1613 147.571 20.704C147.403 20.2373 147.319 19.7473 147.319 19.234V18.982C147.319 18.4593 147.408 17.974 147.585 17.526C147.763 17.0687 148.01 16.672 148.327 16.336C148.645 16 149.023 15.7387 149.461 15.552C149.909 15.3653 150.399 15.272 150.931 15.272C151.557 15.272 152.107 15.4073 152.583 15.678C153.059 15.9393 153.433 16.3267 153.703 16.84C153.983 17.344 154.137 17.9647 154.165 18.702L153.773 18.716V15.524H154.837V22.118C154.837 23.014 154.697 23.7373 154.417 24.288C154.147 24.848 153.708 25.2587 153.101 25.52C152.504 25.7813 151.706 25.912 150.707 25.912ZM151.113 21.824C151.561 21.824 151.967 21.726 152.331 21.53C152.705 21.334 152.999 21.054 153.213 20.69C153.437 20.3167 153.549 19.8733 153.549 19.36V18.716C153.549 18.212 153.433 17.7873 153.199 17.442C152.975 17.0967 152.681 16.8353 152.317 16.658C151.953 16.4807 151.557 16.392 151.127 16.392C150.642 16.392 150.213 16.504 149.839 16.728C149.466 16.952 149.177 17.2693 148.971 17.68C148.766 18.0813 148.663 18.5573 148.663 19.108C148.663 19.6587 148.766 20.1393 148.971 20.55C149.186 20.9607 149.475 21.278 149.839 21.502C150.213 21.7167 150.637 21.824 151.113 21.824ZM157.411 23V15.524H158.755V23H157.411ZM156.263 16.588V15.524H158.755V16.588H156.263ZM157.789 14.32C157.49 14.32 157.266 14.2407 157.117 14.082C156.977 13.9233 156.907 13.7227 156.907 13.48C156.907 13.2373 156.977 13.0367 157.117 12.878C157.266 12.7193 157.49 12.64 157.789 12.64C158.087 12.64 158.307 12.7193 158.447 12.878C158.596 13.0367 158.671 13.2373 158.671 13.48C158.671 13.7227 158.596 13.9233 158.447 14.082C158.307 14.2407 158.087 14.32 157.789 14.32ZM163.985 23.084C163.425 23.084 162.94 23.0047 162.529 22.846C162.128 22.6873 161.815 22.4167 161.591 22.034C161.377 21.642 161.269 21.1147 161.269 20.452V13.256H162.557V20.62C162.557 21.0213 162.665 21.334 162.879 21.558C163.103 21.7727 163.416 21.88 163.817 21.88H165.133V23.084H163.985ZM159.981 16.532V15.524H165.133V16.532H159.981ZM166.754 23V12.78H168.098V18.884H167.762C167.762 18.1467 167.856 17.512 168.042 16.98C168.238 16.4387 168.537 16.0233 168.938 15.734C169.34 15.4447 169.853 15.3 170.478 15.3H170.534C171.43 15.3 172.107 15.5987 172.564 16.196C173.022 16.784 173.25 17.6287 173.25 18.73V23H171.906V18.45C171.906 17.8433 171.734 17.372 171.388 17.036C171.052 16.7 170.614 16.532 170.072 16.532C169.475 16.532 168.994 16.7327 168.63 17.134C168.276 17.526 168.098 18.044 168.098 18.688V23H166.754ZM178.019 23.224C177.133 23.224 176.451 22.9347 175.975 22.356C175.499 21.7773 175.261 20.942 175.261 19.85V15.51H176.605V20.116C176.605 20.704 176.764 21.166 177.081 21.502C177.399 21.8287 177.828 21.992 178.369 21.992C178.929 21.992 179.387 21.8147 179.741 21.46C180.096 21.096 180.273 20.6013 180.273 19.976V15.51H181.617V23H180.553V19.794H180.721C180.721 20.5313 180.623 21.1567 180.427 21.67C180.231 22.174 179.937 22.5613 179.545 22.832C179.163 23.0933 178.673 23.224 178.075 23.224H178.019ZM187.888 23.252C187.272 23.252 186.722 23.1167 186.236 22.846C185.76 22.5753 185.382 22.1833 185.102 21.67C184.822 21.1473 184.668 20.522 184.64 19.794H185.004V23H183.94V12.78H185.284V17.75L184.808 18.772C184.846 17.96 185.009 17.2973 185.298 16.784C185.588 16.2707 185.966 15.8927 186.432 15.65C186.908 15.398 187.431 15.272 188 15.272C188.532 15.272 189.018 15.3747 189.456 15.58C189.895 15.776 190.273 16.0513 190.59 16.406C190.908 16.7513 191.15 17.1573 191.318 17.624C191.486 18.0813 191.57 18.576 191.57 19.108V19.36C191.57 19.892 191.482 20.3913 191.304 20.858C191.136 21.3247 190.889 21.74 190.562 22.104C190.236 22.4587 189.844 22.7387 189.386 22.944C188.938 23.1493 188.439 23.252 187.888 23.252ZM187.734 22.076C188.238 22.076 188.677 21.9547 189.05 21.712C189.424 21.4693 189.713 21.138 189.918 20.718C190.124 20.2887 190.226 19.794 190.226 19.234C190.226 18.674 190.119 18.184 189.904 17.764C189.699 17.344 189.41 17.022 189.036 16.798C188.663 16.5647 188.229 16.448 187.734 16.448C187.286 16.448 186.871 16.5507 186.488 16.756C186.106 16.952 185.798 17.2413 185.564 17.624C185.34 17.9973 185.228 18.45 185.228 18.982V19.626C185.228 20.1393 185.345 20.578 185.578 20.942C185.812 21.306 186.12 21.586 186.502 21.782C186.885 21.978 187.296 22.076 187.734 22.076ZM192.855 23V21.292H194.479V23H192.855ZM196.869 23V15.524H198.213V23H196.869ZM195.721 16.588V15.524H198.213V16.588H195.721ZM197.247 14.32C196.949 14.32 196.725 14.2407 196.575 14.082C196.435 13.9233 196.365 13.7227 196.365 13.48C196.365 13.2373 196.435 13.0367 196.575 12.878C196.725 12.7193 196.949 12.64 197.247 12.64C197.546 12.64 197.765 12.7193 197.905 12.878C198.055 13.0367 198.129 13.2373 198.129 13.48C198.129 13.7227 198.055 13.9233 197.905 14.082C197.765 14.2407 197.546 14.32 197.247 14.32ZM203.976 23.252C203.323 23.252 202.749 23.14 202.254 22.916C201.759 22.692 201.339 22.398 200.994 22.034C200.658 21.6607 200.401 21.2453 200.224 20.788C200.056 20.3307 199.972 19.864 199.972 19.388V19.136C199.972 18.66 200.061 18.1933 200.238 17.736C200.415 17.2693 200.677 16.854 201.022 16.49C201.367 16.1167 201.787 15.8227 202.282 15.608C202.777 15.384 203.341 15.272 203.976 15.272C204.611 15.272 205.175 15.384 205.67 15.608C206.165 15.8227 206.585 16.1167 206.93 16.49C207.275 16.854 207.537 17.2693 207.714 17.736C207.891 18.1933 207.98 18.66 207.98 19.136V19.388C207.98 19.864 207.891 20.3307 207.714 20.788C207.546 21.2453 207.289 21.6607 206.944 22.034C206.608 22.398 206.193 22.692 205.698 22.916C205.203 23.14 204.629 23.252 203.976 23.252ZM203.976 22.048C204.536 22.048 205.012 21.9267 205.404 21.684C205.805 21.432 206.109 21.096 206.314 20.676C206.529 20.256 206.636 19.7847 206.636 19.262C206.636 18.73 206.529 18.254 206.314 17.834C206.099 17.414 205.791 17.0827 205.39 16.84C204.998 16.5973 204.527 16.476 203.976 16.476C203.435 16.476 202.963 16.5973 202.562 16.84C202.161 17.0827 201.853 17.414 201.638 17.834C201.423 18.254 201.316 18.73 201.316 19.262C201.316 19.7847 201.419 20.256 201.624 20.676C201.839 21.096 202.142 21.432 202.534 21.684C202.935 21.9267 203.416 22.048 203.976 22.048ZM208.775 23.84L211.631 12.08H212.891L210.035 23.84H208.775ZM214.245 25.8V15.524H215.309V18.758L215.057 18.73C215.104 17.9273 215.272 17.274 215.561 16.77C215.86 16.2567 216.247 15.8787 216.723 15.636C217.199 15.3933 217.717 15.272 218.277 15.272C218.819 15.272 219.309 15.3747 219.747 15.58C220.195 15.7853 220.578 16.0653 220.895 16.42C221.213 16.7747 221.455 17.1853 221.623 17.652C221.791 18.1187 221.875 18.6133 221.875 19.136V19.388C221.875 19.9107 221.787 20.4053 221.609 20.872C221.432 21.3387 221.18 21.7493 220.853 22.104C220.536 22.4587 220.153 22.7387 219.705 22.944C219.267 23.1493 218.781 23.252 218.249 23.252C217.717 23.252 217.209 23.1353 216.723 22.902C216.238 22.6687 215.837 22.2907 215.519 21.768C215.202 21.2453 215.02 20.5593 214.973 19.71L215.589 20.83V25.8H214.245ZM218.039 22.076C218.543 22.076 218.982 21.9593 219.355 21.726C219.729 21.4833 220.018 21.152 220.223 20.732C220.429 20.3027 220.531 19.8127 220.531 19.262C220.531 18.702 220.429 18.212 220.223 17.792C220.018 17.372 219.729 17.0453 219.355 16.812C218.982 16.5693 218.543 16.448 218.039 16.448C217.591 16.448 217.176 16.5507 216.793 16.756C216.411 16.952 216.103 17.2413 215.869 17.624C215.645 17.9973 215.533 18.45 215.533 18.982V19.626C215.533 20.1393 215.65 20.578 215.883 20.942C216.117 21.306 216.425 21.586 216.807 21.782C217.19 21.978 217.601 22.076 218.039 22.076ZM227.062 23.252C226.408 23.252 225.834 23.14 225.34 22.916C224.845 22.692 224.425 22.398 224.08 22.034C223.744 21.6607 223.487 21.2453 223.31 20.788C223.142 20.3307 223.058 19.864 223.058 19.388V19.136C223.058 18.66 223.146 18.1933 223.324 17.736C223.501 17.2693 223.762 16.854 224.108 16.49C224.453 16.1167 224.873 15.8227 225.368 15.608C225.862 15.384 226.427 15.272 227.062 15.272C227.696 15.272 228.261 15.384 228.756 15.608C229.25 15.8227 229.67 16.1167 230.016 16.49C230.361 16.854 230.622 17.2693 230.8 17.736C230.977 18.1933 231.066 18.66 231.066 19.136V19.388C231.066 19.864 230.977 20.3307 230.8 20.788C230.632 21.2453 230.375 21.6607 230.03 22.034C229.694 22.398 229.278 22.692 228.784 22.916C228.289 23.14 227.715 23.252 227.062 23.252ZM227.062 22.048C227.622 22.048 228.098 21.9267 228.49 21.684C228.891 21.432 229.194 21.096 229.4 20.676C229.614 20.256 229.722 19.7847 229.722 19.262C229.722 18.73 229.614 18.254 229.4 17.834C229.185 17.414 228.877 17.0827 228.476 16.84C228.084 16.5973 227.612 16.476 227.062 16.476C226.52 16.476 226.049 16.5973 225.648 16.84C225.246 17.0827 224.938 17.414 224.724 17.834C224.509 18.254 224.402 18.73 224.402 19.262C224.402 19.7847 224.504 20.256 224.71 20.676C224.924 21.096 225.228 21.432 225.62 21.684C226.021 21.9267 226.502 22.048 227.062 22.048ZM232.799 23V15.524H233.863V18.604H233.807C233.807 17.512 234.045 16.714 234.521 16.21C235.006 15.6967 235.729 15.44 236.691 15.44H236.943V16.644H236.467C235.72 16.644 235.146 16.8447 234.745 17.246C234.343 17.638 234.143 18.2073 234.143 18.954V23H232.799ZM241.31 23.084C240.75 23.084 240.264 23.0047 239.854 22.846C239.452 22.6873 239.14 22.4167 238.916 22.034C238.701 21.642 238.594 21.1147 238.594 20.452V13.256H239.882V20.62C239.882 21.0213 239.989 21.334 240.204 21.558C240.428 21.7727 240.74 21.88 241.142 21.88H242.458V23.084H241.31ZM237.306 16.532V15.524H242.458V16.532H237.306ZM244.275 23V15.146C244.275 14.3153 244.494 13.704 244.933 13.312C245.371 12.92 246.015 12.724 246.865 12.724H247.789V13.844H246.641C246.295 13.844 246.029 13.942 245.843 14.138C245.656 14.3247 245.563 14.586 245.563 14.922V23H244.275ZM243.239 16.616V15.608H247.929V16.616H243.239ZM252.493 23.252C251.839 23.252 251.265 23.14 250.771 22.916C250.276 22.692 249.856 22.398 249.511 22.034C249.175 21.6607 248.918 21.2453 248.741 20.788C248.573 20.3307 248.489 19.864 248.489 19.388V19.136C248.489 18.66 248.577 18.1933 248.755 17.736C248.932 17.2693 249.193 16.854 249.539 16.49C249.884 16.1167 250.304 15.8227 250.799 15.608C251.293 15.384 251.858 15.272 252.493 15.272C253.127 15.272 253.692 15.384 254.187 15.608C254.681 15.8227 255.101 16.1167 255.447 16.49C255.792 16.854 256.053 17.2693 256.231 17.736C256.408 18.1933 256.497 18.66 256.497 19.136V19.388C256.497 19.864 256.408 20.3307 256.231 20.788C256.063 21.2453 255.806 21.6607 255.461 22.034C255.125 22.398 254.709 22.692 254.215 22.916C253.72 23.14 253.146 23.252 252.493 23.252ZM252.493 22.048C253.053 22.048 253.529 21.9267 253.921 21.684C254.322 21.432 254.625 21.096 254.831 20.676C255.045 20.256 255.153 19.7847 255.153 19.262C255.153 18.73 255.045 18.254 254.831 17.834C254.616 17.414 254.308 17.0827 253.907 16.84C253.515 16.5973 253.043 16.476 252.493 16.476C251.951 16.476 251.48 16.5973 251.079 16.84C250.677 17.0827 250.369 17.414 250.155 17.834C249.94 18.254 249.833 18.73 249.833 19.262C249.833 19.7847 249.935 20.256 250.141 20.676C250.355 21.096 250.659 21.432 251.051 21.684C251.452 21.9267 251.933 22.048 252.493 22.048ZM258.313 23V12.78H259.657V23H258.313ZM257.277 13.844V12.78H259.657V13.844H257.277ZM262.319 23V15.524H263.663V23H262.319ZM261.171 16.588V15.524H263.663V16.588H261.171ZM262.697 14.32C262.399 14.32 262.175 14.2407 262.025 14.082C261.885 13.9233 261.815 13.7227 261.815 13.48C261.815 13.2373 261.885 13.0367 262.025 12.878C262.175 12.7193 262.399 12.64 262.697 12.64C262.996 12.64 263.215 12.7193 263.355 12.878C263.505 13.0367 263.579 13.2373 263.579 13.48C263.579 13.7227 263.505 13.9233 263.355 14.082C263.215 14.2407 262.996 14.32 262.697 14.32ZM269.426 23.252C268.773 23.252 268.199 23.14 267.704 22.916C267.209 22.692 266.789 22.398 266.444 22.034C266.108 21.6607 265.851 21.2453 265.674 20.788C265.506 20.3307 265.422 19.864 265.422 19.388V19.136C265.422 18.66 265.511 18.1933 265.688 17.736C265.865 17.2693 266.127 16.854 266.472 16.49C266.817 16.1167 267.237 15.8227 267.732 15.608C268.227 15.384 268.791 15.272 269.426 15.272C270.061 15.272 270.625 15.384 271.12 15.608C271.615 15.8227 272.035 16.1167 272.38 16.49C272.725 16.854 272.987 17.2693 273.164 17.736C273.341 18.1933 273.43 18.66 273.43 19.136V19.388C273.43 19.864 273.341 20.3307 273.164 20.788C272.996 21.2453 272.739 21.6607 272.394 22.034C272.058 22.398 271.643 22.692 271.148 22.916C270.653 23.14 270.079 23.252 269.426 23.252ZM269.426 22.048C269.986 22.048 270.462 21.9267 270.854 21.684C271.255 21.432 271.559 21.096 271.764 20.676C271.979 20.256 272.086 19.7847 272.086 19.262C272.086 18.73 271.979 18.254 271.764 17.834C271.549 17.414 271.241 17.0827 270.84 16.84C270.448 16.5973 269.977 16.476 269.426 16.476C268.885 16.476 268.413 16.5973 268.012 16.84C267.611 17.0827 267.303 17.414 267.088 17.834C266.873 18.254 266.766 18.73 266.766 19.262C266.766 19.7847 266.869 20.256 267.074 20.676C267.289 21.096 267.592 21.432 267.984 21.684C268.385 21.9267 268.866 22.048 269.426 22.048Z" fill="black"/>
</svg>
