<svg width="280" height="40" viewBox="0 0 280 40" fill="none" xmlns="http://www.w3.org/2000/svg">
<rect width="280" height="40" rx="4" fill="white"/>
<path d="M6.288 25V14.78H7.632V20.884H7.296C7.296 20.1467 7.38933 19.512 7.576 18.98C7.772 18.4387 8.07067 18.0233 8.472 17.734C8.87333 17.4447 9.38667 17.3 10.012 17.3H10.068C10.964 17.3 11.6407 17.5987 12.098 18.196C12.5553 18.784 12.784 19.6287 12.784 20.73V25H11.44V20.45C11.44 19.8433 11.2673 19.372 10.922 19.036C10.586 18.7 10.1473 18.532 9.606 18.532C9.00867 18.532 8.528 18.7327 8.164 19.134C7.80933 19.526 7.632 20.044 7.632 20.688V25H6.288ZM17.8751 25.084C17.3151 25.084 16.8297 25.0047 16.4191 24.846C16.0177 24.6873 15.7051 24.4167 15.4811 24.034C15.2664 23.642 15.1591 23.1147 15.1591 22.452V15.256H16.4471V22.62C16.4471 23.0213 16.5544 23.334 16.7691 23.558C16.9931 23.7727 17.3057 23.88 17.7071 23.88H19.0231V25.084H17.8751ZM13.8711 18.532V17.524H19.0231V18.532H13.8711ZM20.644 27.8V17.524H21.708V20.758L21.456 20.73C21.5027 19.9273 21.6707 19.274 21.96 18.77C22.2587 18.2567 22.646 17.8787 23.122 17.636C23.598 17.3933 24.116 17.272 24.676 17.272C25.2173 17.272 25.7073 17.3747 26.146 17.58C26.594 17.7853 26.9767 18.0653 27.294 18.42C27.6113 18.7747 27.854 19.1853 28.022 19.652C28.19 20.1187 28.274 20.6133 28.274 21.136V21.388C28.274 21.9107 28.1853 22.4053 28.008 22.872C27.8307 23.3387 27.5787 23.7493 27.252 24.104C26.9347 24.4587 26.552 24.7387 26.104 24.944C25.6653 25.1493 25.18 25.252 24.648 25.252C24.116 25.252 23.6073 25.1353 23.122 24.902C22.6367 24.6687 22.2353 24.2907 21.918 23.768C21.6007 23.2453 21.4187 22.5593 21.372 21.71L21.988 22.83V27.8H20.644ZM24.438 24.076C24.942 24.076 25.3807 23.9593 25.754 23.726C26.1273 23.4833 26.4167 23.152 26.622 22.732C26.8273 22.3027 26.93 21.8127 26.93 21.262C26.93 20.702 26.8273 20.212 26.622 19.792C26.4167 19.372 26.1273 19.0453 25.754 18.812C25.3807 18.5693 24.942 18.448 24.438 18.448C23.99 18.448 23.5747 18.5507 23.192 18.756C22.8093 18.952 22.5013 19.2413 22.268 19.624C22.044 19.9973 21.932 20.45 21.932 20.982V21.626C21.932 22.1393 22.0487 22.578 22.282 22.942C22.5153 23.306 22.8233 23.586 23.206 23.782C23.5887 23.978 23.9993 24.076 24.438 24.076ZM30.0164 27.8V17.524H31.0804V20.758L30.8284 20.73C30.875 19.9273 31.043 19.274 31.3324 18.77C31.631 18.2567 32.0184 17.8787 32.4944 17.636C32.9704 17.3933 33.4884 17.272 34.0484 17.272C34.5897 17.272 35.0797 17.3747 35.5184 17.58C35.9664 17.7853 36.349 18.0653 36.6664 18.42C36.9837 18.7747 37.2264 19.1853 37.3944 19.652C37.5624 20.1187 37.6464 20.6133 37.6464 21.136V21.388C37.6464 21.9107 37.5577 22.4053 37.3804 22.872C37.203 23.3387 36.951 23.7493 36.6244 24.104C36.307 24.4587 35.9244 24.7387 35.4764 24.944C35.0377 25.1493 34.5524 25.252 34.0204 25.252C33.4884 25.252 32.9797 25.1353 32.4944 24.902C32.009 24.6687 31.6077 24.2907 31.2904 23.768C30.973 23.2453 30.791 22.5593 30.7444 21.71L31.3604 22.83V27.8H30.0164ZM33.8104 24.076C34.3144 24.076 34.753 23.9593 35.1264 23.726C35.4997 23.4833 35.789 23.152 35.9944 22.732C36.1997 22.3027 36.3024 21.8127 36.3024 21.262C36.3024 20.702 36.1997 20.212 35.9944 19.792C35.789 19.372 35.4997 19.0453 35.1264 18.812C34.753 18.5693 34.3144 18.448 33.8104 18.448C33.3624 18.448 32.947 18.5507 32.5644 18.756C32.1817 18.952 31.8737 19.2413 31.6404 19.624C31.4164 19.9973 31.3044 20.45 31.3044 20.982V21.626C31.3044 22.1393 31.421 22.578 31.6544 22.942C31.8877 23.306 32.1957 23.586 32.5784 23.782C32.961 23.978 33.3717 24.076 33.8104 24.076ZM41.8387 25.224C40.8587 25.224 40.098 25.014 39.5567 24.594C39.0247 24.174 38.7494 23.6 38.7307 22.872H39.9907C40.0094 23.1613 40.154 23.4367 40.4247 23.698C40.7047 23.95 41.176 24.076 41.8387 24.076C42.436 24.076 42.8934 23.9593 43.2107 23.726C43.528 23.4833 43.6867 23.1893 43.6867 22.844C43.6867 22.536 43.57 22.298 43.3367 22.13C43.1034 21.9527 42.7254 21.836 42.2027 21.78L41.3907 21.696C40.6814 21.6213 40.1027 21.4113 39.6547 21.066C39.2067 20.7113 38.9827 20.2167 38.9827 19.582C38.9827 19.106 39.104 18.7 39.3467 18.364C39.5894 18.0187 39.9254 17.7573 40.3547 17.58C40.784 17.3933 41.2787 17.3 41.8387 17.3C42.6787 17.3 43.36 17.4867 43.8827 17.86C44.4054 18.2333 44.676 18.7887 44.6947 19.526H43.4347C43.4254 19.2273 43.2854 18.9753 43.0147 18.77C42.7534 18.5553 42.3614 18.448 41.8387 18.448C41.316 18.448 40.9194 18.5553 40.6487 18.77C40.378 18.9847 40.2427 19.2553 40.2427 19.582C40.2427 19.862 40.336 20.086 40.5227 20.254C40.7187 20.422 41.036 20.5293 41.4747 20.576L42.2867 20.66C43.0894 20.744 43.7334 20.968 44.2187 21.332C44.704 21.6867 44.9467 22.1907 44.9467 22.844C44.9467 23.3107 44.8114 23.726 44.5407 24.09C44.2794 24.4447 43.9154 24.7247 43.4487 24.93C42.982 25.126 42.4454 25.224 41.8387 25.224ZM46.3486 25V23.292H47.9726V25H46.3486ZM46.3486 19.82V18.112H47.9726V19.82H46.3486ZM49.0606 25.84L51.9166 14.08H53.1766L50.3206 25.84H49.0606ZM53.5931 25.84L56.4491 14.08H57.7091L54.8531 25.84H53.5931ZM62.2889 25.252C61.6355 25.252 61.0615 25.14 60.5669 24.916C60.0722 24.692 59.6522 24.398 59.3069 24.034C58.9709 23.6607 58.7142 23.2453 58.5369 22.788C58.3689 22.3307 58.2849 21.864 58.2849 21.388V21.136C58.2849 20.66 58.3735 20.1933 58.5509 19.736C58.7282 19.2693 58.9895 18.854 59.3349 18.49C59.6802 18.1167 60.1002 17.8227 60.5949 17.608C61.0895 17.384 61.6542 17.272 62.2889 17.272C62.9235 17.272 63.4882 17.384 63.9829 17.608C64.4775 17.8227 64.8975 18.1167 65.2429 18.49C65.5882 18.854 65.8495 19.2693 66.0269 19.736C66.2042 20.1933 66.2929 20.66 66.2929 21.136V21.388C66.2929 21.864 66.2042 22.3307 66.0269 22.788C65.8589 23.2453 65.6022 23.6607 65.2569 24.034C64.9209 24.398 64.5055 24.692 64.0109 24.916C63.5162 25.14 62.9422 25.252 62.2889 25.252ZM62.2889 24.048C62.8489 24.048 63.3249 23.9267 63.7169 23.684C64.1182 23.432 64.4215 23.096 64.6269 22.676C64.8415 22.256 64.9489 21.7847 64.9489 21.262C64.9489 20.73 64.8415 20.254 64.6269 19.834C64.4122 19.414 64.1042 19.0827 63.7029 18.84C63.3109 18.5973 62.8395 18.476 62.2889 18.476C61.7475 18.476 61.2762 18.5973 60.8749 18.84C60.4735 19.0827 60.1655 19.414 59.9509 19.834C59.7362 20.254 59.6289 20.73 59.6289 21.262C59.6289 21.7847 59.7315 22.256 59.9369 22.676C60.1515 23.096 60.4549 23.432 60.8469 23.684C61.2482 23.9267 61.7289 24.048 62.2889 24.048ZM68.1098 25V14.78H69.4538V25H68.1098ZM67.0738 15.844V14.78H69.4538V15.844H67.0738ZM74.9297 25.252C74.2763 25.252 73.7117 25.14 73.2357 24.916C72.7597 24.692 72.3723 24.398 72.0737 24.034C71.775 23.6607 71.551 23.2453 71.4017 22.788C71.2617 22.3307 71.1917 21.864 71.1917 21.388V21.136C71.1917 20.6507 71.2617 20.1793 71.4017 19.722C71.551 19.2647 71.775 18.854 72.0737 18.49C72.3723 18.1167 72.7503 17.8227 73.2077 17.608C73.6743 17.384 74.2203 17.272 74.8457 17.272C75.6577 17.272 76.325 17.4493 76.8477 17.804C77.3797 18.1493 77.7717 18.5973 78.0237 19.148C78.285 19.6987 78.4157 20.2867 78.4157 20.912V21.514H71.7797V20.506H77.4357L77.1277 21.052C77.1277 20.52 77.0437 20.0627 76.8757 19.68C76.7077 19.288 76.4557 18.9847 76.1197 18.77C75.7837 18.5553 75.359 18.448 74.8457 18.448C74.3137 18.448 73.8703 18.5693 73.5157 18.812C73.1703 19.0547 72.909 19.386 72.7317 19.806C72.5637 20.226 72.4797 20.7113 72.4797 21.262C72.4797 21.794 72.5637 22.2747 72.7317 22.704C72.909 23.124 73.1797 23.46 73.5437 23.712C73.9077 23.9547 74.3697 24.076 74.9297 24.076C75.5177 24.076 75.9937 23.9453 76.3577 23.684C76.731 23.4227 76.955 23.1193 77.0297 22.774H78.2897C78.187 23.2873 77.9817 23.7307 77.6737 24.104C77.3657 24.4773 76.9783 24.762 76.5117 24.958C76.045 25.154 75.5177 25.252 74.9297 25.252ZM82.8719 27.912C82.5266 27.912 82.1766 27.898 81.8219 27.87C81.4766 27.842 81.1453 27.8047 80.8279 27.758V26.624C81.1639 26.6707 81.5139 26.708 81.8779 26.736C82.2513 26.7733 82.6013 26.792 82.9279 26.792C83.6093 26.792 84.1506 26.6987 84.5519 26.512C84.9626 26.3347 85.2566 26.05 85.4339 25.658C85.6206 25.2753 85.7139 24.7807 85.7139 24.174V22.746L86.1619 21.682C86.1339 22.438 85.9753 23.068 85.6859 23.572C85.3966 24.0667 85.0186 24.44 84.5519 24.692C84.0946 24.9347 83.5859 25.056 83.0259 25.056C82.5033 25.056 82.0226 24.958 81.5839 24.762C81.1546 24.5567 80.7813 24.2767 80.4639 23.922C80.1559 23.5673 79.9133 23.1613 79.7359 22.704C79.5679 22.2373 79.4839 21.7473 79.4839 21.234V20.982C79.4839 20.4593 79.5726 19.974 79.7499 19.526C79.9273 19.0687 80.1746 18.672 80.4919 18.336C80.8093 18 81.1873 17.7387 81.6259 17.552C82.0739 17.3653 82.5639 17.272 83.0959 17.272C83.7213 17.272 84.2719 17.4073 84.7479 17.678C85.2239 17.9393 85.5973 18.3267 85.8679 18.84C86.1479 19.344 86.3019 19.9647 86.3299 20.702L85.9379 20.716V17.524H87.0019V24.118C87.0019 25.014 86.8619 25.7373 86.5819 26.288C86.3113 26.848 85.8726 27.2587 85.2659 27.52C84.6686 27.7813 83.8706 27.912 82.8719 27.912ZM83.2779 23.824C83.7259 23.824 84.1319 23.726 84.4959 23.53C84.8693 23.334 85.1633 23.054 85.3779 22.69C85.6019 22.3167 85.7139 21.8733 85.7139 21.36V20.716C85.7139 20.212 85.5973 19.7873 85.3639 19.442C85.1399 19.0967 84.8459 18.8353 84.4819 18.658C84.1179 18.4807 83.7213 18.392 83.2919 18.392C82.8066 18.392 82.3773 18.504 82.0039 18.728C81.6306 18.952 81.3413 19.2693 81.1359 19.68C80.9306 20.0813 80.8279 20.5573 80.8279 21.108C80.8279 21.6587 80.9306 22.1393 81.1359 22.55C81.3506 22.9607 81.6399 23.278 82.0039 23.502C82.3773 23.7167 82.8019 23.824 83.2779 23.824ZM88.8472 21.682V20.534H94.0552V21.682H88.8472ZM101.138 25L98.3239 21.514H97.0919L100.522 17.524H101.936L98.8279 21.122L98.9259 20.408L102.692 25H101.138ZM95.9859 25V14.78H97.3299V25H95.9859ZM106.239 25.224C105.353 25.224 104.671 24.9347 104.195 24.356C103.719 23.7773 103.481 22.942 103.481 21.85V17.51H104.825V22.116C104.825 22.704 104.984 23.166 105.301 23.502C105.619 23.8287 106.048 23.992 106.589 23.992C107.149 23.992 107.607 23.8147 107.961 23.46C108.316 23.096 108.493 22.6013 108.493 21.976V17.51H109.837V25H108.773V21.794H108.941C108.941 22.5313 108.843 23.1567 108.647 23.67C108.451 24.174 108.157 24.5613 107.765 24.832C107.383 25.0933 106.893 25.224 106.295 25.224H106.239ZM111.684 25V23.502L115.758 18.616V18.84L115.534 18.504L115.716 18.588H111.628V17.524H116.948V19.022L112.874 23.908V23.712L113.126 24.062L112.93 23.936H117.172V25H111.684ZM118.716 25V17.524H119.78V20.73H119.612C119.612 20.002 119.706 19.386 119.892 18.882C120.088 18.3687 120.378 17.9767 120.76 17.706C121.143 17.4353 121.628 17.3 122.216 17.3H122.272C122.86 17.3 123.346 17.4353 123.728 17.706C124.12 17.9767 124.41 18.3687 124.596 18.882C124.783 19.386 124.876 20.002 124.876 20.73H124.484C124.484 20.002 124.582 19.386 124.778 18.882C124.974 18.3687 125.264 17.9767 125.646 17.706C126.038 17.4353 126.528 17.3 127.116 17.3H127.172C127.76 17.3 128.25 17.4353 128.642 17.706C129.034 17.9767 129.324 18.3687 129.51 18.882C129.706 19.386 129.804 20.002 129.804 20.73V25H128.46V20.436C128.46 19.8293 128.311 19.3627 128.012 19.036C127.714 18.7 127.298 18.532 126.766 18.532C126.216 18.532 125.772 18.7093 125.436 19.064C125.1 19.4093 124.932 19.8947 124.932 20.52V25H123.588V20.436C123.588 19.8293 123.439 19.3627 123.14 19.036C122.842 18.7 122.426 18.532 121.894 18.532C121.344 18.532 120.9 18.7093 120.564 19.064C120.228 19.4093 120.06 19.8947 120.06 20.52V25H118.716ZM132.349 25V17.524H133.693V25H132.349ZM131.201 18.588V17.524H133.693V18.588H131.201ZM132.727 16.32C132.428 16.32 132.204 16.2407 132.055 16.082C131.915 15.9233 131.845 15.7227 131.845 15.48C131.845 15.2373 131.915 15.0367 132.055 14.878C132.204 14.7193 132.428 14.64 132.727 14.64C133.026 14.64 133.245 14.7193 133.385 14.878C133.534 15.0367 133.609 15.2373 133.609 15.48C133.609 15.7227 133.534 15.9233 133.385 16.082C133.245 16.2407 133.026 16.32 132.727 16.32ZM136.012 25V17.524H137.076V20.73H136.908C136.908 19.9927 137.006 19.372 137.202 18.868C137.407 18.3547 137.715 17.9673 138.126 17.706C138.536 17.4353 139.054 17.3 139.68 17.3H139.736C140.678 17.3 141.374 17.594 141.822 18.182C142.279 18.77 142.508 19.6193 142.508 20.73V25H141.164V20.45C141.164 19.8713 141 19.4093 140.674 19.064C140.347 18.7093 139.899 18.532 139.33 18.532C138.742 18.532 138.266 18.714 137.902 19.078C137.538 19.442 137.356 19.9273 137.356 20.534V25H136.012ZM144.421 25V23.292H146.045V25H144.421ZM150.707 27.912C150.362 27.912 150.012 27.898 149.657 27.87C149.312 27.842 148.981 27.8047 148.663 27.758V26.624C148.999 26.6707 149.349 26.708 149.713 26.736C150.087 26.7733 150.437 26.792 150.763 26.792C151.445 26.792 151.986 26.6987 152.387 26.512C152.798 26.3347 153.092 26.05 153.269 25.658C153.456 25.2753 153.549 24.7807 153.549 24.174V22.746L153.997 21.682C153.969 22.438 153.811 23.068 153.521 23.572C153.232 24.0667 152.854 24.44 152.387 24.692C151.93 24.9347 151.421 25.056 150.861 25.056C150.339 25.056 149.858 24.958 149.419 24.762C148.99 24.5567 148.617 24.2767 148.299 23.922C147.991 23.5673 147.749 23.1613 147.571 22.704C147.403 22.2373 147.319 21.7473 147.319 21.234V20.982C147.319 20.4593 147.408 19.974 147.585 19.526C147.763 19.0687 148.01 18.672 148.327 18.336C148.645 18 149.023 17.7387 149.461 17.552C149.909 17.3653 150.399 17.272 150.931 17.272C151.557 17.272 152.107 17.4073 152.583 17.678C153.059 17.9393 153.433 18.3267 153.703 18.84C153.983 19.344 154.137 19.9647 154.165 20.702L153.773 20.716V17.524H154.837V24.118C154.837 25.014 154.697 25.7373 154.417 26.288C154.147 26.848 153.708 27.2587 153.101 27.52C152.504 27.7813 151.706 27.912 150.707 27.912ZM151.113 23.824C151.561 23.824 151.967 23.726 152.331 23.53C152.705 23.334 152.999 23.054 153.213 22.69C153.437 22.3167 153.549 21.8733 153.549 21.36V20.716C153.549 20.212 153.433 19.7873 153.199 19.442C152.975 19.0967 152.681 18.8353 152.317 18.658C151.953 18.4807 151.557 18.392 151.127 18.392C150.642 18.392 150.213 18.504 149.839 18.728C149.466 18.952 149.177 19.2693 148.971 19.68C148.766 20.0813 148.663 20.5573 148.663 21.108C148.663 21.6587 148.766 22.1393 148.971 22.55C149.186 22.9607 149.475 23.278 149.839 23.502C150.213 23.7167 150.637 23.824 151.113 23.824ZM157.411 25V17.524H158.755V25H157.411ZM156.263 18.588V17.524H158.755V18.588H156.263ZM157.789 16.32C157.49 16.32 157.266 16.2407 157.117 16.082C156.977 15.9233 156.907 15.7227 156.907 15.48C156.907 15.2373 156.977 15.0367 157.117 14.878C157.266 14.7193 157.49 14.64 157.789 14.64C158.087 14.64 158.307 14.7193 158.447 14.878C158.596 15.0367 158.671 15.2373 158.671 15.48C158.671 15.7227 158.596 15.9233 158.447 16.082C158.307 16.2407 158.087 16.32 157.789 16.32ZM163.985 25.084C163.425 25.084 162.94 25.0047 162.529 24.846C162.128 24.6873 161.815 24.4167 161.591 24.034C161.377 23.642 161.269 23.1147 161.269 22.452V15.256H162.557V22.62C162.557 23.0213 162.665 23.334 162.879 23.558C163.103 23.7727 163.416 23.88 163.817 23.88H165.133V25.084H163.985ZM159.981 18.532V17.524H165.133V18.532H159.981ZM166.754 25V14.78H168.098V20.884H167.762C167.762 20.1467 167.856 19.512 168.042 18.98C168.238 18.4387 168.537 18.0233 168.938 17.734C169.34 17.4447 169.853 17.3 170.478 17.3H170.534C171.43 17.3 172.107 17.5987 172.564 18.196C173.022 18.784 173.25 19.6287 173.25 20.73V25H171.906V20.45C171.906 19.8433 171.734 19.372 171.388 19.036C171.052 18.7 170.614 18.532 170.072 18.532C169.475 18.532 168.994 18.7327 168.63 19.134C168.276 19.526 168.098 20.044 168.098 20.688V25H166.754ZM178.019 25.224C177.133 25.224 176.451 24.9347 175.975 24.356C175.499 23.7773 175.261 22.942 175.261 21.85V17.51H176.605V22.116C176.605 22.704 176.764 23.166 177.081 23.502C177.399 23.8287 177.828 23.992 178.369 23.992C178.929 23.992 179.387 23.8147 179.741 23.46C180.096 23.096 180.273 22.6013 180.273 21.976V17.51H181.617V25H180.553V21.794H180.721C180.721 22.5313 180.623 23.1567 180.427 23.67C180.231 24.174 179.937 24.5613 179.545 24.832C179.163 25.0933 178.673 25.224 178.075 25.224H178.019ZM187.888 25.252C187.272 25.252 186.722 25.1167 186.236 24.846C185.76 24.5753 185.382 24.1833 185.102 23.67C184.822 23.1473 184.668 22.522 184.64 21.794H185.004V25H183.94V14.78H185.284V19.75L184.808 20.772C184.846 19.96 185.009 19.2973 185.298 18.784C185.588 18.2707 185.966 17.8927 186.432 17.65C186.908 17.398 187.431 17.272 188 17.272C188.532 17.272 189.018 17.3747 189.456 17.58C189.895 17.776 190.273 18.0513 190.59 18.406C190.908 18.7513 191.15 19.1573 191.318 19.624C191.486 20.0813 191.57 20.576 191.57 21.108V21.36C191.57 21.892 191.482 22.3913 191.304 22.858C191.136 23.3247 190.889 23.74 190.562 24.104C190.236 24.4587 189.844 24.7387 189.386 24.944C188.938 25.1493 188.439 25.252 187.888 25.252ZM187.734 24.076C188.238 24.076 188.677 23.9547 189.05 23.712C189.424 23.4693 189.713 23.138 189.918 22.718C190.124 22.2887 190.226 21.794 190.226 21.234C190.226 20.674 190.119 20.184 189.904 19.764C189.699 19.344 189.41 19.022 189.036 18.798C188.663 18.5647 188.229 18.448 187.734 18.448C187.286 18.448 186.871 18.5507 186.488 18.756C186.106 18.952 185.798 19.2413 185.564 19.624C185.34 19.9973 185.228 20.45 185.228 20.982V21.626C185.228 22.1393 185.345 22.578 185.578 22.942C185.812 23.306 186.12 23.586 186.502 23.782C186.885 23.978 187.296 24.076 187.734 24.076ZM192.855 25V23.292H194.479V25H192.855ZM196.869 25V17.524H198.213V25H196.869ZM195.721 18.588V17.524H198.213V18.588H195.721ZM197.247 16.32C196.949 16.32 196.725 16.2407 196.575 16.082C196.435 15.9233 196.365 15.7227 196.365 15.48C196.365 15.2373 196.435 15.0367 196.575 14.878C196.725 14.7193 196.949 14.64 197.247 14.64C197.546 14.64 197.765 14.7193 197.905 14.878C198.055 15.0367 198.129 15.2373 198.129 15.48C198.129 15.7227 198.055 15.9233 197.905 16.082C197.765 16.2407 197.546 16.32 197.247 16.32ZM203.976 25.252C203.323 25.252 202.749 25.14 202.254 24.916C201.759 24.692 201.339 24.398 200.994 24.034C200.658 23.6607 200.401 23.2453 200.224 22.788C200.056 22.3307 199.972 21.864 199.972 21.388V21.136C199.972 20.66 200.061 20.1933 200.238 19.736C200.415 19.2693 200.677 18.854 201.022 18.49C201.367 18.1167 201.787 17.8227 202.282 17.608C202.777 17.384 203.341 17.272 203.976 17.272C204.611 17.272 205.175 17.384 205.67 17.608C206.165 17.8227 206.585 18.1167 206.93 18.49C207.275 18.854 207.537 19.2693 207.714 19.736C207.891 20.1933 207.98 20.66 207.98 21.136V21.388C207.98 21.864 207.891 22.3307 207.714 22.788C207.546 23.2453 207.289 23.6607 206.944 24.034C206.608 24.398 206.193 24.692 205.698 24.916C205.203 25.14 204.629 25.252 203.976 25.252ZM203.976 24.048C204.536 24.048 205.012 23.9267 205.404 23.684C205.805 23.432 206.109 23.096 206.314 22.676C206.529 22.256 206.636 21.7847 206.636 21.262C206.636 20.73 206.529 20.254 206.314 19.834C206.099 19.414 205.791 19.0827 205.39 18.84C204.998 18.5973 204.527 18.476 203.976 18.476C203.435 18.476 202.963 18.5973 202.562 18.84C202.161 19.0827 201.853 19.414 201.638 19.834C201.423 20.254 201.316 20.73 201.316 21.262C201.316 21.7847 201.419 22.256 201.624 22.676C201.839 23.096 202.142 23.432 202.534 23.684C202.935 23.9267 203.416 24.048 203.976 24.048ZM208.775 25.84L211.631 14.08H212.891L210.035 25.84H208.775ZM214.245 27.8V17.524H215.309V20.758L215.057 20.73C215.104 19.9273 215.272 19.274 215.561 18.77C215.86 18.2567 216.247 17.8787 216.723 17.636C217.199 17.3933 217.717 17.272 218.277 17.272C218.819 17.272 219.309 17.3747 219.747 17.58C220.195 17.7853 220.578 18.0653 220.895 18.42C221.213 18.7747 221.455 19.1853 221.623 19.652C221.791 20.1187 221.875 20.6133 221.875 21.136V21.388C221.875 21.9107 221.787 22.4053 221.609 22.872C221.432 23.3387 221.18 23.7493 220.853 24.104C220.536 24.4587 220.153 24.7387 219.705 24.944C219.267 25.1493 218.781 25.252 218.249 25.252C217.717 25.252 217.209 25.1353 216.723 24.902C216.238 24.6687 215.837 24.2907 215.519 23.768C215.202 23.2453 215.02 22.5593 214.973 21.71L215.589 22.83V27.8H214.245ZM218.039 24.076C218.543 24.076 218.982 23.9593 219.355 23.726C219.729 23.4833 220.018 23.152 220.223 22.732C220.429 22.3027 220.531 21.8127 220.531 21.262C220.531 20.702 220.429 20.212 220.223 19.792C220.018 19.372 219.729 19.0453 219.355 18.812C218.982 18.5693 218.543 18.448 218.039 18.448C217.591 18.448 217.176 18.5507 216.793 18.756C216.411 18.952 216.103 19.2413 215.869 19.624C215.645 19.9973 215.533 20.45 215.533 20.982V21.626C215.533 22.1393 215.65 22.578 215.883 22.942C216.117 23.306 216.425 23.586 216.807 23.782C217.19 23.978 217.601 24.076 218.039 24.076ZM227.062 25.252C226.408 25.252 225.834 25.14 225.34 24.916C224.845 24.692 224.425 24.398 224.08 24.034C223.744 23.6607 223.487 23.2453 223.31 22.788C223.142 22.3307 223.058 21.864 223.058 21.388V21.136C223.058 20.66 223.146 20.1933 223.324 19.736C223.501 19.2693 223.762 18.854 224.108 18.49C224.453 18.1167 224.873 17.8227 225.368 17.608C225.862 17.384 226.427 17.272 227.062 17.272C227.696 17.272 228.261 17.384 228.756 17.608C229.25 17.8227 229.67 18.1167 230.016 18.49C230.361 18.854 230.622 19.2693 230.8 19.736C230.977 20.1933 231.066 20.66 231.066 21.136V21.388C231.066 21.864 230.977 22.3307 230.8 22.788C230.632 23.2453 230.375 23.6607 230.03 24.034C229.694 24.398 229.278 24.692 228.784 24.916C228.289 25.14 227.715 25.252 227.062 25.252ZM227.062 24.048C227.622 24.048 228.098 23.9267 228.49 23.684C228.891 23.432 229.194 23.096 229.4 22.676C229.614 22.256 229.722 21.7847 229.722 21.262C229.722 20.73 229.614 20.254 229.4 19.834C229.185 19.414 228.877 19.0827 228.476 18.84C228.084 18.5973 227.612 18.476 227.062 18.476C226.52 18.476 226.049 18.5973 225.648 18.84C225.246 19.0827 224.938 19.414 224.724 19.834C224.509 20.254 224.402 20.73 224.402 21.262C224.402 21.7847 224.504 22.256 224.71 22.676C224.924 23.096 225.228 23.432 225.62 23.684C226.021 23.9267 226.502 24.048 227.062 24.048ZM232.799 25V17.524H233.863V20.604H233.807C233.807 19.512 234.045 18.714 234.521 18.21C235.006 17.6967 235.729 17.44 236.691 17.44H236.943V18.644H236.467C235.72 18.644 235.146 18.8447 234.745 19.246C234.343 19.638 234.143 20.2073 234.143 20.954V25H232.799ZM241.31 25.084C240.75 25.084 240.264 25.0047 239.854 24.846C239.452 24.6873 239.14 24.4167 238.916 24.034C238.701 23.642 238.594 23.1147 238.594 22.452V15.256H239.882V22.62C239.882 23.0213 239.989 23.334 240.204 23.558C240.428 23.7727 240.74 23.88 241.142 23.88H242.458V25.084H241.31ZM237.306 18.532V17.524H242.458V18.532H237.306ZM244.275 25V17.146C244.275 16.3153 244.494 15.704 244.933 15.312C245.371 14.92 246.015 14.724 246.865 14.724H247.789V15.844H246.641C246.295 15.844 246.029 15.942 245.843 16.138C245.656 16.3247 245.563 16.586 245.563 16.922V25H244.275ZM243.239 18.616V17.608H247.929V18.616H243.239ZM252.493 25.252C251.839 25.252 251.265 25.14 250.771 24.916C250.276 24.692 249.856 24.398 249.511 24.034C249.175 23.6607 248.918 23.2453 248.741 22.788C248.573 22.3307 248.489 21.864 248.489 21.388V21.136C248.489 20.66 248.577 20.1933 248.755 19.736C248.932 19.2693 249.193 18.854 249.539 18.49C249.884 18.1167 250.304 17.8227 250.799 17.608C251.293 17.384 251.858 17.272 252.493 17.272C253.127 17.272 253.692 17.384 254.187 17.608C254.681 17.8227 255.101 18.1167 255.447 18.49C255.792 18.854 256.053 19.2693 256.231 19.736C256.408 20.1933 256.497 20.66 256.497 21.136V21.388C256.497 21.864 256.408 22.3307 256.231 22.788C256.063 23.2453 255.806 23.6607 255.461 24.034C255.125 24.398 254.709 24.692 254.215 24.916C253.72 25.14 253.146 25.252 252.493 25.252ZM252.493 24.048C253.053 24.048 253.529 23.9267 253.921 23.684C254.322 23.432 254.625 23.096 254.831 22.676C255.045 22.256 255.153 21.7847 255.153 21.262C255.153 20.73 255.045 20.254 254.831 19.834C254.616 19.414 254.308 19.0827 253.907 18.84C253.515 18.5973 253.043 18.476 252.493 18.476C251.951 18.476 251.48 18.5973 251.079 18.84C250.677 19.0827 250.369 19.414 250.155 19.834C249.94 20.254 249.833 20.73 249.833 21.262C249.833 21.7847 249.935 22.256 250.141 22.676C250.355 23.096 250.659 23.432 251.051 23.684C251.452 23.9267 251.933 24.048 252.493 24.048ZM258.313 25V14.78H259.657V25H258.313ZM257.277 15.844V14.78H259.657V15.844H257.277ZM262.319 25V17.524H263.663V25H262.319ZM261.171 18.588V17.524H263.663V18.588H261.171ZM262.697 16.32C262.399 16.32 262.175 16.2407 262.025 16.082C261.885 15.9233 261.815 15.7227 261.815 15.48C261.815 15.2373 261.885 15.0367 262.025 14.878C262.175 14.7193 262.399 14.64 262.697 14.64C262.996 14.64 263.215 14.7193 263.355 14.878C263.505 15.0367 263.579 15.2373 263.579 15.48C263.579 15.7227 263.505 15.9233 263.355 16.082C263.215 16.2407 262.996 16.32 262.697 16.32ZM269.426 25.252C268.773 25.252 268.199 25.14 267.704 24.916C267.209 24.692 266.789 24.398 266.444 24.034C266.108 23.6607 265.851 23.2453 265.674 22.788C265.506 22.3307 265.422 21.864 265.422 21.388V21.136C265.422 20.66 265.511 20.1933 265.688 19.736C265.865 19.2693 266.127 18.854 266.472 18.49C266.817 18.1167 267.237 17.8227 267.732 17.608C268.227 17.384 268.791 17.272 269.426 17.272C270.061 17.272 270.625 17.384 271.12 17.608C271.615 17.8227 272.035 18.1167 272.38 18.49C272.725 18.854 272.987 19.2693 273.164 19.736C273.341 20.1933 273.43 20.66 273.43 21.136V21.388C273.43 21.864 273.341 22.3307 273.164 22.788C272.996 23.2453 272.739 23.6607 272.394 24.034C272.058 24.398 271.643 24.692 271.148 24.916C270.653 25.14 270.079 25.252 269.426 25.252ZM269.426 24.048C269.986 24.048 270.462 23.9267 270.854 23.684C271.255 23.432 271.559 23.096 271.764 22.676C271.979 22.256 272.086 21.7847 272.086 21.262C272.086 20.73 271.979 20.254 271.764 19.834C271.549 19.414 271.241 19.0827 270.84 18.84C270.448 18.5973 269.977 18.476 269.426 18.476C268.885 18.476 268.413 18.5973 268.012 18.84C267.611 19.0827 267.303 19.414 267.088 19.834C266.873 20.254 266.766 20.73 266.766 21.262C266.766 21.7847 266.869 22.256 267.074 22.676C267.289 23.096 267.592 23.432 267.984 23.684C268.385 23.9267 268.866 24.048 269.426 24.048Z" fill="black"/>
</svg>
