<svg width="280" height="46" viewBox="0 0 280 46" fill="none" xmlns="http://www.w3.org/2000/svg">
<rect width="280" height="46" rx="4" fill="white"/>
<path d="M1.288 28V17.78H2.632V23.884H2.296C2.296 23.1467 2.38933 22.512 2.576 21.98C2.772 21.4387 3.07067 21.0233 3.472 20.734C3.87333 20.4447 4.38667 20.3 5.012 20.3H5.068C5.964 20.3 6.64067 20.5987 7.098 21.196C7.55533 21.784 7.784 22.6287 7.784 23.73V28H6.44V23.45C6.44 22.8433 6.26733 22.372 5.922 22.036C5.586 21.7 5.14733 21.532 4.606 21.532C4.00867 21.532 3.528 21.7327 3.164 22.134C2.80933 22.526 2.632 23.044 2.632 23.688V28H1.288ZM12.8751 28.084C12.3151 28.084 11.8297 28.0047 11.4191 27.846C11.0177 27.6873 10.7051 27.4167 10.4811 27.034C10.2664 26.642 10.1591 26.1147 10.1591 25.452V18.256H11.4471V25.62C11.4471 26.0213 11.5544 26.334 11.7691 26.558C11.9931 26.7727 12.3057 26.88 12.7071 26.88H14.0231V28.084H12.8751ZM8.87108 21.532V20.524H14.0231V21.532H8.87108ZM15.644 30.8V20.524H16.708V23.758L16.456 23.73C16.5027 22.9273 16.6707 22.274 16.96 21.77C17.2587 21.2567 17.646 20.8787 18.122 20.636C18.598 20.3933 19.116 20.272 19.676 20.272C20.2173 20.272 20.7073 20.3747 21.146 20.58C21.594 20.7853 21.9767 21.0653 22.294 21.42C22.6113 21.7747 22.854 22.1853 23.022 22.652C23.19 23.1187 23.274 23.6133 23.274 24.136V24.388C23.274 24.9107 23.1853 25.4053 23.008 25.872C22.8307 26.3387 22.5787 26.7493 22.252 27.104C21.9347 27.4587 21.552 27.7387 21.104 27.944C20.6653 28.1493 20.18 28.252 19.648 28.252C19.116 28.252 18.6073 28.1353 18.122 27.902C17.6367 27.6687 17.2353 27.2907 16.918 26.768C16.6007 26.2453 16.4187 25.5593 16.372 24.71L16.988 25.83V30.8H15.644ZM19.438 27.076C19.942 27.076 20.3807 26.9593 20.754 26.726C21.1273 26.4833 21.4167 26.152 21.622 25.732C21.8273 25.3027 21.93 24.8127 21.93 24.262C21.93 23.702 21.8273 23.212 21.622 22.792C21.4167 22.372 21.1273 22.0453 20.754 21.812C20.3807 21.5693 19.942 21.448 19.438 21.448C18.99 21.448 18.5747 21.5507 18.192 21.756C17.8093 21.952 17.5013 22.2413 17.268 22.624C17.044 22.9973 16.932 23.45 16.932 23.982V24.626C16.932 25.1393 17.0487 25.578 17.282 25.942C17.5153 26.306 17.8233 26.586 18.206 26.782C18.5887 26.978 18.9993 27.076 19.438 27.076ZM25.0164 30.8V20.524H26.0804V23.758L25.8284 23.73C25.875 22.9273 26.043 22.274 26.3324 21.77C26.631 21.2567 27.0184 20.8787 27.4944 20.636C27.9704 20.3933 28.4884 20.272 29.0484 20.272C29.5897 20.272 30.0797 20.3747 30.5184 20.58C30.9664 20.7853 31.349 21.0653 31.6664 21.42C31.9837 21.7747 32.2264 22.1853 32.3944 22.652C32.5624 23.1187 32.6464 23.6133 32.6464 24.136V24.388C32.6464 24.9107 32.5577 25.4053 32.3804 25.872C32.203 26.3387 31.951 26.7493 31.6244 27.104C31.307 27.4587 30.9244 27.7387 30.4764 27.944C30.0377 28.1493 29.5524 28.252 29.0204 28.252C28.4884 28.252 27.9797 28.1353 27.4944 27.902C27.009 27.6687 26.6077 27.2907 26.2904 26.768C25.973 26.2453 25.791 25.5593 25.7444 24.71L26.3604 25.83V30.8H25.0164ZM28.8104 27.076C29.3144 27.076 29.753 26.9593 30.1264 26.726C30.4997 26.4833 30.789 26.152 30.9944 25.732C31.1997 25.3027 31.3024 24.8127 31.3024 24.262C31.3024 23.702 31.1997 23.212 30.9944 22.792C30.789 22.372 30.4997 22.0453 30.1264 21.812C29.753 21.5693 29.3144 21.448 28.8104 21.448C28.3624 21.448 27.947 21.5507 27.5644 21.756C27.1817 21.952 26.8737 22.2413 26.6404 22.624C26.4164 22.9973 26.3044 23.45 26.3044 23.982V24.626C26.3044 25.1393 26.421 25.578 26.6544 25.942C26.8877 26.306 27.1957 26.586 27.5784 26.782C27.961 26.978 28.3717 27.076 28.8104 27.076ZM36.8387 28.224C35.8587 28.224 35.098 28.014 34.5567 27.594C34.0247 27.174 33.7494 26.6 33.7307 25.872H34.9907C35.0094 26.1613 35.154 26.4367 35.4247 26.698C35.7047 26.95 36.176 27.076 36.8387 27.076C37.436 27.076 37.8934 26.9593 38.2107 26.726C38.528 26.4833 38.6867 26.1893 38.6867 25.844C38.6867 25.536 38.57 25.298 38.3367 25.13C38.1034 24.9527 37.7254 24.836 37.2027 24.78L36.3907 24.696C35.6814 24.6213 35.1027 24.4113 34.6547 24.066C34.2067 23.7113 33.9827 23.2167 33.9827 22.582C33.9827 22.106 34.104 21.7 34.3467 21.364C34.5894 21.0187 34.9254 20.7573 35.3547 20.58C35.784 20.3933 36.2787 20.3 36.8387 20.3C37.6787 20.3 38.36 20.4867 38.8827 20.86C39.4054 21.2333 39.676 21.7887 39.6947 22.526H38.4347C38.4254 22.2273 38.2854 21.9753 38.0147 21.77C37.7534 21.5553 37.3614 21.448 36.8387 21.448C36.316 21.448 35.9194 21.5553 35.6487 21.77C35.378 21.9847 35.2427 22.2553 35.2427 22.582C35.2427 22.862 35.336 23.086 35.5227 23.254C35.7187 23.422 36.036 23.5293 36.4747 23.576L37.2867 23.66C38.0894 23.744 38.7334 23.968 39.2187 24.332C39.704 24.6867 39.9467 25.1907 39.9467 25.844C39.9467 26.3107 39.8114 26.726 39.5407 27.09C39.2794 27.4447 38.9154 27.7247 38.4487 27.93C37.982 28.126 37.4454 28.224 36.8387 28.224ZM41.3486 28V26.292H42.9726V28H41.3486ZM41.3486 22.82V21.112H42.9726V22.82H41.3486ZM44.0606 28.84L46.9166 17.08H48.1766L45.3206 28.84H44.0606ZM48.5931 28.84L51.4491 17.08H52.7091L49.8531 28.84H48.5931ZM57.2889 28.252C56.6355 28.252 56.0615 28.14 55.5669 27.916C55.0722 27.692 54.6522 27.398 54.3069 27.034C53.9709 26.6607 53.7142 26.2453 53.5369 25.788C53.3689 25.3307 53.2849 24.864 53.2849 24.388V24.136C53.2849 23.66 53.3735 23.1933 53.5509 22.736C53.7282 22.2693 53.9895 21.854 54.3349 21.49C54.6802 21.1167 55.1002 20.8227 55.5949 20.608C56.0895 20.384 56.6542 20.272 57.2889 20.272C57.9235 20.272 58.4882 20.384 58.9829 20.608C59.4775 20.8227 59.8975 21.1167 60.2429 21.49C60.5882 21.854 60.8495 22.2693 61.0269 22.736C61.2042 23.1933 61.2929 23.66 61.2929 24.136V24.388C61.2929 24.864 61.2042 25.3307 61.0269 25.788C60.8589 26.2453 60.6022 26.6607 60.2569 27.034C59.9209 27.398 59.5055 27.692 59.0109 27.916C58.5162 28.14 57.9422 28.252 57.2889 28.252ZM57.2889 27.048C57.8489 27.048 58.3249 26.9267 58.7169 26.684C59.1182 26.432 59.4215 26.096 59.6269 25.676C59.8415 25.256 59.9489 24.7847 59.9489 24.262C59.9489 23.73 59.8415 23.254 59.6269 22.834C59.4122 22.414 59.1042 22.0827 58.7029 21.84C58.3109 21.5973 57.8395 21.476 57.2889 21.476C56.7475 21.476 56.2762 21.5973 55.8749 21.84C55.4735 22.0827 55.1655 22.414 54.9509 22.834C54.7362 23.254 54.6289 23.73 54.6289 24.262C54.6289 24.7847 54.7315 25.256 54.9369 25.676C55.1515 26.096 55.4549 26.432 55.8469 26.684C56.2482 26.9267 56.7289 27.048 57.2889 27.048ZM63.1098 28V17.78H64.4538V28H63.1098ZM62.0738 18.844V17.78H64.4538V18.844H62.0738ZM69.9297 28.252C69.2763 28.252 68.7117 28.14 68.2357 27.916C67.7597 27.692 67.3723 27.398 67.0737 27.034C66.775 26.6607 66.551 26.2453 66.4017 25.788C66.2617 25.3307 66.1917 24.864 66.1917 24.388V24.136C66.1917 23.6507 66.2617 23.1793 66.4017 22.722C66.551 22.2647 66.775 21.854 67.0737 21.49C67.3723 21.1167 67.7503 20.8227 68.2077 20.608C68.6743 20.384 69.2203 20.272 69.8457 20.272C70.6577 20.272 71.325 20.4493 71.8477 20.804C72.3797 21.1493 72.7717 21.5973 73.0237 22.148C73.285 22.6987 73.4157 23.2867 73.4157 23.912V24.514H66.7797V23.506H72.4357L72.1277 24.052C72.1277 23.52 72.0437 23.0627 71.8757 22.68C71.7077 22.288 71.4557 21.9847 71.1197 21.77C70.7837 21.5553 70.359 21.448 69.8457 21.448C69.3137 21.448 68.8703 21.5693 68.5157 21.812C68.1703 22.0547 67.909 22.386 67.7317 22.806C67.5637 23.226 67.4797 23.7113 67.4797 24.262C67.4797 24.794 67.5637 25.2747 67.7317 25.704C67.909 26.124 68.1797 26.46 68.5437 26.712C68.9077 26.9547 69.3697 27.076 69.9297 27.076C70.5177 27.076 70.9937 26.9453 71.3577 26.684C71.731 26.4227 71.955 26.1193 72.0297 25.774H73.2897C73.187 26.2873 72.9817 26.7307 72.6737 27.104C72.3657 27.4773 71.9783 27.762 71.5117 27.958C71.045 28.154 70.5177 28.252 69.9297 28.252ZM77.8719 30.912C77.5266 30.912 77.1766 30.898 76.8219 30.87C76.4766 30.842 76.1453 30.8047 75.8279 30.758V29.624C76.1639 29.6707 76.5139 29.708 76.8779 29.736C77.2513 29.7733 77.6013 29.792 77.9279 29.792C78.6093 29.792 79.1506 29.6987 79.5519 29.512C79.9626 29.3347 80.2566 29.05 80.4339 28.658C80.6206 28.2753 80.7139 27.7807 80.7139 27.174V25.746L81.1619 24.682C81.1339 25.438 80.9753 26.068 80.6859 26.572C80.3966 27.0667 80.0186 27.44 79.5519 27.692C79.0946 27.9347 78.5859 28.056 78.0259 28.056C77.5033 28.056 77.0226 27.958 76.5839 27.762C76.1546 27.5567 75.7813 27.2767 75.4639 26.922C75.1559 26.5673 74.9133 26.1613 74.7359 25.704C74.5679 25.2373 74.4839 24.7473 74.4839 24.234V23.982C74.4839 23.4593 74.5726 22.974 74.7499 22.526C74.9273 22.0687 75.1746 21.672 75.4919 21.336C75.8093 21 76.1873 20.7387 76.6259 20.552C77.0739 20.3653 77.5639 20.272 78.0959 20.272C78.7213 20.272 79.2719 20.4073 79.7479 20.678C80.2239 20.9393 80.5973 21.3267 80.8679 21.84C81.1479 22.344 81.3019 22.9647 81.3299 23.702L80.9379 23.716V20.524H82.0019V27.118C82.0019 28.014 81.8619 28.7373 81.5819 29.288C81.3113 29.848 80.8726 30.2587 80.2659 30.52C79.6686 30.7813 78.8706 30.912 77.8719 30.912ZM78.2779 26.824C78.7259 26.824 79.1319 26.726 79.4959 26.53C79.8693 26.334 80.1633 26.054 80.3779 25.69C80.6019 25.3167 80.7139 24.8733 80.7139 24.36V23.716C80.7139 23.212 80.5973 22.7873 80.3639 22.442C80.1399 22.0967 79.8459 21.8353 79.4819 21.658C79.1179 21.4807 78.7213 21.392 78.2919 21.392C77.8066 21.392 77.3773 21.504 77.0039 21.728C76.6306 21.952 76.3413 22.2693 76.1359 22.68C75.9306 23.0813 75.8279 23.5573 75.8279 24.108C75.8279 24.6587 75.9306 25.1393 76.1359 25.55C76.3506 25.9607 76.6399 26.278 77.0039 26.502C77.3773 26.7167 77.8019 26.824 78.2779 26.824ZM83.8472 24.682V23.534H89.0552V24.682H83.8472ZM96.1379 28L93.3239 24.514H92.0919L95.5219 20.524H96.9359L93.8279 24.122L93.9259 23.408L97.6919 28H96.1379ZM90.9859 28V17.78H92.3299V28H90.9859ZM101.239 28.224C100.353 28.224 99.6713 27.9347 99.1953 27.356C98.7193 26.7773 98.4813 25.942 98.4813 24.85V20.51H99.8253V25.116C99.8253 25.704 99.9839 26.166 100.301 26.502C100.619 26.8287 101.048 26.992 101.589 26.992C102.149 26.992 102.607 26.8147 102.961 26.46C103.316 26.096 103.493 25.6013 103.493 24.976V20.51H104.837V28H103.773V24.794H103.941C103.941 25.5313 103.843 26.1567 103.647 26.67C103.451 27.174 103.157 27.5613 102.765 27.832C102.383 28.0933 101.893 28.224 101.295 28.224H101.239ZM106.684 28V26.502L110.758 21.616V21.84L110.534 21.504L110.716 21.588H106.628V20.524H111.948V22.022L107.874 26.908V26.712L108.126 27.062L107.93 26.936H112.172V28H106.684ZM113.716 28V20.524H114.78V23.73H114.612C114.612 23.002 114.706 22.386 114.892 21.882C115.088 21.3687 115.378 20.9767 115.76 20.706C116.143 20.4353 116.628 20.3 117.216 20.3H117.272C117.86 20.3 118.346 20.4353 118.728 20.706C119.12 20.9767 119.41 21.3687 119.596 21.882C119.783 22.386 119.876 23.002 119.876 23.73H119.484C119.484 23.002 119.582 22.386 119.778 21.882C119.974 21.3687 120.264 20.9767 120.646 20.706C121.038 20.4353 121.528 20.3 122.116 20.3H122.172C122.76 20.3 123.25 20.4353 123.642 20.706C124.034 20.9767 124.324 21.3687 124.51 21.882C124.706 22.386 124.804 23.002 124.804 23.73V28H123.46V23.436C123.46 22.8293 123.311 22.3627 123.012 22.036C122.714 21.7 122.298 21.532 121.766 21.532C121.216 21.532 120.772 21.7093 120.436 22.064C120.1 22.4093 119.932 22.8947 119.932 23.52V28H118.588V23.436C118.588 22.8293 118.439 22.3627 118.14 22.036C117.842 21.7 117.426 21.532 116.894 21.532C116.344 21.532 115.9 21.7093 115.564 22.064C115.228 22.4093 115.06 22.8947 115.06 23.52V28H113.716ZM127.349 28V20.524H128.693V28H127.349ZM126.201 21.588V20.524H128.693V21.588H126.201ZM127.727 19.32C127.428 19.32 127.204 19.2407 127.055 19.082C126.915 18.9233 126.845 18.7227 126.845 18.48C126.845 18.2373 126.915 18.0367 127.055 17.878C127.204 17.7193 127.428 17.64 127.727 17.64C128.026 17.64 128.245 17.7193 128.385 17.878C128.534 18.0367 128.609 18.2373 128.609 18.48C128.609 18.7227 128.534 18.9233 128.385 19.082C128.245 19.2407 128.026 19.32 127.727 19.32ZM131.012 28V20.524H132.076V23.73H131.908C131.908 22.9927 132.006 22.372 132.202 21.868C132.407 21.3547 132.715 20.9673 133.126 20.706C133.536 20.4353 134.054 20.3 134.68 20.3H134.736C135.678 20.3 136.374 20.594 136.822 21.182C137.279 21.77 137.508 22.6193 137.508 23.73V28H136.164V23.45C136.164 22.8713 136 22.4093 135.674 22.064C135.347 21.7093 134.899 21.532 134.33 21.532C133.742 21.532 133.266 21.714 132.902 22.078C132.538 22.442 132.356 22.9273 132.356 23.534V28H131.012ZM139.421 28V26.292H141.045V28H139.421ZM145.707 30.912C145.362 30.912 145.012 30.898 144.657 30.87C144.312 30.842 143.981 30.8047 143.663 30.758V29.624C143.999 29.6707 144.349 29.708 144.713 29.736C145.087 29.7733 145.437 29.792 145.763 29.792C146.445 29.792 146.986 29.6987 147.387 29.512C147.798 29.3347 148.092 29.05 148.269 28.658C148.456 28.2753 148.549 27.7807 148.549 27.174V25.746L148.997 24.682C148.969 25.438 148.811 26.068 148.521 26.572C148.232 27.0667 147.854 27.44 147.387 27.692C146.93 27.9347 146.421 28.056 145.861 28.056C145.339 28.056 144.858 27.958 144.419 27.762C143.99 27.5567 143.617 27.2767 143.299 26.922C142.991 26.5673 142.749 26.1613 142.571 25.704C142.403 25.2373 142.319 24.7473 142.319 24.234V23.982C142.319 23.4593 142.408 22.974 142.585 22.526C142.763 22.0687 143.01 21.672 143.327 21.336C143.645 21 144.023 20.7387 144.461 20.552C144.909 20.3653 145.399 20.272 145.931 20.272C146.557 20.272 147.107 20.4073 147.583 20.678C148.059 20.9393 148.433 21.3267 148.703 21.84C148.983 22.344 149.137 22.9647 149.165 23.702L148.773 23.716V20.524H149.837V27.118C149.837 28.014 149.697 28.7373 149.417 29.288C149.147 29.848 148.708 30.2587 148.101 30.52C147.504 30.7813 146.706 30.912 145.707 30.912ZM146.113 26.824C146.561 26.824 146.967 26.726 147.331 26.53C147.705 26.334 147.999 26.054 148.213 25.69C148.437 25.3167 148.549 24.8733 148.549 24.36V23.716C148.549 23.212 148.433 22.7873 148.199 22.442C147.975 22.0967 147.681 21.8353 147.317 21.658C146.953 21.4807 146.557 21.392 146.127 21.392C145.642 21.392 145.213 21.504 144.839 21.728C144.466 21.952 144.177 22.2693 143.971 22.68C143.766 23.0813 143.663 23.5573 143.663 24.108C143.663 24.6587 143.766 25.1393 143.971 25.55C144.186 25.9607 144.475 26.278 144.839 26.502C145.213 26.7167 145.637 26.824 146.113 26.824ZM152.411 28V20.524H153.755V28H152.411ZM151.263 21.588V20.524H153.755V21.588H151.263ZM152.789 19.32C152.49 19.32 152.266 19.2407 152.117 19.082C151.977 18.9233 151.907 18.7227 151.907 18.48C151.907 18.2373 151.977 18.0367 152.117 17.878C152.266 17.7193 152.49 17.64 152.789 17.64C153.087 17.64 153.307 17.7193 153.447 17.878C153.596 18.0367 153.671 18.2373 153.671 18.48C153.671 18.7227 153.596 18.9233 153.447 19.082C153.307 19.2407 153.087 19.32 152.789 19.32ZM158.985 28.084C158.425 28.084 157.94 28.0047 157.529 27.846C157.128 27.6873 156.815 27.4167 156.591 27.034C156.377 26.642 156.269 26.1147 156.269 25.452V18.256H157.557V25.62C157.557 26.0213 157.665 26.334 157.879 26.558C158.103 26.7727 158.416 26.88 158.817 26.88H160.133V28.084H158.985ZM154.981 21.532V20.524H160.133V21.532H154.981ZM161.754 28V17.78H163.098V23.884H162.762C162.762 23.1467 162.856 22.512 163.042 21.98C163.238 21.4387 163.537 21.0233 163.938 20.734C164.34 20.4447 164.853 20.3 165.478 20.3H165.534C166.43 20.3 167.107 20.5987 167.564 21.196C168.022 21.784 168.25 22.6287 168.25 23.73V28H166.906V23.45C166.906 22.8433 166.734 22.372 166.388 22.036C166.052 21.7 165.614 21.532 165.072 21.532C164.475 21.532 163.994 21.7327 163.63 22.134C163.276 22.526 163.098 23.044 163.098 23.688V28H161.754ZM173.019 28.224C172.133 28.224 171.451 27.9347 170.975 27.356C170.499 26.7773 170.261 25.942 170.261 24.85V20.51H171.605V25.116C171.605 25.704 171.764 26.166 172.081 26.502C172.399 26.8287 172.828 26.992 173.369 26.992C173.929 26.992 174.387 26.8147 174.741 26.46C175.096 26.096 175.273 25.6013 175.273 24.976V20.51H176.617V28H175.553V24.794H175.721C175.721 25.5313 175.623 26.1567 175.427 26.67C175.231 27.174 174.937 27.5613 174.545 27.832C174.163 28.0933 173.673 28.224 173.075 28.224H173.019ZM182.888 28.252C182.272 28.252 181.722 28.1167 181.236 27.846C180.76 27.5753 180.382 27.1833 180.102 26.67C179.822 26.1473 179.668 25.522 179.64 24.794H180.004V28H178.94V17.78H180.284V22.75L179.808 23.772C179.846 22.96 180.009 22.2973 180.298 21.784C180.588 21.2707 180.966 20.8927 181.432 20.65C181.908 20.398 182.431 20.272 183 20.272C183.532 20.272 184.018 20.3747 184.456 20.58C184.895 20.776 185.273 21.0513 185.59 21.406C185.908 21.7513 186.15 22.1573 186.318 22.624C186.486 23.0813 186.57 23.576 186.57 24.108V24.36C186.57 24.892 186.482 25.3913 186.304 25.858C186.136 26.3247 185.889 26.74 185.562 27.104C185.236 27.4587 184.844 27.7387 184.386 27.944C183.938 28.1493 183.439 28.252 182.888 28.252ZM182.734 27.076C183.238 27.076 183.677 26.9547 184.05 26.712C184.424 26.4693 184.713 26.138 184.918 25.718C185.124 25.2887 185.226 24.794 185.226 24.234C185.226 23.674 185.119 23.184 184.904 22.764C184.699 22.344 184.41 22.022 184.036 21.798C183.663 21.5647 183.229 21.448 182.734 21.448C182.286 21.448 181.871 21.5507 181.488 21.756C181.106 21.952 180.798 22.2413 180.564 22.624C180.34 22.9973 180.228 23.45 180.228 23.982V24.626C180.228 25.1393 180.345 25.578 180.578 25.942C180.812 26.306 181.12 26.586 181.502 26.782C181.885 26.978 182.296 27.076 182.734 27.076ZM187.855 28V26.292H189.479V28H187.855ZM191.869 28V20.524H193.213V28H191.869ZM190.721 21.588V20.524H193.213V21.588H190.721ZM192.247 19.32C191.949 19.32 191.725 19.2407 191.575 19.082C191.435 18.9233 191.365 18.7227 191.365 18.48C191.365 18.2373 191.435 18.0367 191.575 17.878C191.725 17.7193 191.949 17.64 192.247 17.64C192.546 17.64 192.765 17.7193 192.905 17.878C193.055 18.0367 193.129 18.2373 193.129 18.48C193.129 18.7227 193.055 18.9233 192.905 19.082C192.765 19.2407 192.546 19.32 192.247 19.32ZM198.976 28.252C198.323 28.252 197.749 28.14 197.254 27.916C196.759 27.692 196.339 27.398 195.994 27.034C195.658 26.6607 195.401 26.2453 195.224 25.788C195.056 25.3307 194.972 24.864 194.972 24.388V24.136C194.972 23.66 195.061 23.1933 195.238 22.736C195.415 22.2693 195.677 21.854 196.022 21.49C196.367 21.1167 196.787 20.8227 197.282 20.608C197.777 20.384 198.341 20.272 198.976 20.272C199.611 20.272 200.175 20.384 200.67 20.608C201.165 20.8227 201.585 21.1167 201.93 21.49C202.275 21.854 202.537 22.2693 202.714 22.736C202.891 23.1933 202.98 23.66 202.98 24.136V24.388C202.98 24.864 202.891 25.3307 202.714 25.788C202.546 26.2453 202.289 26.6607 201.944 27.034C201.608 27.398 201.193 27.692 200.698 27.916C200.203 28.14 199.629 28.252 198.976 28.252ZM198.976 27.048C199.536 27.048 200.012 26.9267 200.404 26.684C200.805 26.432 201.109 26.096 201.314 25.676C201.529 25.256 201.636 24.7847 201.636 24.262C201.636 23.73 201.529 23.254 201.314 22.834C201.099 22.414 200.791 22.0827 200.39 21.84C199.998 21.5973 199.527 21.476 198.976 21.476C198.435 21.476 197.963 21.5973 197.562 21.84C197.161 22.0827 196.853 22.414 196.638 22.834C196.423 23.254 196.316 23.73 196.316 24.262C196.316 24.7847 196.419 25.256 196.624 25.676C196.839 26.096 197.142 26.432 197.534 26.684C197.935 26.9267 198.416 27.048 198.976 27.048ZM203.775 28.84L206.631 17.08H207.891L205.035 28.84H203.775ZM209.245 30.8V20.524H210.309V23.758L210.057 23.73C210.104 22.9273 210.272 22.274 210.561 21.77C210.86 21.2567 211.247 20.8787 211.723 20.636C212.199 20.3933 212.717 20.272 213.277 20.272C213.819 20.272 214.309 20.3747 214.747 20.58C215.195 20.7853 215.578 21.0653 215.895 21.42C216.213 21.7747 216.455 22.1853 216.623 22.652C216.791 23.1187 216.875 23.6133 216.875 24.136V24.388C216.875 24.9107 216.787 25.4053 216.609 25.872C216.432 26.3387 216.18 26.7493 215.853 27.104C215.536 27.4587 215.153 27.7387 214.705 27.944C214.267 28.1493 213.781 28.252 213.249 28.252C212.717 28.252 212.209 28.1353 211.723 27.902C211.238 27.6687 210.837 27.2907 210.519 26.768C210.202 26.2453 210.02 25.5593 209.973 24.71L210.589 25.83V30.8H209.245ZM213.039 27.076C213.543 27.076 213.982 26.9593 214.355 26.726C214.729 26.4833 215.018 26.152 215.223 25.732C215.429 25.3027 215.531 24.8127 215.531 24.262C215.531 23.702 215.429 23.212 215.223 22.792C215.018 22.372 214.729 22.0453 214.355 21.812C213.982 21.5693 213.543 21.448 213.039 21.448C212.591 21.448 212.176 21.5507 211.793 21.756C211.411 21.952 211.103 22.2413 210.869 22.624C210.645 22.9973 210.533 23.45 210.533 23.982V24.626C210.533 25.1393 210.65 25.578 210.883 25.942C211.117 26.306 211.425 26.586 211.807 26.782C212.19 26.978 212.601 27.076 213.039 27.076ZM222.062 28.252C221.408 28.252 220.834 28.14 220.34 27.916C219.845 27.692 219.425 27.398 219.08 27.034C218.744 26.6607 218.487 26.2453 218.31 25.788C218.142 25.3307 218.058 24.864 218.058 24.388V24.136C218.058 23.66 218.146 23.1933 218.324 22.736C218.501 22.2693 218.762 21.854 219.108 21.49C219.453 21.1167 219.873 20.8227 220.368 20.608C220.862 20.384 221.427 20.272 222.062 20.272C222.696 20.272 223.261 20.384 223.756 20.608C224.25 20.8227 224.67 21.1167 225.016 21.49C225.361 21.854 225.622 22.2693 225.8 22.736C225.977 23.1933 226.066 23.66 226.066 24.136V24.388C226.066 24.864 225.977 25.3307 225.8 25.788C225.632 26.2453 225.375 26.6607 225.03 27.034C224.694 27.398 224.278 27.692 223.784 27.916C223.289 28.14 222.715 28.252 222.062 28.252ZM222.062 27.048C222.622 27.048 223.098 26.9267 223.49 26.684C223.891 26.432 224.194 26.096 224.4 25.676C224.614 25.256 224.722 24.7847 224.722 24.262C224.722 23.73 224.614 23.254 224.4 22.834C224.185 22.414 223.877 22.0827 223.476 21.84C223.084 21.5973 222.612 21.476 222.062 21.476C221.52 21.476 221.049 21.5973 220.648 21.84C220.246 22.0827 219.938 22.414 219.724 22.834C219.509 23.254 219.402 23.73 219.402 24.262C219.402 24.7847 219.504 25.256 219.71 25.676C219.924 26.096 220.228 26.432 220.62 26.684C221.021 26.9267 221.502 27.048 222.062 27.048ZM227.799 28V20.524H228.863V23.604H228.807C228.807 22.512 229.045 21.714 229.521 21.21C230.006 20.6967 230.729 20.44 231.691 20.44H231.943V21.644H231.467C230.72 21.644 230.146 21.8447 229.745 22.246C229.343 22.638 229.143 23.2073 229.143 23.954V28H227.799ZM236.31 28.084C235.75 28.084 235.264 28.0047 234.854 27.846C234.452 27.6873 234.14 27.4167 233.916 27.034C233.701 26.642 233.594 26.1147 233.594 25.452V18.256H234.882V25.62C234.882 26.0213 234.989 26.334 235.204 26.558C235.428 26.7727 235.74 26.88 236.142 26.88H237.458V28.084H236.31ZM232.306 21.532V20.524H237.458V21.532H232.306ZM239.275 28V20.146C239.275 19.3153 239.494 18.704 239.933 18.312C240.371 17.92 241.015 17.724 241.865 17.724H242.789V18.844H241.641C241.295 18.844 241.029 18.942 240.843 19.138C240.656 19.3247 240.563 19.586 240.563 19.922V28H239.275ZM238.239 21.616V20.608H242.929V21.616H238.239ZM247.493 28.252C246.839 28.252 246.265 28.14 245.771 27.916C245.276 27.692 244.856 27.398 244.511 27.034C244.175 26.6607 243.918 26.2453 243.741 25.788C243.573 25.3307 243.489 24.864 243.489 24.388V24.136C243.489 23.66 243.577 23.1933 243.755 22.736C243.932 22.2693 244.193 21.854 244.539 21.49C244.884 21.1167 245.304 20.8227 245.799 20.608C246.293 20.384 246.858 20.272 247.493 20.272C248.127 20.272 248.692 20.384 249.187 20.608C249.681 20.8227 250.101 21.1167 250.447 21.49C250.792 21.854 251.053 22.2693 251.231 22.736C251.408 23.1933 251.497 23.66 251.497 24.136V24.388C251.497 24.864 251.408 25.3307 251.231 25.788C251.063 26.2453 250.806 26.6607 250.461 27.034C250.125 27.398 249.709 27.692 249.215 27.916C248.72 28.14 248.146 28.252 247.493 28.252ZM247.493 27.048C248.053 27.048 248.529 26.9267 248.921 26.684C249.322 26.432 249.625 26.096 249.831 25.676C250.045 25.256 250.153 24.7847 250.153 24.262C250.153 23.73 250.045 23.254 249.831 22.834C249.616 22.414 249.308 22.0827 248.907 21.84C248.515 21.5973 248.043 21.476 247.493 21.476C246.951 21.476 246.48 21.5973 246.079 21.84C245.677 22.0827 245.369 22.414 245.155 22.834C244.94 23.254 244.833 23.73 244.833 24.262C244.833 24.7847 244.935 25.256 245.141 25.676C245.355 26.096 245.659 26.432 246.051 26.684C246.452 26.9267 246.933 27.048 247.493 27.048ZM253.313 28V17.78H254.657V28H253.313ZM252.277 18.844V17.78H254.657V18.844H252.277ZM257.319 28V20.524H258.663V28H257.319ZM256.171 21.588V20.524H258.663V21.588H256.171ZM257.697 19.32C257.399 19.32 257.175 19.2407 257.025 19.082C256.885 18.9233 256.815 18.7227 256.815 18.48C256.815 18.2373 256.885 18.0367 257.025 17.878C257.175 17.7193 257.399 17.64 257.697 17.64C257.996 17.64 258.215 17.7193 258.355 17.878C258.505 18.0367 258.579 18.2373 258.579 18.48C258.579 18.7227 258.505 18.9233 258.355 19.082C258.215 19.2407 257.996 19.32 257.697 19.32ZM264.426 28.252C263.773 28.252 263.199 28.14 262.704 27.916C262.209 27.692 261.789 27.398 261.444 27.034C261.108 26.6607 260.851 26.2453 260.674 25.788C260.506 25.3307 260.422 24.864 260.422 24.388V24.136C260.422 23.66 260.511 23.1933 260.688 22.736C260.865 22.2693 261.127 21.854 261.472 21.49C261.817 21.1167 262.237 20.8227 262.732 20.608C263.227 20.384 263.791 20.272 264.426 20.272C265.061 20.272 265.625 20.384 266.12 20.608C266.615 20.8227 267.035 21.1167 267.38 21.49C267.725 21.854 267.987 22.2693 268.164 22.736C268.341 23.1933 268.43 23.66 268.43 24.136V24.388C268.43 24.864 268.341 25.3307 268.164 25.788C267.996 26.2453 267.739 26.6607 267.394 27.034C267.058 27.398 266.643 27.692 266.148 27.916C265.653 28.14 265.079 28.252 264.426 28.252ZM264.426 27.048C264.986 27.048 265.462 26.9267 265.854 26.684C266.255 26.432 266.559 26.096 266.764 25.676C266.979 25.256 267.086 24.7847 267.086 24.262C267.086 23.73 266.979 23.254 266.764 22.834C266.549 22.414 266.241 22.0827 265.84 21.84C265.448 21.5973 264.977 21.476 264.426 21.476C263.885 21.476 263.413 21.5973 263.012 21.84C262.611 22.0827 262.303 22.414 262.088 22.834C261.873 23.254 261.766 23.73 261.766 24.262C261.766 24.7847 261.869 25.256 262.074 25.676C262.289 26.096 262.592 26.432 262.984 26.684C263.385 26.9267 263.866 27.048 264.426 27.048Z" fill="black"/>
</svg>
