<svg width="266" height="46" viewBox="0 0 266 46" fill="none" xmlns="http://www.w3.org/2000/svg">
<rect width="266" height="46" rx="4" fill="white"/>
<path d="M18.104 27V18.24H19.256V23.472H18.968C18.968 22.84 19.048 22.296 19.208 21.84C19.376 21.376 19.632 21.02 19.976 20.772C20.32 20.524 20.76 20.4 21.296 20.4H21.344C22.112 20.4 22.692 20.656 23.084 21.168C23.476 21.672 23.672 22.396 23.672 23.34V27H22.52V23.1C22.52 22.58 22.372 22.176 22.076 21.888C21.788 21.6 21.412 21.456 20.948 21.456C20.436 21.456 20.024 21.628 19.712 21.972C19.408 22.308 19.256 22.752 19.256 23.304V27H18.104ZM28.0358 27.072C27.5558 27.072 27.1398 27.004 26.7878 26.868C26.4438 26.732 26.1758 26.5 25.9838 26.172C25.7998 25.836 25.7078 25.384 25.7078 24.816V18.648H26.8118V24.96C26.8118 25.304 26.9038 25.572 27.0878 25.764C27.2798 25.948 27.5478 26.04 27.8918 26.04H29.0198V27.072H28.0358ZM24.6038 21.456V20.592H29.0198V21.456H24.6038ZM30.4092 29.4V20.592H31.3212V23.364L31.1052 23.34C31.1452 22.652 31.2892 22.092 31.5372 21.66C31.7932 21.22 32.1252 20.896 32.5332 20.688C32.9412 20.48 33.3852 20.376 33.8652 20.376C34.3292 20.376 34.7492 20.464 35.1252 20.64C35.5092 20.816 35.8372 21.056 36.1092 21.36C36.3812 21.664 36.5892 22.016 36.7332 22.416C36.8772 22.816 36.9492 23.24 36.9492 23.688V23.904C36.9492 24.352 36.8732 24.776 36.7212 25.176C36.5692 25.576 36.3532 25.928 36.0732 26.232C35.8012 26.536 35.4732 26.776 35.0892 26.952C34.7132 27.128 34.2972 27.216 33.8412 27.216C33.3852 27.216 32.9492 27.116 32.5332 26.916C32.1172 26.716 31.7732 26.392 31.5012 25.944C31.2292 25.496 31.0732 24.908 31.0332 24.18L31.5612 25.14V29.4H30.4092ZM33.6612 26.208C34.0932 26.208 34.4692 26.108 34.7892 25.908C35.1092 25.7 35.3572 25.416 35.5332 25.056C35.7092 24.688 35.7972 24.268 35.7972 23.796C35.7972 23.316 35.7092 22.896 35.5332 22.536C35.3572 22.176 35.1092 21.896 34.7892 21.696C34.4692 21.488 34.0932 21.384 33.6612 21.384C33.2772 21.384 32.9212 21.472 32.5932 21.648C32.2652 21.816 32.0012 22.064 31.8012 22.392C31.6092 22.712 31.5132 23.1 31.5132 23.556V24.108C31.5132 24.548 31.6132 24.924 31.8132 25.236C32.0132 25.548 32.2772 25.788 32.6052 25.956C32.9332 26.124 33.2852 26.208 33.6612 26.208ZM38.4426 29.4V20.592H39.3546V23.364L39.1386 23.34C39.1786 22.652 39.3226 22.092 39.5706 21.66C39.8266 21.22 40.1586 20.896 40.5666 20.688C40.9746 20.48 41.4186 20.376 41.8986 20.376C42.3626 20.376 42.7826 20.464 43.1586 20.64C43.5426 20.816 43.8706 21.056 44.1426 21.36C44.4146 21.664 44.6226 22.016 44.7666 22.416C44.9106 22.816 44.9826 23.24 44.9826 23.688V23.904C44.9826 24.352 44.9066 24.776 44.7546 25.176C44.6026 25.576 44.3866 25.928 44.1066 26.232C43.8346 26.536 43.5066 26.776 43.1226 26.952C42.7466 27.128 42.3306 27.216 41.8746 27.216C41.4186 27.216 40.9826 27.116 40.5666 26.916C40.1506 26.716 39.8066 26.392 39.5346 25.944C39.2626 25.496 39.1066 24.908 39.0666 24.18L39.5946 25.14V29.4H38.4426ZM41.6946 26.208C42.1266 26.208 42.5026 26.108 42.8226 25.908C43.1426 25.7 43.3906 25.416 43.5666 25.056C43.7426 24.688 43.8306 24.268 43.8306 23.796C43.8306 23.316 43.7426 22.896 43.5666 22.536C43.3906 22.176 43.1426 21.896 42.8226 21.696C42.5026 21.488 42.1266 21.384 41.6946 21.384C41.3106 21.384 40.9546 21.472 40.6266 21.648C40.2986 21.816 40.0346 22.064 39.8346 22.392C39.6426 22.712 39.5466 23.1 39.5466 23.556V24.108C39.5466 24.548 39.6466 24.924 39.8466 25.236C40.0466 25.548 40.3106 25.788 40.6386 25.956C40.9666 26.124 41.3186 26.208 41.6946 26.208ZM48.576 27.192C47.736 27.192 47.084 27.012 46.62 26.652C46.164 26.292 45.928 25.8 45.912 25.176H46.992C47.008 25.424 47.132 25.66 47.364 25.884C47.604 26.1 48.008 26.208 48.576 26.208C49.088 26.208 49.48 26.108 49.752 25.908C50.024 25.7 50.16 25.448 50.16 25.152C50.16 24.888 50.06 24.684 49.86 24.54C49.66 24.388 49.336 24.288 48.888 24.24L48.192 24.168C47.584 24.104 47.088 23.924 46.704 23.628C46.32 23.324 46.128 22.9 46.128 22.356C46.128 21.948 46.232 21.6 46.44 21.312C46.648 21.016 46.936 20.792 47.304 20.64C47.672 20.48 48.096 20.4 48.576 20.4C49.296 20.4 49.88 20.56 50.328 20.88C50.776 21.2 51.008 21.676 51.024 22.308H49.944C49.936 22.052 49.816 21.836 49.584 21.66C49.36 21.476 49.024 21.384 48.576 21.384C48.128 21.384 47.788 21.476 47.556 21.66C47.324 21.844 47.208 22.076 47.208 22.356C47.208 22.596 47.288 22.788 47.448 22.932C47.616 23.076 47.888 23.168 48.264 23.208L48.96 23.28C49.648 23.352 50.2 23.544 50.616 23.856C51.032 24.16 51.24 24.592 51.24 25.152C51.24 25.552 51.124 25.908 50.892 26.22C50.668 26.524 50.356 26.764 49.956 26.94C49.556 27.108 49.096 27.192 48.576 27.192ZM52.4416 27V25.536H53.8336V27H52.4416ZM52.4416 22.56V21.096H53.8336V22.56H52.4416ZM54.7663 27.72L57.2143 17.64H58.2943L55.8463 27.72H54.7663ZM58.6512 27.72L61.0992 17.64H62.1792L59.7312 27.72H58.6512ZM66.1048 27.216C65.5448 27.216 65.0528 27.12 64.6288 26.928C64.2048 26.736 63.8448 26.484 63.5488 26.172C63.2608 25.852 63.0408 25.496 62.8888 25.104C62.7448 24.712 62.6728 24.312 62.6728 23.904V23.688C62.6728 23.28 62.7488 22.88 62.9008 22.488C63.0528 22.088 63.2768 21.732 63.5728 21.42C63.8688 21.1 64.2288 20.848 64.6528 20.664C65.0768 20.472 65.5608 20.376 66.1048 20.376C66.6488 20.376 67.1328 20.472 67.5568 20.664C67.9808 20.848 68.3408 21.1 68.6368 21.42C68.9328 21.732 69.1568 22.088 69.3088 22.488C69.4608 22.88 69.5368 23.28 69.5368 23.688V23.904C69.5368 24.312 69.4608 24.712 69.3088 25.104C69.1648 25.496 68.9448 25.852 68.6488 26.172C68.3608 26.484 68.0048 26.736 67.5808 26.928C67.1568 27.12 66.6648 27.216 66.1048 27.216ZM66.1048 26.184C66.5848 26.184 66.9928 26.08 67.3288 25.872C67.6728 25.656 67.9328 25.368 68.1088 25.008C68.2928 24.648 68.3848 24.244 68.3848 23.796C68.3848 23.34 68.2928 22.932 68.1088 22.572C67.9248 22.212 67.6608 21.928 67.3168 21.72C66.9808 21.512 66.5768 21.408 66.1048 21.408C65.6408 21.408 65.2368 21.512 64.8928 21.72C64.5488 21.928 64.2848 22.212 64.1008 22.572C63.9168 22.932 63.8248 23.34 63.8248 23.796C63.8248 24.244 63.9128 24.648 64.0888 25.008C64.2728 25.368 64.5328 25.656 64.8688 25.872C65.2128 26.08 65.6248 26.184 66.1048 26.184ZM71.0941 27V18.24H72.2461V27H71.0941ZM70.2061 19.152V18.24H72.2461V19.152H70.2061ZM76.9397 27.216C76.3797 27.216 75.8957 27.12 75.4877 26.928C75.0797 26.736 74.7477 26.484 74.4917 26.172C74.2357 25.852 74.0437 25.496 73.9157 25.104C73.7957 24.712 73.7357 24.312 73.7357 23.904V23.688C73.7357 23.272 73.7957 22.868 73.9157 22.476C74.0437 22.084 74.2357 21.732 74.4917 21.42C74.7477 21.1 75.0717 20.848 75.4637 20.664C75.8637 20.472 76.3317 20.376 76.8677 20.376C77.5637 20.376 78.1357 20.528 78.5837 20.832C79.0397 21.128 79.3757 21.512 79.5917 21.984C79.8157 22.456 79.9277 22.96 79.9277 23.496V24.012H74.2397V23.148H79.0877L78.8237 23.616C78.8237 23.16 78.7517 22.768 78.6077 22.44C78.4637 22.104 78.2477 21.844 77.9597 21.66C77.6717 21.476 77.3077 21.384 76.8677 21.384C76.4117 21.384 76.0317 21.488 75.7277 21.696C75.4317 21.904 75.2077 22.188 75.0557 22.548C74.9117 22.908 74.8397 23.324 74.8397 23.796C74.8397 24.252 74.9117 24.664 75.0557 25.032C75.2077 25.392 75.4397 25.68 75.7517 25.896C76.0637 26.104 76.4597 26.208 76.9397 26.208C77.4437 26.208 77.8517 26.096 78.1637 25.872C78.4837 25.648 78.6757 25.388 78.7397 25.092H79.8197C79.7317 25.532 79.5557 25.912 79.2917 26.232C79.0277 26.552 78.6957 26.796 78.2957 26.964C77.8957 27.132 77.4437 27.216 76.9397 27.216ZM83.7474 29.496C83.4514 29.496 83.1514 29.484 82.8474 29.46C82.5514 29.436 82.2674 29.404 81.9954 29.364V28.392C82.2834 28.432 82.5834 28.464 82.8954 28.488C83.2154 28.52 83.5154 28.536 83.7954 28.536C84.3794 28.536 84.8434 28.456 85.1874 28.296C85.5394 28.144 85.7914 27.9 85.9434 27.564C86.1034 27.236 86.1834 26.812 86.1834 26.292V25.068L86.5674 24.156C86.5434 24.804 86.4074 25.344 86.1594 25.776C85.9114 26.2 85.5874 26.52 85.1874 26.736C84.7954 26.944 84.3594 27.048 83.8794 27.048C83.4314 27.048 83.0194 26.964 82.6434 26.796C82.2754 26.62 81.9554 26.38 81.6834 26.076C81.4194 25.772 81.2114 25.424 81.0594 25.032C80.9154 24.632 80.8434 24.212 80.8434 23.772V23.556C80.8434 23.108 80.9194 22.692 81.0714 22.308C81.2234 21.916 81.4354 21.576 81.7074 21.288C81.9794 21 82.3034 20.776 82.6794 20.616C83.0634 20.456 83.4834 20.376 83.9394 20.376C84.4754 20.376 84.9474 20.492 85.3554 20.724C85.7634 20.948 86.0834 21.28 86.3154 21.72C86.5554 22.152 86.6874 22.684 86.7114 23.316L86.3754 23.328V20.592H87.2874V26.244C87.2874 27.012 87.1674 27.632 86.9274 28.104C86.6954 28.584 86.3194 28.936 85.7994 29.16C85.2874 29.384 84.6034 29.496 83.7474 29.496ZM84.0954 25.992C84.4794 25.992 84.8274 25.908 85.1394 25.74C85.4594 25.572 85.7114 25.332 85.8954 25.02C86.0874 24.7 86.1834 24.32 86.1834 23.88V23.328C86.1834 22.896 86.0834 22.532 85.8834 22.236C85.6914 21.94 85.4394 21.716 85.1274 21.564C84.8154 21.412 84.4754 21.336 84.1074 21.336C83.6914 21.336 83.3234 21.432 83.0034 21.624C82.6834 21.816 82.4354 22.088 82.2594 22.44C82.0834 22.784 81.9954 23.192 81.9954 23.664C81.9954 24.136 82.0834 24.548 82.2594 24.9C82.4434 25.252 82.6914 25.524 83.0034 25.716C83.3234 25.9 83.6874 25.992 84.0954 25.992ZM88.869 24.156V23.172H93.333V24.156H88.869ZM99.4039 27L96.9919 24.012H95.9359L98.8759 20.592H100.088L97.4239 23.676L97.5079 23.064L100.736 27H99.4039ZM94.9879 27V18.24H96.1399V27H94.9879ZM103.776 27.192C103.016 27.192 102.432 26.944 102.024 26.448C101.616 25.952 101.412 25.236 101.412 24.3V20.58H102.564V24.528C102.564 25.032 102.7 25.428 102.972 25.716C103.244 25.996 103.612 26.136 104.076 26.136C104.556 26.136 104.948 25.984 105.252 25.68C105.556 25.368 105.708 24.944 105.708 24.408V20.58H106.86V27H105.948V24.252H106.092C106.092 24.884 106.008 25.42 105.84 25.86C105.672 26.292 105.42 26.624 105.084 26.856C104.756 27.08 104.336 27.192 103.824 27.192H103.776ZM108.444 27V25.716L111.936 21.528V21.72L111.744 21.432L111.9 21.504H108.396V20.592H112.956V21.876L109.464 26.064V25.896L109.68 26.196L109.512 26.088H113.148V27H108.444ZM114.471 27V20.592H115.383V23.34H115.239C115.239 22.716 115.319 22.188 115.479 21.756C115.647 21.316 115.895 20.98 116.223 20.748C116.551 20.516 116.967 20.4 117.471 20.4H117.519C118.023 20.4 118.439 20.516 118.767 20.748C119.103 20.98 119.351 21.316 119.511 21.756C119.671 22.188 119.751 22.716 119.751 23.34H119.415C119.415 22.716 119.499 22.188 119.667 21.756C119.835 21.316 120.083 20.98 120.411 20.748C120.747 20.516 121.167 20.4 121.671 20.4H121.719C122.223 20.4 122.643 20.516 122.979 20.748C123.315 20.98 123.563 21.316 123.723 21.756C123.891 22.188 123.975 22.716 123.975 23.34V27H122.823V23.088C122.823 22.568 122.695 22.168 122.439 21.888C122.183 21.6 121.827 21.456 121.371 21.456C120.899 21.456 120.519 21.608 120.231 21.912C119.943 22.208 119.799 22.624 119.799 23.16V27H118.647V23.088C118.647 22.568 118.519 22.168 118.263 21.888C118.007 21.6 117.651 21.456 117.195 21.456C116.723 21.456 116.343 21.608 116.055 21.912C115.767 22.208 115.623 22.624 115.623 23.16V27H114.471ZM126.156 27V20.592H127.308V27H126.156ZM125.172 21.504V20.592H127.308V21.504H125.172ZM126.48 19.56C126.224 19.56 126.032 19.492 125.904 19.356C125.784 19.22 125.724 19.048 125.724 18.84C125.724 18.632 125.784 18.46 125.904 18.324C126.032 18.188 126.224 18.12 126.48 18.12C126.736 18.12 126.924 18.188 127.044 18.324C127.172 18.46 127.236 18.632 127.236 18.84C127.236 19.048 127.172 19.22 127.044 19.356C126.924 19.492 126.736 19.56 126.48 19.56ZM129.296 27V20.592H130.208V23.34H130.064C130.064 22.708 130.148 22.176 130.316 21.744C130.492 21.304 130.756 20.972 131.108 20.748C131.46 20.516 131.904 20.4 132.44 20.4H132.488C133.296 20.4 133.892 20.652 134.276 21.156C134.668 21.66 134.864 22.388 134.864 23.34V27H133.712V23.1C133.712 22.604 133.572 22.208 133.292 21.912C133.012 21.608 132.628 21.456 132.14 21.456C131.636 21.456 131.228 21.612 130.916 21.924C130.604 22.236 130.448 22.652 130.448 23.172V27H129.296ZM136.504 27V25.536H137.896V27H136.504ZM141.892 29.496C141.596 29.496 141.296 29.484 140.992 29.46C140.696 29.436 140.412 29.404 140.14 29.364V28.392C140.428 28.432 140.728 28.464 141.04 28.488C141.36 28.52 141.66 28.536 141.94 28.536C142.524 28.536 142.988 28.456 143.332 28.296C143.684 28.144 143.936 27.9 144.088 27.564C144.248 27.236 144.328 26.812 144.328 26.292V25.068L144.712 24.156C144.688 24.804 144.552 25.344 144.304 25.776C144.056 26.2 143.732 26.52 143.332 26.736C142.94 26.944 142.504 27.048 142.024 27.048C141.576 27.048 141.164 26.964 140.788 26.796C140.42 26.62 140.1 26.38 139.828 26.076C139.564 25.772 139.356 25.424 139.204 25.032C139.06 24.632 138.988 24.212 138.988 23.772V23.556C138.988 23.108 139.064 22.692 139.216 22.308C139.368 21.916 139.58 21.576 139.852 21.288C140.124 21 140.448 20.776 140.824 20.616C141.208 20.456 141.628 20.376 142.084 20.376C142.62 20.376 143.092 20.492 143.5 20.724C143.908 20.948 144.228 21.28 144.46 21.72C144.7 22.152 144.832 22.684 144.856 23.316L144.52 23.328V20.592H145.432V26.244C145.432 27.012 145.312 27.632 145.072 28.104C144.84 28.584 144.464 28.936 143.944 29.16C143.432 29.384 142.748 29.496 141.892 29.496ZM142.24 25.992C142.624 25.992 142.972 25.908 143.284 25.74C143.604 25.572 143.856 25.332 144.04 25.02C144.232 24.7 144.328 24.32 144.328 23.88V23.328C144.328 22.896 144.228 22.532 144.028 22.236C143.836 21.94 143.584 21.716 143.272 21.564C142.96 21.412 142.62 21.336 142.252 21.336C141.836 21.336 141.468 21.432 141.148 21.624C140.828 21.816 140.58 22.088 140.404 22.44C140.228 22.784 140.14 23.192 140.14 23.664C140.14 24.136 140.228 24.548 140.404 24.9C140.588 25.252 140.836 25.524 141.148 25.716C141.468 25.9 141.832 25.992 142.24 25.992ZM147.638 27V20.592H148.79V27H147.638ZM146.654 21.504V20.592H148.79V21.504H146.654ZM147.962 19.56C147.706 19.56 147.514 19.492 147.386 19.356C147.266 19.22 147.206 19.048 147.206 18.84C147.206 18.632 147.266 18.46 147.386 18.324C147.514 18.188 147.706 18.12 147.962 18.12C148.218 18.12 148.406 18.188 148.526 18.324C148.654 18.46 148.718 18.632 148.718 18.84C148.718 19.048 148.654 19.22 148.526 19.356C148.406 19.492 148.218 19.56 147.962 19.56ZM153.273 27.072C152.793 27.072 152.377 27.004 152.025 26.868C151.681 26.732 151.413 26.5 151.221 26.172C151.037 25.836 150.945 25.384 150.945 24.816V18.648H152.049V24.96C152.049 25.304 152.141 25.572 152.325 25.764C152.517 25.948 152.785 26.04 153.129 26.04H154.257V27.072H153.273ZM149.841 21.456V20.592H154.257V21.456H149.841ZM155.646 27V18.24H156.798V23.472H156.51C156.51 22.84 156.59 22.296 156.75 21.84C156.918 21.376 157.174 21.02 157.518 20.772C157.862 20.524 158.302 20.4 158.838 20.4H158.886C159.654 20.4 160.234 20.656 160.626 21.168C161.018 21.672 161.214 22.396 161.214 23.34V27H160.062V23.1C160.062 22.58 159.914 22.176 159.618 21.888C159.33 21.6 158.954 21.456 158.49 21.456C157.978 21.456 157.566 21.628 157.254 21.972C156.95 22.308 156.798 22.752 156.798 23.304V27H155.646ZM165.302 27.192C164.542 27.192 163.958 26.944 163.55 26.448C163.142 25.952 162.938 25.236 162.938 24.3V20.58H164.09V24.528C164.09 25.032 164.226 25.428 164.498 25.716C164.77 25.996 165.138 26.136 165.602 26.136C166.082 26.136 166.474 25.984 166.778 25.68C167.082 25.368 167.234 24.944 167.234 24.408V20.58H168.386V27H167.474V24.252H167.618C167.618 24.884 167.534 25.42 167.366 25.86C167.198 26.292 166.946 26.624 166.61 26.856C166.282 27.08 165.862 27.192 165.35 27.192H165.302ZM173.761 27.216C173.233 27.216 172.761 27.1 172.345 26.868C171.937 26.636 171.613 26.3 171.373 25.86C171.133 25.412 171.001 24.876 170.977 24.252H171.289V27H170.377V18.24H171.529V22.5L171.121 23.376C171.153 22.68 171.293 22.112 171.541 21.672C171.789 21.232 172.113 20.908 172.513 20.7C172.921 20.484 173.369 20.376 173.857 20.376C174.313 20.376 174.729 20.464 175.105 20.64C175.481 20.808 175.805 21.044 176.077 21.348C176.349 21.644 176.557 21.992 176.701 22.392C176.845 22.784 176.917 23.208 176.917 23.664V23.88C176.917 24.336 176.841 24.764 176.689 25.164C176.545 25.564 176.333 25.92 176.053 26.232C175.773 26.536 175.437 26.776 175.045 26.952C174.661 27.128 174.233 27.216 173.761 27.216ZM173.629 26.208C174.061 26.208 174.437 26.104 174.757 25.896C175.077 25.688 175.325 25.404 175.501 25.044C175.677 24.676 175.765 24.252 175.765 23.772C175.765 23.292 175.673 22.872 175.489 22.512C175.313 22.152 175.065 21.876 174.745 21.684C174.425 21.484 174.053 21.384 173.629 21.384C173.245 21.384 172.889 21.472 172.561 21.648C172.233 21.816 171.969 22.064 171.769 22.392C171.577 22.712 171.481 23.1 171.481 23.556V24.108C171.481 24.548 171.581 24.924 171.781 25.236C171.981 25.548 172.245 25.788 172.573 25.956C172.901 26.124 173.253 26.208 173.629 26.208ZM178.019 27V25.536H179.411V27H178.019ZM181.459 27V20.592H182.611V27H181.459ZM180.475 21.504V20.592H182.611V21.504H180.475ZM181.783 19.56C181.527 19.56 181.335 19.492 181.207 19.356C181.087 19.22 181.027 19.048 181.027 18.84C181.027 18.632 181.087 18.46 181.207 18.324C181.335 18.188 181.527 18.12 181.783 18.12C182.039 18.12 182.227 18.188 182.347 18.324C182.475 18.46 182.539 18.632 182.539 18.84C182.539 19.048 182.475 19.22 182.347 19.356C182.227 19.492 182.039 19.56 181.783 19.56ZM187.551 27.216C186.991 27.216 186.499 27.12 186.075 26.928C185.651 26.736 185.291 26.484 184.995 26.172C184.707 25.852 184.487 25.496 184.335 25.104C184.191 24.712 184.119 24.312 184.119 23.904V23.688C184.119 23.28 184.195 22.88 184.347 22.488C184.499 22.088 184.723 21.732 185.019 21.42C185.315 21.1 185.675 20.848 186.099 20.664C186.523 20.472 187.007 20.376 187.551 20.376C188.095 20.376 188.579 20.472 189.003 20.664C189.427 20.848 189.787 21.1 190.083 21.42C190.379 21.732 190.603 22.088 190.755 22.488C190.907 22.88 190.983 23.28 190.983 23.688V23.904C190.983 24.312 190.907 24.712 190.755 25.104C190.611 25.496 190.391 25.852 190.095 26.172C189.807 26.484 189.451 26.736 189.027 26.928C188.603 27.12 188.111 27.216 187.551 27.216ZM187.551 26.184C188.031 26.184 188.439 26.08 188.775 25.872C189.119 25.656 189.379 25.368 189.555 25.008C189.739 24.648 189.831 24.244 189.831 23.796C189.831 23.34 189.739 22.932 189.555 22.572C189.371 22.212 189.107 21.928 188.763 21.72C188.427 21.512 188.023 21.408 187.551 21.408C187.087 21.408 186.683 21.512 186.339 21.72C185.995 21.928 185.731 22.212 185.547 22.572C185.363 22.932 185.271 23.34 185.271 23.796C185.271 24.244 185.359 24.648 185.535 25.008C185.719 25.368 185.979 25.656 186.315 25.872C186.659 26.08 187.071 26.184 187.551 26.184ZM191.664 27.72L194.112 17.64H195.192L192.744 27.72H191.664ZM196.353 29.4V20.592H197.265V23.364L197.049 23.34C197.089 22.652 197.233 22.092 197.481 21.66C197.737 21.22 198.069 20.896 198.477 20.688C198.885 20.48 199.329 20.376 199.809 20.376C200.273 20.376 200.693 20.464 201.069 20.64C201.453 20.816 201.781 21.056 202.053 21.36C202.325 21.664 202.533 22.016 202.677 22.416C202.821 22.816 202.893 23.24 202.893 23.688V23.904C202.893 24.352 202.817 24.776 202.665 25.176C202.513 25.576 202.297 25.928 202.017 26.232C201.745 26.536 201.417 26.776 201.033 26.952C200.657 27.128 200.241 27.216 199.785 27.216C199.329 27.216 198.893 27.116 198.477 26.916C198.061 26.716 197.717 26.392 197.445 25.944C197.173 25.496 197.017 24.908 196.977 24.18L197.505 25.14V29.4H196.353ZM199.605 26.208C200.037 26.208 200.413 26.108 200.733 25.908C201.053 25.7 201.301 25.416 201.477 25.056C201.653 24.688 201.741 24.268 201.741 23.796C201.741 23.316 201.653 22.896 201.477 22.536C201.301 22.176 201.053 21.896 200.733 21.696C200.413 21.488 200.037 21.384 199.605 21.384C199.221 21.384 198.865 21.472 198.537 21.648C198.209 21.816 197.945 22.064 197.745 22.392C197.553 22.712 197.457 23.1 197.457 23.556V24.108C197.457 24.548 197.557 24.924 197.757 25.236C197.957 25.548 198.221 25.788 198.549 25.956C198.877 26.124 199.229 26.208 199.605 26.208ZM207.339 27.216C206.779 27.216 206.287 27.12 205.863 26.928C205.439 26.736 205.079 26.484 204.783 26.172C204.495 25.852 204.275 25.496 204.123 25.104C203.979 24.712 203.907 24.312 203.907 23.904V23.688C203.907 23.28 203.983 22.88 204.135 22.488C204.287 22.088 204.511 21.732 204.807 21.42C205.103 21.1 205.463 20.848 205.887 20.664C206.311 20.472 206.795 20.376 207.339 20.376C207.883 20.376 208.367 20.472 208.791 20.664C209.215 20.848 209.575 21.1 209.871 21.42C210.167 21.732 210.391 22.088 210.543 22.488C210.695 22.88 210.771 23.28 210.771 23.688V23.904C210.771 24.312 210.695 24.712 210.543 25.104C210.399 25.496 210.179 25.852 209.883 26.172C209.595 26.484 209.239 26.736 208.815 26.928C208.391 27.12 207.899 27.216 207.339 27.216ZM207.339 26.184C207.819 26.184 208.227 26.08 208.563 25.872C208.907 25.656 209.167 25.368 209.343 25.008C209.527 24.648 209.619 24.244 209.619 23.796C209.619 23.34 209.527 22.932 209.343 22.572C209.159 22.212 208.895 21.928 208.551 21.72C208.215 21.512 207.811 21.408 207.339 21.408C206.875 21.408 206.471 21.512 206.127 21.72C205.783 21.928 205.519 22.212 205.335 22.572C205.151 22.932 205.059 23.34 205.059 23.796C205.059 24.244 205.147 24.648 205.323 25.008C205.507 25.368 205.767 25.656 206.103 25.872C206.447 26.08 206.859 26.184 207.339 26.184ZM212.256 27V20.592H213.168V23.232H213.12C213.12 22.296 213.324 21.612 213.732 21.18C214.148 20.74 214.768 20.52 215.592 20.52H215.808V21.552H215.4C214.76 21.552 214.268 21.724 213.924 22.068C213.58 22.404 213.408 22.892 213.408 23.532V27H212.256ZM219.551 27.072C219.071 27.072 218.655 27.004 218.303 26.868C217.959 26.732 217.691 26.5 217.499 26.172C217.315 25.836 217.223 25.384 217.223 24.816V18.648H218.327V24.96C218.327 25.304 218.419 25.572 218.603 25.764C218.795 25.948 219.063 26.04 219.407 26.04H220.535V27.072H219.551ZM216.119 21.456V20.592H220.535V21.456H216.119ZM222.092 27V20.268C222.092 19.556 222.28 19.032 222.656 18.696C223.032 18.36 223.584 18.192 224.312 18.192H225.104V19.152H224.12C223.824 19.152 223.596 19.236 223.436 19.404C223.276 19.564 223.196 19.788 223.196 20.076V27H222.092ZM221.204 21.528V20.664H225.224V21.528H221.204ZM229.136 27.216C228.576 27.216 228.084 27.12 227.66 26.928C227.236 26.736 226.876 26.484 226.58 26.172C226.292 25.852 226.072 25.496 225.92 25.104C225.776 24.712 225.704 24.312 225.704 23.904V23.688C225.704 23.28 225.78 22.88 225.932 22.488C226.084 22.088 226.308 21.732 226.604 21.42C226.9 21.1 227.26 20.848 227.684 20.664C228.108 20.472 228.592 20.376 229.136 20.376C229.68 20.376 230.164 20.472 230.588 20.664C231.012 20.848 231.372 21.1 231.668 21.42C231.964 21.732 232.188 22.088 232.34 22.488C232.492 22.88 232.568 23.28 232.568 23.688V23.904C232.568 24.312 232.492 24.712 232.34 25.104C232.196 25.496 231.976 25.852 231.68 26.172C231.392 26.484 231.036 26.736 230.612 26.928C230.188 27.12 229.696 27.216 229.136 27.216ZM229.136 26.184C229.616 26.184 230.024 26.08 230.36 25.872C230.704 25.656 230.964 25.368 231.14 25.008C231.324 24.648 231.416 24.244 231.416 23.796C231.416 23.34 231.324 22.932 231.14 22.572C230.956 22.212 230.692 21.928 230.348 21.72C230.012 21.512 229.608 21.408 229.136 21.408C228.672 21.408 228.268 21.512 227.924 21.72C227.58 21.928 227.316 22.212 227.132 22.572C226.948 22.932 226.856 23.34 226.856 23.796C226.856 24.244 226.944 24.648 227.12 25.008C227.304 25.368 227.564 25.656 227.9 25.872C228.244 26.08 228.656 26.184 229.136 26.184ZM234.126 27V18.24H235.278V27H234.126ZM233.238 19.152V18.24H235.278V19.152H233.238ZM237.559 27V20.592H238.711V27H237.559ZM236.575 21.504V20.592H238.711V21.504H236.575ZM237.883 19.56C237.627 19.56 237.435 19.492 237.307 19.356C237.187 19.22 237.127 19.048 237.127 18.84C237.127 18.632 237.187 18.46 237.307 18.324C237.435 18.188 237.627 18.12 237.883 18.12C238.139 18.12 238.327 18.188 238.447 18.324C238.575 18.46 238.639 18.632 238.639 18.84C238.639 19.048 238.575 19.22 238.447 19.356C238.327 19.492 238.139 19.56 237.883 19.56ZM243.651 27.216C243.091 27.216 242.599 27.12 242.175 26.928C241.751 26.736 241.391 26.484 241.095 26.172C240.807 25.852 240.587 25.496 240.435 25.104C240.291 24.712 240.219 24.312 240.219 23.904V23.688C240.219 23.28 240.295 22.88 240.447 22.488C240.599 22.088 240.823 21.732 241.119 21.42C241.415 21.1 241.775 20.848 242.199 20.664C242.623 20.472 243.107 20.376 243.651 20.376C244.195 20.376 244.679 20.472 245.103 20.664C245.527 20.848 245.887 21.1 246.183 21.42C246.479 21.732 246.703 22.088 246.855 22.488C247.007 22.88 247.083 23.28 247.083 23.688V23.904C247.083 24.312 247.007 24.712 246.855 25.104C246.711 25.496 246.491 25.852 246.195 26.172C245.907 26.484 245.551 26.736 245.127 26.928C244.703 27.12 244.211 27.216 243.651 27.216ZM243.651 26.184C244.131 26.184 244.539 26.08 244.875 25.872C245.219 25.656 245.479 25.368 245.655 25.008C245.839 24.648 245.931 24.244 245.931 23.796C245.931 23.34 245.839 22.932 245.655 22.572C245.471 22.212 245.207 21.928 244.863 21.72C244.527 21.512 244.123 21.408 243.651 21.408C243.187 21.408 242.783 21.512 242.439 21.72C242.095 21.928 241.831 22.212 241.647 22.572C241.463 22.932 241.371 23.34 241.371 23.796C241.371 24.244 241.459 24.648 241.635 25.008C241.819 25.368 242.079 25.656 242.415 25.872C242.759 26.08 243.171 26.184 243.651 26.184Z" fill="black"/>
</svg>
