<svg width="280" height="36" viewBox="0 0 280 36" fill="none" xmlns="http://www.w3.org/2000/svg">
<rect width="280" height="36" rx="4" fill="white"/>
<path d="M25.5337 9.12143L6.0282 16.6431C4.69703 17.1778 4.70473 17.9203 5.78397 18.2515L10.7918 19.8137L22.3785 12.5033C22.9264 12.1699 23.4269 12.3492 23.0155 12.7145L13.628 21.1867H13.6258L13.628 21.1878L13.2825 26.3496C13.7886 26.3496 14.0119 26.1175 14.2958 25.8436L16.7282 23.4783L21.7877 27.2154C22.7206 27.7292 23.3906 27.4652 23.6227 26.3518L26.9441 10.699C27.284 9.33596 26.4237 8.71878 25.5337 9.12143Z" fill="black"/>
<path d="M48.91 26.402C47.902 26.402 46.9687 26.234 46.11 25.898C45.2607 25.5713 44.5233 25.1 43.898 24.484C43.2727 23.8773 42.7873 23.154 42.442 22.314C42.0967 21.4647 41.924 20.5267 41.924 19.5C41.924 18.5107 42.092 17.5913 42.428 16.742C42.764 15.8927 43.24 15.1507 43.856 14.516C44.4813 13.8813 45.228 13.3867 46.096 13.032C46.964 12.6773 47.9253 12.5 48.98 12.5C49.904 12.5 50.7767 12.6353 51.598 12.906C52.4193 13.1673 53.1473 13.5593 53.782 14.082C54.4167 14.5953 54.9113 15.2347 55.266 16C55.63 16.756 55.812 17.6333 55.812 18.632C55.812 19.4533 55.686 20.186 55.434 20.83C55.182 21.474 54.832 21.9827 54.384 22.356C53.9453 22.7293 53.432 22.916 52.844 22.916C52.4053 22.916 52.0273 22.8227 51.71 22.636C51.3927 22.4493 51.1453 22.1927 50.968 21.866C50.8 21.53 50.716 21.1473 50.716 20.718V19.85H51.122C51.094 20.5127 50.9493 21.0633 50.688 21.502C50.436 21.9407 50.1047 22.2673 49.694 22.482C49.2927 22.6967 48.854 22.804 48.378 22.804C47.8087 22.804 47.2953 22.664 46.838 22.384C46.39 22.0947 46.0353 21.7073 45.774 21.222C45.5127 20.7367 45.382 20.186 45.382 19.57V19.346C45.382 18.73 45.5173 18.184 45.788 17.708C46.0587 17.232 46.4227 16.8587 46.88 16.588C47.3467 16.3173 47.8647 16.182 48.434 16.182C48.9473 16.182 49.4093 16.294 49.82 16.518C50.2307 16.742 50.562 17.064 50.814 17.484C51.0753 17.904 51.22 18.4173 51.248 19.024H50.744V16.378H51.836V20.69C51.836 20.9513 51.878 21.166 51.962 21.334C52.0553 21.502 52.1767 21.628 52.326 21.712C52.4753 21.7867 52.6387 21.824 52.816 21.824C53.1333 21.824 53.4273 21.698 53.698 21.446C53.9687 21.1847 54.188 20.8207 54.356 20.354C54.524 19.8873 54.608 19.332 54.608 18.688C54.608 17.8387 54.4587 17.0967 54.16 16.462C53.8707 15.8273 53.4647 15.3 52.942 14.88C52.4193 14.46 51.8173 14.1473 51.136 13.942C50.464 13.7273 49.75 13.62 48.994 13.62C48.098 13.62 47.286 13.7693 46.558 14.068C45.8393 14.3667 45.2233 14.7867 44.71 15.328C44.1967 15.86 43.8047 16.4853 43.534 17.204C43.2633 17.9133 43.128 18.6833 43.128 19.514C43.128 20.6527 43.3707 21.656 43.856 22.524C44.3413 23.3827 45.018 24.05 45.886 24.526C46.7633 25.0113 47.7713 25.254 48.91 25.254C49.2087 25.254 49.498 25.2353 49.778 25.198C50.058 25.17 50.3287 25.1233 50.59 25.058V26.22C50.3287 26.276 50.058 26.318 49.778 26.346C49.498 26.3833 49.2087 26.402 48.91 26.402ZM48.616 21.74C48.98 21.74 49.316 21.656 49.624 21.488C49.9413 21.32 50.1933 21.0727 50.38 20.746C50.5667 20.4193 50.66 20.0227 50.66 19.556V19.192C50.66 18.7533 50.562 18.394 50.366 18.114C50.17 17.8247 49.918 17.61 49.61 17.47C49.302 17.3207 48.9707 17.246 48.616 17.246C48.2147 17.246 47.86 17.3393 47.552 17.526C47.2533 17.7033 47.02 17.96 46.852 18.296C46.6933 18.6227 46.614 19.01 46.614 19.458C46.614 19.906 46.698 20.3027 46.866 20.648C47.034 20.9933 47.2673 21.264 47.566 21.46C47.8647 21.6467 48.2147 21.74 48.616 21.74ZM62.491 23.252C61.5763 23.252 60.7877 23.0887 60.125 22.762C59.4623 22.4353 58.9163 22.006 58.487 21.474C58.0577 20.942 57.7357 20.3727 57.521 19.766C57.3157 19.1593 57.213 18.576 57.213 18.016V17.708C57.213 17.1013 57.3203 16.49 57.535 15.874C57.7497 15.258 58.0763 14.698 58.515 14.194C58.9537 13.6807 59.4997 13.27 60.153 12.962C60.8157 12.654 61.595 12.5 62.491 12.5C63.387 12.5 64.1617 12.654 64.815 12.962C65.4777 13.27 66.0283 13.6807 66.467 14.194C66.9057 14.698 67.2323 15.258 67.447 15.874C67.6617 16.49 67.769 17.1013 67.769 17.708V18.016C67.769 18.576 67.6617 19.1593 67.447 19.766C67.2417 20.3727 66.9243 20.942 66.495 21.474C66.0657 22.006 65.5197 22.4353 64.857 22.762C64.1943 23.0887 63.4057 23.252 62.491 23.252ZM62.491 21.992C63.0883 21.992 63.625 21.88 64.101 21.656C64.5863 21.432 64.997 21.1287 65.333 20.746C65.669 20.354 65.9257 19.9153 66.103 19.43C66.2803 18.9353 66.369 18.4173 66.369 17.876C66.369 17.3067 66.2803 16.7747 66.103 16.28C65.9257 15.7853 65.669 15.3513 65.333 14.978C64.997 14.5953 64.5863 14.2967 64.101 14.082C63.625 13.8673 63.0883 13.76 62.491 13.76C61.8937 13.76 61.3523 13.8673 60.867 14.082C60.391 14.2967 59.985 14.5953 59.649 14.978C59.313 15.3513 59.0563 15.7853 58.879 16.28C58.7017 16.7747 58.613 17.3067 58.613 17.876C58.613 18.4173 58.7017 18.9353 58.879 19.43C59.0563 19.9153 59.313 20.354 59.649 20.746C59.985 21.1287 60.391 21.432 60.867 21.656C61.3523 21.88 61.8937 21.992 62.491 21.992ZM69.6343 23V12.78H70.9783V23H69.6343ZM68.5983 13.844V12.78H70.9783V13.844H68.5983ZM76.4541 23.252C75.8008 23.252 75.2361 23.14 74.7601 22.916C74.2841 22.692 73.8968 22.398 73.5981 22.034C73.2995 21.6607 73.0755 21.2453 72.9261 20.788C72.7861 20.3307 72.7161 19.864 72.7161 19.388V19.136C72.7161 18.6507 72.7861 18.1793 72.9261 17.722C73.0755 17.2647 73.2995 16.854 73.5981 16.49C73.8968 16.1167 74.2748 15.8227 74.7321 15.608C75.1988 15.384 75.7448 15.272 76.3701 15.272C77.1821 15.272 77.8495 15.4493 78.3721 15.804C78.9041 16.1493 79.2961 16.5973 79.5481 17.148C79.8095 17.6987 79.9401 18.2867 79.9401 18.912V19.514H73.3041V18.506H78.9601L78.6521 19.052C78.6521 18.52 78.5681 18.0627 78.4001 17.68C78.2321 17.288 77.9801 16.9847 77.6441 16.77C77.3081 16.5553 76.8835 16.448 76.3701 16.448C75.8381 16.448 75.3948 16.5693 75.0401 16.812C74.6948 17.0547 74.4335 17.386 74.2561 17.806C74.0881 18.226 74.0041 18.7113 74.0041 19.262C74.0041 19.794 74.0881 20.2747 74.2561 20.704C74.4335 21.124 74.7041 21.46 75.0681 21.712C75.4321 21.9547 75.8941 22.076 76.4541 22.076C77.0421 22.076 77.5181 21.9453 77.8821 21.684C78.2555 21.4227 78.4795 21.1193 78.5541 20.774H79.8141C79.7115 21.2873 79.5061 21.7307 79.1981 22.104C78.8901 22.4773 78.5028 22.762 78.0361 22.958C77.5695 23.154 77.0421 23.252 76.4541 23.252ZM84.3964 25.912C84.0511 25.912 83.7011 25.898 83.3464 25.87C83.0011 25.842 82.6697 25.8047 82.3524 25.758V24.624C82.6884 24.6707 83.0384 24.708 83.4024 24.736C83.7757 24.7733 84.1257 24.792 84.4524 24.792C85.1337 24.792 85.6751 24.6987 86.0764 24.512C86.4871 24.3347 86.7811 24.05 86.9584 23.658C87.1451 23.2753 87.2384 22.7807 87.2384 22.174V20.746L87.6864 19.682C87.6584 20.438 87.4997 21.068 87.2104 21.572C86.9211 22.0667 86.5431 22.44 86.0764 22.692C85.6191 22.9347 85.1104 23.056 84.5504 23.056C84.0277 23.056 83.5471 22.958 83.1084 22.762C82.6791 22.5567 82.3057 22.2767 81.9884 21.922C81.6804 21.5673 81.4377 21.1613 81.2604 20.704C81.0924 20.2373 81.0084 19.7473 81.0084 19.234V18.982C81.0084 18.4593 81.0971 17.974 81.2744 17.526C81.4517 17.0687 81.6991 16.672 82.0164 16.336C82.3337 16 82.7117 15.7387 83.1504 15.552C83.5984 15.3653 84.0884 15.272 84.6204 15.272C85.2457 15.272 85.7964 15.4073 86.2724 15.678C86.7484 15.9393 87.1217 16.3267 87.3924 16.84C87.6724 17.344 87.8264 17.9647 87.8544 18.702L87.4624 18.716V15.524H88.5264V22.118C88.5264 23.014 88.3864 23.7373 88.1064 24.288C87.8357 24.848 87.3971 25.2587 86.7904 25.52C86.1931 25.7813 85.3951 25.912 84.3964 25.912ZM84.8024 21.824C85.2504 21.824 85.6564 21.726 86.0204 21.53C86.3937 21.334 86.6877 21.054 86.9024 20.69C87.1264 20.3167 87.2384 19.8733 87.2384 19.36V18.716C87.2384 18.212 87.1217 17.7873 86.8884 17.442C86.6644 17.0967 86.3704 16.8353 86.0064 16.658C85.6424 16.4807 85.2457 16.392 84.8164 16.392C84.3311 16.392 83.9017 16.504 83.5284 16.728C83.1551 16.952 82.8657 17.2693 82.6604 17.68C82.4551 18.0813 82.3524 18.5573 82.3524 19.108C82.3524 19.6587 82.4551 20.1393 82.6604 20.55C82.8751 20.9607 83.1644 21.278 83.5284 21.502C83.9017 21.7167 84.3264 21.824 84.8024 21.824ZM89.4203 24.848V23.84H97.4843V24.848H89.4203ZM105.131 23L100.973 18.226H99.4747L104.221 12.78H105.789L101.477 17.708L101.351 16.742L106.839 23H105.131ZM98.6907 23V12.78H100.063V23H98.6907ZM110.129 23.224C109.242 23.224 108.561 22.9347 108.085 22.356C107.609 21.7773 107.371 20.942 107.371 19.85V15.51H108.715V20.116C108.715 20.704 108.874 21.166 109.191 21.502C109.508 21.8287 109.938 21.992 110.479 21.992C111.039 21.992 111.496 21.8147 111.851 21.46C112.206 21.096 112.383 20.6013 112.383 19.976V15.51H113.727V23H112.663V19.794H112.831C112.831 20.5313 112.733 21.1567 112.537 21.67C112.341 22.174 112.047 22.5613 111.655 22.832C111.272 23.0933 110.782 23.224 110.185 23.224H110.129ZM115.574 23V21.502L119.648 16.616V16.84L119.424 16.504L119.606 16.588H115.518V15.524H120.838V17.022L116.764 21.908V21.712L117.016 22.062L116.82 21.936H121.062V23H115.574ZM122.606 23V15.524H123.67V18.73H123.502C123.502 18.002 123.595 17.386 123.782 16.882C123.978 16.3687 124.267 15.9767 124.65 15.706C125.033 15.4353 125.518 15.3 126.106 15.3H126.162C126.75 15.3 127.235 15.4353 127.618 15.706C128.01 15.9767 128.299 16.3687 128.486 16.882C128.673 17.386 128.766 18.002 128.766 18.73H128.374C128.374 18.002 128.472 17.386 128.668 16.882C128.864 16.3687 129.153 15.9767 129.536 15.706C129.928 15.4353 130.418 15.3 131.006 15.3H131.062C131.65 15.3 132.14 15.4353 132.532 15.706C132.924 15.9767 133.213 16.3687 133.4 16.882C133.596 17.386 133.694 18.002 133.694 18.73V23H132.35V18.436C132.35 17.8293 132.201 17.3627 131.902 17.036C131.603 16.7 131.188 16.532 130.656 16.532C130.105 16.532 129.662 16.7093 129.326 17.064C128.99 17.4093 128.822 17.8947 128.822 18.52V23H127.478V18.436C127.478 17.8293 127.329 17.3627 127.03 17.036C126.731 16.7 126.316 16.532 125.784 16.532C125.233 16.532 124.79 16.7093 124.454 17.064C124.118 17.4093 123.95 17.8947 123.95 18.52V23H122.606ZM136.239 23V15.524H137.583V23H136.239ZM135.091 16.588V15.524H137.583V16.588H135.091ZM136.617 14.32C136.318 14.32 136.094 14.2407 135.945 14.082C135.805 13.9233 135.735 13.7227 135.735 13.48C135.735 13.2373 135.805 13.0367 135.945 12.878C136.094 12.7193 136.318 12.64 136.617 12.64C136.915 12.64 137.135 12.7193 137.275 12.878C137.424 13.0367 137.499 13.2373 137.499 13.48C137.499 13.7227 137.424 13.9233 137.275 14.082C137.135 14.2407 136.915 14.32 136.617 14.32ZM139.901 23V15.524H140.965V18.73H140.797C140.797 17.9927 140.895 17.372 141.091 16.868C141.297 16.3547 141.605 15.9673 142.015 15.706C142.426 15.4353 142.944 15.3 143.569 15.3H143.625C144.568 15.3 145.263 15.594 145.711 16.182C146.169 16.77 146.397 17.6193 146.397 18.73V23H145.053V18.45C145.053 17.8713 144.89 17.4093 144.563 17.064C144.237 16.7093 143.789 16.532 143.219 16.532C142.631 16.532 142.155 16.714 141.791 17.078C141.427 17.442 141.245 17.9273 141.245 18.534V23H139.901ZM147.288 24.848V23.84H155.352V24.848H147.288ZM157.474 23L154.716 12.78H156.13L158.524 22.104L157.866 21.768H159.532L158.804 22.104L160.75 13.2H162.038L159.812 23H157.474ZM163.62 23L161.17 13.2H162.5L164.698 22.104L163.998 21.768H165.678L164.964 22.104L167.106 12.78H168.478L165.972 23H163.62ZM172.741 23.252C172.088 23.252 171.523 23.14 171.047 22.916C170.571 22.692 170.184 22.398 169.885 22.034C169.587 21.6607 169.363 21.2453 169.213 20.788C169.073 20.3307 169.003 19.864 169.003 19.388V19.136C169.003 18.6507 169.073 18.1793 169.213 17.722C169.363 17.2647 169.587 16.854 169.885 16.49C170.184 16.1167 170.562 15.8227 171.019 15.608C171.486 15.384 172.032 15.272 172.657 15.272C173.469 15.272 174.137 15.4493 174.659 15.804C175.191 16.1493 175.583 16.5973 175.835 17.148C176.097 17.6987 176.227 18.2867 176.227 18.912V19.514H169.591V18.506H175.247L174.939 19.052C174.939 18.52 174.855 18.0627 174.687 17.68C174.519 17.288 174.267 16.9847 173.931 16.77C173.595 16.5553 173.171 16.448 172.657 16.448C172.125 16.448 171.682 16.5693 171.327 16.812C170.982 17.0547 170.721 17.386 170.543 17.806C170.375 18.226 170.291 18.7113 170.291 19.262C170.291 19.794 170.375 20.2747 170.543 20.704C170.721 21.124 170.991 21.46 171.355 21.712C171.719 21.9547 172.181 22.076 172.741 22.076C173.329 22.076 173.805 21.9453 174.169 21.684C174.543 21.4227 174.767 21.1193 174.841 20.774H176.101C175.999 21.2873 175.793 21.7307 175.485 22.104C175.177 22.4773 174.79 22.762 174.323 22.958C173.857 23.154 173.329 23.252 172.741 23.252ZM181.804 23.252C181.188 23.252 180.637 23.1167 180.152 22.846C179.676 22.5753 179.298 22.1833 179.018 21.67C178.738 21.1473 178.584 20.522 178.556 19.794H178.92V23H177.856V12.78H179.2V17.75L178.724 18.772C178.761 17.96 178.924 17.2973 179.214 16.784C179.503 16.2707 179.881 15.8927 180.348 15.65C180.824 15.398 181.346 15.272 181.916 15.272C182.448 15.272 182.933 15.3747 183.372 15.58C183.81 15.776 184.188 16.0513 184.506 16.406C184.823 16.7513 185.066 17.1573 185.234 17.624C185.402 18.0813 185.486 18.576 185.486 19.108V19.36C185.486 19.892 185.397 20.3913 185.22 20.858C185.052 21.3247 184.804 21.74 184.478 22.104C184.151 22.4587 183.759 22.7387 183.302 22.944C182.854 23.1493 182.354 23.252 181.804 23.252ZM181.65 22.076C182.154 22.076 182.592 21.9547 182.966 21.712C183.339 21.4693 183.628 21.138 183.834 20.718C184.039 20.2887 184.142 19.794 184.142 19.234C184.142 18.674 184.034 18.184 183.82 17.764C183.614 17.344 183.325 17.022 182.952 16.798C182.578 16.5647 182.144 16.448 181.65 16.448C181.202 16.448 180.786 16.5507 180.404 16.756C180.021 16.952 179.713 17.2413 179.48 17.624C179.256 17.9973 179.144 18.45 179.144 18.982V19.626C179.144 20.1393 179.26 20.578 179.494 20.942C179.727 21.306 180.035 21.586 180.418 21.782C180.8 21.978 181.211 22.076 181.65 22.076Z" fill="black"/>
</svg>
