<svg width="280" height="46" viewBox="0 0 280 46" fill="none" xmlns="http://www.w3.org/2000/svg">
<rect width="280" height="46" rx="4" fill="white"/>
<path d="M20.5337 13.1214L1.0282 20.6431C-0.302972 21.1778 -0.29527 21.9203 0.783967 22.2515L5.79181 23.8137L17.3785 16.5033C17.9264 16.1699 18.4269 16.3492 18.0155 16.7145L8.62797 25.1867H8.62577L8.62797 25.1878L8.28252 30.3496C8.78859 30.3496 9.01192 30.1175 9.29575 29.8436L11.7282 27.4783L16.7877 31.2154C17.7206 31.7292 18.3906 31.4652 18.6227 30.3518L21.9441 14.699C22.284 13.336 21.4237 12.7188 20.5337 13.1214Z" fill="black"/>
<path d="M43.91 31.402C42.902 31.402 41.9687 31.234 41.11 30.898C40.2607 30.5713 39.5233 30.1 38.898 29.484C38.2727 28.8773 37.7873 28.154 37.442 27.314C37.0967 26.4647 36.924 25.5267 36.924 24.5C36.924 23.5107 37.092 22.5913 37.428 21.742C37.764 20.8927 38.24 20.1507 38.856 19.516C39.4813 18.8813 40.228 18.3867 41.096 18.032C41.964 17.6773 42.9253 17.5 43.98 17.5C44.904 17.5 45.7767 17.6353 46.598 17.906C47.4193 18.1673 48.1473 18.5593 48.782 19.082C49.4167 19.5953 49.9113 20.2347 50.266 21C50.63 21.756 50.812 22.6333 50.812 23.632C50.812 24.4533 50.686 25.186 50.434 25.83C50.182 26.474 49.832 26.9827 49.384 27.356C48.9453 27.7293 48.432 27.916 47.844 27.916C47.4053 27.916 47.0273 27.8227 46.71 27.636C46.3927 27.4493 46.1453 27.1927 45.968 26.866C45.8 26.53 45.716 26.1473 45.716 25.718V24.85H46.122C46.094 25.5127 45.9493 26.0633 45.688 26.502C45.436 26.9407 45.1047 27.2673 44.694 27.482C44.2927 27.6967 43.854 27.804 43.378 27.804C42.8087 27.804 42.2953 27.664 41.838 27.384C41.39 27.0947 41.0353 26.7073 40.774 26.222C40.5127 25.7367 40.382 25.186 40.382 24.57V24.346C40.382 23.73 40.5173 23.184 40.788 22.708C41.0587 22.232 41.4227 21.8587 41.88 21.588C42.3467 21.3173 42.8647 21.182 43.434 21.182C43.9473 21.182 44.4093 21.294 44.82 21.518C45.2307 21.742 45.562 22.064 45.814 22.484C46.0753 22.904 46.22 23.4173 46.248 24.024H45.744V21.378H46.836V25.69C46.836 25.9513 46.878 26.166 46.962 26.334C47.0553 26.502 47.1767 26.628 47.326 26.712C47.4753 26.7867 47.6387 26.824 47.816 26.824C48.1333 26.824 48.4273 26.698 48.698 26.446C48.9687 26.1847 49.188 25.8207 49.356 25.354C49.524 24.8873 49.608 24.332 49.608 23.688C49.608 22.8387 49.4587 22.0967 49.16 21.462C48.8707 20.8273 48.4647 20.3 47.942 19.88C47.4193 19.46 46.8173 19.1473 46.136 18.942C45.464 18.7273 44.75 18.62 43.994 18.62C43.098 18.62 42.286 18.7693 41.558 19.068C40.8393 19.3667 40.2233 19.7867 39.71 20.328C39.1967 20.86 38.8047 21.4853 38.534 22.204C38.2633 22.9133 38.128 23.6833 38.128 24.514C38.128 25.6527 38.3707 26.656 38.856 27.524C39.3413 28.3827 40.018 29.05 40.886 29.526C41.7633 30.0113 42.7713 30.254 43.91 30.254C44.2087 30.254 44.498 30.2353 44.778 30.198C45.058 30.17 45.3287 30.1233 45.59 30.058V31.22C45.3287 31.276 45.058 31.318 44.778 31.346C44.498 31.3833 44.2087 31.402 43.91 31.402ZM43.616 26.74C43.98 26.74 44.316 26.656 44.624 26.488C44.9413 26.32 45.1933 26.0727 45.38 25.746C45.5667 25.4193 45.66 25.0227 45.66 24.556V24.192C45.66 23.7533 45.562 23.394 45.366 23.114C45.17 22.8247 44.918 22.61 44.61 22.47C44.302 22.3207 43.9707 22.246 43.616 22.246C43.2147 22.246 42.86 22.3393 42.552 22.526C42.2533 22.7033 42.02 22.96 41.852 23.296C41.6933 23.6227 41.614 24.01 41.614 24.458C41.614 24.906 41.698 25.3027 41.866 25.648C42.034 25.9933 42.2673 26.264 42.566 26.46C42.8647 26.6467 43.2147 26.74 43.616 26.74ZM57.491 28.252C56.5763 28.252 55.7877 28.0887 55.125 27.762C54.4623 27.4353 53.9163 27.006 53.487 26.474C53.0577 25.942 52.7357 25.3727 52.521 24.766C52.3157 24.1593 52.213 23.576 52.213 23.016V22.708C52.213 22.1013 52.3203 21.49 52.535 20.874C52.7497 20.258 53.0763 19.698 53.515 19.194C53.9537 18.6807 54.4997 18.27 55.153 17.962C55.8157 17.654 56.595 17.5 57.491 17.5C58.387 17.5 59.1617 17.654 59.815 17.962C60.4777 18.27 61.0283 18.6807 61.467 19.194C61.9057 19.698 62.2323 20.258 62.447 20.874C62.6617 21.49 62.769 22.1013 62.769 22.708V23.016C62.769 23.576 62.6617 24.1593 62.447 24.766C62.2417 25.3727 61.9243 25.942 61.495 26.474C61.0657 27.006 60.5197 27.4353 59.857 27.762C59.1943 28.0887 58.4057 28.252 57.491 28.252ZM57.491 26.992C58.0883 26.992 58.625 26.88 59.101 26.656C59.5863 26.432 59.997 26.1287 60.333 25.746C60.669 25.354 60.9257 24.9153 61.103 24.43C61.2803 23.9353 61.369 23.4173 61.369 22.876C61.369 22.3067 61.2803 21.7747 61.103 21.28C60.9257 20.7853 60.669 20.3513 60.333 19.978C59.997 19.5953 59.5863 19.2967 59.101 19.082C58.625 18.8673 58.0883 18.76 57.491 18.76C56.8937 18.76 56.3523 18.8673 55.867 19.082C55.391 19.2967 54.985 19.5953 54.649 19.978C54.313 20.3513 54.0563 20.7853 53.879 21.28C53.7017 21.7747 53.613 22.3067 53.613 22.876C53.613 23.4173 53.7017 23.9353 53.879 24.43C54.0563 24.9153 54.313 25.354 54.649 25.746C54.985 26.1287 55.391 26.432 55.867 26.656C56.3523 26.88 56.8937 26.992 57.491 26.992ZM64.6343 28V17.78H65.9783V28H64.6343ZM63.5983 18.844V17.78H65.9783V18.844H63.5983ZM71.4541 28.252C70.8008 28.252 70.2361 28.14 69.7601 27.916C69.2841 27.692 68.8968 27.398 68.5981 27.034C68.2995 26.6607 68.0755 26.2453 67.9261 25.788C67.7861 25.3307 67.7161 24.864 67.7161 24.388V24.136C67.7161 23.6507 67.7861 23.1793 67.9261 22.722C68.0755 22.2647 68.2995 21.854 68.5981 21.49C68.8968 21.1167 69.2748 20.8227 69.7321 20.608C70.1988 20.384 70.7448 20.272 71.3701 20.272C72.1821 20.272 72.8495 20.4493 73.3721 20.804C73.9041 21.1493 74.2961 21.5973 74.5481 22.148C74.8095 22.6987 74.9401 23.2867 74.9401 23.912V24.514H68.3041V23.506H73.9601L73.6521 24.052C73.6521 23.52 73.5681 23.0627 73.4001 22.68C73.2321 22.288 72.9801 21.9847 72.6441 21.77C72.3081 21.5553 71.8835 21.448 71.3701 21.448C70.8381 21.448 70.3948 21.5693 70.0401 21.812C69.6948 22.0547 69.4335 22.386 69.2561 22.806C69.0881 23.226 69.0041 23.7113 69.0041 24.262C69.0041 24.794 69.0881 25.2747 69.2561 25.704C69.4335 26.124 69.7041 26.46 70.0681 26.712C70.4321 26.9547 70.8941 27.076 71.4541 27.076C72.0421 27.076 72.5181 26.9453 72.8821 26.684C73.2555 26.4227 73.4795 26.1193 73.5541 25.774H74.8141C74.7115 26.2873 74.5061 26.7307 74.1981 27.104C73.8901 27.4773 73.5028 27.762 73.0361 27.958C72.5695 28.154 72.0421 28.252 71.4541 28.252ZM79.3964 30.912C79.0511 30.912 78.7011 30.898 78.3464 30.87C78.0011 30.842 77.6697 30.8047 77.3524 30.758V29.624C77.6884 29.6707 78.0384 29.708 78.4024 29.736C78.7757 29.7733 79.1257 29.792 79.4524 29.792C80.1337 29.792 80.6751 29.6987 81.0764 29.512C81.4871 29.3347 81.7811 29.05 81.9584 28.658C82.1451 28.2753 82.2384 27.7807 82.2384 27.174V25.746L82.6864 24.682C82.6584 25.438 82.4997 26.068 82.2104 26.572C81.9211 27.0667 81.5431 27.44 81.0764 27.692C80.6191 27.9347 80.1104 28.056 79.5504 28.056C79.0277 28.056 78.5471 27.958 78.1084 27.762C77.6791 27.5567 77.3057 27.2767 76.9884 26.922C76.6804 26.5673 76.4377 26.1613 76.2604 25.704C76.0924 25.2373 76.0084 24.7473 76.0084 24.234V23.982C76.0084 23.4593 76.0971 22.974 76.2744 22.526C76.4517 22.0687 76.6991 21.672 77.0164 21.336C77.3337 21 77.7117 20.7387 78.1504 20.552C78.5984 20.3653 79.0884 20.272 79.6204 20.272C80.2457 20.272 80.7964 20.4073 81.2724 20.678C81.7484 20.9393 82.1217 21.3267 82.3924 21.84C82.6724 22.344 82.8264 22.9647 82.8544 23.702L82.4624 23.716V20.524H83.5264V27.118C83.5264 28.014 83.3864 28.7373 83.1064 29.288C82.8357 29.848 82.3971 30.2587 81.7904 30.52C81.1931 30.7813 80.3951 30.912 79.3964 30.912ZM79.8024 26.824C80.2504 26.824 80.6564 26.726 81.0204 26.53C81.3937 26.334 81.6877 26.054 81.9024 25.69C82.1264 25.3167 82.2384 24.8733 82.2384 24.36V23.716C82.2384 23.212 82.1217 22.7873 81.8884 22.442C81.6644 22.0967 81.3704 21.8353 81.0064 21.658C80.6424 21.4807 80.2457 21.392 79.8164 21.392C79.3311 21.392 78.9017 21.504 78.5284 21.728C78.1551 21.952 77.8657 22.2693 77.6604 22.68C77.4551 23.0813 77.3524 23.5573 77.3524 24.108C77.3524 24.6587 77.4551 25.1393 77.6604 25.55C77.8751 25.9607 78.1644 26.278 78.5284 26.502C78.9017 26.7167 79.3264 26.824 79.8024 26.824ZM84.4203 29.848V28.84H92.4843V29.848H84.4203ZM100.131 28L95.9727 23.226H94.4747L99.2207 17.78H100.789L96.4767 22.708L96.3507 21.742L101.839 28H100.131ZM93.6907 28V17.78H95.0627V28H93.6907ZM105.129 28.224C104.242 28.224 103.561 27.9347 103.085 27.356C102.609 26.7773 102.371 25.942 102.371 24.85V20.51H103.715V25.116C103.715 25.704 103.874 26.166 104.191 26.502C104.508 26.8287 104.938 26.992 105.479 26.992C106.039 26.992 106.496 26.8147 106.851 26.46C107.206 26.096 107.383 25.6013 107.383 24.976V20.51H108.727V28H107.663V24.794H107.831C107.831 25.5313 107.733 26.1567 107.537 26.67C107.341 27.174 107.047 27.5613 106.655 27.832C106.272 28.0933 105.782 28.224 105.185 28.224H105.129ZM110.574 28V26.502L114.648 21.616V21.84L114.424 21.504L114.606 21.588H110.518V20.524H115.838V22.022L111.764 26.908V26.712L112.016 27.062L111.82 26.936H116.062V28H110.574ZM117.606 28V20.524H118.67V23.73H118.502C118.502 23.002 118.595 22.386 118.782 21.882C118.978 21.3687 119.267 20.9767 119.65 20.706C120.033 20.4353 120.518 20.3 121.106 20.3H121.162C121.75 20.3 122.235 20.4353 122.618 20.706C123.01 20.9767 123.299 21.3687 123.486 21.882C123.673 22.386 123.766 23.002 123.766 23.73H123.374C123.374 23.002 123.472 22.386 123.668 21.882C123.864 21.3687 124.153 20.9767 124.536 20.706C124.928 20.4353 125.418 20.3 126.006 20.3H126.062C126.65 20.3 127.14 20.4353 127.532 20.706C127.924 20.9767 128.213 21.3687 128.4 21.882C128.596 22.386 128.694 23.002 128.694 23.73V28H127.35V23.436C127.35 22.8293 127.201 22.3627 126.902 22.036C126.603 21.7 126.188 21.532 125.656 21.532C125.105 21.532 124.662 21.7093 124.326 22.064C123.99 22.4093 123.822 22.8947 123.822 23.52V28H122.478V23.436C122.478 22.8293 122.329 22.3627 122.03 22.036C121.731 21.7 121.316 21.532 120.784 21.532C120.233 21.532 119.79 21.7093 119.454 22.064C119.118 22.4093 118.95 22.8947 118.95 23.52V28H117.606ZM131.239 28V20.524H132.583V28H131.239ZM130.091 21.588V20.524H132.583V21.588H130.091ZM131.617 19.32C131.318 19.32 131.094 19.2407 130.945 19.082C130.805 18.9233 130.735 18.7227 130.735 18.48C130.735 18.2373 130.805 18.0367 130.945 17.878C131.094 17.7193 131.318 17.64 131.617 17.64C131.915 17.64 132.135 17.7193 132.275 17.878C132.424 18.0367 132.499 18.2373 132.499 18.48C132.499 18.7227 132.424 18.9233 132.275 19.082C132.135 19.2407 131.915 19.32 131.617 19.32ZM134.901 28V20.524H135.965V23.73H135.797C135.797 22.9927 135.895 22.372 136.091 21.868C136.297 21.3547 136.605 20.9673 137.015 20.706C137.426 20.4353 137.944 20.3 138.569 20.3H138.625C139.568 20.3 140.263 20.594 140.711 21.182C141.169 21.77 141.397 22.6193 141.397 23.73V28H140.053V23.45C140.053 22.8713 139.89 22.4093 139.563 22.064C139.237 21.7093 138.789 21.532 138.219 21.532C137.631 21.532 137.155 21.714 136.791 22.078C136.427 22.442 136.245 22.9273 136.245 23.534V28H134.901ZM142.288 29.848V28.84H150.352V29.848H142.288ZM152.474 28L149.716 17.78H151.13L153.524 27.104L152.866 26.768H154.532L153.804 27.104L155.75 18.2H157.038L154.812 28H152.474ZM158.62 28L156.17 18.2H157.5L159.698 27.104L158.998 26.768H160.678L159.964 27.104L162.106 17.78H163.478L160.972 28H158.62ZM167.741 28.252C167.088 28.252 166.523 28.14 166.047 27.916C165.571 27.692 165.184 27.398 164.885 27.034C164.587 26.6607 164.363 26.2453 164.213 25.788C164.073 25.3307 164.003 24.864 164.003 24.388V24.136C164.003 23.6507 164.073 23.1793 164.213 22.722C164.363 22.2647 164.587 21.854 164.885 21.49C165.184 21.1167 165.562 20.8227 166.019 20.608C166.486 20.384 167.032 20.272 167.657 20.272C168.469 20.272 169.137 20.4493 169.659 20.804C170.191 21.1493 170.583 21.5973 170.835 22.148C171.097 22.6987 171.227 23.2867 171.227 23.912V24.514H164.591V23.506H170.247L169.939 24.052C169.939 23.52 169.855 23.0627 169.687 22.68C169.519 22.288 169.267 21.9847 168.931 21.77C168.595 21.5553 168.171 21.448 167.657 21.448C167.125 21.448 166.682 21.5693 166.327 21.812C165.982 22.0547 165.721 22.386 165.543 22.806C165.375 23.226 165.291 23.7113 165.291 24.262C165.291 24.794 165.375 25.2747 165.543 25.704C165.721 26.124 165.991 26.46 166.355 26.712C166.719 26.9547 167.181 27.076 167.741 27.076C168.329 27.076 168.805 26.9453 169.169 26.684C169.543 26.4227 169.767 26.1193 169.841 25.774H171.101C170.999 26.2873 170.793 26.7307 170.485 27.104C170.177 27.4773 169.79 27.762 169.323 27.958C168.857 28.154 168.329 28.252 167.741 28.252ZM176.804 28.252C176.188 28.252 175.637 28.1167 175.152 27.846C174.676 27.5753 174.298 27.1833 174.018 26.67C173.738 26.1473 173.584 25.522 173.556 24.794H173.92V28H172.856V17.78H174.2V22.75L173.724 23.772C173.761 22.96 173.924 22.2973 174.214 21.784C174.503 21.2707 174.881 20.8927 175.348 20.65C175.824 20.398 176.346 20.272 176.916 20.272C177.448 20.272 177.933 20.3747 178.372 20.58C178.81 20.776 179.188 21.0513 179.506 21.406C179.823 21.7513 180.066 22.1573 180.234 22.624C180.402 23.0813 180.486 23.576 180.486 24.108V24.36C180.486 24.892 180.397 25.3913 180.22 25.858C180.052 26.3247 179.804 26.74 179.478 27.104C179.151 27.4587 178.759 27.7387 178.302 27.944C177.854 28.1493 177.354 28.252 176.804 28.252ZM176.65 27.076C177.154 27.076 177.592 26.9547 177.966 26.712C178.339 26.4693 178.628 26.138 178.834 25.718C179.039 25.2887 179.142 24.794 179.142 24.234C179.142 23.674 179.034 23.184 178.82 22.764C178.614 22.344 178.325 22.022 177.952 21.798C177.578 21.5647 177.144 21.448 176.65 21.448C176.202 21.448 175.786 21.5507 175.404 21.756C175.021 21.952 174.713 22.2413 174.48 22.624C174.256 22.9973 174.144 23.45 174.144 23.982V24.626C174.144 25.1393 174.26 25.578 174.494 25.942C174.727 26.306 175.035 26.586 175.418 26.782C175.8 26.978 176.211 27.076 176.65 27.076Z" fill="black"/>
</svg>
