<svg width="280" height="40" viewBox="0 0 280 40" fill="none" xmlns="http://www.w3.org/2000/svg">
<rect width="280" height="40" rx="4" fill="white"/>
<path d="M25.5337 11.1214L6.0282 18.6431C4.69703 19.1778 4.70473 19.9203 5.78397 20.2515L10.7918 21.8137L22.3785 14.5033C22.9264 14.1699 23.4269 14.3492 23.0155 14.7145L13.628 23.1867H13.6258L13.628 23.1878L13.2825 28.3496C13.7886 28.3496 14.0119 28.1175 14.2958 27.8436L16.7282 25.4783L21.7877 29.2154C22.7206 29.7292 23.3906 29.4652 23.6227 28.3518L26.9441 12.699C27.284 11.336 26.4237 10.7188 25.5337 11.1214Z" fill="black"/>
<path d="M48.91 28.402C47.902 28.402 46.9687 28.234 46.11 27.898C45.2607 27.5713 44.5233 27.1 43.898 26.484C43.2727 25.8773 42.7873 25.154 42.442 24.314C42.0967 23.4647 41.924 22.5267 41.924 21.5C41.924 20.5107 42.092 19.5913 42.428 18.742C42.764 17.8927 43.24 17.1507 43.856 16.516C44.4813 15.8813 45.228 15.3867 46.096 15.032C46.964 14.6773 47.9253 14.5 48.98 14.5C49.904 14.5 50.7767 14.6353 51.598 14.906C52.4193 15.1673 53.1473 15.5593 53.782 16.082C54.4167 16.5953 54.9113 17.2347 55.266 18C55.63 18.756 55.812 19.6333 55.812 20.632C55.812 21.4533 55.686 22.186 55.434 22.83C55.182 23.474 54.832 23.9827 54.384 24.356C53.9453 24.7293 53.432 24.916 52.844 24.916C52.4053 24.916 52.0273 24.8227 51.71 24.636C51.3927 24.4493 51.1453 24.1927 50.968 23.866C50.8 23.53 50.716 23.1473 50.716 22.718V21.85H51.122C51.094 22.5127 50.9493 23.0633 50.688 23.502C50.436 23.9407 50.1047 24.2673 49.694 24.482C49.2927 24.6967 48.854 24.804 48.378 24.804C47.8087 24.804 47.2953 24.664 46.838 24.384C46.39 24.0947 46.0353 23.7073 45.774 23.222C45.5127 22.7367 45.382 22.186 45.382 21.57V21.346C45.382 20.73 45.5173 20.184 45.788 19.708C46.0587 19.232 46.4227 18.8587 46.88 18.588C47.3467 18.3173 47.8647 18.182 48.434 18.182C48.9473 18.182 49.4093 18.294 49.82 18.518C50.2307 18.742 50.562 19.064 50.814 19.484C51.0753 19.904 51.22 20.4173 51.248 21.024H50.744V18.378H51.836V22.69C51.836 22.9513 51.878 23.166 51.962 23.334C52.0553 23.502 52.1767 23.628 52.326 23.712C52.4753 23.7867 52.6387 23.824 52.816 23.824C53.1333 23.824 53.4273 23.698 53.698 23.446C53.9687 23.1847 54.188 22.8207 54.356 22.354C54.524 21.8873 54.608 21.332 54.608 20.688C54.608 19.8387 54.4587 19.0967 54.16 18.462C53.8707 17.8273 53.4647 17.3 52.942 16.88C52.4193 16.46 51.8173 16.1473 51.136 15.942C50.464 15.7273 49.75 15.62 48.994 15.62C48.098 15.62 47.286 15.7693 46.558 16.068C45.8393 16.3667 45.2233 16.7867 44.71 17.328C44.1967 17.86 43.8047 18.4853 43.534 19.204C43.2633 19.9133 43.128 20.6833 43.128 21.514C43.128 22.6527 43.3707 23.656 43.856 24.524C44.3413 25.3827 45.018 26.05 45.886 26.526C46.7633 27.0113 47.7713 27.254 48.91 27.254C49.2087 27.254 49.498 27.2353 49.778 27.198C50.058 27.17 50.3287 27.1233 50.59 27.058V28.22C50.3287 28.276 50.058 28.318 49.778 28.346C49.498 28.3833 49.2087 28.402 48.91 28.402ZM48.616 23.74C48.98 23.74 49.316 23.656 49.624 23.488C49.9413 23.32 50.1933 23.0727 50.38 22.746C50.5667 22.4193 50.66 22.0227 50.66 21.556V21.192C50.66 20.7533 50.562 20.394 50.366 20.114C50.17 19.8247 49.918 19.61 49.61 19.47C49.302 19.3207 48.9707 19.246 48.616 19.246C48.2147 19.246 47.86 19.3393 47.552 19.526C47.2533 19.7033 47.02 19.96 46.852 20.296C46.6933 20.6227 46.614 21.01 46.614 21.458C46.614 21.906 46.698 22.3027 46.866 22.648C47.034 22.9933 47.2673 23.264 47.566 23.46C47.8647 23.6467 48.2147 23.74 48.616 23.74ZM62.491 25.252C61.5763 25.252 60.7877 25.0887 60.125 24.762C59.4623 24.4353 58.9163 24.006 58.487 23.474C58.0577 22.942 57.7357 22.3727 57.521 21.766C57.3157 21.1593 57.213 20.576 57.213 20.016V19.708C57.213 19.1013 57.3203 18.49 57.535 17.874C57.7497 17.258 58.0763 16.698 58.515 16.194C58.9537 15.6807 59.4997 15.27 60.153 14.962C60.8157 14.654 61.595 14.5 62.491 14.5C63.387 14.5 64.1617 14.654 64.815 14.962C65.4777 15.27 66.0283 15.6807 66.467 16.194C66.9057 16.698 67.2323 17.258 67.447 17.874C67.6617 18.49 67.769 19.1013 67.769 19.708V20.016C67.769 20.576 67.6617 21.1593 67.447 21.766C67.2417 22.3727 66.9243 22.942 66.495 23.474C66.0657 24.006 65.5197 24.4353 64.857 24.762C64.1943 25.0887 63.4057 25.252 62.491 25.252ZM62.491 23.992C63.0883 23.992 63.625 23.88 64.101 23.656C64.5863 23.432 64.997 23.1287 65.333 22.746C65.669 22.354 65.9257 21.9153 66.103 21.43C66.2803 20.9353 66.369 20.4173 66.369 19.876C66.369 19.3067 66.2803 18.7747 66.103 18.28C65.9257 17.7853 65.669 17.3513 65.333 16.978C64.997 16.5953 64.5863 16.2967 64.101 16.082C63.625 15.8673 63.0883 15.76 62.491 15.76C61.8937 15.76 61.3523 15.8673 60.867 16.082C60.391 16.2967 59.985 16.5953 59.649 16.978C59.313 17.3513 59.0563 17.7853 58.879 18.28C58.7017 18.7747 58.613 19.3067 58.613 19.876C58.613 20.4173 58.7017 20.9353 58.879 21.43C59.0563 21.9153 59.313 22.354 59.649 22.746C59.985 23.1287 60.391 23.432 60.867 23.656C61.3523 23.88 61.8937 23.992 62.491 23.992ZM69.6343 25V14.78H70.9783V25H69.6343ZM68.5983 15.844V14.78H70.9783V15.844H68.5983ZM76.4541 25.252C75.8008 25.252 75.2361 25.14 74.7601 24.916C74.2841 24.692 73.8968 24.398 73.5981 24.034C73.2995 23.6607 73.0755 23.2453 72.9261 22.788C72.7861 22.3307 72.7161 21.864 72.7161 21.388V21.136C72.7161 20.6507 72.7861 20.1793 72.9261 19.722C73.0755 19.2647 73.2995 18.854 73.5981 18.49C73.8968 18.1167 74.2748 17.8227 74.7321 17.608C75.1988 17.384 75.7448 17.272 76.3701 17.272C77.1821 17.272 77.8495 17.4493 78.3721 17.804C78.9041 18.1493 79.2961 18.5973 79.5481 19.148C79.8095 19.6987 79.9401 20.2867 79.9401 20.912V21.514H73.3041V20.506H78.9601L78.6521 21.052C78.6521 20.52 78.5681 20.0627 78.4001 19.68C78.2321 19.288 77.9801 18.9847 77.6441 18.77C77.3081 18.5553 76.8835 18.448 76.3701 18.448C75.8381 18.448 75.3948 18.5693 75.0401 18.812C74.6948 19.0547 74.4335 19.386 74.2561 19.806C74.0881 20.226 74.0041 20.7113 74.0041 21.262C74.0041 21.794 74.0881 22.2747 74.2561 22.704C74.4335 23.124 74.7041 23.46 75.0681 23.712C75.4321 23.9547 75.8941 24.076 76.4541 24.076C77.0421 24.076 77.5181 23.9453 77.8821 23.684C78.2555 23.4227 78.4795 23.1193 78.5541 22.774H79.8141C79.7115 23.2873 79.5061 23.7307 79.1981 24.104C78.8901 24.4773 78.5028 24.762 78.0361 24.958C77.5695 25.154 77.0421 25.252 76.4541 25.252ZM84.3964 27.912C84.0511 27.912 83.7011 27.898 83.3464 27.87C83.0011 27.842 82.6697 27.8047 82.3524 27.758V26.624C82.6884 26.6707 83.0384 26.708 83.4024 26.736C83.7757 26.7733 84.1257 26.792 84.4524 26.792C85.1337 26.792 85.6751 26.6987 86.0764 26.512C86.4871 26.3347 86.7811 26.05 86.9584 25.658C87.1451 25.2753 87.2384 24.7807 87.2384 24.174V22.746L87.6864 21.682C87.6584 22.438 87.4997 23.068 87.2104 23.572C86.9211 24.0667 86.5431 24.44 86.0764 24.692C85.6191 24.9347 85.1104 25.056 84.5504 25.056C84.0277 25.056 83.5471 24.958 83.1084 24.762C82.6791 24.5567 82.3057 24.2767 81.9884 23.922C81.6804 23.5673 81.4377 23.1613 81.2604 22.704C81.0924 22.2373 81.0084 21.7473 81.0084 21.234V20.982C81.0084 20.4593 81.0971 19.974 81.2744 19.526C81.4517 19.0687 81.6991 18.672 82.0164 18.336C82.3337 18 82.7117 17.7387 83.1504 17.552C83.5984 17.3653 84.0884 17.272 84.6204 17.272C85.2457 17.272 85.7964 17.4073 86.2724 17.678C86.7484 17.9393 87.1217 18.3267 87.3924 18.84C87.6724 19.344 87.8264 19.9647 87.8544 20.702L87.4624 20.716V17.524H88.5264V24.118C88.5264 25.014 88.3864 25.7373 88.1064 26.288C87.8357 26.848 87.3971 27.2587 86.7904 27.52C86.1931 27.7813 85.3951 27.912 84.3964 27.912ZM84.8024 23.824C85.2504 23.824 85.6564 23.726 86.0204 23.53C86.3937 23.334 86.6877 23.054 86.9024 22.69C87.1264 22.3167 87.2384 21.8733 87.2384 21.36V20.716C87.2384 20.212 87.1217 19.7873 86.8884 19.442C86.6644 19.0967 86.3704 18.8353 86.0064 18.658C85.6424 18.4807 85.2457 18.392 84.8164 18.392C84.3311 18.392 83.9017 18.504 83.5284 18.728C83.1551 18.952 82.8657 19.2693 82.6604 19.68C82.4551 20.0813 82.3524 20.5573 82.3524 21.108C82.3524 21.6587 82.4551 22.1393 82.6604 22.55C82.8751 22.9607 83.1644 23.278 83.5284 23.502C83.9017 23.7167 84.3264 23.824 84.8024 23.824ZM89.4203 26.848V25.84H97.4843V26.848H89.4203ZM105.131 25L100.973 20.226H99.4747L104.221 14.78H105.789L101.477 19.708L101.351 18.742L106.839 25H105.131ZM98.6907 25V14.78H100.063V25H98.6907ZM110.129 25.224C109.242 25.224 108.561 24.9347 108.085 24.356C107.609 23.7773 107.371 22.942 107.371 21.85V17.51H108.715V22.116C108.715 22.704 108.874 23.166 109.191 23.502C109.508 23.8287 109.938 23.992 110.479 23.992C111.039 23.992 111.496 23.8147 111.851 23.46C112.206 23.096 112.383 22.6013 112.383 21.976V17.51H113.727V25H112.663V21.794H112.831C112.831 22.5313 112.733 23.1567 112.537 23.67C112.341 24.174 112.047 24.5613 111.655 24.832C111.272 25.0933 110.782 25.224 110.185 25.224H110.129ZM115.574 25V23.502L119.648 18.616V18.84L119.424 18.504L119.606 18.588H115.518V17.524H120.838V19.022L116.764 23.908V23.712L117.016 24.062L116.82 23.936H121.062V25H115.574ZM122.606 25V17.524H123.67V20.73H123.502C123.502 20.002 123.595 19.386 123.782 18.882C123.978 18.3687 124.267 17.9767 124.65 17.706C125.033 17.4353 125.518 17.3 126.106 17.3H126.162C126.75 17.3 127.235 17.4353 127.618 17.706C128.01 17.9767 128.299 18.3687 128.486 18.882C128.673 19.386 128.766 20.002 128.766 20.73H128.374C128.374 20.002 128.472 19.386 128.668 18.882C128.864 18.3687 129.153 17.9767 129.536 17.706C129.928 17.4353 130.418 17.3 131.006 17.3H131.062C131.65 17.3 132.14 17.4353 132.532 17.706C132.924 17.9767 133.213 18.3687 133.4 18.882C133.596 19.386 133.694 20.002 133.694 20.73V25H132.35V20.436C132.35 19.8293 132.201 19.3627 131.902 19.036C131.603 18.7 131.188 18.532 130.656 18.532C130.105 18.532 129.662 18.7093 129.326 19.064C128.99 19.4093 128.822 19.8947 128.822 20.52V25H127.478V20.436C127.478 19.8293 127.329 19.3627 127.03 19.036C126.731 18.7 126.316 18.532 125.784 18.532C125.233 18.532 124.79 18.7093 124.454 19.064C124.118 19.4093 123.95 19.8947 123.95 20.52V25H122.606ZM136.239 25V17.524H137.583V25H136.239ZM135.091 18.588V17.524H137.583V18.588H135.091ZM136.617 16.32C136.318 16.32 136.094 16.2407 135.945 16.082C135.805 15.9233 135.735 15.7227 135.735 15.48C135.735 15.2373 135.805 15.0367 135.945 14.878C136.094 14.7193 136.318 14.64 136.617 14.64C136.915 14.64 137.135 14.7193 137.275 14.878C137.424 15.0367 137.499 15.2373 137.499 15.48C137.499 15.7227 137.424 15.9233 137.275 16.082C137.135 16.2407 136.915 16.32 136.617 16.32ZM139.901 25V17.524H140.965V20.73H140.797C140.797 19.9927 140.895 19.372 141.091 18.868C141.297 18.3547 141.605 17.9673 142.015 17.706C142.426 17.4353 142.944 17.3 143.569 17.3H143.625C144.568 17.3 145.263 17.594 145.711 18.182C146.169 18.77 146.397 19.6193 146.397 20.73V25H145.053V20.45C145.053 19.8713 144.89 19.4093 144.563 19.064C144.237 18.7093 143.789 18.532 143.219 18.532C142.631 18.532 142.155 18.714 141.791 19.078C141.427 19.442 141.245 19.9273 141.245 20.534V25H139.901ZM147.288 26.848V25.84H155.352V26.848H147.288ZM157.474 25L154.716 14.78H156.13L158.524 24.104L157.866 23.768H159.532L158.804 24.104L160.75 15.2H162.038L159.812 25H157.474ZM163.62 25L161.17 15.2H162.5L164.698 24.104L163.998 23.768H165.678L164.964 24.104L167.106 14.78H168.478L165.972 25H163.62ZM172.741 25.252C172.088 25.252 171.523 25.14 171.047 24.916C170.571 24.692 170.184 24.398 169.885 24.034C169.587 23.6607 169.363 23.2453 169.213 22.788C169.073 22.3307 169.003 21.864 169.003 21.388V21.136C169.003 20.6507 169.073 20.1793 169.213 19.722C169.363 19.2647 169.587 18.854 169.885 18.49C170.184 18.1167 170.562 17.8227 171.019 17.608C171.486 17.384 172.032 17.272 172.657 17.272C173.469 17.272 174.137 17.4493 174.659 17.804C175.191 18.1493 175.583 18.5973 175.835 19.148C176.097 19.6987 176.227 20.2867 176.227 20.912V21.514H169.591V20.506H175.247L174.939 21.052C174.939 20.52 174.855 20.0627 174.687 19.68C174.519 19.288 174.267 18.9847 173.931 18.77C173.595 18.5553 173.171 18.448 172.657 18.448C172.125 18.448 171.682 18.5693 171.327 18.812C170.982 19.0547 170.721 19.386 170.543 19.806C170.375 20.226 170.291 20.7113 170.291 21.262C170.291 21.794 170.375 22.2747 170.543 22.704C170.721 23.124 170.991 23.46 171.355 23.712C171.719 23.9547 172.181 24.076 172.741 24.076C173.329 24.076 173.805 23.9453 174.169 23.684C174.543 23.4227 174.767 23.1193 174.841 22.774H176.101C175.999 23.2873 175.793 23.7307 175.485 24.104C175.177 24.4773 174.79 24.762 174.323 24.958C173.857 25.154 173.329 25.252 172.741 25.252ZM181.804 25.252C181.188 25.252 180.637 25.1167 180.152 24.846C179.676 24.5753 179.298 24.1833 179.018 23.67C178.738 23.1473 178.584 22.522 178.556 21.794H178.92V25H177.856V14.78H179.2V19.75L178.724 20.772C178.761 19.96 178.924 19.2973 179.214 18.784C179.503 18.2707 179.881 17.8927 180.348 17.65C180.824 17.398 181.346 17.272 181.916 17.272C182.448 17.272 182.933 17.3747 183.372 17.58C183.81 17.776 184.188 18.0513 184.506 18.406C184.823 18.7513 185.066 19.1573 185.234 19.624C185.402 20.0813 185.486 20.576 185.486 21.108V21.36C185.486 21.892 185.397 22.3913 185.22 22.858C185.052 23.3247 184.804 23.74 184.478 24.104C184.151 24.4587 183.759 24.7387 183.302 24.944C182.854 25.1493 182.354 25.252 181.804 25.252ZM181.65 24.076C182.154 24.076 182.592 23.9547 182.966 23.712C183.339 23.4693 183.628 23.138 183.834 22.718C184.039 22.2887 184.142 21.794 184.142 21.234C184.142 20.674 184.034 20.184 183.82 19.764C183.614 19.344 183.325 19.022 182.952 18.798C182.578 18.5647 182.144 18.448 181.65 18.448C181.202 18.448 180.786 18.5507 180.404 18.756C180.021 18.952 179.713 19.2413 179.48 19.624C179.256 19.9973 179.144 20.45 179.144 20.982V21.626C179.144 22.1393 179.26 22.578 179.494 22.942C179.727 23.306 180.035 23.586 180.418 23.782C180.8 23.978 181.211 24.076 181.65 24.076Z" fill="black"/>
</svg>
