<svg width="266" height="46" viewBox="0 0 266 46" fill="none" xmlns="http://www.w3.org/2000/svg">
<rect width="266" height="46" rx="4" fill="white"/>
<path d="M37.5337 13.1214L18.0282 20.6431C16.697 21.1778 16.7047 21.9203 17.784 22.2515L22.7918 23.8137L34.3785 16.5033C34.9264 16.1699 35.4269 16.3492 35.0155 16.7145L25.628 25.1867H25.6258L25.628 25.1878L25.2825 30.3496C25.7886 30.3496 26.0119 30.1175 26.2958 29.8436L28.7282 27.4783L33.7877 31.2154C34.7206 31.7292 35.3906 31.4652 35.6227 30.3518L38.9441 14.699C39.284 13.336 38.4237 12.7188 37.5337 13.1214Z" fill="black"/>
<path d="M59.78 29.916C58.916 29.916 58.116 29.772 57.38 29.484C56.652 29.204 56.02 28.8 55.484 28.272C54.948 27.752 54.532 27.132 54.236 26.412C53.94 25.684 53.792 24.88 53.792 24C53.792 23.152 53.936 22.364 54.224 21.636C54.512 20.908 54.92 20.272 55.448 19.728C55.984 19.184 56.624 18.76 57.368 18.456C58.112 18.152 58.936 18 59.84 18C60.632 18 61.38 18.116 62.084 18.348C62.788 18.572 63.412 18.908 63.956 19.356C64.5 19.796 64.924 20.344 65.228 21C65.54 21.648 65.696 22.4 65.696 23.256C65.696 23.96 65.588 24.588 65.372 25.14C65.156 25.692 64.856 26.128 64.472 26.448C64.096 26.768 63.656 26.928 63.152 26.928C62.776 26.928 62.452 26.848 62.18 26.688C61.908 26.528 61.696 26.308 61.544 26.028C61.4 25.74 61.328 25.412 61.328 25.044V24.3H61.676C61.652 24.868 61.528 25.34 61.304 25.716C61.088 26.092 60.804 26.372 60.452 26.556C60.108 26.74 59.732 26.832 59.324 26.832C58.836 26.832 58.396 26.712 58.004 26.472C57.62 26.224 57.316 25.892 57.092 25.476C56.868 25.06 56.756 24.588 56.756 24.06V23.868C56.756 23.34 56.872 22.872 57.104 22.464C57.336 22.056 57.648 21.736 58.04 21.504C58.44 21.272 58.884 21.156 59.372 21.156C59.812 21.156 60.208 21.252 60.56 21.444C60.912 21.636 61.196 21.912 61.412 22.272C61.636 22.632 61.76 23.072 61.784 23.592H61.352V21.324H62.288V25.02C62.288 25.244 62.324 25.428 62.396 25.572C62.476 25.716 62.58 25.824 62.708 25.896C62.836 25.96 62.976 25.992 63.128 25.992C63.4 25.992 63.652 25.884 63.884 25.668C64.116 25.444 64.304 25.132 64.448 24.732C64.592 24.332 64.664 23.856 64.664 23.304C64.664 22.576 64.536 21.94 64.28 21.396C64.032 20.852 63.684 20.4 63.236 20.04C62.788 19.68 62.272 19.412 61.688 19.236C61.112 19.052 60.5 18.96 59.852 18.96C59.084 18.96 58.388 19.088 57.764 19.344C57.148 19.6 56.62 19.96 56.18 20.424C55.74 20.88 55.404 21.416 55.172 22.032C54.94 22.64 54.824 23.3 54.824 24.012C54.824 24.988 55.032 25.848 55.448 26.592C55.864 27.328 56.444 27.9 57.188 28.308C57.94 28.724 58.804 28.932 59.78 28.932C60.036 28.932 60.284 28.916 60.524 28.884C60.764 28.86 60.996 28.82 61.22 28.764V29.76C60.996 29.808 60.764 29.844 60.524 29.868C60.284 29.9 60.036 29.916 59.78 29.916ZM59.528 25.92C59.84 25.92 60.128 25.848 60.392 25.704C60.664 25.56 60.88 25.348 61.04 25.068C61.2 24.788 61.28 24.448 61.28 24.048V23.736C61.28 23.36 61.196 23.052 61.028 22.812C60.86 22.564 60.644 22.38 60.38 22.26C60.116 22.132 59.832 22.068 59.528 22.068C59.184 22.068 58.88 22.148 58.616 22.308C58.36 22.46 58.16 22.68 58.016 22.968C57.88 23.248 57.812 23.58 57.812 23.964C57.812 24.348 57.884 24.688 58.028 24.984C58.172 25.28 58.372 25.512 58.628 25.68C58.884 25.84 59.184 25.92 59.528 25.92ZM71.4208 27.216C70.6368 27.216 69.9608 27.076 69.3928 26.796C68.8248 26.516 68.3568 26.148 67.9888 25.692C67.6208 25.236 67.3448 24.748 67.1608 24.228C66.9848 23.708 66.8968 23.208 66.8968 22.728V22.464C66.8968 21.944 66.9888 21.42 67.1728 20.892C67.3568 20.364 67.6368 19.884 68.0128 19.452C68.3888 19.012 68.8568 18.66 69.4168 18.396C69.9848 18.132 70.6528 18 71.4208 18C72.1888 18 72.8528 18.132 73.4128 18.396C73.9808 18.66 74.4528 19.012 74.8288 19.452C75.2048 19.884 75.4848 20.364 75.6688 20.892C75.8528 21.42 75.9448 21.944 75.9448 22.464V22.728C75.9448 23.208 75.8528 23.708 75.6688 24.228C75.4928 24.748 75.2208 25.236 74.8528 25.692C74.4848 26.148 74.0168 26.516 73.4488 26.796C72.8808 27.076 72.2048 27.216 71.4208 27.216ZM71.4208 26.136C71.9328 26.136 72.3928 26.04 72.8008 25.848C73.2168 25.656 73.5688 25.396 73.8568 25.068C74.1448 24.732 74.3648 24.356 74.5168 23.94C74.6688 23.516 74.7448 23.072 74.7448 22.608C74.7448 22.12 74.6688 21.664 74.5168 21.24C74.3648 20.816 74.1448 20.444 73.8568 20.124C73.5688 19.796 73.2168 19.54 72.8008 19.356C72.3928 19.172 71.9328 19.08 71.4208 19.08C70.9088 19.08 70.4448 19.172 70.0288 19.356C69.6208 19.54 69.2728 19.796 68.9848 20.124C68.6968 20.444 68.4768 20.816 68.3248 21.24C68.1728 21.664 68.0968 22.12 68.0968 22.608C68.0968 23.072 68.1728 23.516 68.3248 23.94C68.4768 24.356 68.6968 24.732 68.9848 25.068C69.2728 25.396 69.6208 25.656 70.0288 25.848C70.4448 26.04 70.9088 26.136 71.4208 26.136ZM77.5437 27V18.24H78.6957V27H77.5437ZM76.6557 19.152V18.24H78.6957V19.152H76.6557ZM83.3893 27.216C82.8293 27.216 82.3453 27.12 81.9373 26.928C81.5293 26.736 81.1973 26.484 80.9413 26.172C80.6853 25.852 80.4933 25.496 80.3653 25.104C80.2453 24.712 80.1853 24.312 80.1853 23.904V23.688C80.1853 23.272 80.2453 22.868 80.3653 22.476C80.4933 22.084 80.6853 21.732 80.9413 21.42C81.1973 21.1 81.5213 20.848 81.9133 20.664C82.3133 20.472 82.7813 20.376 83.3173 20.376C84.0133 20.376 84.5853 20.528 85.0333 20.832C85.4893 21.128 85.8253 21.512 86.0413 21.984C86.2653 22.456 86.3773 22.96 86.3773 23.496V24.012H80.6893V23.148H85.5373L85.2733 23.616C85.2733 23.16 85.2013 22.768 85.0573 22.44C84.9133 22.104 84.6973 21.844 84.4093 21.66C84.1213 21.476 83.7573 21.384 83.3173 21.384C82.8613 21.384 82.4813 21.488 82.1773 21.696C81.8813 21.904 81.6573 22.188 81.5053 22.548C81.3613 22.908 81.2893 23.324 81.2893 23.796C81.2893 24.252 81.3613 24.664 81.5053 25.032C81.6573 25.392 81.8893 25.68 82.2013 25.896C82.5133 26.104 82.9093 26.208 83.3893 26.208C83.8933 26.208 84.3013 26.096 84.6133 25.872C84.9333 25.648 85.1253 25.388 85.1893 25.092H86.2693C86.1813 25.532 86.0053 25.912 85.7413 26.232C85.4773 26.552 85.1453 26.796 84.7453 26.964C84.3453 27.132 83.8933 27.216 83.3893 27.216ZM90.1969 29.496C89.9009 29.496 89.6009 29.484 89.2969 29.46C89.0009 29.436 88.7169 29.404 88.4449 29.364V28.392C88.7329 28.432 89.0329 28.464 89.3449 28.488C89.6649 28.52 89.9649 28.536 90.2449 28.536C90.8289 28.536 91.2929 28.456 91.6369 28.296C91.9889 28.144 92.2409 27.9 92.3929 27.564C92.5529 27.236 92.6329 26.812 92.6329 26.292V25.068L93.0169 24.156C92.9929 24.804 92.8569 25.344 92.6089 25.776C92.3609 26.2 92.0369 26.52 91.6369 26.736C91.2449 26.944 90.8089 27.048 90.3289 27.048C89.8809 27.048 89.4689 26.964 89.0929 26.796C88.7249 26.62 88.4049 26.38 88.1329 26.076C87.8689 25.772 87.6609 25.424 87.5089 25.032C87.3649 24.632 87.2929 24.212 87.2929 23.772V23.556C87.2929 23.108 87.3689 22.692 87.5209 22.308C87.6729 21.916 87.8849 21.576 88.1569 21.288C88.4289 21 88.7529 20.776 89.1289 20.616C89.5129 20.456 89.9329 20.376 90.3889 20.376C90.9249 20.376 91.3969 20.492 91.8049 20.724C92.2129 20.948 92.5329 21.28 92.7649 21.72C93.0049 22.152 93.1369 22.684 93.1609 23.316L92.8249 23.328V20.592H93.7369V26.244C93.7369 27.012 93.6169 27.632 93.3769 28.104C93.1449 28.584 92.7689 28.936 92.2489 29.16C91.7369 29.384 91.0529 29.496 90.1969 29.496ZM90.5449 25.992C90.9289 25.992 91.2769 25.908 91.5889 25.74C91.9089 25.572 92.1609 25.332 92.3449 25.02C92.5369 24.7 92.6329 24.32 92.6329 23.88V23.328C92.6329 22.896 92.5329 22.532 92.3329 22.236C92.1409 21.94 91.8889 21.716 91.5769 21.564C91.2649 21.412 90.9249 21.336 90.5569 21.336C90.1409 21.336 89.7729 21.432 89.4529 21.624C89.1329 21.816 88.8849 22.088 88.7089 22.44C88.5329 22.784 88.4449 23.192 88.4449 23.664C88.4449 24.136 88.5329 24.548 88.7089 24.9C88.8929 25.252 89.1409 25.524 89.4529 25.716C89.7729 25.9 90.1369 25.992 90.5449 25.992ZM94.5031 28.584V27.72H101.415V28.584H94.5031ZM107.969 27L104.405 22.908H103.121L107.189 18.24H108.533L104.837 22.464L104.729 21.636L109.433 27H107.969ZM102.449 27V18.24H103.625V27H102.449ZM112.253 27.192C111.493 27.192 110.909 26.944 110.501 26.448C110.093 25.952 109.889 25.236 109.889 24.3V20.58H111.041V24.528C111.041 25.032 111.177 25.428 111.449 25.716C111.721 25.996 112.089 26.136 112.553 26.136C113.033 26.136 113.425 25.984 113.729 25.68C114.033 25.368 114.185 24.944 114.185 24.408V20.58H115.337V27H114.425V24.252H114.569C114.569 24.884 114.485 25.42 114.317 25.86C114.149 26.292 113.897 26.624 113.561 26.856C113.233 27.08 112.813 27.192 112.301 27.192H112.253ZM116.921 27V25.716L120.413 21.528V21.72L120.221 21.432L120.377 21.504H116.873V20.592H121.433V21.876L117.941 26.064V25.896L118.157 26.196L117.989 26.088H121.625V27H116.921ZM122.948 27V20.592H123.86V23.34H123.716C123.716 22.716 123.796 22.188 123.956 21.756C124.124 21.316 124.372 20.98 124.7 20.748C125.028 20.516 125.444 20.4 125.948 20.4H125.996C126.5 20.4 126.916 20.516 127.244 20.748C127.58 20.98 127.828 21.316 127.988 21.756C128.148 22.188 128.228 22.716 128.228 23.34H127.892C127.892 22.716 127.976 22.188 128.144 21.756C128.312 21.316 128.56 20.98 128.888 20.748C129.224 20.516 129.644 20.4 130.148 20.4H130.196C130.7 20.4 131.12 20.516 131.456 20.748C131.792 20.98 132.04 21.316 132.2 21.756C132.368 22.188 132.452 22.716 132.452 23.34V27H131.3V23.088C131.3 22.568 131.172 22.168 130.916 21.888C130.66 21.6 130.304 21.456 129.848 21.456C129.376 21.456 128.996 21.608 128.708 21.912C128.42 22.208 128.276 22.624 128.276 23.16V27H127.124V23.088C127.124 22.568 126.996 22.168 126.74 21.888C126.484 21.6 126.128 21.456 125.672 21.456C125.2 21.456 124.82 21.608 124.532 21.912C124.244 22.208 124.1 22.624 124.1 23.16V27H122.948ZM134.633 27V20.592H135.785V27H134.633ZM133.649 21.504V20.592H135.785V21.504H133.649ZM134.957 19.56C134.701 19.56 134.509 19.492 134.381 19.356C134.261 19.22 134.201 19.048 134.201 18.84C134.201 18.632 134.261 18.46 134.381 18.324C134.509 18.188 134.701 18.12 134.957 18.12C135.213 18.12 135.401 18.188 135.521 18.324C135.649 18.46 135.713 18.632 135.713 18.84C135.713 19.048 135.649 19.22 135.521 19.356C135.401 19.492 135.213 19.56 134.957 19.56ZM137.773 27V20.592H138.685V23.34H138.541C138.541 22.708 138.625 22.176 138.793 21.744C138.969 21.304 139.233 20.972 139.585 20.748C139.937 20.516 140.381 20.4 140.917 20.4H140.965C141.773 20.4 142.369 20.652 142.753 21.156C143.145 21.66 143.341 22.388 143.341 23.34V27H142.189V23.1C142.189 22.604 142.049 22.208 141.769 21.912C141.489 21.608 141.105 21.456 140.617 21.456C140.113 21.456 139.705 21.612 139.393 21.924C139.081 22.236 138.925 22.652 138.925 23.172V27H137.773ZM144.104 28.584V27.72H151.016V28.584H144.104ZM152.834 27L150.47 18.24H151.682L153.734 26.232L153.17 25.944H154.598L153.974 26.232L155.642 18.6H156.746L154.838 27H152.834ZM158.102 27L156.002 18.6H157.142L159.026 26.232L158.426 25.944H159.866L159.254 26.232L161.09 18.24H162.266L160.118 27H158.102ZM165.921 27.216C165.361 27.216 164.877 27.12 164.469 26.928C164.061 26.736 163.729 26.484 163.473 26.172C163.217 25.852 163.025 25.496 162.897 25.104C162.777 24.712 162.717 24.312 162.717 23.904V23.688C162.717 23.272 162.777 22.868 162.897 22.476C163.025 22.084 163.217 21.732 163.473 21.42C163.729 21.1 164.053 20.848 164.445 20.664C164.845 20.472 165.313 20.376 165.849 20.376C166.545 20.376 167.117 20.528 167.565 20.832C168.021 21.128 168.357 21.512 168.573 21.984C168.797 22.456 168.909 22.96 168.909 23.496V24.012H163.221V23.148H168.069L167.805 23.616C167.805 23.16 167.733 22.768 167.589 22.44C167.445 22.104 167.229 21.844 166.941 21.66C166.653 21.476 166.289 21.384 165.849 21.384C165.393 21.384 165.013 21.488 164.709 21.696C164.413 21.904 164.189 22.188 164.037 22.548C163.893 22.908 163.821 23.324 163.821 23.796C163.821 24.252 163.893 24.664 164.037 25.032C164.189 25.392 164.421 25.68 164.733 25.896C165.045 26.104 165.441 26.208 165.921 26.208C166.425 26.208 166.833 26.096 167.145 25.872C167.465 25.648 167.657 25.388 167.721 25.092H168.801C168.713 25.532 168.537 25.912 168.273 26.232C168.009 26.552 167.677 26.796 167.277 26.964C166.877 27.132 166.425 27.216 165.921 27.216ZM173.689 27.216C173.161 27.216 172.689 27.1 172.273 26.868C171.865 26.636 171.541 26.3 171.301 25.86C171.061 25.412 170.929 24.876 170.905 24.252H171.217V27H170.305V18.24H171.457V22.5L171.049 23.376C171.081 22.68 171.221 22.112 171.469 21.672C171.717 21.232 172.041 20.908 172.441 20.7C172.849 20.484 173.297 20.376 173.785 20.376C174.241 20.376 174.657 20.464 175.033 20.64C175.409 20.808 175.733 21.044 176.005 21.348C176.277 21.644 176.485 21.992 176.629 22.392C176.773 22.784 176.845 23.208 176.845 23.664V23.88C176.845 24.336 176.769 24.764 176.617 25.164C176.473 25.564 176.261 25.92 175.981 26.232C175.701 26.536 175.365 26.776 174.973 26.952C174.589 27.128 174.161 27.216 173.689 27.216ZM173.557 26.208C173.989 26.208 174.365 26.104 174.685 25.896C175.005 25.688 175.253 25.404 175.429 25.044C175.605 24.676 175.693 24.252 175.693 23.772C175.693 23.292 175.601 22.872 175.417 22.512C175.241 22.152 174.993 21.876 174.673 21.684C174.353 21.484 173.981 21.384 173.557 21.384C173.173 21.384 172.817 21.472 172.489 21.648C172.161 21.816 171.897 22.064 171.697 22.392C171.505 22.712 171.409 23.1 171.409 23.556V24.108C171.409 24.548 171.509 24.924 171.709 25.236C171.909 25.548 172.173 25.788 172.501 25.956C172.829 26.124 173.181 26.208 173.557 26.208Z" fill="black"/>
</svg>
